;TYPE=PLATED
;Layer: PTH_Through
;EasyEDA Pro v3.2.149.88089769, 2026-09-01 22:31:21
;Gerber Generator version 0.3
M48
METRIC,LZ,0000.00000
;Hole size 1 = 0.20320 METRIC
T01C0.20320
;Hole size 2 = 0.30480 METRIC
T02C0.30480
;Hole size 3 = 0.30500 METRIC
T03C0.30500
;Hole size 4 = 0.50038 METRIC
T04C0.50038
;Hole size 5 = 0.60000 METRIC
T05C0.60000
;Hole size 6 = 0.70002 METRIC
T06C0.70002
;Hole size 7 = 1.00000 METRIC
T07C1.00000
;Hole size 8 = 1.10000 METRIC
T08C1.10000
;Hole size 9 = 1.10002 METRIC
T09C1.10002
;Hole size 10 = 1.20000 METRIC
T10C1.20000
;Hole size 11 = 1.60000 METRIC
T11C1.60000
;Hole size 12 = 3.30200 METRIC
T12C3.30200
%
G05
G90
T01
X-14.50291Y-7.89967
X-13.85564Y-8.54693
X-12.56111Y-9.84146
X-11.34848Y-11.05409
X-16.13064Y-7.88558
X-11.37982Y-11.97266
X-12.27177Y-12.8646
X-13.07893Y-13.62502
X-13.96786Y-14.5607
X-16.36639Y-15.37767
X-14.78483Y-15.37767
X-17.48104Y-16.35804
X-18.50639Y-15.44104
X-18.25969Y-13.46587
X-19.05132Y-12.67424
X-19.05132Y-10.77979
X-17.01745Y-8.74592
X-17.91658Y-9.64505
X-13.07753Y-20.61894
X-12.05092Y-21.66174
X-10.2177Y-21.05198
X-9.3183Y-21.95138
X-7.71071Y-21.95138
X-6.86777Y-21.10844
X-6.86777Y-20.20702
X-5.98538Y-19.32462
X-5.98538Y-18.53734
X-6.88552Y-17.6372
X-7.86831Y-16.65441
X-8.54274Y-15.97999
X-9.4991Y-15.97999
X-10.43433Y-16.91522
X-11.41218Y-16.91522
X-12.24815Y-17.84946
X-12.20569Y-19.7471
X-71.56566Y-7.87481
X-73.62686Y-7.37905
X-67.97232Y-8.57111
X-68.01459Y-6.70065
X-64.98301Y-7.59861
X-64.98301Y-6.64865
X-64.98301Y-8.54857
X-62.14135Y-16.22266
X-64.14919Y-16.46242
X-67.37571Y-23.01888
X-67.37571Y-25.87071
X-61.93539Y-23.35553
X-62.00842Y-27.4151
X-59.53303Y-21.13812
X-59.50484Y-25.58707
X-67.50634Y-18.76266
X-62.70143Y-19.78961
X-61.92592Y-19.78961
X-61.15041Y-19.78961
X-61.15041Y-20.39538
X-61.92592Y-20.39538
X-62.70143Y-20.39538
X-56.59005Y0.96208
X-56.59005Y0.1202
X-53.1145Y-6.84421
X-57.1883Y-7.04667
X-56.18329Y-1.62275
X-54.09849Y-1.62275
X-55.88056Y0.96208
X-55.88056Y0.1202
X-56.32576Y-8.80896
X-57.18885Y-5.04668
X-54.32577Y-8.81292
X-59.25542Y-8.06956
X-62.67456Y1.74145
X-59.71222Y-5.38651
X-63.84492Y4.47317
X-36.18723Y-4.35406
X-58.70602Y-4.64007
X-35.53641Y-3.87115
X-58.62938Y-3.89726
X-36.70533Y-25.22167
X-35.33079Y-25.09458
X-28.05739Y-25.61239
X-27.57795Y-25.15559
X-26.96208Y-25.12545
X-26.32078Y-25.12074
X-25.68532Y-25.11018
X-24.59106Y-32.04053
X-24.13426Y-31.58373
X-23.67746Y-31.12693
X-15.64531Y-26.64424
X-15.66091Y-27.39737
X-10.15693Y-34.67325
X-9.7756Y-34.19895
X-9.40959Y-33.71195
X-9.05569Y-33.21609
X-9.65298Y-32.75929
X-9.18293Y-32.30249
X-34.88659Y-36.00296
X-49.0711Y-38.29015
X-47.8641Y-20.54448
X-44.21447Y-20.59671
X-35.67195Y-36.08104
X-48.59702Y-37.83335
X-47.4073Y-21.3965
X-44.21447Y-21.37038
X-31.01043Y-34.24795
X-51.00167Y-34.20918
X-51.8801Y-23.49941
X-55.45192Y-23.7782
X-38.2943Y-37.28918
X-50.20436Y-37.3425
X-38.15366Y-36.44161
X-42.35428Y-36.36326
X-38.10904Y-35.68971
X-42.79367Y-35.78837
X-40.62571Y-33.73796
X-53.64701Y-33.73796
X-40.62571Y-33.09251
X-53.64701Y-33.09251
X-40.62571Y-32.46781
X-53.64701Y-32.46248
X-22.39826Y-36.09329
X-47.53458Y-38.74696
X-21.78906Y-36.10768
X-48.14378Y-38.74696
X-32.83411Y-28.36223
X-44.10709Y-30.99117
X-33.37622Y-28.04281
X-42.76541Y-30.51823
X-33.86343Y-27.66848
X-42.28228Y-30.04163
X-34.88025Y-27.15963
X-41.78524Y-29.56684
X-38.51676Y-22.01924
X-38.55006Y-22.66965
X-35.85526Y-18.91146
X-51.68572Y-19.1141
X-34.73583Y-18.79002
X-44.12965Y-19.75034
X-34.77352Y-17.14681
X-52.14252Y-18.66035
X-34.09167Y-17.18265
X-52.60727Y-18.18521
X-33.50338Y-16.47891
X-53.10812Y-17.75488
X-33.16216Y-15.95859
X-53.52266Y-17.30787
X-27.41888Y-22.71022
X-44.16512Y-22.9633
X-25.15603Y-24.64537
X-44.04181Y-24.59097
X-29.59214Y-13.23993
X-56.74917Y-14.57829
X-28.92581Y-13.21962
X-56.39294Y-15.0836
X-23.59166Y-32.52323
X-53.62278Y-31.45751
X-20.47279Y-24.23042
X-20.02098Y-23.82068
X-19.60182Y-23.3783
X-19.1451Y-22.97348
X-18.7064Y-22.55065
X-18.25828Y-22.13723
X-42.697Y-18.45466
X-44.08148Y-18.16755
X-54.0465Y-16.5284
X-55.71825Y-17.38785
X-17.03954Y-30.67216
X-35.89979Y-26.61738
X-16.66201Y-30.18815
X-36.02179Y-26.00818
X-42.85009Y-23.1023
X-44.08332Y-23.75617
X-42.39329Y-25.38579
X-50.78772Y-25.19832
X-53.56058Y-25.8259
X-53.56058Y-26.60937
X-16.03499Y-29.71359
X-42.31698Y-23.86122
X-7.63446Y-40.94012
X-7.62884Y-41.62309
X-49.64803Y-41.63448
X-49.74597Y-25.87144
X-45.70243Y-25.88233
X-52.91905Y-42.12961
X-24.65561Y-14.43303
X-24.37981Y-15.01877
X2.91601Y5.07656
X5.50143Y1.98633
X-43.97365Y-16.55641
X-33.13617Y-8.03616
X-36.20037Y-8.03616
X-33.13525Y-9.53603
X-35.52137Y-9.53603
X-39.27513Y-9.08211
X-39.73193Y-8.5393
X-21.98724Y-10.737
X-21.55054Y-11.17545
X-7.52708Y-6.46967
X-7.88179Y-6.9765
X-10.00917Y-47.94509
X-4.21717Y-47.90436
X-10.40949Y-48.40631
X-4.28681Y-48.56522
X-32.66486Y-44.01126
X-33.12166Y-44.46806
X-5.59165Y-43.73368
X-5.15748Y-44.19049
X-44.69228Y-42.72924
X-43.03489Y-43.99924
X-6.52548Y-43.06496
X-8.39667Y-24.95216
X-10.72337Y-24.91892
X-35.48945Y-27.07418
X-41.23505Y-28.99025
X-45.49672Y-17.89043
X-16.88413Y-18.23565
X-28.80852Y-24.68884
X-28.79808Y-29.63562
X-24.38851Y-37.01431
X-24.31019Y-37.62351
X-24.36786Y-38.23272
X-24.30811Y-38.84192
X-50.94266Y-39.5536
X-45.27448Y-40.08933
X-51.88236Y-40.57636
X-50.44172Y-41.03316
X-48.2126Y-49.21818
X-54.20342Y-36.56332
X-55.43722Y-26.16329
X-55.43722Y-15.76326
X-30.70265Y-2.04972
X-33.04392Y-2.04972
X-31.93201Y-13.67047
X-48.38518Y-12.49566
X-27.90731Y-12.10043
X-49.11703Y-11.56466
X-13.08716Y-39.64728
X16.48919Y-40.17518
X16.48919Y-0.36756
X-50.53833Y-5.05726
X-13.63764Y-41.2183
X15.74717Y-40.7715
X15.74717Y-0.97594
X-50.5717Y-6.55758
X-24.1766Y-11.56999
X-31.15946Y-11.58206
X-11.2899Y-23.71996
X-4.82562Y-23.71996
X-11.77843Y-23.13397
X-5.31509Y-23.13397
X-27.06346Y-49.52624
X-22.92249Y-49.51276
X-21.931Y-35.12343
X-17.32173Y-41.27587
X-7.62821Y-50.27357
X-71.18757Y-51.0995
X-10.48658Y-51.97252
X-70.63719Y-50.74557
X-24.70846Y-39.30091
X-24.69639Y-41.27497
X-24.88948Y-52.86608
X-31.69553Y-52.51245
X-24.00901Y-52.44151
X-41.2447Y-27.85472
X-58.53398Y-28.96175
X-40.9461Y-28.41766
X-58.93839Y-29.41888
X-21.35298Y-13.55765
X-32.34658Y-51.59395
X-53.83825Y-51.59395
X-32.33425Y-52.2889
X-54.29911Y-52.2889
X-34.33677Y-23.09124
X-36.9932Y-20.43061
X-36.91741Y-1.16644
X-3.27817Y6.7314
X-40.13649Y-23.91263
X-41.39908Y-25.76459
X-36.89685Y-25.85347
X-28.77677Y-41.20683
X-26.48993Y-41.43941
X-20.50053Y1.15318
X-19.62899Y1.15318
X-19.62899Y0.37228
X-20.50053Y0.37228
X-51.96417Y-11.03616
X-9.99075Y-1.65932
X-9.99075Y-5.37798
X-11.02041Y-1.65932
X-11.02041Y-5.37798
X-12.05008Y-5.37798
X-13.07975Y-5.37798
X-14.10942Y-5.37798
X-9.90232Y-8.72294
X-10.93198Y-8.72294
X-9.90232Y-7.48338
X-10.93198Y-7.48338
X-11.96166Y-7.48338
X-26.46333Y-14.95743
X-25.66785Y-12.34076
X-12.25563Y-27.07292
X-15.84323Y-25.84567
X-18.28171Y-21.07646
X-15.50314Y-18.74065
X-15.67317Y-23.93319
X-20.20611Y-14.66087
X-20.47676Y-18.58307
X-23.80904Y-15.83112
X-31.08175Y-20.06962
X-30.50322Y-18.85778
X-28.94871Y-20.77858
X-38.20344Y-19.45222
X-36.16692Y-20.61089
X-37.87231Y-21.50467
X-46.07754Y-35.33541
X-46.68482Y-36.71661
X-42.67794Y-32.35749
X-56.66003Y-32.56333
X-56.6392Y-30.16328
X-51.4669Y-30.15668
X-56.53986Y-27.76324
X-46.23428Y-27.97401
X-42.81172Y-27.76324
X-46.12002Y-16.55641
X-41.19506Y-17.23013
X-70.91368Y-7.08512
X-70.18421Y-7.83608
X-70.24652Y-9.38713
X-30.60496Y-34.8193
X-28.66935Y-35.0949
X-26.59632Y-35.0981
X-33.82223Y-30.90221
X-31.67091Y-30.14172
X-36.7625Y-33.13425
X-40.33689Y-28.39317
X-28.27543Y-41.75982
X-14.85659Y-34.34251
X-18.11464Y-32.52323
X-12.66513Y-36.75133
X-18.44958Y-38.16503
X-16.34412Y-40.6262
X-20.99888Y-35.30408
X-16.39426Y4.64955
X-14.63052Y4.64955
X-12.86678Y4.64955
X-14.65789Y3.06286
X-16.42163Y3.06286
X-12.89415Y3.06286
X-11.13041Y3.06286
X-9.3393Y4.64955
X-7.57556Y4.64955
X-7.57556Y2.88581
X-69.59376Y-28.95174
X-67.81576Y-28.95174
X-66.03776Y-28.95174
X-64.25976Y-28.95174
X-69.59376Y-30.72974
X-67.81576Y-30.72974
X-66.03776Y-30.72974
X-64.25976Y-30.72974
X-69.59376Y-32.50774
X-67.81576Y-32.50774
X-66.03776Y-32.50774
X-64.25976Y-32.50774
X-62.80711Y-31.34953
X-61.02911Y-31.34953
X-59.25111Y-31.34953
X-62.80711Y-33.12753
X-61.02911Y-33.12753
X-59.25111Y-33.12753
X16.14921Y-45.67603
X17.92721Y-45.67603
X16.14921Y-47.45403
X17.92721Y-47.45403
X16.14921Y-49.23203
X17.92721Y-49.23203
X-78.03601Y-33.12206
X-76.25801Y-33.12206
X-74.48001Y-33.12206
X-78.03601Y-31.34406
X-76.25801Y-31.34406
X-74.48001Y-31.34406
X-77.61947Y-39.2648
X-75.84147Y-39.2648
X-74.06347Y-39.2648
X-77.51342Y-45.33273
X-75.73542Y-45.33273
X-73.95742Y-45.33273
X-77.51873Y-51.87019
X-75.74073Y-51.87019
X-73.96273Y-51.87019
X-65.44892Y-48.75522
X-67.22692Y-48.75522
X-69.00492Y-48.75522
X-70.69448Y-42.48817
X-70.69448Y-40.71017
X-54.39853Y-43.49649
X-54.39853Y-41.71849
X-54.39853Y-39.94049
X-56.17653Y-43.49649
X-56.17653Y-41.71849
X-56.17653Y-39.94049
X-46.05048Y-50.49697
X-44.27248Y-50.49697
X-42.49448Y-50.49697
X-46.05048Y-48.71897
X-44.27248Y-48.71897
X-42.49448Y-48.71897
X-26.87945Y-47.34525
X-26.87945Y-45.82125
X-28.65745Y-48.86925
X-28.65745Y-47.34525
X-28.65745Y-45.82125
X-32.64953Y-49.36412
X-32.64953Y-47.58612
X-32.64953Y-45.80812
X-15.02911Y-50.74089
X-15.02911Y-48.96289
X-15.02911Y-47.18489
X-16.80711Y-50.74089
X-16.80711Y-48.96289
X-16.80711Y-47.18489
X-3.8577Y-43.01575
X-2.0797Y-43.01575
X-0.3017Y-43.01575
X-3.8577Y-41.23775
X-2.0797Y-41.23775
X-0.3017Y-41.23775
X2.2826Y-51.13066
X4.0606Y-51.13066
X5.8386Y-51.13066
X10.78663Y-41.72379
X12.56463Y-41.72379
X14.34263Y-41.72379
X14.37121Y-45.67603
X14.37121Y-47.45403
X14.37121Y-49.23203
X16.12063Y-41.72379
X17.89863Y-41.72379
X1.4763Y-43.01575
X3.2543Y-43.01575
X1.4763Y-41.23775
X3.2543Y-41.23775
X-1.30781Y-21.95711
X0.47019Y-21.95711
X2.24819Y-21.95711
X-1.30781Y-20.17911
X0.47019Y-20.17911
X2.24819Y-20.17911
X4.02619Y-21.95711
X5.80419Y-21.95711
X4.02619Y-20.17911
X5.80419Y-20.17911
X7.58219Y-21.95711
X9.36019Y-21.95711
X7.58219Y-20.17911
X9.36019Y-20.17911
X0.47019Y-23.73511
X0.47019Y-25.51311
X2.24819Y-23.73511
X2.24819Y-25.51311
X14.74157Y-36.20942
X14.74157Y-34.43142
X14.74157Y-32.65342
X14.74157Y-37.98742
X17.6259Y-36.20942
X17.6259Y-34.43142
X17.6259Y-32.65342
X17.6259Y-37.98742
X14.86882Y-27.4475
X14.86882Y-25.6695
X14.86882Y-23.8915
X14.86882Y-29.2255
X17.71073Y-27.4475
X17.71073Y-25.6695
X17.71073Y-23.8915
X17.71073Y-29.2255
X14.93509Y-15.51058
X14.93509Y-13.73258
X14.93509Y-11.95458
X14.93509Y-17.28858
X17.81942Y-15.51058
X17.81942Y-13.73258
X17.81942Y-11.95458
X17.81942Y-17.28858
X14.7018Y-6.74866
X14.7018Y-4.97066
X14.7018Y-3.19266
X14.7018Y-8.52666
X17.7558Y-6.74866
X17.7558Y-4.97066
X17.7558Y-3.19266
X17.7558Y-8.52666
X14.79584Y-21.51804
X14.79584Y-19.74004
X13.01784Y-21.51804
X13.01784Y-19.74004
X17.84008Y-21.51804
X17.84008Y-19.74004
X-70.87948Y-60.92304
X-72.65748Y-60.92304
X-68.98628Y-56.54575
X-67.20828Y-56.54575
X-65.43028Y-56.54575
X-68.98628Y-54.76775
X-67.20828Y-54.76775
X-65.43028Y-54.76775
X-62.45412Y-56.58817
X-60.67612Y-56.58817
X-58.89812Y-56.58817
X-62.45412Y-54.81017
X-60.67612Y-54.81017
X-58.89812Y-54.81017
X-68.98628Y-58.32375
X-67.20828Y-58.32375
X-65.43028Y-58.32375
X-62.45412Y-58.36617
X-60.67612Y-58.36617
X-58.89812Y-58.36617
X-55.34212Y-54.81017
X-57.12012Y-56.58817
X-55.34212Y-56.58817
X-57.12012Y-54.81017
X-57.12012Y-58.36617
X-55.34212Y-58.36617
X-2.89364Y-51.41907
X-4.67164Y-51.41907
X-6.44964Y-51.41907
X-62.91275Y-13.56251
X-61.13475Y-13.56251
X-59.35675Y-13.56251
X-62.91275Y-11.78451
X-61.13475Y-11.78451
X-59.35675Y-11.78451
X-69.11618Y-14.35781
X-67.33818Y-14.35781
X-65.56018Y-14.35781
X-69.11618Y-12.57981
X-67.33818Y-12.57981
X-65.56018Y-12.57981
X-56.53436Y-11.59363
X-54.75636Y-11.59363
X-52.97836Y-11.59363
X-67.9079Y-2.89118
X-66.1299Y-2.89118
X-64.3519Y-2.89118
X-69.39597Y-2.1666
X-69.39597Y-0.3886
X-69.39597Y1.3894
X1.8363Y-1.92463
X0.0583Y-1.92463
X1.8363Y-3.70263
X0.0583Y-3.70263
X1.8363Y-5.48063
X0.0583Y-5.48063
X-3.42967Y-1.94784
X-1.65167Y-1.94784
X-7.49426Y-4.61062
X-7.49426Y-2.83262
X5.61648Y-1.90458
X3.83848Y-1.90458
X7.36439Y-1.92621
X9.14239Y-1.92621
X3.73032Y-5.69007
X5.50832Y-5.69007
X7.51581Y-5.69007
X9.29381Y-5.69007
X-5.81182Y4.64955
X-5.81182Y2.88581
X-4.04808Y4.64955
X-4.04808Y2.88581
X-4.04808Y1.12207
X-2.44599Y0.54979
X-0.66799Y0.54979
X1.04198Y0.573
X4.02968Y2.70899
X4.00647Y4.41896
X16.14921Y-52.78803
X16.14921Y-51.01003
X17.92721Y-51.01003
X17.92721Y-52.78803
X14.37121Y-52.78803
X14.37121Y-51.01003
X11.99382Y-54.60057
X11.99382Y-52.82257
X11.99382Y-56.37857
X16.15606Y-54.09403
X14.37806Y-54.09403
X17.93406Y-54.09403
X11.99382Y-58.15657
X11.99382Y-59.93457
X-47.39886Y-10.18086
X-47.39886Y-6.62486
X-47.39886Y-8.40286
X-45.62086Y-10.18086
X-45.62086Y-8.40286
X-45.62086Y-6.62486
X-47.86604Y1.24685
X-44.31004Y1.24685
X-46.08804Y1.24685
X-47.86604Y-0.53115
X-46.08804Y-0.53115
X-44.31004Y-0.53115
X-40.75404Y1.24685
X-42.53204Y1.24685
X-42.53204Y-0.53115
X-40.75404Y-0.53115
X-37.19804Y1.24685
X-38.97604Y1.24685
X-38.97604Y-0.53115
X-35.42004Y1.24685
X-46.08804Y-2.30915
X-44.31004Y-2.30915
X-42.53204Y-2.30915
X-40.75404Y-2.30915
X-38.97604Y-2.30915
X-44.04239Y-10.15171
X-42.26439Y-10.15171
X-44.04239Y-8.37371
X-42.26439Y-8.37371
X-38.14031Y-7.65734
X-38.14031Y-5.87934
X-38.10786Y-9.6432
X-36.76428Y-49.41557
X-36.76428Y-47.63757
X-36.76428Y-45.85957
X-37.91074Y-47.62017
X-37.91074Y-45.84217
X-37.91074Y-44.06417
X-33.64936Y-49.32905
X-33.64936Y-47.55105
X-33.64936Y-45.77305
X-37.91074Y-49.39817
X-47.94889Y-51.0337
X-49.72689Y-51.0337
X-55.3099Y-44.75849
X-53.5319Y-44.75849
X-53.5319Y-46.53649
X-36.66466Y-41.01676
X-37.62229Y-41.93593
X-52.18276Y-39.1275
X-52.18276Y-37.3495
X-46.19004Y-24.50051
X-46.9832Y-24.47167
X-31.70414Y-26.60152
X-29.74529Y-26.60152
X-29.74529Y-28.25993
X-28.06885Y-26.99886
X-28.06885Y-28.65727
X-27.01612Y-27.56128
X-27.01612Y-29.21969
X-63.74151Y-3.94657
X-61.96351Y-3.94657
X-63.74151Y-5.72457
X-61.96351Y-5.72457
X-64.10925Y-10.07037
X-62.33125Y-10.07037
X-61.62164Y-7.17176
X-59.84364Y-7.17176
X-59.69644Y-9.24838
X-57.91844Y-9.24838
X-29.84401Y-9.71018
X-28.03717Y-9.71018
X-29.85843Y-10.84943
X-28.08043Y-10.84943
X-26.8733Y-10.84943
X-25.0953Y-10.84943
X-22.21774Y-7.75975
X-20.43974Y-7.75975
X-22.1889Y-6.47148
X-23.24002Y-9.38691
X-21.46202Y-9.38691
X-29.82347Y-7.49136
X-3.01136Y-21.95615
X-1.32411Y-23.75156
X-3.14114Y-23.70829
X-4.49311Y-38.09858
X-4.49311Y-39.41809
X-3.06543Y-39.39646
X-78.43673Y-9.24021
X-78.43673Y-5.68421
X-78.43673Y-7.46221
X-76.65873Y-9.24021
X-76.65873Y-7.46221
X-76.65873Y-5.68421
X-78.29728Y-23.24654
X-78.29728Y-19.69054
X-78.29728Y-21.46854
X-76.90028Y-23.24654
X-76.90028Y-21.46854
X-76.90028Y-19.69054
X-20.07734Y-28.81421
X-18.29934Y-28.81421
X-18.29934Y-27.03621
X-20.07734Y-27.03621
X-17.32651Y-25.88042
X-19.10451Y-25.88042
X-16.52134Y-28.81421
X-27.6564Y-31.54126
X-29.4344Y-31.54126
X-31.2124Y-31.54126
X-20.70865Y-34.15516
X-19.45141Y-32.89792
X-31.20708Y-33.23596
X-9.92619Y-28.29203
X-9.92619Y-30.07003
X-9.43078Y-26.2608
X-28.65745Y-50.64725
X-24.57598Y-33.57333
X-22.83585Y-35.17886
X-30.17833Y-33.23783
X-20.95975Y-25.19015
X-20.79191Y-21.88815
X-19.83051Y-22.38808
X-10.32231Y-49.87477
X-10.32231Y-50.83616
X-31.38168Y-47.44705
X-31.38168Y-48.59431
X-31.38168Y-46.08186
X-62.3735Y-24.3989
X-61.2711Y-24.3989
X-59.91874Y-24.3989
X-41.49311Y-24.32605
X-1.51489Y-37.06481
X-1.51489Y-38.067
X-1.49687Y-16.20186
X-1.49687Y-17.18249
X-27.19297Y-44.94623
X-29.19296Y-44.93982
T02
X-72.58367Y7.41543
X-69.92709Y7.41543
X-67.27051Y7.41543
X-64.61393Y7.41543
X-61.95735Y7.41543
X-59.30078Y7.41543
X-56.6442Y7.41543
X-53.98762Y7.41543
X-53.98762Y5.39385
X-56.6442Y5.39385
X-53.98762Y3.37227
X-56.6442Y3.37227
X-30.19673Y7.41543
X-30.19673Y5.39385
X-27.54015Y7.41543
X-70.70518Y5.53694
X-70.70518Y2.88036
X-72.58367Y1.00188
X-4.12657Y7.41543
X-1.46999Y7.41543
X1.18659Y7.41543
X3.84317Y7.41543
X6.49975Y7.41543
X9.15633Y7.41543
X11.81291Y7.41543
X9.93443Y5.53694
X9.93443Y2.88036
X11.81291Y1.00188
X-48.36339Y-45.13412
X-48.36339Y-44.13412
X-47.36339Y-44.13412
X-47.36339Y-45.13412
T03
X-75.53613Y-20.53544
X-75.53615Y-22.34915
X-75.40275Y-6.70716
X-75.40275Y-8.57086
X-76.65596Y-10.57086
X-76.65596Y-4.70716
X-76.8898Y-18.46045
X-76.8898Y-24.34914
X-75.27237Y-29.44166
X-71.07071Y-18.90426
X-71.07071Y-23.70435
X-71.32471Y-5.24274
X-71.32471Y-10.03273
X-70.17318Y-18.91105
X-70.17318Y-23.71114
X-68.26682Y-39.29112
X-61.3567Y-37.05251
X-63.64235Y-40.40024
X-61.3567Y-40.40494
X-63.65626Y-35.86201
X-68.27738Y-36.67054
X-66.1911Y-34.64745
X-68.1841Y-34.63527
X-68.41134Y-44.40238
X-55.5507Y-48.73115
X-77.26157Y-35.58884
X-76.36701Y-43.49112
X-78.22399Y-41.65318
X-73.17205Y-42.79682
X-74.09204Y-40.26975
X-76.31275Y-49.90006
X-73.02558Y-49.07386
X-78.08835Y-47.7502
X-73.04692Y-47.69645
X-73.04195Y-38.65132
X-64.0457Y-43.19641
X-64.0457Y-44.02784
X-64.0457Y-44.85927
X-64.0457Y-45.6907
X-63.44722Y-42.43939
X-62.61579Y-42.43939
X-61.78436Y-42.43939
X-63.44722Y-46.37374
X-62.61579Y-46.37374
X-61.78436Y-46.37374
X-55.5507Y-52.16229
X-51.25442Y-50.42402
X11.00753Y-60.9869
X10.95667Y-51.37385
X-2.80589Y-47.68475
X-2.80095Y-50.0639
X0.26259Y-50.01106
X2.33976Y-48.93233
X-1.30163Y-46.36348
X-0.44025Y-45.02752
X2.44041Y-45.09348
X6.58486Y-46.13715
X6.59137Y-47.83619
X7.7653Y-46.55933
X7.7653Y-47.41767
X-6.14255Y-25.26378
X-1.76697Y-25.26378
X-1.33146Y-26.61501
X6.38692Y-28.47609
X7.56735Y-28.89828
X7.56735Y-29.75661
X6.39343Y-30.17514
X-2.74039Y-36.20161
X8.03761Y-34.42379
X8.02893Y-37.52023
X5.9481Y-32.94894
X5.93428Y-39.05256
X-4.10799Y-27.19101
X-4.09841Y-30.91759
X3.2816Y-35.29526
X-0.27213Y-31.72022
X-0.29817Y-30.99233
X-1.08304Y-30.9728
X-1.08304Y-31.72022
X-1.854Y-31.72022
X-1.854Y-30.9728
X3.2816Y-36.90674
X3.2816Y-33.0887
X8.03761Y-13.72494
X8.02893Y-16.82139
X3.2816Y-16.20789
X3.2816Y-12.38985
X3.2816Y-14.59641
X-6.14255Y-4.56494
X-4.10799Y-6.49217
X-4.09841Y-10.21875
X-2.74039Y-15.50277
X-1.854Y-10.27395
X-1.854Y-11.02138
X-1.76697Y-4.56494
X-1.33146Y-5.91617
X-1.08304Y-11.02138
X-1.08304Y-10.27395
X-0.29817Y-10.29348
X-0.27213Y-11.02138
X6.38692Y-7.77725
X6.39343Y-9.47629
X7.56735Y-9.05777
X7.56735Y-8.19943
X5.93428Y-18.35372
X5.9481Y-12.2501
X-25.90492Y-7.71855
X-19.63733Y-5.56277
X-27.90902Y-3.0277
X-19.04795Y-1.5518
X-27.62618Y4.41058
X-19.66879Y4.41058
X-25.1428Y6.26706
X-22.8285Y5.08702
X-24.35775Y3.02933
X-27.13107Y-3.04653
X-28.56356Y-2.46938
X-26.37041Y-3.06542
X-28.59877Y-1.6934
T04
X-76.18722Y6.42433
X-76.18722Y1.72533
X-73.83772Y4.07483
X-78.53672Y4.07483
X-74.53622Y5.72583
X-77.83822Y2.42383
X-74.53622Y2.42383
X-77.83822Y5.72583
X-76.18722Y-55.57567
X-76.18722Y-60.27467
X-73.83772Y-57.92517
X-78.53672Y-57.92517
X-74.53622Y-56.27417
X-77.83822Y-59.57617
X-74.53622Y-59.57617
X-77.83822Y-56.27417
X15.81278Y-55.57567
X15.81278Y-60.27467
X18.16228Y-57.92517
X13.46328Y-57.92517
X17.46378Y-56.27417
X14.16178Y-59.57617
X17.46378Y-59.57617
X14.16178Y-56.27417
X15.81278Y6.42433
X15.81278Y1.72533
X18.16228Y4.07483
X13.46328Y4.07483
X17.46378Y5.72583
X14.16178Y2.42383
X17.46378Y2.42383
X14.16178Y5.72583
T05
X-72.85743Y-16.97925G85X-73.75742Y-16.97925
X-72.85744Y-25.62927G85X-73.75746Y-25.62927
X-77.20749Y-16.9792G85X-77.80749Y-16.9792
X-77.20749Y-25.62917G85X-77.80749Y-25.62917
T06
X-77.07641Y-3.30471G85X-77.77638Y-3.30471
X-77.07641Y-11.94467G85X-77.77638Y-11.94467
X-72.74642Y-11.94467G85X-73.7464Y-11.94467
X-72.74642Y-3.30471G85X-73.7464Y-3.30471
T07
X-7.9875Y0.77894
X-10.4875Y0.77894
X-12.98749Y0.77894
X-15.48762Y0.77894
T08
X-67.63367Y3.2761
X-67.63367Y5.8161
X-65.09367Y3.2761
X-65.09367Y5.8161
X-62.55367Y3.2761
X-62.55367Y5.8161
X-60.01367Y3.2761
X-60.01367Y5.8161
T09
X-58.67843Y-50.82174
X-61.21843Y-50.82174
X-63.75843Y-50.82174
X-66.29843Y-50.82174
X-68.83843Y-50.82174
X8.38462Y-57.19488
X8.38462Y-59.73488
X5.84462Y-57.19488
X5.84462Y-59.73488
X3.30462Y-57.19488
X3.30462Y-59.73488
X0.76462Y-57.19488
X0.76462Y-59.73488
X-1.77538Y-57.19488
X-1.77538Y-59.73488
X-4.31538Y-57.19488
X-4.31538Y-59.73488
X-6.85538Y-57.19488
X-6.85538Y-59.73488
X-9.39538Y-57.19488
X-9.39538Y-59.73488
X-11.93538Y-57.19488
X-11.93538Y-59.73488
X-14.47538Y-57.19488
X-14.47538Y-59.73488
X-17.01538Y-57.19488
X-17.01538Y-59.73488
X-19.55538Y-57.19488
X-19.55538Y-59.73488
X-22.09538Y-57.19488
X-22.09538Y-59.73488
X-24.63538Y-57.19488
X-24.63538Y-59.73488
X-27.17538Y-57.19488
X-27.17538Y-59.73488
X-29.71538Y-57.19488
X-29.71538Y-59.73488
X-32.25538Y-57.19488
X-32.25538Y-59.73488
X-34.79538Y-57.19488
X-34.79538Y-59.73488
X-37.33538Y-57.19488
X-37.33538Y-59.73488
X-39.87538Y-57.19488
X-39.87538Y-59.73488
X-42.41538Y-57.19488
X-42.41538Y-59.73488
X-44.95538Y-57.19488
X-44.95538Y-59.73488
X-47.49538Y-57.19488
X-47.49538Y-59.73488
X-50.03538Y-57.19488
X-50.03538Y-59.73488
X-52.57538Y-57.19488
X-52.57538Y-59.73488
T10
X-17.38693Y-45.31967
X-6.88708Y-45.31967
T11
X11.84594Y-37.22563
X11.84594Y-33.4155
X11.84594Y-28.4637
X11.84594Y-24.65358
X11.84594Y-7.76486
X11.84594Y-3.95473
X11.84594Y-16.52678
X11.84594Y-12.71666
X11.84594Y-49.16255
X11.84594Y-45.35242
T12
X-76.18722Y4.07483
X-76.18722Y-57.92517
X15.81278Y-57.92517
X15.81278Y4.07483
M30