G04 Layer: BottomSilkscreenLayer*
G04 EasyEDA Pro v3.2.149.88089769, 2026-09-01 22:31:21*
G04 Gerber Generator version 0.3*
G04 Scale: 100 percent, Rotated: No, Reflected: No*
G04 Dimensions in millimeters*
G04 Leading zeros omitted, absolute positions, 4 integers and 5 decimals*
G04 Generated by one-click*
G04 Object Configs: Pad,Via,Track,Text,Image,Dimension,BoardOutline,BoardCutout,CopperFilled,SolidRegion,FPCStiffener,Line,PlaneZone,ComponentProperty,ComponentSilkscreen,TearDrop*
G04 Layer Configs: 1,15,16,2,3,4,5,6,7,8,9,10,11,13,14,56*
G04 Copper Areas: 0*
%FSLAX45Y45*%
%MOMM*%
%ADD10C,0.203*%
%ADD11C,0.1524*%
%ADD12C,0.15199*%
%ADD13C,0.254*%
%ADD14C,0.3612*%
G75*


G04 Text Start*
G36*
G01X1679935Y-946253D02*
G01X1679935Y-881707D01*
G01X1681753Y-881707D01*
G01X1697662Y-881707D01*
G01X1709821Y-881367D01*
G01X1714480Y-880344D01*
G01X1716298Y-876253D01*
G01X1719935Y-867162D01*
G01X1721753Y-862162D01*
G01X1723571Y-857617D01*
G01X1725389Y-852617D01*
G01X1729026Y-843526D01*
G01X1730844Y-838526D01*
G01X1732662Y-833980D01*
G01X1734480Y-828980D01*
G01X1738117Y-819889D01*
G01X1739026Y-817162D01*
G01X1829026Y-817162D01*
G01X1829935Y-819435D01*
G01X1831753Y-824435D01*
G01X1833571Y-828980D01*
G01X1834935Y-833071D01*
G01X1837662Y-840344D01*
G01X1839026Y-844435D01*
G01X1840844Y-848980D01*
G01X1842662Y-854435D01*
G01X1844480Y-858980D01*
G01X1845844Y-863071D01*
G01X1848571Y-870344D01*
G01X1849935Y-874435D01*
G01X1851753Y-878980D01*
G01X1851753Y-878980D01*
G01X1852662Y-881707D01*
G01X1866753Y-881707D01*
G01X1880844Y-880798D01*
G01X1880389Y-877616D01*
G01X1879026Y-873071D01*
G01X1877208Y-868526D01*
G01X1875389Y-863526D01*
G01X1871753Y-854435D01*
G01X1868117Y-844435D01*
G01X1864480Y-835344D01*
G01X1862662Y-830344D01*
G01X1860844Y-825798D01*
G01X1859026Y-820798D01*
G01X1855389Y-811708D01*
G01X1853571Y-806708D01*
G01X1851753Y-802162D01*
G01X1849935Y-797162D01*
G01X1846298Y-788071D01*
G01X1844480Y-783071D01*
G01X1842662Y-778526D01*
G01X1840844Y-773526D01*
G01X1837207Y-764435D01*
G01X1835389Y-759435D01*
G01X1833571Y-754889D01*
G01X1831753Y-749889D01*
G01X1828116Y-740798D01*
G01X1824480Y-730798D01*
G01X1820844Y-721707D01*
G01X1819026Y-716707D01*
G01X1817207Y-712162D01*
G01X1815389Y-707162D01*
G01X1811753Y-698071D01*
G01X1809935Y-693071D01*
G01X1808117Y-688526D01*
G01X1806298Y-683526D01*
G01X1802662Y-674435D01*
G01X1800844Y-669435D01*
G01X1799935Y-667162D01*
G01X1785389Y-667162D01*
G01X1774139Y-667503D01*
G01X1769480Y-668526D01*
G01X1767208Y-672617D01*
G01X1765389Y-677162D01*
G01X1763571Y-681253D01*
G01X1756298Y-699435D01*
G01X1754480Y-703526D01*
G01X1750844Y-712617D01*
G01X1749480Y-716253D01*
G01X1748117Y-719435D01*
G01X1746299Y-723526D01*
G01X1740844Y-737162D01*
G01X1739026Y-741253D01*
G01X1731753Y-759435D01*
G01X1729935Y-763526D01*
G01X1726298Y-772616D01*
G01X1724935Y-776253D01*
G01X1723571Y-779435D01*
G01X1721753Y-783526D01*
G01X1716298Y-797162D01*
G01X1714480Y-801253D01*
G01X1707207Y-819435D01*
G01X1705389Y-823526D01*
G01X1701753Y-832617D01*
G01X1700389Y-836253D01*
G01X1699026Y-839435D01*
G01X1697207Y-843526D01*
G01X1691753Y-857162D01*
G01X1689935Y-861253D01*
G01X1681753Y-881707D01*
G01X1679935Y-881707D01*
G01X1679935Y-610798D01*
G01X1881753Y-610798D01*
G01X1881753Y-946253D01*
G01X1679935Y-946253D01*
G37*
G36*
G01X1816298Y-781707D02*
G01X1818117Y-786253D01*
G01X1819480Y-790344D01*
G01X1819480Y-793071D01*
G01X1784935Y-793526D01*
G01X1749480Y-793071D01*
G01X1748685Y-792276D01*
G01X1749026Y-790798D01*
G01X1750844Y-786253D01*
G01X1754480Y-776253D01*
G01X1756298Y-771707D01*
G01X1775389Y-720798D01*
G01X1778117Y-712617D01*
G01X1779935Y-708071D01*
G01X1783117Y-698526D01*
G01X1784026Y-694889D01*
G01X1785389Y-692162D01*
G01X1786185Y-692503D01*
G01X1786753Y-694435D01*
G01X1788117Y-700344D01*
G01X1789480Y-704889D01*
G01X1790389Y-708980D01*
G01X1794480Y-722617D01*
G01X1795844Y-726707D01*
G01X1809480Y-763071D01*
G01X1810844Y-767162D01*
G01X1812662Y-771707D01*
G01X1816298Y-781707D01*
G37*
G36*
G01X1680844Y-539803D02*
G01X1680844Y-411167D01*
G01X1698116Y-411167D01*
G01X1698571Y-419348D01*
G01X1699480Y-424803D01*
G01X1700389Y-428894D01*
G01X1701753Y-434348D01*
G01X1703571Y-438439D01*
G01X1707662Y-446621D01*
G01X1710389Y-450712D01*
G01X1712662Y-453894D01*
G01X1719480Y-460712D01*
G01X1722662Y-462985D01*
G01X1726753Y-465257D01*
G01X1730389Y-467076D01*
G01X1734480Y-468894D01*
G01X1744026Y-472076D01*
G01X1753117Y-473894D01*
G01X1753117Y-473894D01*
G01X1761298Y-474803D01*
G01X1811298Y-475257D01*
G01X1859935Y-475257D01*
G01X1859935Y-260712D01*
G01X1815844Y-260712D01*
G01X1770389Y-261167D01*
G01X1766753Y-261621D01*
G01X1761298Y-262076D01*
G01X1747662Y-264803D01*
G01X1743571Y-266167D01*
G01X1739480Y-267985D01*
G01X1735844Y-269803D01*
G01X1731753Y-272076D01*
G01X1728571Y-274348D01*
G01X1724026Y-277985D01*
G01X1721753Y-280258D01*
G01X1719480Y-283439D01*
G01X1714935Y-290712D01*
G01X1712662Y-295257D01*
G01X1709480Y-304803D01*
G01X1708571Y-313894D01*
G01X1708571Y-317076D01*
G01X1709480Y-322985D01*
G01X1710844Y-329803D01*
G01X1712662Y-334803D01*
G01X1714935Y-339348D01*
G01X1717662Y-343439D01*
G01X1719480Y-346621D01*
G01X1726753Y-353894D01*
G01X1729935Y-356166D01*
G01X1732662Y-357985D01*
G01X1735844Y-359803D01*
G01X1736639Y-360712D01*
G01X1736298Y-361621D01*
G01X1732662Y-363439D01*
G01X1728571Y-365257D01*
G01X1724935Y-367076D01*
G01X1721753Y-368894D01*
G01X1719480Y-370257D01*
G01X1717207Y-372076D01*
G01X1710389Y-378894D01*
G01X1707662Y-382076D01*
G01X1704935Y-386167D01*
G01X1702662Y-390712D01*
G01X1700844Y-395258D01*
G01X1699480Y-400712D01*
G01X1698571Y-405712D01*
G01X1698116Y-411167D01*
G01X1680844Y-411167D01*
G01X1680844Y-204348D01*
G01X1881753Y-204348D01*
G01X1881753Y-539803D01*
G01X1680844Y-539803D01*
G37*
G36*
G01X1800389Y-376167D02*
G01X1831753Y-376167D01*
G01X1831753Y-412530D01*
G01X1831298Y-449348D01*
G01X1797207Y-449803D01*
G01X1761298Y-449348D01*
G01X1756753Y-448439D01*
G01X1751753Y-447076D01*
G01X1746753Y-445257D01*
G01X1742208Y-442985D01*
G01X1739026Y-440257D01*
G01X1734480Y-435712D01*
G01X1732662Y-432985D01*
G01X1729935Y-427530D01*
G01X1728571Y-423894D01*
G01X1727662Y-417530D01*
G01X1727662Y-412076D01*
G01X1728117Y-408439D01*
G01X1729026Y-402985D01*
G01X1730844Y-397530D01*
G01X1733117Y-393439D01*
G01X1735389Y-390258D01*
G01X1737662Y-387530D01*
G01X1741299Y-384348D01*
G01X1745844Y-381621D01*
G01X1749935Y-379803D01*
G01X1754935Y-378439D01*
G01X1759480Y-377530D01*
G01X1767662Y-376621D01*
G01X1800389Y-376167D01*
G37*
G36*
G01X1799935Y-286167D02*
G01X1831753Y-286167D01*
G01X1831753Y-317985D01*
G01X1831298Y-350257D01*
G01X1801298Y-350712D01*
G01X1769480Y-350257D01*
G01X1763117Y-349348D01*
G01X1757208Y-347985D01*
G01X1753117Y-346166D01*
G01X1749480Y-344348D01*
G01X1746753Y-342530D01*
G01X1743117Y-338894D01*
G01X1740844Y-336166D01*
G01X1739026Y-332985D01*
G01X1737662Y-328894D01*
G01X1736753Y-324803D01*
G01X1736298Y-320257D01*
G01X1736753Y-315712D01*
G01X1737208Y-312530D01*
G01X1738117Y-307985D01*
G01X1739935Y-303894D01*
G01X1741299Y-300712D01*
G01X1743117Y-297985D01*
G01X1747662Y-293439D01*
G01X1751299Y-291167D01*
G01X1756298Y-288894D01*
G01X1760389Y-287530D01*
G01X1766753Y-286621D01*
G01X1799935Y-286167D01*
G37*
G36*
G01X-5958994Y-5408790D02*
G01X-5735357Y-5408790D01*
G01X-5735357Y-5853639D01*
G01X-5958994Y-5853639D01*
G01X-5958994Y-5770002D01*
G01X-5918388Y-5770002D01*
G01X-5918085Y-5779396D01*
G01X-5917479Y-5781821D01*
G01X-5916267Y-5789093D01*
G01X-5915661Y-5792124D01*
G01X-5914751Y-5795457D01*
G01X-5912024Y-5802730D01*
G01X-5911115Y-5804851D01*
G01X-5908691Y-5809699D01*
G01X-5907479Y-5811820D01*
G01X-5905964Y-5814245D01*
G01X-5904448Y-5816366D01*
G01X-5900812Y-5821214D01*
G01X-5897782Y-5824245D01*
G01X-5894751Y-5826669D01*
G01X-5893236Y-5828184D01*
G01X-5891721Y-5829396D01*
G01X-5889600Y-5830911D01*
G01X-5886570Y-5832730D01*
G01X-5884145Y-5834245D01*
G01X-5881721Y-5835457D01*
G01X-5878994Y-5836669D01*
G01X-5875964Y-5837881D01*
G01X-5872327Y-5839093D01*
G01X-5868388Y-5840306D01*
G01X-5865358Y-5841215D01*
G01X-5858691Y-5842427D01*
G01X-5852630Y-5843033D01*
G01X-5846873Y-5843336D01*
G01X-5839297Y-5843033D01*
G01X-5833842Y-5842427D01*
G01X-5829600Y-5841821D01*
G01X-5826569Y-5841215D01*
G01X-5824145Y-5840609D01*
G01X-5821418Y-5840002D01*
G01X-5817782Y-5839093D01*
G01X-5814448Y-5837881D01*
G01X-5808388Y-5835457D01*
G01X-5803539Y-5833033D01*
G01X-5800812Y-5831518D01*
G01X-5798085Y-5829699D01*
G01X-5795054Y-5827578D01*
G01X-5792630Y-5825760D01*
G01X-5785054Y-5818184D01*
G01X-5783842Y-5816669D01*
G01X-5782327Y-5814548D01*
G01X-5780509Y-5811517D01*
G01X-5778994Y-5809093D01*
G01X-5777782Y-5806669D01*
G01X-5776570Y-5803942D01*
G01X-5774751Y-5799093D01*
G01X-5773842Y-5796366D01*
G01X-5772024Y-5789093D01*
G01X-5771418Y-5784851D01*
G01X-5770812Y-5778790D01*
G01X-5770509Y-5772730D01*
G01X-5770812Y-5765457D01*
G01X-5771418Y-5760608D01*
G01X-5772024Y-5756972D01*
G01X-5772630Y-5753639D01*
G01X-5773539Y-5750002D01*
G01X-5775358Y-5744548D01*
G01X-5777782Y-5739093D01*
G01X-5778994Y-5736669D01*
G01X-5780206Y-5734851D01*
G01X-5781418Y-5732730D01*
G01X-5782933Y-5730608D01*
G01X-5785964Y-5726972D01*
G01X-5787479Y-5725760D01*
G01X-5789600Y-5723942D01*
G01X-5792024Y-5722124D01*
G01X-5793539Y-5720911D01*
G01X-5795660Y-5719699D01*
G01X-5800509Y-5717275D01*
G01X-5803236Y-5716063D01*
G01X-5806570Y-5714851D01*
G01X-5812933Y-5713033D01*
G01X-5813236Y-5714548D01*
G01X-5814145Y-5717275D01*
G01X-5815054Y-5720305D01*
G01X-5815963Y-5723942D01*
G01X-5816873Y-5726669D01*
G01X-5817176Y-5728790D01*
G01X-5816797Y-5729851D01*
G01X-5815660Y-5730608D01*
G01X-5812933Y-5731821D01*
G01X-5810509Y-5732730D01*
G01X-5808388Y-5733639D01*
G01X-5805963Y-5734851D01*
G01X-5803236Y-5736366D01*
G01X-5800812Y-5737881D01*
G01X-5798994Y-5739396D01*
G01X-5795357Y-5743033D01*
G01X-5793236Y-5746063D01*
G01X-5791721Y-5748487D01*
G01X-5790509Y-5750912D01*
G01X-5789600Y-5753336D01*
G01X-5787782Y-5759396D01*
G01X-5787176Y-5763639D01*
G01X-5786873Y-5770305D01*
G01X-5787176Y-5778790D01*
G01X-5787782Y-5783033D01*
G01X-5788388Y-5786063D01*
G01X-5789600Y-5790911D01*
G01X-5790509Y-5793336D01*
G01X-5791721Y-5795760D01*
G01X-5792933Y-5798487D01*
G01X-5794448Y-5801214D01*
G01X-5797479Y-5805457D01*
G01X-5799297Y-5807578D01*
G01X-5802327Y-5810608D01*
G01X-5803842Y-5811820D01*
G01X-5805963Y-5813336D01*
G01X-5808691Y-5815154D01*
G01X-5811418Y-5816669D01*
G01X-5813842Y-5817881D01*
G01X-5816266Y-5818790D01*
G01X-5818994Y-5819699D01*
G01X-5821418Y-5820608D01*
G01X-5824751Y-5821517D01*
G01X-5827782Y-5822427D01*
G01X-5832630Y-5823033D01*
G01X-5839903Y-5823639D01*
G01X-5844145Y-5823942D01*
G01X-5848388Y-5823639D01*
G01X-5851418Y-5823336D01*
G01X-5855055Y-5823033D01*
G01X-5859297Y-5822427D01*
G01X-5864145Y-5821517D01*
G01X-5868085Y-5820305D01*
G01X-5871418Y-5819093D01*
G01X-5874448Y-5817881D01*
G01X-5876873Y-5816669D01*
G01X-5878994Y-5815457D01*
G01X-5882630Y-5813033D01*
G01X-5884448Y-5811517D01*
G01X-5887479Y-5809093D01*
G01X-5888691Y-5807578D01*
G01X-5890509Y-5805457D01*
G01X-5892630Y-5802427D01*
G01X-5894145Y-5800002D01*
G01X-5895358Y-5797881D01*
G01X-5897782Y-5792427D01*
G01X-5898691Y-5789699D01*
G01X-5899600Y-5786366D01*
G01X-5900509Y-5782427D01*
G01X-5901115Y-5779396D01*
G01X-5901418Y-5772730D01*
G01X-5901115Y-5766063D01*
G01X-5900812Y-5763639D01*
G01X-5900509Y-5760608D01*
G01X-5899903Y-5758184D01*
G01X-5899297Y-5755457D01*
G01X-5898388Y-5752427D01*
G01X-5896570Y-5746972D01*
G01X-5895358Y-5744245D01*
G01X-5891418Y-5736366D01*
G01X-5887782Y-5730911D01*
G01X-5886873Y-5729396D01*
G01X-5859600Y-5729396D01*
G01X-5859600Y-5771821D01*
G01X-5853539Y-5771821D01*
G01X-5846570Y-5771518D01*
G01X-5844448Y-5771215D01*
G01X-5843539Y-5763639D01*
G01X-5843236Y-5740912D01*
G01X-5843236Y-5710608D01*
G01X-5869297Y-5710608D01*
G01X-5889145Y-5710911D01*
G01X-5896570Y-5711820D01*
G01X-5898388Y-5713942D01*
G01X-5900206Y-5716366D01*
G01X-5902327Y-5719396D01*
G01X-5906873Y-5726669D01*
G01X-5910509Y-5733942D01*
G01X-5911721Y-5736669D01*
G01X-5912933Y-5739699D01*
G01X-5916267Y-5749699D01*
G01X-5917479Y-5756972D01*
G01X-5917479Y-5756972D01*
G01X-5918085Y-5761215D01*
G01X-5918388Y-5770002D01*
G01X-5958994Y-5770002D01*
G01X-5958994Y-5665154D01*
G01X-5915964Y-5665154D01*
G01X-5915964Y-5683336D01*
G01X-5772933Y-5683336D01*
G01X-5772933Y-5673639D01*
G01X-5773236Y-5666139D01*
G01X-5774145Y-5663033D01*
G01X-5776570Y-5661214D01*
G01X-5828388Y-5626669D01*
G01X-5832630Y-5623639D01*
G01X-5881721Y-5590911D01*
G01X-5883539Y-5589396D01*
G01X-5870282Y-5588942D01*
G01X-5829903Y-5588790D01*
G01X-5774448Y-5588487D01*
G01X-5772933Y-5588184D01*
G01X-5772933Y-5570608D01*
G01X-5915964Y-5570608D01*
G01X-5915964Y-5590002D01*
G01X-5914448Y-5590911D01*
G01X-5862630Y-5625457D01*
G01X-5858388Y-5628487D01*
G01X-5806570Y-5663033D01*
G01X-5804751Y-5664548D01*
G01X-5818464Y-5665002D01*
G01X-5818464Y-5665002D01*
G01X-5860206Y-5665154D01*
G01X-5915964Y-5665154D01*
G01X-5958994Y-5665154D01*
G01X-5958994Y-5507881D01*
G01X-5915964Y-5507881D01*
G01X-5915964Y-5538487D01*
G01X-5772933Y-5538487D01*
G01X-5772933Y-5509396D01*
G01X-5773236Y-5479396D01*
G01X-5773539Y-5476366D01*
G01X-5773842Y-5472123D01*
G01X-5774448Y-5467881D01*
G01X-5775054Y-5464245D01*
G01X-5776267Y-5459396D01*
G01X-5777176Y-5456366D01*
G01X-5781115Y-5448487D01*
G01X-5782630Y-5446366D01*
G01X-5783842Y-5444548D01*
G01X-5785357Y-5442730D01*
G01X-5792024Y-5436063D01*
G01X-5795054Y-5433639D01*
G01X-5797782Y-5431820D01*
G01X-5800206Y-5430305D01*
G01X-5802933Y-5428790D01*
G01X-5805357Y-5427578D01*
G01X-5809600Y-5425760D01*
G01X-5812024Y-5424851D01*
G01X-5815357Y-5423942D01*
G01X-5818085Y-5423033D01*
G01X-5823539Y-5421820D01*
G01X-5827782Y-5421214D01*
G01X-5832630Y-5420608D01*
G01X-5842630Y-5420305D01*
G01X-5852630Y-5420608D01*
G01X-5855358Y-5420911D01*
G01X-5858691Y-5421214D01*
G01X-5862327Y-5421820D01*
G01X-5865358Y-5422427D01*
G01X-5868085Y-5423033D01*
G01X-5872024Y-5423942D01*
G01X-5875964Y-5425154D01*
G01X-5879297Y-5426366D01*
G01X-5884752Y-5428790D01*
G01X-5887782Y-5430305D01*
G01X-5890812Y-5432124D01*
G01X-5895055Y-5435154D01*
G01X-5899297Y-5438790D01*
G01X-5902024Y-5441214D01*
G01X-5904448Y-5444245D01*
G01X-5906267Y-5446669D01*
G01X-5909297Y-5451517D01*
G01X-5910509Y-5454245D01*
G01X-5911721Y-5457275D01*
G01X-5913539Y-5463336D01*
G01X-5914448Y-5467275D01*
G01X-5915054Y-5470911D01*
G01X-5915054Y-5470911D01*
G01X-5915661Y-5476366D01*
G01X-5915964Y-5507881D01*
G01X-5958994Y-5507881D01*
G01X-5958994Y-5408790D01*
G37*
G36*
G01X-5789903Y-5498790D02*
G01X-5789903Y-5519699D01*
G01X-5844145Y-5519699D01*
G01X-5898691Y-5519396D01*
G01X-5898994Y-5500002D01*
G01X-5898691Y-5478790D01*
G01X-5898085Y-5473942D01*
G01X-5897176Y-5469093D01*
G01X-5895964Y-5465457D01*
G01X-5894751Y-5462426D01*
G01X-5893236Y-5459396D01*
G01X-5890206Y-5455154D01*
G01X-5888388Y-5453336D01*
G01X-5886873Y-5452123D01*
G01X-5885358Y-5450608D01*
G01X-5883236Y-5449093D01*
G01X-5880812Y-5447578D01*
G01X-5878691Y-5446366D01*
G01X-5876570Y-5445457D01*
G01X-5871721Y-5443639D01*
G01X-5868691Y-5442730D01*
G01X-5865964Y-5441820D01*
G01X-5859297Y-5440608D01*
G01X-5853236Y-5440002D01*
G01X-5844448Y-5439699D01*
G01X-5835660Y-5440002D01*
G01X-5832933Y-5440305D01*
G01X-5829600Y-5440608D01*
G01X-5825963Y-5441214D01*
G01X-5822933Y-5441820D01*
G01X-5820206Y-5442427D01*
G01X-5817176Y-5443336D01*
G01X-5814751Y-5444245D01*
G01X-5812630Y-5445154D01*
G01X-5810206Y-5446366D01*
G01X-5807176Y-5448184D01*
G01X-5804751Y-5450002D01*
G01X-5801721Y-5452426D01*
G01X-5798691Y-5455457D01*
G01X-5796873Y-5457578D01*
G01X-5795054Y-5460305D01*
G01X-5793539Y-5463033D01*
G01X-5792327Y-5465760D01*
G01X-5791418Y-5468790D01*
G01X-5790812Y-5471517D01*
G01X-5790206Y-5476972D01*
G01X-5789903Y-5498790D01*
G37*
G36*
G01X-6216830Y-5408790D02*
G01X-5993194Y-5408790D01*
G01X-5993194Y-6086972D01*
G01X-6216830Y-6086972D01*
G01X-6216830Y-6017578D01*
G01X-6176224Y-6017578D01*
G01X-6175921Y-6026063D01*
G01X-6175618Y-6027881D01*
G01X-6175315Y-6030305D01*
G01X-6174709Y-6034548D01*
G01X-6172891Y-6042730D01*
G01X-6171982Y-6045760D01*
G01X-6171072Y-6048184D01*
G01X-6170163Y-6050305D01*
G01X-6167739Y-6055154D01*
G01X-6166224Y-6057578D01*
G01X-6164406Y-6060305D01*
G01X-6162891Y-6062427D01*
G01X-6159860Y-6065457D01*
G01X-6156830Y-6067881D01*
G01X-6154709Y-6069699D01*
G01X-6151679Y-6071517D01*
G01X-6149254Y-6073033D01*
G01X-6147133Y-6073942D01*
G01X-6144709Y-6074851D01*
G01X-6141679Y-6076063D01*
G01X-6138345Y-6076972D01*
G01X-6135921Y-6077578D01*
G01X-6133497Y-6077881D01*
G01X-6129860Y-6078184D01*
G01X-6127739Y-6078487D01*
G01X-6127739Y-6076366D01*
G01X-6127436Y-6073336D01*
G01X-6126830Y-6066063D01*
G01X-6126527Y-6063639D01*
G01X-6126830Y-6061214D01*
G01X-6128042Y-6060002D01*
G01X-6130163Y-6059699D01*
G01X-6133194Y-6059093D01*
G01X-6136830Y-6057881D01*
G01X-6139860Y-6056669D01*
G01X-6142285Y-6055457D01*
G01X-6145012Y-6053639D01*
G01X-6147436Y-6051821D01*
G01X-6148951Y-6050305D01*
G01X-6150770Y-6047881D01*
G01X-6152588Y-6045154D01*
G01X-6153800Y-6043033D01*
G01X-6155012Y-6040608D01*
G01X-6156224Y-6037578D01*
G01X-6157436Y-6033942D01*
G01X-6158345Y-6030911D01*
G01X-6158951Y-6026669D01*
G01X-6159254Y-6019396D01*
G01X-6158951Y-6012124D01*
G01X-6158042Y-6005760D01*
G01X-6157436Y-6003336D01*
G01X-6156527Y-6000608D01*
G01X-6155618Y-5998184D01*
G01X-6154709Y-5996063D01*
G01X-6153497Y-5993639D01*
G01X-6151982Y-5991517D01*
G01X-6149557Y-5988487D01*
G01X-6148042Y-5986972D01*
G01X-6145618Y-5985457D01*
G01X-6142588Y-5983942D01*
G01X-6140163Y-5983033D01*
G01X-6135618Y-5982730D01*
G01X-6129860Y-5983336D01*
G01X-6126830Y-5984548D01*
G01X-6124709Y-5985457D01*
G01X-6122891Y-5986669D01*
G01X-6121375Y-5988184D01*
G01X-6119557Y-5990305D01*
G01X-6118042Y-5992427D01*
G01X-6116830Y-5994548D01*
G01X-6115618Y-5997275D01*
G01X-6114406Y-6000305D01*
G01X-6112284Y-6006669D01*
G01X-6110769Y-6012730D01*
G01X-6109860Y-6015760D01*
G01X-6109557Y-6017881D01*
G01X-6108951Y-6020305D01*
G01X-6108042Y-6023336D01*
G01X-6107133Y-6027275D01*
G01X-6106224Y-6030305D01*
G01X-6105618Y-6033033D01*
G01X-6104709Y-6036669D01*
G01X-6102284Y-6043942D01*
G01X-6101072Y-6047275D01*
G01X-6099860Y-6050305D01*
G01X-6097436Y-6054548D01*
G01X-6095618Y-6057578D01*
G01X-6094103Y-6060002D01*
G01X-6092891Y-6061517D01*
G01X-6089254Y-6065154D01*
G01X-6086830Y-6066972D01*
G01X-6085012Y-6068184D01*
G01X-6082588Y-6069396D01*
G01X-6079860Y-6070608D01*
G01X-6077436Y-6071517D01*
G01X-6075315Y-6072123D01*
G01X-6069860Y-6072730D01*
G01X-6068042Y-6072730D01*
G01X-6061982Y-6072123D01*
G01X-6059254Y-6071517D01*
G01X-6055921Y-6070608D01*
G01X-6052891Y-6069396D01*
G01X-6050466Y-6068184D01*
G01X-6048345Y-6066972D01*
G01X-6046527Y-6065760D01*
G01X-6045012Y-6064851D01*
G01X-6043497Y-6063639D01*
G01X-6041982Y-6062124D01*
G01X-6039557Y-6059093D01*
G01X-6037739Y-6056972D01*
G01X-6036224Y-6054851D01*
G01X-6035012Y-6052730D01*
G01X-6033800Y-6050305D01*
G01X-6032891Y-6047881D01*
G01X-6031982Y-6045154D01*
G01X-6031073Y-6042730D01*
G01X-6030466Y-6040608D01*
G01X-6029254Y-6034548D01*
G01X-6028648Y-6029699D01*
G01X-6028345Y-6023033D01*
G01X-6028648Y-6016366D01*
G01X-6029254Y-6010912D01*
G01X-6029557Y-6008790D01*
G01X-6030163Y-6005457D01*
G01X-6031073Y-6002427D01*
G01X-6031679Y-6000002D01*
G01X-6032588Y-5997275D01*
G01X-6033497Y-5994851D01*
G01X-6034406Y-5992730D01*
G01X-6035618Y-5990305D01*
G01X-6037133Y-5987578D01*
G01X-6038648Y-5985457D01*
G01X-6041072Y-5982426D01*
G01X-6044103Y-5979396D01*
G01X-6047133Y-5976972D01*
G01X-6048951Y-5975457D01*
G01X-6054406Y-5972426D01*
G01X-6059254Y-5970608D01*
G01X-6062891Y-5969699D01*
G01X-6066224Y-5969093D01*
G01X-6069254Y-5968790D01*
G01X-6071375Y-5968790D01*
G01X-6071375Y-5971820D01*
G01X-6071678Y-5975760D01*
G01X-6071982Y-5979396D01*
G01X-6072285Y-5984245D01*
G01X-6071982Y-5986669D01*
G01X-6069860Y-5987275D01*
G01X-6066830Y-5987881D01*
G01X-6063800Y-5988790D01*
G01X-6060769Y-5990002D01*
G01X-6058042Y-5991517D01*
G01X-6055921Y-5992730D01*
G01X-6054406Y-5993942D01*
G01X-6052891Y-5995457D01*
G01X-6051072Y-5997578D01*
G01X-6049557Y-6000002D01*
G01X-6048345Y-6002427D01*
G01X-6047133Y-6005154D01*
G01X-6046224Y-6008487D01*
G01X-6045618Y-6011518D01*
G01X-6045012Y-6020002D01*
G01X-6045012Y-6021518D01*
G01X-6045315Y-6024851D01*
G01X-6045618Y-6030305D01*
G01X-6046224Y-6034548D01*
G01X-6047436Y-6039396D01*
G01X-6048345Y-6041821D01*
G01X-6049557Y-6043942D01*
G01X-6051072Y-6046366D01*
G01X-6052588Y-6048487D01*
G01X-6054103Y-6050002D01*
G01X-6056224Y-6051517D01*
G01X-6058345Y-6052730D01*
G01X-6060466Y-6053639D01*
G01X-6062891Y-6054245D01*
G01X-6065012Y-6054548D01*
G01X-6066527Y-6054548D01*
G01X-6068648Y-6054245D01*
G01X-6071982Y-6053639D01*
G01X-6074709Y-6052427D01*
G01X-6077133Y-6050911D01*
G01X-6079254Y-6049093D01*
G01X-6080466Y-6047275D01*
G01X-6081678Y-6045154D01*
G01X-6082891Y-6042730D01*
G01X-6084709Y-6037881D01*
G01X-6087436Y-6028790D01*
G01X-6088345Y-6024851D01*
G01X-6089254Y-6021821D01*
G01X-6089860Y-6019093D01*
G01X-6090769Y-6015154D01*
G01X-6091678Y-6012124D01*
G01X-6092284Y-6009093D01*
G01X-6095012Y-5999093D01*
G01X-6096830Y-5993639D01*
G01X-6097739Y-5991214D01*
G01X-6098648Y-5989093D01*
G01X-6101072Y-5984245D01*
G01X-6102587Y-5981820D01*
G01X-6104406Y-5979093D01*
G01X-6105921Y-5976972D01*
G01X-6111072Y-5971820D01*
G01X-6113800Y-5970002D01*
G01X-6116224Y-5968487D01*
G01X-6119254Y-5966972D01*
G01X-6123194Y-5965760D01*
G01X-6126224Y-5964851D01*
G01X-6132285Y-5964548D01*
G01X-6138345Y-5964851D01*
G01X-6141679Y-5965457D01*
G01X-6145315Y-5966366D01*
G01X-6148345Y-5967578D01*
G01X-6151679Y-5969093D01*
G01X-6154103Y-5970608D01*
G01X-6155921Y-5971517D01*
G01X-6160466Y-5975154D01*
G01X-6163497Y-5978184D01*
G01X-6164709Y-5979699D01*
G01X-6166224Y-5981820D01*
G01X-6168042Y-5984548D01*
G01X-6169557Y-5987275D01*
G01X-6170769Y-5989699D01*
G01X-6171982Y-5992427D01*
G01X-6173194Y-5995760D01*
G01X-6174103Y-5998184D01*
G01X-6175315Y-6004245D01*
G01X-6175315Y-6004245D01*
G01X-6175921Y-6008487D01*
G01X-6176224Y-6017578D01*
G01X-6216830Y-6017578D01*
G01X-6216830Y-5894245D01*
G01X-6173800Y-5894245D01*
G01X-6173800Y-5903942D01*
G01X-6173572Y-5911290D01*
G01X-6172891Y-5913942D01*
G01X-6170163Y-5914548D01*
G01X-6166527Y-5915457D01*
G01X-6163800Y-5916366D01*
G01X-6160769Y-5916972D01*
G01X-6157436Y-5917881D01*
G01X-6154406Y-5918790D01*
G01X-6150466Y-5919699D01*
G01X-6146224Y-5920911D01*
G01X-6143194Y-5921821D01*
G01X-6140467Y-5922427D01*
G01X-6136830Y-5923336D01*
G01X-6134103Y-5924245D01*
G01X-6131073Y-5924851D01*
G01X-6127739Y-5925760D01*
G01X-6124709Y-5926669D01*
G01X-6120769Y-5927578D01*
G01X-6116527Y-5928790D01*
G01X-6113497Y-5929699D01*
G01X-6110769Y-5930305D01*
G01X-6107133Y-5931214D01*
G01X-6104406Y-5932124D01*
G01X-6101375Y-5932730D01*
G01X-6098042Y-5933639D01*
G01X-6095012Y-5934548D01*
G01X-6091072Y-5935457D01*
G01X-6086830Y-5936669D01*
G01X-6083800Y-5937578D01*
G01X-6081072Y-5938184D01*
G01X-6077436Y-5939093D01*
G01X-6074709Y-5940002D01*
G01X-6071678Y-5940608D01*
G01X-6068345Y-5941517D01*
G01X-6065315Y-5942427D01*
G01X-6061375Y-5943336D01*
G01X-6057133Y-5944548D01*
G01X-6054103Y-5945457D01*
G01X-6051376Y-5946063D01*
G01X-6047739Y-5946972D01*
G01X-6045012Y-5947881D01*
G01X-6042285Y-5948487D01*
G01X-6038648Y-5949396D01*
G01X-6035921Y-5950305D01*
G01X-6032891Y-5950911D01*
G01X-6030769Y-5951214D01*
G01X-6030769Y-5932427D01*
G01X-6032285Y-5931820D01*
G01X-6034709Y-5930911D01*
G01X-6037739Y-5930305D01*
G01X-6041982Y-5929396D01*
G01X-6045012Y-5928487D01*
G01X-6048042Y-5927881D01*
G01X-6052285Y-5926972D01*
G01X-6055315Y-5926063D01*
G01X-6058345Y-5925457D01*
G01X-6062588Y-5924548D01*
G01X-6068648Y-5923033D01*
G01X-6071678Y-5922427D01*
G01X-6075921Y-5921517D01*
G01X-6078951Y-5920608D01*
G01X-6081981Y-5920002D01*
G01X-6086224Y-5919093D01*
G01X-6089254Y-5918184D01*
G01X-6092284Y-5917578D01*
G01X-6096527Y-5916669D01*
G01X-6102587Y-5915154D01*
G01X-6105618Y-5914548D01*
G01X-6109860Y-5913639D01*
G01X-6112891Y-5912730D01*
G01X-6115921Y-5912124D01*
G01X-6120163Y-5911214D01*
G01X-6126224Y-5909699D01*
G01X-6137133Y-5907275D01*
G01X-6146224Y-5905457D01*
G01X-6149860Y-5904851D01*
G01X-6151679Y-5903942D01*
G01X-6151376Y-5903411D01*
G01X-6149860Y-5903033D01*
G01X-6145618Y-5902124D01*
G01X-6142588Y-5901215D01*
G01X-6139860Y-5900608D01*
G01X-6135921Y-5899699D01*
G01X-6132891Y-5898790D01*
G01X-6129860Y-5898184D01*
G01X-6126527Y-5897275D01*
G01X-6123497Y-5896366D01*
G01X-6119860Y-5895457D01*
G01X-6117133Y-5894548D01*
G01X-6111072Y-5893033D01*
G01X-6089860Y-5886972D01*
G01X-6086830Y-5886063D01*
G01X-6084406Y-5885457D01*
G01X-6081072Y-5884548D01*
G01X-6078345Y-5883639D01*
G01X-6075921Y-5883033D01*
G01X-6072588Y-5882123D01*
G01X-6069860Y-5881214D01*
G01X-6063800Y-5879699D01*
G01X-6046830Y-5874851D01*
G01X-6043800Y-5873942D01*
G01X-6041376Y-5873335D01*
G01X-6038042Y-5872426D01*
G01X-6035315Y-5871517D01*
G01X-6032588Y-5870911D01*
G01X-6030769Y-5870608D01*
G01X-6030769Y-5859396D01*
G01X-6030997Y-5850836D01*
G01X-6031679Y-5847578D01*
G01X-6033497Y-5846669D01*
G01X-6035921Y-5846063D01*
G01X-6039254Y-5845154D01*
G01X-6041982Y-5844245D01*
G01X-6048042Y-5842729D01*
G01X-6077739Y-5834245D01*
G01X-6080769Y-5833336D01*
G01X-6083194Y-5832730D01*
G01X-6086527Y-5831820D01*
G01X-6089254Y-5830911D01*
G01X-6091678Y-5830305D01*
G01X-6095012Y-5829396D01*
G01X-6097739Y-5828487D01*
G01X-6100466Y-5827881D01*
G01X-6106527Y-5826063D01*
G01X-6110466Y-5825154D01*
G01X-6114709Y-5823942D01*
G01X-6117739Y-5823033D01*
G01X-6120769Y-5822427D01*
G01X-6125012Y-5821517D01*
G01X-6128042Y-5820608D01*
G01X-6140163Y-5818184D01*
G01X-6147436Y-5816972D01*
G01X-6149860Y-5816669D01*
G01X-6151679Y-5816063D01*
G01X-6151527Y-5815532D01*
G01X-6150466Y-5815154D01*
G01X-6148042Y-5814548D01*
G01X-6134406Y-5811517D01*
G01X-6130466Y-5810608D01*
G01X-6127436Y-5809699D01*
G01X-6124406Y-5809093D01*
G01X-6120163Y-5808184D01*
G01X-6117133Y-5807275D01*
G01X-6114406Y-5806669D01*
G01X-6110466Y-5805760D01*
G01X-6107436Y-5804851D01*
G01X-6104709Y-5804245D01*
G01X-6100769Y-5803336D01*
G01X-6097739Y-5802427D01*
G01X-6094709Y-5801821D01*
G01X-6090466Y-5800911D01*
G01X-6087436Y-5800002D01*
G01X-6084709Y-5799396D01*
G01X-6080769Y-5798487D01*
G01X-6077739Y-5797578D01*
G01X-6075012Y-5796972D01*
G01X-6071072Y-5796063D01*
G01X-6065012Y-5794548D01*
G01X-6062285Y-5793942D01*
G01X-6058345Y-5793033D01*
G01X-6055315Y-5792124D01*
G01X-6052588Y-5791517D01*
G01X-6048648Y-5790608D01*
G01X-6045618Y-5789699D01*
G01X-6042588Y-5789093D01*
G01X-6038345Y-5788184D01*
G01X-6035315Y-5787275D01*
G01X-6032588Y-5786669D01*
G01X-6030769Y-5786366D01*
G01X-6030769Y-5777881D01*
G01X-6031073Y-5768487D01*
G01X-6031830Y-5767957D01*
G01X-6033497Y-5768184D01*
G01X-6037739Y-5769396D01*
G01X-6040769Y-5770305D01*
G01X-6043497Y-5770911D01*
G01X-6046527Y-5771820D01*
G01X-6073194Y-5779093D01*
G01X-6076224Y-5780002D01*
G01X-6079860Y-5780911D01*
G01X-6082588Y-5781820D01*
G01X-6088648Y-5783336D01*
G01X-6092891Y-5784548D01*
G01X-6095921Y-5785457D01*
G01X-6101981Y-5786972D01*
G01X-6106224Y-5788184D01*
G01X-6109254Y-5789093D01*
G01X-6115315Y-5790608D01*
G01X-6123800Y-5793033D01*
G01X-6126830Y-5793942D01*
G01X-6132891Y-5795457D01*
G01X-6137133Y-5796669D01*
G01X-6140163Y-5797578D01*
G01X-6146224Y-5799093D01*
G01X-6150466Y-5800305D01*
G01X-6153497Y-5801214D01*
G01X-6156224Y-5801821D01*
G01X-6162285Y-5803639D01*
G01X-6165921Y-5804548D01*
G01X-6168648Y-5805457D01*
G01X-6171679Y-5806063D01*
G01X-6173800Y-5806366D01*
G01X-6173800Y-5825154D01*
G01X-6172285Y-5825457D01*
G01X-6168648Y-5826366D01*
G01X-6160163Y-5828790D01*
G01X-6157133Y-5829699D01*
G01X-6151073Y-5831214D01*
G01X-6142588Y-5833639D01*
G01X-6139557Y-5834548D01*
G01X-6133497Y-5836063D01*
G01X-6125012Y-5838487D01*
G01X-6121982Y-5839396D01*
G01X-6119254Y-5840002D01*
G01X-6116224Y-5840911D01*
G01X-6109557Y-5842729D01*
G01X-6106527Y-5843639D01*
G01X-6102891Y-5844548D01*
G01X-6100163Y-5845457D01*
G01X-6094103Y-5846972D01*
G01X-6085618Y-5849396D01*
G01X-6082588Y-5850305D01*
G01X-6076527Y-5851820D01*
G01X-6068042Y-5854245D01*
G01X-6065012Y-5855154D01*
G01X-6062588Y-5855760D01*
G01X-6059254Y-5856669D01*
G01X-6056527Y-5857578D01*
G01X-6053497Y-5858184D01*
G01X-6050466Y-5859093D01*
G01X-6050012Y-5859624D01*
G01X-6050466Y-5860002D01*
G01X-6056527Y-5861820D01*
G01X-6059557Y-5862426D01*
G01X-6062891Y-5863335D01*
G01X-6065921Y-5864245D01*
G01X-6069557Y-5865154D01*
G01X-6072285Y-5866063D01*
G01X-6078345Y-5867578D01*
G01X-6086830Y-5870002D01*
G01X-6089860Y-5870911D01*
G01X-6092284Y-5871517D01*
G01X-6095618Y-5872426D01*
G01X-6098345Y-5873335D01*
G01X-6104406Y-5874851D01*
G01X-6112891Y-5877275D01*
G01X-6115921Y-5878184D01*
G01X-6118648Y-5878790D01*
G01X-6124709Y-5880608D01*
G01X-6128345Y-5881517D01*
G01X-6131073Y-5882426D01*
G01X-6137133Y-5883942D01*
G01X-6154103Y-5888790D01*
G01X-6157133Y-5889699D01*
G01X-6163194Y-5891214D01*
G01X-6173800Y-5894245D01*
G01X-6173800Y-5894245D01*
G01X-6216830Y-5894245D01*
G01X-6216830Y-5718790D01*
G01X-6173800Y-5718790D01*
G01X-6173800Y-5749396D01*
G01X-6030769Y-5749396D01*
G01X-6030769Y-5720608D01*
G01X-6031073Y-5690911D01*
G01X-6031376Y-5688184D01*
G01X-6031679Y-5683639D01*
G01X-6032285Y-5679396D01*
G01X-6032891Y-5675760D01*
G01X-6033800Y-5671517D01*
G01X-6035012Y-5667881D01*
G01X-6036224Y-5664851D01*
G01X-6037436Y-5662426D01*
G01X-6038648Y-5660305D01*
G01X-6040163Y-5657881D01*
G01X-6042285Y-5655154D01*
G01X-6044103Y-5652729D01*
G01X-6048648Y-5648184D01*
G01X-6050163Y-5646972D01*
G01X-6051679Y-5646063D01*
G01X-6053194Y-5644851D01*
G01X-6055012Y-5643335D01*
G01X-6056830Y-5642123D01*
G01X-6058951Y-5640911D01*
G01X-6063800Y-5638487D01*
G01X-6066527Y-5637275D01*
G01X-6074709Y-5634548D01*
G01X-6077133Y-5633941D01*
G01X-6082588Y-5632729D01*
G01X-6087436Y-5632123D01*
G01X-6095921Y-5631517D01*
G01X-6101072Y-5631214D01*
G01X-6106224Y-5631517D01*
G01X-6109557Y-5631820D01*
G01X-6114103Y-5632123D01*
G01X-6118345Y-5632729D01*
G01X-6121982Y-5633335D01*
G01X-6124406Y-5633941D01*
G01X-6127436Y-5634548D01*
G01X-6130770Y-5635457D01*
G01X-6136224Y-5637275D01*
G01X-6139254Y-5638487D01*
G01X-6141982Y-5639699D01*
G01X-6144406Y-5640911D01*
G01X-6147133Y-5642426D01*
G01X-6149860Y-5644244D01*
G01X-6151982Y-5645760D01*
G01X-6156527Y-5649396D01*
G01X-6161679Y-5654547D01*
G01X-6163497Y-5656972D01*
G01X-6164709Y-5658487D01*
G01X-6165921Y-5660608D01*
G01X-6168345Y-5665457D01*
G01X-6169557Y-5668790D01*
G01X-6171679Y-5675154D01*
G01X-6172891Y-5681820D01*
G01X-6172891Y-5681820D01*
G01X-6173497Y-5687275D01*
G01X-6173800Y-5718790D01*
G01X-6216830Y-5718790D01*
G01X-6216830Y-5583336D01*
G01X-6173800Y-5583336D01*
G01X-6173800Y-5602123D01*
G01X-6030769Y-5602123D01*
G01X-6030769Y-5602123D01*
G01X-6030769Y-5583336D01*
G01X-6173800Y-5583336D01*
G01X-6216830Y-5583336D01*
G01X-6216830Y-5486972D01*
G01X-6176224Y-5486972D01*
G01X-6175921Y-5493335D01*
G01X-6175618Y-5495154D01*
G01X-6175315Y-5497578D01*
G01X-6174709Y-5501214D01*
G01X-6173800Y-5505760D01*
G01X-6172588Y-5509699D01*
G01X-6171376Y-5513032D01*
G01X-6170163Y-5515760D01*
G01X-6167739Y-5520608D01*
G01X-6166224Y-5523335D01*
G01X-6164406Y-5526063D01*
G01X-6162891Y-5528184D01*
G01X-6161679Y-5530002D01*
G01X-6160163Y-5531820D01*
G01X-6153497Y-5538487D01*
G01X-6151073Y-5540305D01*
G01X-6149557Y-5541517D01*
G01X-6145921Y-5543941D01*
G01X-6143800Y-5545154D01*
G01X-6137739Y-5548184D01*
G01X-6134709Y-5549396D01*
G01X-6131982Y-5550608D01*
G01X-6129254Y-5551517D01*
G01X-6125921Y-5552426D01*
G01X-6123194Y-5553335D01*
G01X-6116527Y-5554547D01*
G01X-6109860Y-5555153D01*
G01X-6103800Y-5555457D01*
G01X-6097739Y-5555153D01*
G01X-6095315Y-5554850D01*
G01X-6091072Y-5554547D01*
G01X-6086830Y-5553941D01*
G01X-6080769Y-5552729D01*
G01X-6075921Y-5551517D01*
G01X-6072588Y-5550608D01*
G01X-6069557Y-5549396D01*
G01X-6067133Y-5548487D01*
G01X-6064709Y-5547275D01*
G01X-6061982Y-5545760D01*
G01X-6058951Y-5544244D01*
G01X-6056224Y-5542426D01*
G01X-6054103Y-5541214D01*
G01X-6052588Y-5540002D01*
G01X-6050466Y-5537881D01*
G01X-6048042Y-5536063D01*
G01X-6046527Y-5534547D01*
G01X-6045012Y-5532729D01*
G01X-6043497Y-5531214D01*
G01X-6042285Y-5529699D01*
G01X-6040466Y-5527275D01*
G01X-6037436Y-5522729D01*
G01X-6036224Y-5520608D01*
G01X-6033800Y-5515760D01*
G01X-6032588Y-5512729D01*
G01X-6031376Y-5509396D01*
G01X-6030466Y-5506669D01*
G01X-6029254Y-5500608D01*
G01X-6028648Y-5495760D01*
G01X-6028345Y-5487881D01*
G01X-6028648Y-5480002D01*
G01X-6029254Y-5475760D01*
G01X-6030466Y-5469699D01*
G01X-6031073Y-5467275D01*
G01X-6031982Y-5463941D01*
G01X-6033194Y-5460608D01*
G01X-6034406Y-5457578D01*
G01X-6035618Y-5455154D01*
G01X-6036830Y-5453032D01*
G01X-6038345Y-5450305D01*
G01X-6040163Y-5447578D01*
G01X-6041679Y-5445456D01*
G01X-6044103Y-5442426D01*
G01X-6051679Y-5434850D01*
G01X-6054103Y-5433032D01*
G01X-6057133Y-5430911D01*
G01X-6059860Y-5429093D01*
G01X-6062588Y-5427578D01*
G01X-6067436Y-5425153D01*
G01X-6070769Y-5423941D01*
G01X-6074406Y-5422729D01*
G01X-6078345Y-5421517D01*
G01X-6081375Y-5420608D01*
G01X-6088648Y-5419396D01*
G01X-6094709Y-5418790D01*
G01X-6101678Y-5418487D01*
G01X-6108648Y-5418790D01*
G01X-6110769Y-5419093D01*
G01X-6114103Y-5419396D01*
G01X-6118345Y-5420002D01*
G01X-6121375Y-5420608D01*
G01X-6124103Y-5421214D01*
G01X-6128042Y-5422123D01*
G01X-6131982Y-5423335D01*
G01X-6135012Y-5424547D01*
G01X-6137739Y-5425760D01*
G01X-6145012Y-5429396D01*
G01X-6147436Y-5430911D01*
G01X-6150163Y-5432729D01*
G01X-6152891Y-5434850D01*
G01X-6155315Y-5436669D01*
G01X-6159860Y-5441214D01*
G01X-6163497Y-5445759D01*
G01X-6164709Y-5447578D01*
G01X-6168345Y-5453941D01*
G01X-6169557Y-5456366D01*
G01X-6170769Y-5459093D01*
G01X-6171982Y-5462123D01*
G01X-6174103Y-5468487D01*
G01X-6175315Y-5474548D01*
G01X-6175315Y-5474548D01*
G01X-6175921Y-5480002D01*
G01X-6176224Y-5486972D01*
G01X-6216830Y-5486972D01*
G01X-6216830Y-5408790D01*
G37*
G36*
G01X-6158951Y-5499396D02*
G01X-6159557Y-5496366D01*
G01X-6159860Y-5491820D01*
G01X-6160163Y-5487881D01*
G01X-6160163Y-5486972D01*
G01X-6159860Y-5483639D01*
G01X-6159557Y-5479396D01*
G01X-6158951Y-5476366D01*
G01X-6157739Y-5471517D01*
G01X-6156830Y-5468790D01*
G01X-6155618Y-5466063D01*
G01X-6154103Y-5463032D01*
G01X-6152285Y-5460305D01*
G01X-6150770Y-5458184D01*
G01X-6148345Y-5455154D01*
G01X-6143800Y-5450608D01*
G01X-6140770Y-5448184D01*
G01X-6138951Y-5446972D01*
G01X-6134709Y-5444547D01*
G01X-6131982Y-5443335D01*
G01X-6128951Y-5442123D01*
G01X-6122891Y-5440305D01*
G01X-6118951Y-5439396D01*
G01X-6115315Y-5438790D01*
G01X-6108042Y-5438184D01*
G01X-6103800Y-5437881D01*
G01X-6099557Y-5438184D01*
G01X-6092284Y-5438790D01*
G01X-6089557Y-5439093D01*
G01X-6085618Y-5439699D01*
G01X-6082588Y-5440608D01*
G01X-6079860Y-5441214D01*
G01X-6076830Y-5442123D01*
G01X-6074406Y-5443032D01*
G01X-6072285Y-5443941D01*
G01X-6066830Y-5446669D01*
G01X-6063800Y-5448790D01*
G01X-6061072Y-5450608D01*
G01X-6059254Y-5452123D01*
G01X-6055618Y-5455760D01*
G01X-6051982Y-5460608D01*
G01X-6050163Y-5463638D01*
G01X-6048951Y-5466063D01*
G01X-6047739Y-5469093D01*
G01X-6046527Y-5472426D01*
G01X-6045618Y-5475760D01*
G01X-6045012Y-5478790D01*
G01X-6044709Y-5485760D01*
G01X-6045012Y-5493335D01*
G01X-6046224Y-5499396D01*
G01X-6047133Y-5502729D01*
G01X-6048345Y-5506063D01*
G01X-6050769Y-5510911D01*
G01X-6052285Y-5513638D01*
G01X-6053800Y-5515760D01*
G01X-6055012Y-5517275D01*
G01X-6055921Y-5518790D01*
G01X-6057133Y-5520305D01*
G01X-6060163Y-5523335D01*
G01X-6064709Y-5526972D01*
G01X-6066830Y-5528184D01*
G01X-6069254Y-5529396D01*
G01X-6073497Y-5531214D01*
G01X-6076224Y-5532123D01*
G01X-6079254Y-5533032D01*
G01X-6082588Y-5533941D01*
G01X-6085618Y-5534547D01*
G01X-6089860Y-5535154D01*
G01X-6097739Y-5535760D01*
G01X-6103194Y-5536063D01*
G01X-6108648Y-5535760D01*
G01X-6111072Y-5535457D01*
G01X-6114709Y-5535154D01*
G01X-6118345Y-5534547D01*
G01X-6121375Y-5533941D01*
G01X-6126224Y-5532729D01*
G01X-6128951Y-5531820D01*
G01X-6131679Y-5530608D01*
G01X-6136527Y-5528184D01*
G01X-6139254Y-5526669D01*
G01X-6141376Y-5525457D01*
G01X-6142891Y-5524244D01*
G01X-6150163Y-5516972D01*
G01X-6152285Y-5513941D01*
G01X-6153800Y-5511820D01*
G01X-6155012Y-5509699D01*
G01X-6156224Y-5507275D01*
G01X-6158042Y-5502426D01*
G01X-6158951Y-5499396D01*
G37*
G36*
G01X-6047739Y-5709699D02*
G01X-6047739Y-5730608D01*
G01X-6101981Y-5730608D01*
G01X-6156527Y-5730305D01*
G01X-6156830Y-5710305D01*
G01X-6156527Y-5689699D01*
G01X-6156224Y-5687578D01*
G01X-6155921Y-5684851D01*
G01X-6155315Y-5681820D01*
G01X-6154709Y-5679396D01*
G01X-6154103Y-5677275D01*
G01X-6152285Y-5673032D01*
G01X-6151073Y-5670608D01*
G01X-6149254Y-5667881D01*
G01X-6147436Y-5665760D01*
G01X-6144406Y-5662729D01*
G01X-6142285Y-5661214D01*
G01X-6139557Y-5659396D01*
G01X-6137133Y-5657881D01*
G01X-6134406Y-5656669D01*
G01X-6131376Y-5655457D01*
G01X-6128042Y-5654244D01*
G01X-6125012Y-5653335D01*
G01X-6119557Y-5652123D01*
G01X-6114709Y-5651517D01*
G01X-6105012Y-5650911D01*
G01X-6101981Y-5650608D01*
G01X-6098951Y-5650911D01*
G01X-6095315Y-5651214D01*
G01X-6089860Y-5651517D01*
G01X-6085012Y-5652123D01*
G01X-6081981Y-5652729D01*
G01X-6079254Y-5653335D01*
G01X-6075618Y-5654244D01*
G01X-6072588Y-5655457D01*
G01X-6069860Y-5656669D01*
G01X-6067436Y-5657881D01*
G01X-6065012Y-5659396D01*
G01X-6062891Y-5660911D01*
G01X-6058345Y-5664548D01*
G01X-6056224Y-5666669D01*
G01X-6054406Y-5669093D01*
G01X-6052891Y-5671214D01*
G01X-6051376Y-5673942D01*
G01X-6050163Y-5676669D01*
G01X-6049254Y-5680002D01*
G01X-6048648Y-5683033D01*
G01X-6048042Y-5687881D01*
G01X-6047739Y-5709699D01*
G37*
G36*
G01X-6474666Y-6121518D02*
G01X-6474666Y-6052124D01*
G01X-6434060Y-6052124D01*
G01X-6433757Y-6060608D01*
G01X-6433757Y-6060608D01*
G01X-6433454Y-6062427D01*
G01X-6433151Y-6064851D01*
G01X-6432545Y-6069093D01*
G01X-6430727Y-6077275D01*
G01X-6429818Y-6080305D01*
G01X-6428909Y-6082730D01*
G01X-6428000Y-6084851D01*
G01X-6425575Y-6089699D01*
G01X-6424060Y-6092124D01*
G01X-6422242Y-6094851D01*
G01X-6420727Y-6096972D01*
G01X-6417697Y-6100003D01*
G01X-6414666Y-6102427D01*
G01X-6412545Y-6104245D01*
G01X-6409515Y-6106063D01*
G01X-6407091Y-6107578D01*
G01X-6404969Y-6108487D01*
G01X-6402545Y-6109396D01*
G01X-6399515Y-6110609D01*
G01X-6396181Y-6111518D01*
G01X-6393757Y-6112124D01*
G01X-6391333Y-6112427D01*
G01X-6387696Y-6112730D01*
G01X-6385575Y-6113033D01*
G01X-6385575Y-6110912D01*
G01X-6385272Y-6107881D01*
G01X-6384666Y-6100609D01*
G01X-6384363Y-6098184D01*
G01X-6384666Y-6095760D01*
G01X-6385878Y-6094548D01*
G01X-6387999Y-6094245D01*
G01X-6391030Y-6093639D01*
G01X-6394666Y-6092427D01*
G01X-6397697Y-6091215D01*
G01X-6400121Y-6090003D01*
G01X-6402848Y-6088184D01*
G01X-6405272Y-6086366D01*
G01X-6406788Y-6084851D01*
G01X-6408606Y-6082427D01*
G01X-6410424Y-6079699D01*
G01X-6411636Y-6077578D01*
G01X-6412848Y-6075154D01*
G01X-6414060Y-6072124D01*
G01X-6415272Y-6068487D01*
G01X-6416181Y-6065457D01*
G01X-6416788Y-6061214D01*
G01X-6417091Y-6053942D01*
G01X-6416788Y-6046669D01*
G01X-6415878Y-6040305D01*
G01X-6415272Y-6037881D01*
G01X-6414363Y-6035154D01*
G01X-6413454Y-6032730D01*
G01X-6412545Y-6030608D01*
G01X-6411333Y-6028184D01*
G01X-6409818Y-6026063D01*
G01X-6407394Y-6023033D01*
G01X-6405878Y-6021518D01*
G01X-6403454Y-6020002D01*
G01X-6400424Y-6018487D01*
G01X-6398000Y-6017578D01*
G01X-6393454Y-6017275D01*
G01X-6387696Y-6017881D01*
G01X-6384666Y-6019093D01*
G01X-6382545Y-6020002D01*
G01X-6380727Y-6021215D01*
G01X-6379212Y-6022730D01*
G01X-6377393Y-6024851D01*
G01X-6375878Y-6026972D01*
G01X-6374666Y-6029093D01*
G01X-6373454Y-6031821D01*
G01X-6372242Y-6034851D01*
G01X-6370121Y-6041214D01*
G01X-6368605Y-6047275D01*
G01X-6367696Y-6050305D01*
G01X-6367393Y-6052427D01*
G01X-6366787Y-6054851D01*
G01X-6365878Y-6057881D01*
G01X-6364969Y-6061820D01*
G01X-6364060Y-6064851D01*
G01X-6363454Y-6067578D01*
G01X-6362545Y-6071214D01*
G01X-6360121Y-6078487D01*
G01X-6358909Y-6081821D01*
G01X-6357696Y-6084851D01*
G01X-6355272Y-6089093D01*
G01X-6353454Y-6092124D01*
G01X-6351939Y-6094548D01*
G01X-6350727Y-6096063D01*
G01X-6347090Y-6099700D01*
G01X-6344666Y-6101518D01*
G01X-6342848Y-6102730D01*
G01X-6340424Y-6103942D01*
G01X-6337696Y-6105154D01*
G01X-6335272Y-6106063D01*
G01X-6333151Y-6106669D01*
G01X-6327697Y-6107275D01*
G01X-6325878Y-6107275D01*
G01X-6319818Y-6106669D01*
G01X-6317090Y-6106063D01*
G01X-6313757Y-6105154D01*
G01X-6310727Y-6103942D01*
G01X-6308303Y-6102730D01*
G01X-6306181Y-6101518D01*
G01X-6304363Y-6100306D01*
G01X-6302848Y-6099396D01*
G01X-6301333Y-6098184D01*
G01X-6299818Y-6096669D01*
G01X-6297393Y-6093639D01*
G01X-6295575Y-6091518D01*
G01X-6294060Y-6089396D01*
G01X-6292848Y-6087275D01*
G01X-6291636Y-6084851D01*
G01X-6290727Y-6082427D01*
G01X-6289818Y-6079699D01*
G01X-6288909Y-6077275D01*
G01X-6288302Y-6075154D01*
G01X-6287090Y-6069093D01*
G01X-6286484Y-6064245D01*
G01X-6286181Y-6057578D01*
G01X-6286484Y-6050911D01*
G01X-6287090Y-6045457D01*
G01X-6287393Y-6043336D01*
G01X-6287999Y-6040002D01*
G01X-6288909Y-6036972D01*
G01X-6289515Y-6034548D01*
G01X-6290424Y-6031821D01*
G01X-6291333Y-6029396D01*
G01X-6292242Y-6027275D01*
G01X-6293454Y-6024851D01*
G01X-6294969Y-6022124D01*
G01X-6296484Y-6020002D01*
G01X-6298909Y-6016972D01*
G01X-6301939Y-6013942D01*
G01X-6304969Y-6011518D01*
G01X-6306787Y-6010002D01*
G01X-6312242Y-6006972D01*
G01X-6317090Y-6005154D01*
G01X-6320727Y-6004245D01*
G01X-6324060Y-6003639D01*
G01X-6327090Y-6003336D01*
G01X-6329212Y-6003336D01*
G01X-6329212Y-6006366D01*
G01X-6329515Y-6010305D01*
G01X-6329818Y-6013942D01*
G01X-6330121Y-6018790D01*
G01X-6329818Y-6021215D01*
G01X-6327697Y-6021821D01*
G01X-6324666Y-6022427D01*
G01X-6321636Y-6023336D01*
G01X-6318606Y-6024548D01*
G01X-6315878Y-6026063D01*
G01X-6313757Y-6027275D01*
G01X-6312242Y-6028487D01*
G01X-6310727Y-6030002D01*
G01X-6308909Y-6032124D01*
G01X-6307394Y-6034548D01*
G01X-6306181Y-6036972D01*
G01X-6304969Y-6039699D01*
G01X-6304060Y-6043033D01*
G01X-6303454Y-6046063D01*
G01X-6302848Y-6054548D01*
G01X-6302848Y-6056063D01*
G01X-6303151Y-6059396D01*
G01X-6303454Y-6064851D01*
G01X-6304060Y-6069093D01*
G01X-6305272Y-6073942D01*
G01X-6306181Y-6076366D01*
G01X-6307394Y-6078487D01*
G01X-6308909Y-6080912D01*
G01X-6310424Y-6083033D01*
G01X-6311939Y-6084548D01*
G01X-6314060Y-6086063D01*
G01X-6316181Y-6087275D01*
G01X-6318303Y-6088184D01*
G01X-6320727Y-6088790D01*
G01X-6322848Y-6089093D01*
G01X-6324363Y-6089093D01*
G01X-6326484Y-6088790D01*
G01X-6329818Y-6088184D01*
G01X-6332545Y-6086972D01*
G01X-6334969Y-6085457D01*
G01X-6337090Y-6083639D01*
G01X-6338303Y-6081821D01*
G01X-6339515Y-6079699D01*
G01X-6340727Y-6077275D01*
G01X-6342545Y-6072427D01*
G01X-6345272Y-6063336D01*
G01X-6346181Y-6059396D01*
G01X-6347090Y-6056366D01*
G01X-6347696Y-6053639D01*
G01X-6348606Y-6049699D01*
G01X-6349515Y-6046669D01*
G01X-6350121Y-6043639D01*
G01X-6352848Y-6033639D01*
G01X-6354666Y-6028184D01*
G01X-6355575Y-6025760D01*
G01X-6356484Y-6023639D01*
G01X-6358909Y-6018790D01*
G01X-6360424Y-6016366D01*
G01X-6362242Y-6013639D01*
G01X-6363757Y-6011518D01*
G01X-6368909Y-6006366D01*
G01X-6371636Y-6004548D01*
G01X-6374060Y-6003033D01*
G01X-6377090Y-6001518D01*
G01X-6381030Y-6000305D01*
G01X-6384060Y-5999396D01*
G01X-6390121Y-5999093D01*
G01X-6396181Y-5999396D01*
G01X-6399515Y-6000002D01*
G01X-6403151Y-6000912D01*
G01X-6406181Y-6002124D01*
G01X-6409515Y-6003639D01*
G01X-6411939Y-6005154D01*
G01X-6413757Y-6006063D01*
G01X-6418303Y-6009699D01*
G01X-6421333Y-6012730D01*
G01X-6422545Y-6014245D01*
G01X-6424060Y-6016366D01*
G01X-6425878Y-6019093D01*
G01X-6427394Y-6021821D01*
G01X-6428606Y-6024245D01*
G01X-6429818Y-6026972D01*
G01X-6431030Y-6030305D01*
G01X-6431939Y-6032730D01*
G01X-6433151Y-6038790D01*
G01X-6433757Y-6043033D01*
G01X-6434060Y-6052124D01*
G01X-6474666Y-6052124D01*
G01X-6474666Y-5840911D01*
G01X-6431636Y-5840911D01*
G01X-6431636Y-5859699D01*
G01X-6430121Y-5860002D01*
G01X-6426484Y-5860911D01*
G01X-6418000Y-5863336D01*
G01X-6414969Y-5864245D01*
G01X-6408909Y-5865760D01*
G01X-6400424Y-5868184D01*
G01X-6397393Y-5869093D01*
G01X-6391333Y-5870608D01*
G01X-6382848Y-5873033D01*
G01X-6379818Y-5873942D01*
G01X-6377090Y-5874548D01*
G01X-6374060Y-5875457D01*
G01X-6367393Y-5877275D01*
G01X-6364363Y-5878184D01*
G01X-6360727Y-5879093D01*
G01X-6357999Y-5880002D01*
G01X-6351939Y-5881518D01*
G01X-6343454Y-5883942D01*
G01X-6340424Y-5884851D01*
G01X-6334363Y-5886366D01*
G01X-6325878Y-5888790D01*
G01X-6322848Y-5889699D01*
G01X-6320424Y-5890305D01*
G01X-6317090Y-5891215D01*
G01X-6314363Y-5892124D01*
G01X-6311333Y-5892730D01*
G01X-6308303Y-5893639D01*
G01X-6307848Y-5894169D01*
G01X-6308303Y-5894548D01*
G01X-6314363Y-5896366D01*
G01X-6317394Y-5896972D01*
G01X-6320727Y-5897881D01*
G01X-6323757Y-5898790D01*
G01X-6327393Y-5899699D01*
G01X-6330121Y-5900608D01*
G01X-6336181Y-5902124D01*
G01X-6344666Y-5904548D01*
G01X-6347696Y-5905457D01*
G01X-6350121Y-5906063D01*
G01X-6353454Y-5906972D01*
G01X-6356181Y-5907881D01*
G01X-6362242Y-5909396D01*
G01X-6370727Y-5911821D01*
G01X-6373757Y-5912730D01*
G01X-6376484Y-5913336D01*
G01X-6382545Y-5915154D01*
G01X-6386181Y-5916063D01*
G01X-6388909Y-5916972D01*
G01X-6394969Y-5918487D01*
G01X-6411939Y-5923336D01*
G01X-6414969Y-5924245D01*
G01X-6421030Y-5925760D01*
G01X-6431636Y-5928790D01*
G01X-6431636Y-5938487D01*
G01X-6431409Y-5945836D01*
G01X-6430727Y-5948487D01*
G01X-6430727Y-5948487D01*
G01X-6428000Y-5949093D01*
G01X-6424363Y-5950002D01*
G01X-6421636Y-5950911D01*
G01X-6418606Y-5951517D01*
G01X-6415272Y-5952426D01*
G01X-6412242Y-5953336D01*
G01X-6408303Y-5954245D01*
G01X-6404060Y-5955457D01*
G01X-6401030Y-5956366D01*
G01X-6398303Y-5956972D01*
G01X-6394666Y-5957881D01*
G01X-6391939Y-5958790D01*
G01X-6388909Y-5959396D01*
G01X-6385575Y-5960305D01*
G01X-6382545Y-5961214D01*
G01X-6378605Y-5962123D01*
G01X-6374363Y-5963336D01*
G01X-6371333Y-5964245D01*
G01X-6368605Y-5964851D01*
G01X-6364969Y-5965760D01*
G01X-6362242Y-5966669D01*
G01X-6359212Y-5967275D01*
G01X-6355878Y-5968184D01*
G01X-6352848Y-5969093D01*
G01X-6348909Y-5970002D01*
G01X-6344666Y-5971214D01*
G01X-6341636Y-5972124D01*
G01X-6338909Y-5972730D01*
G01X-6335272Y-5973639D01*
G01X-6332545Y-5974548D01*
G01X-6329515Y-5975154D01*
G01X-6326181Y-5976063D01*
G01X-6323151Y-5976972D01*
G01X-6319212Y-5977881D01*
G01X-6314969Y-5979093D01*
G01X-6311939Y-5980002D01*
G01X-6309212Y-5980608D01*
G01X-6305575Y-5981518D01*
G01X-6302848Y-5982427D01*
G01X-6300121Y-5983033D01*
G01X-6296484Y-5983942D01*
G01X-6293757Y-5984851D01*
G01X-6290727Y-5985457D01*
G01X-6288606Y-5985760D01*
G01X-6288606Y-5966972D01*
G01X-6290121Y-5966366D01*
G01X-6292545Y-5965457D01*
G01X-6295575Y-5964851D01*
G01X-6299818Y-5963942D01*
G01X-6302848Y-5963033D01*
G01X-6305878Y-5962426D01*
G01X-6310121Y-5961517D01*
G01X-6313151Y-5960608D01*
G01X-6316181Y-5960002D01*
G01X-6320424Y-5959093D01*
G01X-6326484Y-5957578D01*
G01X-6329515Y-5956972D01*
G01X-6333757Y-5956063D01*
G01X-6336787Y-5955154D01*
G01X-6339818Y-5954548D01*
G01X-6344060Y-5953639D01*
G01X-6347090Y-5952730D01*
G01X-6350121Y-5952123D01*
G01X-6354363Y-5951214D01*
G01X-6360424Y-5949699D01*
G01X-6363454Y-5949093D01*
G01X-6367696Y-5948184D01*
G01X-6370727Y-5947275D01*
G01X-6373757Y-5946669D01*
G01X-6377999Y-5945760D01*
G01X-6384060Y-5944245D01*
G01X-6394969Y-5941820D01*
G01X-6404060Y-5940002D01*
G01X-6407697Y-5939396D01*
G01X-6409515Y-5938487D01*
G01X-6409212Y-5937957D01*
G01X-6407697Y-5937578D01*
G01X-6403454Y-5936669D01*
G01X-6400424Y-5935760D01*
G01X-6397697Y-5935154D01*
G01X-6393757Y-5934245D01*
G01X-6390727Y-5933336D01*
G01X-6387696Y-5932730D01*
G01X-6384363Y-5931820D01*
G01X-6381333Y-5930911D01*
G01X-6377696Y-5930002D01*
G01X-6374969Y-5929093D01*
G01X-6368909Y-5927578D01*
G01X-6347696Y-5921517D01*
G01X-6344666Y-5920608D01*
G01X-6342242Y-5920002D01*
G01X-6338909Y-5919093D01*
G01X-6336181Y-5918184D01*
G01X-6333757Y-5917578D01*
G01X-6330424Y-5916669D01*
G01X-6327697Y-5915760D01*
G01X-6321636Y-5914245D01*
G01X-6304666Y-5909396D01*
G01X-6301636Y-5908487D01*
G01X-6299212Y-5907881D01*
G01X-6295878Y-5906972D01*
G01X-6293151Y-5906063D01*
G01X-6290424Y-5905457D01*
G01X-6288606Y-5905154D01*
G01X-6288606Y-5893942D01*
G01X-6288833Y-5885381D01*
G01X-6289515Y-5882124D01*
G01X-6291333Y-5881215D01*
G01X-6293757Y-5880608D01*
G01X-6297090Y-5879699D01*
G01X-6299818Y-5878790D01*
G01X-6305878Y-5877275D01*
G01X-6335575Y-5868790D01*
G01X-6338606Y-5867881D01*
G01X-6341030Y-5867275D01*
G01X-6344363Y-5866366D01*
G01X-6347090Y-5865457D01*
G01X-6349515Y-5864851D01*
G01X-6352848Y-5863942D01*
G01X-6355575Y-5863033D01*
G01X-6358302Y-5862426D01*
G01X-6364363Y-5860608D01*
G01X-6368302Y-5859699D01*
G01X-6372545Y-5858487D01*
G01X-6375575Y-5857578D01*
G01X-6378605Y-5856972D01*
G01X-6382848Y-5856063D01*
G01X-6385878Y-5855154D01*
G01X-6398000Y-5852729D01*
G01X-6405272Y-5851517D01*
G01X-6407697Y-5851214D01*
G01X-6409515Y-5850608D01*
G01X-6409363Y-5850078D01*
G01X-6408303Y-5849699D01*
G01X-6405878Y-5849093D01*
G01X-6392242Y-5846063D01*
G01X-6388302Y-5845154D01*
G01X-6385272Y-5844245D01*
G01X-6382242Y-5843639D01*
G01X-6377999Y-5842729D01*
G01X-6374969Y-5841820D01*
G01X-6372242Y-5841214D01*
G01X-6368302Y-5840305D01*
G01X-6365272Y-5839396D01*
G01X-6362545Y-5838790D01*
G01X-6358606Y-5837881D01*
G01X-6355575Y-5836972D01*
G01X-6352545Y-5836366D01*
G01X-6348303Y-5835457D01*
G01X-6345272Y-5834548D01*
G01X-6342545Y-5833942D01*
G01X-6338606Y-5833033D01*
G01X-6335575Y-5832123D01*
G01X-6332848Y-5831517D01*
G01X-6328909Y-5830608D01*
G01X-6322848Y-5829093D01*
G01X-6320121Y-5828487D01*
G01X-6316181Y-5827578D01*
G01X-6313151Y-5826669D01*
G01X-6310424Y-5826063D01*
G01X-6306484Y-5825154D01*
G01X-6303454Y-5824245D01*
G01X-6300424Y-5823639D01*
G01X-6296181Y-5822730D01*
G01X-6293151Y-5821820D01*
G01X-6290424Y-5821214D01*
G01X-6288606Y-5820911D01*
G01X-6288606Y-5812427D01*
G01X-6288909Y-5803033D01*
G01X-6289666Y-5802502D01*
G01X-6291333Y-5802730D01*
G01X-6295575Y-5803942D01*
G01X-6298606Y-5804851D01*
G01X-6301333Y-5805457D01*
G01X-6304363Y-5806366D01*
G01X-6331030Y-5813639D01*
G01X-6334060Y-5814548D01*
G01X-6337696Y-5815457D01*
G01X-6340424Y-5816366D01*
G01X-6346484Y-5817881D01*
G01X-6350727Y-5819093D01*
G01X-6353757Y-5820002D01*
G01X-6359818Y-5821517D01*
G01X-6364060Y-5822730D01*
G01X-6367090Y-5823639D01*
G01X-6373151Y-5825154D01*
G01X-6381636Y-5827578D01*
G01X-6384666Y-5828487D01*
G01X-6390727Y-5830002D01*
G01X-6394969Y-5831214D01*
G01X-6398000Y-5832123D01*
G01X-6404060Y-5833639D01*
G01X-6408303Y-5834851D01*
G01X-6411333Y-5835760D01*
G01X-6414060Y-5836366D01*
G01X-6420121Y-5838184D01*
G01X-6423757Y-5839093D01*
G01X-6426484Y-5840002D01*
G01X-6429515Y-5840608D01*
G01X-6431636Y-5840911D01*
G01X-6474666Y-5840911D01*
G01X-6474666Y-5723032D01*
G01X-6434060Y-5723032D01*
G01X-6433757Y-5731820D01*
G01X-6433757Y-5731820D01*
G01X-6433151Y-5735154D01*
G01X-6432545Y-5738790D01*
G01X-6432242Y-5740911D01*
G01X-6431636Y-5743942D01*
G01X-6430727Y-5746669D01*
G01X-6430121Y-5748790D01*
G01X-6429212Y-5751214D01*
G01X-6428000Y-5753942D01*
G01X-6426484Y-5756972D01*
G01X-6424969Y-5759396D01*
G01X-6423757Y-5761214D01*
G01X-6422545Y-5762730D01*
G01X-6421030Y-5764851D01*
G01X-6419212Y-5766972D01*
G01X-6414666Y-5771517D01*
G01X-6412545Y-5773336D01*
G01X-6409515Y-5775457D01*
G01X-6406788Y-5777275D01*
G01X-6404363Y-5778790D01*
G01X-6401636Y-5780305D01*
G01X-6398909Y-5781518D01*
G01X-6389212Y-5785154D01*
G01X-6386181Y-5786063D01*
G01X-6382242Y-5786972D01*
G01X-6379212Y-5787881D01*
G01X-6370727Y-5789093D01*
G01X-6359818Y-5789396D01*
G01X-6348909Y-5789093D01*
G01X-6346787Y-5788790D01*
G01X-6344060Y-5788487D01*
G01X-6338000Y-5787275D01*
G01X-6335575Y-5786669D01*
G01X-6332848Y-5786063D01*
G01X-6329818Y-5785154D01*
G01X-6327393Y-5784245D01*
G01X-6323151Y-5782427D01*
G01X-6321333Y-5781518D01*
G01X-6319212Y-5780305D01*
G01X-6316787Y-5779093D01*
G01X-6314363Y-5777578D01*
G01X-6312242Y-5776063D01*
G01X-6310727Y-5775154D01*
G01X-6306181Y-5771517D01*
G01X-6302545Y-5767881D01*
G01X-6300121Y-5764851D01*
G01X-6298303Y-5762426D01*
G01X-6297090Y-5760911D01*
G01X-6293454Y-5754548D01*
G01X-6292242Y-5751820D01*
G01X-6291030Y-5748790D01*
G01X-6289818Y-5745457D01*
G01X-6288909Y-5743032D01*
G01X-6287696Y-5738184D01*
G01X-6287090Y-5733942D01*
G01X-6286484Y-5728487D01*
G01X-6286181Y-5723639D01*
G01X-6286484Y-5716972D01*
G01X-6287090Y-5712123D01*
G01X-6287696Y-5708487D01*
G01X-6288302Y-5705457D01*
G01X-6289212Y-5702123D01*
G01X-6290424Y-5698487D01*
G01X-6291636Y-5695760D01*
G01X-6294363Y-5690305D01*
G01X-6296181Y-5687578D01*
G01X-6297697Y-5685457D01*
G01X-6300121Y-5682427D01*
G01X-6304666Y-5677881D01*
G01X-6306484Y-5676366D01*
G01X-6308909Y-5674548D01*
G01X-6311636Y-5672730D01*
G01X-6314060Y-5671214D01*
G01X-6316181Y-5670002D01*
G01X-6322545Y-5667275D01*
G01X-6324969Y-5666366D01*
G01X-6327090Y-5666063D01*
G01X-6327924Y-5666820D01*
G01X-6328606Y-5668487D01*
G01X-6330121Y-5674548D01*
G01X-6330727Y-5677578D01*
G01X-6331636Y-5681820D01*
G01X-6331636Y-5684245D01*
G01X-6329818Y-5685154D01*
G01X-6327393Y-5686063D01*
G01X-6325272Y-5686972D01*
G01X-6319818Y-5689699D01*
G01X-6317090Y-5691517D01*
G01X-6314969Y-5693033D01*
G01X-6309818Y-5698184D01*
G01X-6307697Y-5701214D01*
G01X-6306181Y-5703639D01*
G01X-6305272Y-5705760D01*
G01X-6304363Y-5708184D01*
G01X-6303454Y-5711517D01*
G01X-6302848Y-5714548D01*
G01X-6302545Y-5721214D01*
G01X-6302848Y-5729699D01*
G01X-6303454Y-5733335D01*
G01X-6304060Y-5736366D01*
G01X-6304969Y-5739699D01*
G01X-6307394Y-5745154D01*
G01X-6308909Y-5747881D01*
G01X-6311030Y-5750911D01*
G01X-6312848Y-5753335D01*
G01X-6317394Y-5757881D01*
G01X-6319818Y-5759699D01*
G01X-6322545Y-5761517D01*
G01X-6325272Y-5763033D01*
G01X-6328303Y-5764548D01*
G01X-6331636Y-5765760D01*
G01X-6335575Y-5766972D01*
G01X-6338606Y-5767881D01*
G01X-6344060Y-5769093D01*
G01X-6349515Y-5769699D01*
G01X-6358909Y-5770002D01*
G01X-6368302Y-5769699D01*
G01X-6370424Y-5769396D01*
G01X-6373151Y-5769093D01*
G01X-6376787Y-5768487D01*
G01X-6382848Y-5767275D01*
G01X-6386181Y-5766366D01*
G01X-6388909Y-5765457D01*
G01X-6391333Y-5764548D01*
G01X-6393454Y-5763639D01*
G01X-6396181Y-5762426D01*
G01X-6399212Y-5760608D01*
G01X-6401333Y-5759093D01*
G01X-6403454Y-5757275D01*
G01X-6405878Y-5755457D01*
G01X-6408303Y-5752426D01*
G01X-6409818Y-5750608D01*
G01X-6411333Y-5748184D01*
G01X-6412848Y-5745457D01*
G01X-6414060Y-5743032D01*
G01X-6414969Y-5740608D01*
G01X-6415878Y-5737881D01*
G01X-6416788Y-5734851D01*
G01X-6417394Y-5732123D01*
G01X-6418000Y-5725457D01*
G01X-6418000Y-5723942D01*
G01X-6417697Y-5720911D01*
G01X-6417394Y-5716972D01*
G01X-6416788Y-5713942D01*
G01X-6415878Y-5710305D01*
G01X-6414666Y-5706972D01*
G01X-6413454Y-5704245D01*
G01X-6411939Y-5701517D01*
G01X-6410424Y-5699093D01*
G01X-6408909Y-5697275D01*
G01X-6407697Y-5695760D01*
G01X-6406484Y-5694548D01*
G01X-6404969Y-5693336D01*
G01X-6403454Y-5691820D01*
G01X-6401030Y-5690002D01*
G01X-6398303Y-5688184D01*
G01X-6396181Y-5686972D01*
G01X-6391939Y-5685154D01*
G01X-6389515Y-5684245D01*
G01X-6386787Y-5683336D01*
G01X-6383757Y-5682427D01*
G01X-6381939Y-5681820D01*
G01X-6382242Y-5679699D01*
G01X-6383151Y-5675760D01*
G01X-6384363Y-5671517D01*
G01X-6385272Y-5668487D01*
G01X-6385878Y-5665457D01*
G01X-6386409Y-5663942D01*
G01X-6387393Y-5663639D01*
G01X-6390727Y-5664548D01*
G01X-6394363Y-5665760D01*
G01X-6400424Y-5668184D01*
G01X-6402848Y-5669396D01*
G01X-6404969Y-5670608D01*
G01X-6407697Y-5672124D01*
G01X-6410424Y-5673942D01*
G01X-6413151Y-5676063D01*
G01X-6415575Y-5677881D01*
G01X-6420727Y-5683033D01*
G01X-6422545Y-5685457D01*
G01X-6424060Y-5687578D01*
G01X-6425878Y-5690305D01*
G01X-6427394Y-5692730D01*
G01X-6428606Y-5695154D01*
G01X-6429818Y-5697881D01*
G01X-6431636Y-5703336D01*
G01X-6432545Y-5706669D01*
G01X-6433151Y-5709699D01*
G01X-6433757Y-5713942D01*
G01X-6434060Y-5723032D01*
G01X-6474666Y-5723032D01*
G01X-6474666Y-5551214D01*
G01X-6431636Y-5551214D01*
G01X-6431636Y-5640305D01*
G01X-6360121Y-5640305D01*
G01X-6360121Y-5640305D01*
G01X-6288606Y-5640305D01*
G01X-6288606Y-5621517D01*
G01X-6414666Y-5621517D01*
G01X-6414666Y-5551214D01*
G01X-6431636Y-5551214D01*
G01X-6474666Y-5551214D01*
G01X-6474666Y-5411214D01*
G01X-6431636Y-5411214D01*
G01X-6431636Y-5423638D01*
G01X-6431409Y-5433108D01*
G01X-6430727Y-5436669D01*
G01X-6428303Y-5438487D01*
G01X-6413151Y-5449093D01*
G01X-6408909Y-5452123D01*
G01X-6384666Y-5469093D01*
G01X-6380424Y-5472123D01*
G01X-6374363Y-5476366D01*
G01X-6370121Y-5479396D01*
G01X-6367393Y-5481214D01*
G01X-6363151Y-5484245D01*
G01X-6360727Y-5485760D01*
G01X-6359818Y-5486972D01*
G01X-6360727Y-5488487D01*
G01X-6368302Y-5496063D01*
G01X-6370727Y-5499093D01*
G01X-6381333Y-5509699D01*
G01X-6387999Y-5510381D01*
G01X-6406788Y-5510608D01*
G01X-6431636Y-5510608D01*
G01X-6431636Y-5529396D01*
G01X-6360121Y-5529396D01*
G01X-6360121Y-5529396D01*
G01X-6288606Y-5529396D01*
G01X-6288606Y-5510608D01*
G01X-6323757Y-5510608D01*
G01X-6350045Y-5510457D01*
G01X-6358606Y-5510002D01*
G01X-6357696Y-5508487D01*
G01X-6289515Y-5440305D01*
G01X-6288833Y-5436593D01*
G01X-6288606Y-5426669D01*
G01X-6288757Y-5417123D01*
G01X-6289212Y-5414547D01*
G01X-6304363Y-5429699D01*
G01X-6306787Y-5432729D01*
G01X-6320424Y-5446366D01*
G01X-6322848Y-5449396D01*
G01X-6338000Y-5464548D01*
G01X-6341030Y-5468184D01*
G01X-6345575Y-5472729D01*
G01X-6346787Y-5473336D01*
G01X-6348303Y-5472426D01*
G01X-6349818Y-5471214D01*
G01X-6351939Y-5469699D01*
G01X-6354969Y-5467578D01*
G01X-6362242Y-5462123D01*
G01X-6366484Y-5459093D01*
G01X-6371333Y-5455457D01*
G01X-6372848Y-5454245D01*
G01X-6374969Y-5452729D01*
G01X-6377999Y-5450608D01*
G01X-6385272Y-5445154D01*
G01X-6389515Y-5442123D01*
G01X-6394363Y-5438487D01*
G01X-6395878Y-5437275D01*
G01X-6398000Y-5435760D01*
G01X-6401030Y-5433638D01*
G01X-6403454Y-5431820D01*
G01X-6404969Y-5430608D01*
G01X-6407091Y-5429093D01*
G01X-6410121Y-5426972D01*
G01X-6417394Y-5421517D01*
G01X-6421636Y-5418487D01*
G01X-6426484Y-5414850D01*
G01X-6428000Y-5413638D01*
G01X-6430121Y-5412123D01*
G01X-6431636Y-5411214D01*
G01X-6474666Y-5411214D01*
G01X-6474666Y-5408790D01*
G01X-6251030Y-5408790D01*
G01X-6251030Y-6121518D01*
G01X-6474666Y-6121518D01*
G37*
G36*
G01X-6732502Y-5765154D02*
G01X-6732502Y-5711214D01*
G01X-6691896Y-5711214D01*
G01X-6691593Y-5718790D01*
G01X-6691593Y-5718790D01*
G01X-6690987Y-5720608D01*
G01X-6690684Y-5723032D01*
G01X-6690078Y-5725760D01*
G01X-6689169Y-5728487D01*
G01X-6688260Y-5730911D01*
G01X-6685533Y-5736366D01*
G01X-6684018Y-5738487D01*
G01X-6683109Y-5740002D01*
G01X-6681896Y-5741517D01*
G01X-6675836Y-5747578D01*
G01X-6674321Y-5748790D01*
G01X-6670684Y-5751214D01*
G01X-6668563Y-5752427D01*
G01X-6665836Y-5753639D01*
G01X-6660381Y-5755457D01*
G01X-6656745Y-5756366D01*
G01X-6653411Y-5756972D01*
G01X-6652578Y-5756972D01*
G01X-6651896Y-5756366D01*
G01X-6651290Y-5754245D01*
G01X-6650987Y-5752124D01*
G01X-6649775Y-5742426D01*
G01X-6649775Y-5740305D01*
G01X-6650533Y-5739320D01*
G01X-6652199Y-5738790D01*
G01X-6655533Y-5737881D01*
G01X-6658260Y-5736972D01*
G01X-6660684Y-5736063D01*
G01X-6663108Y-5734851D01*
G01X-6665836Y-5733335D01*
G01X-6668563Y-5731517D01*
G01X-6670684Y-5729699D01*
G01X-6671896Y-5728184D01*
G01X-6673411Y-5726063D01*
G01X-6674927Y-5723639D01*
G01X-6675836Y-5721214D01*
G01X-6676745Y-5718487D01*
G01X-6677351Y-5712426D01*
G01X-6677048Y-5706063D01*
G01X-6675836Y-5701214D01*
G01X-6674927Y-5698790D01*
G01X-6673715Y-5696669D01*
G01X-6671290Y-5693033D01*
G01X-6669775Y-5691214D01*
G01X-6668260Y-5689699D01*
G01X-6666139Y-5687881D01*
G01X-6663411Y-5686063D01*
G01X-6660684Y-5684548D01*
G01X-6657351Y-5683336D01*
G01X-6654623Y-5682427D01*
G01X-6648866Y-5682124D01*
G01X-6643108Y-5682427D01*
G01X-6640987Y-5682730D01*
G01X-6638563Y-5683336D01*
G01X-6636139Y-5684245D01*
G01X-6633411Y-5685457D01*
G01X-6629169Y-5688487D01*
G01X-6626442Y-5690911D01*
G01X-6624624Y-5693336D01*
G01X-6623411Y-5695154D01*
G01X-6621593Y-5698790D01*
G01X-6620684Y-5701517D01*
G01X-6620078Y-5704245D01*
G01X-6619775Y-5708184D01*
G01X-6620078Y-5713942D01*
G01X-6620684Y-5717578D01*
G01X-6621290Y-5720305D01*
G01X-6621215Y-5721669D01*
G01X-6620381Y-5722123D01*
G01X-6616139Y-5721517D01*
G01X-6613411Y-5721214D01*
G01X-6609169Y-5720608D01*
G01X-6606442Y-5720305D01*
G01X-6606442Y-5716972D01*
G01X-6606139Y-5712729D01*
G01X-6604927Y-5707275D01*
G01X-6604321Y-5705154D01*
G01X-6603411Y-5702730D01*
G01X-6602199Y-5700305D01*
G01X-6600987Y-5698184D01*
G01X-6599472Y-5695760D01*
G01X-6597048Y-5693033D01*
G01X-6594321Y-5691214D01*
G01X-6592199Y-5690002D01*
G01X-6589472Y-5689093D01*
G01X-6585533Y-5688487D01*
G01X-6582502Y-5688487D01*
G01X-6579775Y-5688790D01*
G01X-6575836Y-5689396D01*
G01X-6572805Y-5690608D01*
G01X-6570684Y-5691820D01*
G01X-6568866Y-5693033D01*
G01X-6567351Y-5694245D01*
G01X-6565836Y-5695760D01*
G01X-6564624Y-5697275D01*
G01X-6563411Y-5699093D01*
G01X-6562199Y-5701214D01*
G01X-6561290Y-5703639D01*
G01X-6560684Y-5706063D01*
G01X-6560381Y-5710911D01*
G01X-6560684Y-5715760D01*
G01X-6561290Y-5718487D01*
G01X-6562199Y-5721820D01*
G01X-6564320Y-5726063D01*
G01X-6565533Y-5727578D01*
G01X-6569169Y-5731214D01*
G01X-6571896Y-5733032D01*
G01X-6574018Y-5734245D01*
G01X-6576745Y-5735457D01*
G01X-6580684Y-5736669D01*
G01X-6584321Y-5737578D01*
G01X-6585381Y-5738260D01*
G01X-6585533Y-5739699D01*
G01X-6584927Y-5743033D01*
G01X-6584321Y-5746063D01*
G01X-6583108Y-5753336D01*
G01X-6582502Y-5754851D01*
G01X-6580381Y-5754548D01*
G01X-6576442Y-5753639D01*
G01X-6573108Y-5752427D01*
G01X-6570684Y-5751517D01*
G01X-6567957Y-5750305D01*
G01X-6563108Y-5747275D01*
G01X-6560987Y-5745760D01*
G01X-6559472Y-5744548D01*
G01X-6554926Y-5740002D01*
G01X-6553411Y-5737881D01*
G01X-6550381Y-5733032D01*
G01X-6549169Y-5730305D01*
G01X-6548260Y-5727881D01*
G01X-6547351Y-5725154D01*
G01X-6546745Y-5722426D01*
G01X-6546139Y-5718184D01*
G01X-6545836Y-5713942D01*
G01X-6546139Y-5707881D01*
G01X-6546745Y-5704245D01*
G01X-6547351Y-5700911D01*
G01X-6548260Y-5697275D01*
G01X-6549169Y-5694851D01*
G01X-6550078Y-5692730D01*
G01X-6551290Y-5690305D01*
G01X-6552805Y-5687578D01*
G01X-6554017Y-5685457D01*
G01X-6555229Y-5683942D01*
G01X-6558260Y-5680305D01*
G01X-6561290Y-5677881D01*
G01X-6563411Y-5676366D01*
G01X-6565533Y-5675154D01*
G01X-6567048Y-5674245D01*
G01X-6568866Y-5673336D01*
G01X-6571290Y-5672427D01*
G01X-6574018Y-5671517D01*
G01X-6576442Y-5670911D01*
G01X-6580987Y-5670608D01*
G01X-6587351Y-5670911D01*
G01X-6591896Y-5671821D01*
G01X-6595230Y-5673033D01*
G01X-6598260Y-5674548D01*
G01X-6600987Y-5676366D01*
G01X-6603108Y-5677881D01*
G01X-6606139Y-5680911D01*
G01X-6607957Y-5683033D01*
G01X-6609472Y-5685154D01*
G01X-6610684Y-5687275D01*
G01X-6611896Y-5689093D01*
G01X-6612427Y-5688942D01*
G01X-6612805Y-5687881D01*
G01X-6613714Y-5685154D01*
G01X-6614927Y-5682427D01*
G01X-6616442Y-5679396D01*
G01X-6617957Y-5677275D01*
G01X-6619169Y-5675457D01*
G01X-6620684Y-5673639D01*
G01X-6622199Y-5672124D01*
G01X-6624321Y-5670305D01*
G01X-6627048Y-5668487D01*
G01X-6629775Y-5666972D01*
G01X-6632502Y-5665760D01*
G01X-6635230Y-5664851D01*
G01X-6637654Y-5664245D01*
G01X-6641896Y-5663639D01*
G01X-6646745Y-5663336D01*
G01X-6651593Y-5663639D01*
G01X-6654017Y-5663942D01*
G01X-6657654Y-5664548D01*
G01X-6661593Y-5665760D01*
G01X-6664927Y-5666972D01*
G01X-6667957Y-5668487D01*
G01X-6670987Y-5670305D01*
G01X-6673108Y-5671821D01*
G01X-6676139Y-5674245D01*
G01X-6677351Y-5675154D01*
G01X-6678260Y-5676366D01*
G01X-6679472Y-5677881D01*
G01X-6681593Y-5680002D01*
G01X-6683412Y-5682427D01*
G01X-6684927Y-5684548D01*
G01X-6686442Y-5687275D01*
G01X-6687654Y-5689699D01*
G01X-6688563Y-5691820D01*
G01X-6689472Y-5694245D01*
G01X-6690381Y-5696972D01*
G01X-6690987Y-5699396D01*
G01X-6691593Y-5703639D01*
G01X-6691896Y-5711214D01*
G01X-6732502Y-5711214D01*
G01X-6732502Y-5578487D01*
G01X-6689472Y-5578487D01*
G01X-6689472Y-5588184D01*
G01X-6689169Y-5595608D01*
G01X-6688260Y-5598487D01*
G01X-6688260Y-5598487D01*
G01X-6683412Y-5600305D01*
G01X-6674321Y-5603942D01*
G01X-6670987Y-5605154D01*
G01X-6664927Y-5607578D01*
G01X-6661593Y-5608790D01*
G01X-6655533Y-5611214D01*
G01X-6652199Y-5612426D01*
G01X-6646139Y-5614851D01*
G01X-6642805Y-5616063D01*
G01X-6636745Y-5618487D01*
G01X-6633411Y-5619699D01*
G01X-6627351Y-5622123D01*
G01X-6624017Y-5623335D01*
G01X-6617957Y-5625760D01*
G01X-6614624Y-5626972D01*
G01X-6608563Y-5629396D01*
G01X-6605230Y-5630608D01*
G01X-6602199Y-5631820D01*
G01X-6597351Y-5633639D01*
G01X-6588260Y-5637275D01*
G01X-6584927Y-5638487D01*
G01X-6578866Y-5640911D01*
G01X-6575533Y-5642123D01*
G01X-6572502Y-5643336D01*
G01X-6567654Y-5645154D01*
G01X-6561593Y-5647578D01*
G01X-6556745Y-5649396D01*
G01X-6550684Y-5651821D01*
G01X-6547957Y-5652730D01*
G01X-6546442Y-5653033D01*
G01X-6546442Y-5643336D01*
G01X-6547048Y-5633032D01*
G01X-6548866Y-5631820D01*
G01X-6554320Y-5630002D01*
G01X-6557351Y-5628790D01*
G01X-6560987Y-5627578D01*
G01X-6567654Y-5625154D01*
G01X-6571290Y-5623942D01*
G01X-6574321Y-5622729D01*
G01X-6579775Y-5620911D01*
G01X-6584624Y-5619093D01*
G01X-6587351Y-5618184D01*
G01X-6592199Y-5616366D01*
G01X-6594927Y-5615457D01*
G01X-6597957Y-5614245D01*
G01X-6601593Y-5613032D01*
G01X-6608260Y-5610608D01*
G01X-6611896Y-5609396D01*
G01X-6614927Y-5608184D01*
G01X-6620381Y-5606366D01*
G01X-6623411Y-5605154D01*
G01X-6627048Y-5603942D01*
G01X-6633714Y-5601517D01*
G01X-6637351Y-5600305D01*
G01X-6640381Y-5599093D01*
G01X-6645836Y-5597275D01*
G01X-6650684Y-5595457D01*
G01X-6667048Y-5590002D01*
G01X-6670381Y-5589093D01*
G01X-6671821Y-5588639D01*
G01X-6671896Y-5587881D01*
G01X-6669775Y-5586669D01*
G01X-6666442Y-5585760D01*
G01X-6655533Y-5582123D01*
G01X-6648866Y-5579699D01*
G01X-6645836Y-5578487D01*
G01X-6643108Y-5577578D01*
G01X-6618866Y-5568487D01*
G01X-6616139Y-5567578D01*
G01X-6606442Y-5563942D01*
G01X-6603411Y-5562730D01*
G01X-6596745Y-5560305D01*
G01X-6593715Y-5559093D01*
G01X-6590987Y-5558184D01*
G01X-6566745Y-5549093D01*
G01X-6564017Y-5548184D01*
G01X-6554320Y-5544548D01*
G01X-6551290Y-5543336D01*
G01X-6547957Y-5542123D01*
G01X-6546442Y-5541517D01*
G01X-6546442Y-5522729D01*
G01X-6547654Y-5523032D01*
G01X-6550078Y-5523941D01*
G01X-6559169Y-5527578D01*
G01X-6562502Y-5528790D01*
G01X-6571593Y-5532426D01*
G01X-6574927Y-5533639D01*
G01X-6584018Y-5537275D01*
G01X-6588866Y-5539093D01*
G01X-6604018Y-5545154D01*
G01X-6607351Y-5546366D01*
G01X-6616442Y-5550002D01*
G01X-6619775Y-5551214D01*
G01X-6631896Y-5556063D01*
G01X-6635230Y-5557275D01*
G01X-6644320Y-5560911D01*
G01X-6647654Y-5562123D01*
G01X-6659775Y-5566972D01*
G01X-6663108Y-5568184D01*
G01X-6672199Y-5571820D01*
G01X-6675533Y-5573033D01*
G01X-6687654Y-5577881D01*
G01X-6689472Y-5578487D01*
G01X-6732502Y-5578487D01*
G01X-6732502Y-5466366D01*
G01X-6691896Y-5466366D01*
G01X-6691593Y-5473336D01*
G01X-6691593Y-5473336D01*
G01X-6690078Y-5480911D01*
G01X-6689169Y-5483639D01*
G01X-6688563Y-5485760D01*
G01X-6687654Y-5487881D01*
G01X-6685230Y-5492123D01*
G01X-6684321Y-5493942D01*
G01X-6680684Y-5498487D01*
G01X-6679169Y-5500002D01*
G01X-6675533Y-5503032D01*
G01X-6673411Y-5504851D01*
G01X-6670381Y-5506669D01*
G01X-6667654Y-5508184D01*
G01X-6664927Y-5509396D01*
G01X-6661290Y-5510608D01*
G01X-6658260Y-5511517D01*
G01X-6654623Y-5512123D01*
G01X-6651896Y-5512426D01*
G01X-6651593Y-5510911D01*
G01X-6650987Y-5507275D01*
G01X-6649775Y-5497578D01*
G01X-6649851Y-5495836D01*
G01X-6650684Y-5494851D01*
G01X-6652805Y-5493942D01*
G01X-6655230Y-5493335D01*
G01X-6657957Y-5492426D01*
G01X-6660987Y-5491214D01*
G01X-6663714Y-5490002D01*
G01X-6666139Y-5488487D01*
G01X-6668260Y-5486972D01*
G01X-6669775Y-5485760D01*
G01X-6671290Y-5484245D01*
G01X-6672502Y-5482729D01*
G01X-6673715Y-5480911D01*
G01X-6674927Y-5478790D01*
G01X-6676139Y-5476063D01*
G01X-6677048Y-5473336D01*
G01X-6677351Y-5467578D01*
G01X-6677048Y-5461820D01*
G01X-6676745Y-5459699D01*
G01X-6676139Y-5457275D01*
G01X-6674927Y-5454548D01*
G01X-6672805Y-5450305D01*
G01X-6669169Y-5445760D01*
G01X-6666139Y-5443336D01*
G01X-6664017Y-5441820D01*
G01X-6661290Y-5440305D01*
G01X-6658563Y-5439093D01*
G01X-6655533Y-5438184D01*
G01X-6652805Y-5437578D01*
G01X-6649472Y-5437275D01*
G01X-6644320Y-5437578D01*
G01X-6639472Y-5438487D01*
G01X-6635836Y-5439699D01*
G01X-6632805Y-5441214D01*
G01X-6630684Y-5442730D01*
G01X-6626442Y-5446366D01*
G01X-6624017Y-5449396D01*
G01X-6622805Y-5451517D01*
G01X-6621593Y-5454245D01*
G01X-6620684Y-5456972D01*
G01X-6620078Y-5459396D01*
G01X-6619775Y-5463336D01*
G01X-6620078Y-5469093D01*
G01X-6620684Y-5472729D01*
G01X-6621290Y-5475457D01*
G01X-6621593Y-5477275D01*
G01X-6619472Y-5477275D01*
G01X-6616442Y-5476972D01*
G01X-6612199Y-5476366D01*
G01X-6608866Y-5476063D01*
G01X-6606442Y-5476063D01*
G01X-6606442Y-5473639D01*
G01X-6606139Y-5468487D01*
G01X-6605230Y-5463639D01*
G01X-6604018Y-5459699D01*
G01X-6602805Y-5456972D01*
G01X-6601593Y-5454548D01*
G01X-6600381Y-5452426D01*
G01X-6599472Y-5450911D01*
G01X-6598260Y-5449396D01*
G01X-6596745Y-5448184D01*
G01X-6594624Y-5446669D01*
G01X-6591290Y-5445154D01*
G01X-6588563Y-5444245D01*
G01X-6583412Y-5443942D01*
G01X-6578260Y-5444245D01*
G01X-6575836Y-5444851D01*
G01X-6573411Y-5445760D01*
G01X-6571290Y-5446669D01*
G01X-6569472Y-5447881D01*
G01X-6567654Y-5449396D01*
G01X-6566139Y-5450911D01*
G01X-6564927Y-5452426D01*
G01X-6563411Y-5454245D01*
G01X-6562199Y-5456366D01*
G01X-6561290Y-5458790D01*
G01X-6560684Y-5461214D01*
G01X-6560381Y-5465457D01*
G01X-6560684Y-5471517D01*
G01X-6561593Y-5475457D01*
G01X-6562805Y-5478184D01*
G01X-6564017Y-5480608D01*
G01X-6565230Y-5482426D01*
G01X-6567048Y-5484548D01*
G01X-6569775Y-5486972D01*
G01X-6572502Y-5488790D01*
G01X-6574624Y-5490002D01*
G01X-6577048Y-5490911D01*
G01X-6579775Y-5491820D01*
G01X-6583412Y-5492729D01*
G01X-6585836Y-5493032D01*
G01X-6585533Y-5495154D01*
G01X-6584927Y-5498184D01*
G01X-6583715Y-5505457D01*
G01X-6583108Y-5508487D01*
G01X-6582805Y-5510608D01*
G01X-6581290Y-5510305D01*
G01X-6577957Y-5509396D01*
G01X-6572502Y-5507578D01*
G01X-6569775Y-5506366D01*
G01X-6567351Y-5505154D01*
G01X-6564624Y-5503638D01*
G01X-6562502Y-5502123D01*
G01X-6560987Y-5500911D01*
G01X-6559169Y-5499699D01*
G01X-6557351Y-5498184D01*
G01X-6556139Y-5496669D01*
G01X-6554320Y-5494548D01*
G01X-6552199Y-5491517D01*
G01X-6550684Y-5489093D01*
G01X-6549472Y-5486366D01*
G01X-6548260Y-5483335D01*
G01X-6547351Y-5480305D01*
G01X-6546745Y-5477578D01*
G01X-6546139Y-5473336D01*
G01X-6545836Y-5469093D01*
G01X-6546139Y-5463639D01*
G01X-6546745Y-5459396D01*
G01X-6547351Y-5456366D01*
G01X-6547957Y-5453942D01*
G01X-6548866Y-5451214D01*
G01X-6550078Y-5448184D01*
G01X-6551290Y-5445457D01*
G01X-6552502Y-5443336D01*
G01X-6554320Y-5440608D01*
G01X-6556139Y-5438184D01*
G01X-6560684Y-5433639D01*
G01X-6562805Y-5432123D01*
G01X-6565230Y-5430608D01*
G01X-6567351Y-5429396D01*
G01X-6569472Y-5428487D01*
G01X-6571896Y-5427578D01*
G01X-6574927Y-5426669D01*
G01X-6577654Y-5426063D01*
G01X-6582502Y-5425760D01*
G01X-6588563Y-5426366D01*
G01X-6591593Y-5427275D01*
G01X-6594018Y-5427881D01*
G01X-6596745Y-5429093D01*
G01X-6599169Y-5430305D01*
G01X-6600987Y-5431517D01*
G01X-6605230Y-5435154D01*
G01X-6606745Y-5436972D01*
G01X-6607957Y-5438790D01*
G01X-6609169Y-5440305D01*
G01X-6610684Y-5442426D01*
G01X-6611896Y-5444245D01*
G01X-6612427Y-5444093D01*
G01X-6612805Y-5443033D01*
G01X-6613714Y-5440305D01*
G01X-6614927Y-5437578D01*
G01X-6616139Y-5435154D01*
G01X-6617351Y-5433335D01*
G01X-6618563Y-5431820D01*
G01X-6619472Y-5430305D01*
G01X-6621290Y-5428487D01*
G01X-6625533Y-5424851D01*
G01X-6627654Y-5423335D01*
G01X-6630078Y-5422123D01*
G01X-6633108Y-5420911D01*
G01X-6636139Y-5420002D01*
G01X-6638866Y-5419396D01*
G01X-6641290Y-5419093D01*
G01X-6644927Y-5418790D01*
G01X-6647957Y-5418790D01*
G01X-6650381Y-5419093D01*
G01X-6654017Y-5419396D01*
G01X-6657048Y-5420002D01*
G01X-6659775Y-5420608D01*
G01X-6662805Y-5421517D01*
G01X-6665533Y-5422729D01*
G01X-6667957Y-5423941D01*
G01X-6670078Y-5425154D01*
G01X-6671896Y-5426366D01*
G01X-6673411Y-5427275D01*
G01X-6674927Y-5428487D01*
G01X-6680987Y-5434548D01*
G01X-6682199Y-5436063D01*
G01X-6683715Y-5438184D01*
G01X-6685533Y-5440911D01*
G01X-6687048Y-5443639D01*
G01X-6688260Y-5446366D01*
G01X-6690078Y-5451820D01*
G01X-6690987Y-5455457D01*
G01X-6691593Y-5458790D01*
G01X-6691896Y-5466366D01*
G01X-6732502Y-5466366D01*
G01X-6732502Y-5408790D01*
G01X-6508866Y-5408790D01*
G01X-6508866Y-5765154D01*
G01X-6732502Y-5765154D01*
G37*
G36*
G01X-6990338Y-5408790D02*
G01X-6766702Y-5408790D01*
G01X-6766702Y-5953639D01*
G01X-6990338Y-5953639D01*
G01X-6990338Y-5920305D01*
G01X-6947308Y-5920305D01*
G01X-6947308Y-5938487D01*
G01X-6804278Y-5938487D01*
G01X-6804278Y-5919093D01*
G01X-6805793Y-5918184D01*
G01X-6865793Y-5878184D01*
G01X-6870035Y-5875154D01*
G01X-6913672Y-5846063D01*
G01X-6915490Y-5844548D01*
G01X-6901778Y-5844093D01*
G01X-6860035Y-5843942D01*
G01X-6804278Y-5843942D01*
G01X-6804278Y-5825760D01*
G01X-6947308Y-5825760D01*
G01X-6947308Y-5834851D01*
G01X-6947005Y-5844851D01*
G01X-6945490Y-5846669D01*
G01X-6904581Y-5873942D01*
G01X-6898520Y-5878184D01*
G01X-6838520Y-5918184D01*
G01X-6836702Y-5919699D01*
G01X-6850338Y-5920154D01*
G01X-6850338Y-5920154D01*
G01X-6891853Y-5920305D01*
G01X-6947308Y-5920305D01*
G01X-6990338Y-5920305D01*
G01X-6990338Y-5774851D01*
G01X-6947308Y-5774851D01*
G01X-6947308Y-5793639D01*
G01X-6804278Y-5793639D01*
G01X-6804278Y-5758790D01*
G01X-6804581Y-5723033D01*
G01X-6804884Y-5719699D01*
G01X-6805187Y-5715154D01*
G01X-6805793Y-5710911D01*
G01X-6806399Y-5707881D01*
G01X-6807005Y-5705154D01*
G01X-6807914Y-5702123D01*
G01X-6809126Y-5699396D01*
G01X-6810641Y-5696366D01*
G01X-6812762Y-5693336D01*
G01X-6814581Y-5690911D01*
G01X-6816702Y-5688790D01*
G01X-6819732Y-5686669D01*
G01X-6822763Y-5684851D01*
G01X-6825187Y-5683336D01*
G01X-6827308Y-5682427D01*
G01X-6829732Y-5681517D01*
G01X-6832763Y-5680608D01*
G01X-6835490Y-5680002D01*
G01X-6842156Y-5679396D01*
G01X-6843672Y-5679396D01*
G01X-6846702Y-5679699D01*
G01X-6850035Y-5680002D01*
G01X-6853066Y-5680608D01*
G01X-6856399Y-5681517D01*
G01X-6859126Y-5682730D01*
G01X-6862156Y-5684245D01*
G01X-6864884Y-5686063D01*
G01X-6867005Y-5687578D01*
G01X-6872156Y-5692730D01*
G01X-6874278Y-5695760D01*
G01X-6875793Y-5698184D01*
G01X-6877005Y-5700608D01*
G01X-6878217Y-5703336D01*
G01X-6879126Y-5705760D01*
G01X-6880035Y-5708790D01*
G01X-6880944Y-5712123D01*
G01X-6881550Y-5714548D01*
G01X-6882005Y-5718563D01*
G01X-6882459Y-5718790D01*
G01X-6883672Y-5717578D01*
G01X-6884884Y-5715154D01*
G01X-6886399Y-5712426D01*
G01X-6888520Y-5709699D01*
G01X-6890338Y-5707275D01*
G01X-6894884Y-5702730D01*
G01X-6896399Y-5701517D01*
G01X-6898520Y-5699699D01*
G01X-6903368Y-5696063D01*
G01X-6906399Y-5693942D01*
G01X-6911853Y-5690305D01*
G01X-6914884Y-5688487D01*
G01X-6920338Y-5684851D01*
G01X-6923369Y-5683033D01*
G01X-6926096Y-5681214D01*
G01X-6930944Y-5678184D01*
G01X-6933672Y-5676366D01*
G01X-6936702Y-5674548D01*
G01X-6942157Y-5670911D01*
G01X-6944581Y-5669396D01*
G01X-6946399Y-5668487D01*
G01X-6947081Y-5670987D01*
G01X-6947308Y-5679093D01*
G01X-6947005Y-5690911D01*
G01X-6945490Y-5692730D01*
G01X-6940641Y-5695760D01*
G01X-6937914Y-5697578D01*
G01X-6934884Y-5699396D01*
G01X-6932157Y-5701214D01*
G01X-6927308Y-5704245D01*
G01X-6924581Y-5706063D01*
G01X-6921550Y-5707881D01*
G01X-6916096Y-5711517D01*
G01X-6911247Y-5714548D01*
G01X-6907005Y-5717578D01*
G01X-6904278Y-5719396D01*
G01X-6902156Y-5720911D01*
G01X-6900641Y-5722124D01*
G01X-6899126Y-5723033D01*
G01X-6897611Y-5724245D01*
G01X-6893368Y-5727881D01*
G01X-6890338Y-5730911D01*
G01X-6889126Y-5732427D01*
G01X-6887914Y-5734245D01*
G01X-6886702Y-5736366D01*
G01X-6885793Y-5738487D01*
G01X-6884884Y-5740912D01*
G01X-6884278Y-5743336D01*
G01X-6883975Y-5745457D01*
G01X-6883672Y-5760608D01*
G01X-6883672Y-5760608D01*
G01X-6883672Y-5774851D01*
G01X-6947308Y-5774851D01*
G01X-6990338Y-5774851D01*
G01X-6990338Y-5595457D01*
G01X-6949732Y-5595457D01*
G01X-6949429Y-5604548D01*
G01X-6948823Y-5607881D01*
G01X-6948217Y-5612730D01*
G01X-6947308Y-5616972D01*
G01X-6946399Y-5620002D01*
G01X-6945793Y-5622427D01*
G01X-6944884Y-5625154D01*
G01X-6943672Y-5627881D01*
G01X-6941247Y-5632730D01*
G01X-6939732Y-5635457D01*
G01X-6938520Y-5637578D01*
G01X-6937308Y-5639093D01*
G01X-6931247Y-5645154D01*
G01X-6929732Y-5646366D01*
G01X-6927611Y-5647881D01*
G01X-6925187Y-5649396D01*
G01X-6923066Y-5650608D01*
G01X-6920641Y-5651821D01*
G01X-6917611Y-5653033D01*
G01X-6913672Y-5654245D01*
G01X-6910641Y-5655154D01*
G01X-6905793Y-5655760D01*
G01X-6903065Y-5656063D01*
G01X-6901247Y-5656063D01*
G01X-6901247Y-5654245D01*
G01X-6900944Y-5651518D01*
G01X-6900338Y-5643639D01*
G01X-6900035Y-5640912D01*
G01X-6900641Y-5638487D01*
G01X-6903368Y-5637578D01*
G01X-6907611Y-5636669D01*
G01X-6910944Y-5635457D01*
G01X-6913672Y-5634245D01*
G01X-6916096Y-5633033D01*
G01X-6918217Y-5631821D01*
G01X-6920035Y-5630305D01*
G01X-6923672Y-5626669D01*
G01X-6925490Y-5623942D01*
G01X-6927005Y-5621517D01*
G01X-6928520Y-5618790D01*
G01X-6929732Y-5615457D01*
G01X-6930944Y-5611517D01*
G01X-6931854Y-5608487D01*
G01X-6932460Y-5604245D01*
G01X-6932763Y-5597275D01*
G01X-6932460Y-5589699D01*
G01X-6931854Y-5585457D01*
G01X-6930944Y-5580911D01*
G01X-6929732Y-5577578D01*
G01X-6928520Y-5574548D01*
G01X-6927005Y-5571517D01*
G01X-6925490Y-5569396D01*
G01X-6923672Y-5567275D01*
G01X-6920944Y-5564548D01*
G01X-6918217Y-5562730D01*
G01X-6915187Y-5561517D01*
G01X-6912459Y-5560608D01*
G01X-6909429Y-5560305D01*
G01X-6906399Y-5560608D01*
G01X-6903368Y-5561214D01*
G01X-6899732Y-5562427D01*
G01X-6896702Y-5564245D01*
G01X-6894581Y-5566063D01*
G01X-6893368Y-5567578D01*
G01X-6892156Y-5569396D01*
G01X-6890641Y-5572123D01*
G01X-6889126Y-5575154D01*
G01X-6887914Y-5577881D01*
G01X-6887005Y-5580608D01*
G01X-6886096Y-5583942D01*
G01X-6885187Y-5586669D01*
G01X-6884581Y-5589396D01*
G01X-6883672Y-5593336D01*
G01X-6882762Y-5596366D01*
G01X-6882156Y-5599396D01*
G01X-6881247Y-5602729D01*
G01X-6878823Y-5612426D01*
G01X-6877914Y-5615154D01*
G01X-6877005Y-5618487D01*
G01X-6874581Y-5625154D01*
G01X-6873369Y-5627881D01*
G01X-6872156Y-5630305D01*
G01X-6870944Y-5632427D01*
G01X-6870035Y-5634245D01*
G01X-6868823Y-5636063D01*
G01X-6865187Y-5640305D01*
G01X-6862156Y-5643336D01*
G01X-6860641Y-5644548D01*
G01X-6858823Y-5645760D01*
G01X-6856702Y-5646972D01*
G01X-6852459Y-5648790D01*
G01X-6849429Y-5649699D01*
G01X-6846399Y-5650305D01*
G01X-6841853Y-5650608D01*
G01X-6837308Y-5650305D01*
G01X-6833975Y-5649699D01*
G01X-6830338Y-5648790D01*
G01X-6827308Y-5647578D01*
G01X-6823975Y-5646063D01*
G01X-6821550Y-5644548D01*
G01X-6819732Y-5643336D01*
G01X-6816702Y-5640912D01*
G01X-6813672Y-5637881D01*
G01X-6811853Y-5635760D01*
G01X-6810035Y-5633033D01*
G01X-6808520Y-5630305D01*
G01X-6807308Y-5627881D01*
G01X-6806096Y-5625154D01*
G01X-6803974Y-5618790D01*
G01X-6802762Y-5612730D01*
G01X-6802156Y-5607275D01*
G01X-6801853Y-5600608D01*
G01X-6802156Y-5593942D01*
G01X-6802762Y-5588487D01*
G01X-6803974Y-5582426D01*
G01X-6804581Y-5579699D01*
G01X-6805490Y-5576669D01*
G01X-6806702Y-5573639D01*
G01X-6807914Y-5570911D01*
G01X-6810641Y-5565457D01*
G01X-6812156Y-5563336D01*
G01X-6813369Y-5561517D01*
G01X-6814884Y-5559699D01*
G01X-6817914Y-5556669D01*
G01X-6819429Y-5555457D01*
G01X-6821550Y-5553942D01*
G01X-6824278Y-5552124D01*
G01X-6827005Y-5550608D01*
G01X-6830035Y-5549396D01*
G01X-6833672Y-5548184D01*
G01X-6836702Y-5547275D01*
G01X-6841550Y-5546669D01*
G01X-6843672Y-5546366D01*
G01X-6844581Y-5547199D01*
G01X-6844884Y-5549699D01*
G01X-6845187Y-5553942D01*
G01X-6845490Y-5557578D01*
G01X-6845793Y-5562427D01*
G01X-6846096Y-5564548D01*
G01X-6844278Y-5564851D01*
G01X-6838823Y-5566063D01*
G01X-6836096Y-5566972D01*
G01X-6833672Y-5568184D01*
G01X-6830944Y-5569699D01*
G01X-6828823Y-5571214D01*
G01X-6825793Y-5574245D01*
G01X-6823975Y-5576366D01*
G01X-6822460Y-5578790D01*
G01X-6821550Y-5580911D01*
G01X-6820641Y-5583336D01*
G01X-6819732Y-5586366D01*
G01X-6819126Y-5589093D01*
G01X-6818520Y-5597578D01*
G01X-6818520Y-5599396D01*
G01X-6818823Y-5603032D01*
G01X-6819126Y-5607881D01*
G01X-6819732Y-5612123D01*
G01X-6820641Y-5616063D01*
G01X-6821853Y-5619396D01*
G01X-6823066Y-5621820D01*
G01X-6824278Y-5623942D01*
G01X-6825793Y-5625760D01*
G01X-6827308Y-5627275D01*
G01X-6829429Y-5629093D01*
G01X-6831853Y-5630608D01*
G01X-6834278Y-5631518D01*
G01X-6836702Y-5632124D01*
G01X-6839429Y-5632427D01*
G01X-6842156Y-5632124D01*
G01X-6844884Y-5631518D01*
G01X-6847611Y-5630608D01*
G01X-6849429Y-5629699D01*
G01X-6850944Y-5628487D01*
G01X-6852459Y-5626972D01*
G01X-6853975Y-5625154D01*
G01X-6855187Y-5623033D01*
G01X-6857005Y-5618790D01*
G01X-6857914Y-5616366D01*
G01X-6859732Y-5610911D01*
G01X-6860641Y-5607275D01*
G01X-6861853Y-5603032D01*
G01X-6862762Y-5600002D01*
G01X-6863369Y-5596972D01*
G01X-6864278Y-5592729D01*
G01X-6865187Y-5589699D01*
G01X-6865793Y-5586972D01*
G01X-6866702Y-5583336D01*
G01X-6867611Y-5580608D01*
G01X-6868217Y-5578184D01*
G01X-6869126Y-5574851D01*
G01X-6870338Y-5571214D01*
G01X-6871550Y-5568184D01*
G01X-6872762Y-5565457D01*
G01X-6874278Y-5562427D01*
G01X-6877914Y-5556972D01*
G01X-6879429Y-5554851D01*
G01X-6880641Y-5553336D01*
G01X-6882762Y-5551214D01*
G01X-6885793Y-5548790D01*
G01X-6888520Y-5546972D01*
G01X-6890641Y-5545760D01*
G01X-6892762Y-5544851D01*
G01X-6895187Y-5543942D01*
G01X-6898520Y-5543033D01*
G01X-6901550Y-5542427D01*
G01X-6904884Y-5542124D01*
G01X-6910035Y-5542427D01*
G01X-6913672Y-5543033D01*
G01X-6916399Y-5543639D01*
G01X-6919732Y-5544548D01*
G01X-6922763Y-5545760D01*
G01X-6925187Y-5546972D01*
G01X-6927308Y-5548184D01*
G01X-6929126Y-5549396D01*
G01X-6930641Y-5550305D01*
G01X-6932157Y-5551517D01*
G01X-6938217Y-5557578D01*
G01X-6939732Y-5559699D01*
G01X-6941247Y-5562123D01*
G01X-6942460Y-5563942D01*
G01X-6943672Y-5566063D01*
G01X-6944884Y-5568790D01*
G01X-6946096Y-5571820D01*
G01X-6947308Y-5575760D01*
G01X-6948217Y-5578790D01*
G01X-6948217Y-5578790D01*
G01X-6949429Y-5586063D01*
G01X-6949732Y-5595457D01*
G01X-6990338Y-5595457D01*
G01X-6990338Y-5460911D01*
G01X-6947308Y-5460911D01*
G01X-6947308Y-5479699D01*
G01X-6821247Y-5479699D01*
G01X-6821247Y-5526972D01*
G01X-6804278Y-5526972D01*
G01X-6804278Y-5413639D01*
G01X-6821247Y-5413639D01*
G01X-6821247Y-5413639D01*
G01X-6821247Y-5460911D01*
G01X-6947308Y-5460911D01*
G01X-6990338Y-5460911D01*
G01X-6990338Y-5408790D01*
G37*
G36*
G01X-6820035Y-5749093D02*
G01X-6820035Y-5774851D01*
G01X-6843369Y-5774851D01*
G01X-6867005Y-5774548D01*
G01X-6867308Y-5751215D01*
G01X-6867005Y-5725457D01*
G01X-6866399Y-5721214D01*
G01X-6865793Y-5718184D01*
G01X-6865187Y-5715760D01*
G01X-6864278Y-5713033D01*
G01X-6862762Y-5710002D01*
G01X-6861550Y-5707881D01*
G01X-6860338Y-5706366D01*
G01X-6858823Y-5704851D01*
G01X-6856702Y-5703033D01*
G01X-6854278Y-5701517D01*
G01X-6852156Y-5700608D01*
G01X-6849732Y-5699699D01*
G01X-6844884Y-5699093D01*
G01X-6839126Y-5699396D01*
G01X-6835187Y-5700305D01*
G01X-6830944Y-5702426D01*
G01X-6829126Y-5703639D01*
G01X-6826096Y-5706669D01*
G01X-6824581Y-5708790D01*
G01X-6823066Y-5711517D01*
G01X-6821853Y-5714851D01*
G01X-6820944Y-5717578D01*
G01X-6820338Y-5722427D01*
G01X-6820035Y-5749093D01*
G37*
G36*
G01X1680844Y-1415995D02*
G01X1680844Y-1287359D01*
G01X1698116Y-1287359D01*
G01X1698571Y-1295541D01*
G01X1699480Y-1300995D01*
G01X1700389Y-1305086D01*
G01X1701753Y-1310541D01*
G01X1703571Y-1314632D01*
G01X1707662Y-1322813D01*
G01X1710389Y-1326904D01*
G01X1712662Y-1330086D01*
G01X1719480Y-1336904D01*
G01X1722662Y-1339177D01*
G01X1726753Y-1341450D01*
G01X1730389Y-1343268D01*
G01X1734480Y-1345086D01*
G01X1744026Y-1348268D01*
G01X1753117Y-1350086D01*
G01X1753117Y-1350086D01*
G01X1761298Y-1350995D01*
G01X1811298Y-1351450D01*
G01X1859935Y-1351450D01*
G01X1859935Y-1136904D01*
G01X1815844Y-1136904D01*
G01X1770389Y-1137359D01*
G01X1766753Y-1137813D01*
G01X1761298Y-1138268D01*
G01X1747662Y-1140995D01*
G01X1743571Y-1142359D01*
G01X1739480Y-1144177D01*
G01X1735844Y-1145995D01*
G01X1731753Y-1148268D01*
G01X1728571Y-1150541D01*
G01X1724026Y-1154177D01*
G01X1721753Y-1156450D01*
G01X1719480Y-1159632D01*
G01X1714935Y-1166904D01*
G01X1712662Y-1171450D01*
G01X1709480Y-1180995D01*
G01X1708571Y-1190086D01*
G01X1708571Y-1193268D01*
G01X1709480Y-1199177D01*
G01X1710844Y-1205995D01*
G01X1712662Y-1210995D01*
G01X1714935Y-1215541D01*
G01X1717662Y-1219632D01*
G01X1719480Y-1222813D01*
G01X1726753Y-1230086D01*
G01X1729935Y-1232359D01*
G01X1732662Y-1234177D01*
G01X1735844Y-1235995D01*
G01X1736639Y-1236904D01*
G01X1736298Y-1237813D01*
G01X1732662Y-1239632D01*
G01X1728571Y-1241450D01*
G01X1724935Y-1243268D01*
G01X1721753Y-1245086D01*
G01X1719480Y-1246450D01*
G01X1717207Y-1248268D01*
G01X1710389Y-1255086D01*
G01X1707662Y-1258268D01*
G01X1704935Y-1262359D01*
G01X1702662Y-1266904D01*
G01X1700844Y-1271450D01*
G01X1699480Y-1276904D01*
G01X1698571Y-1281904D01*
G01X1698116Y-1287359D01*
G01X1680844Y-1287359D01*
G01X1680844Y-1080541D01*
G01X1881753Y-1080541D01*
G01X1881753Y-1415995D01*
G01X1680844Y-1415995D01*
G37*
G36*
G01X1800389Y-1252359D02*
G01X1831753Y-1252359D01*
G01X1831753Y-1288722D01*
G01X1831298Y-1325541D01*
G01X1797207Y-1325995D01*
G01X1761298Y-1325541D01*
G01X1756753Y-1324632D01*
G01X1751753Y-1323268D01*
G01X1746753Y-1321450D01*
G01X1742208Y-1319177D01*
G01X1739026Y-1316450D01*
G01X1734480Y-1311904D01*
G01X1732662Y-1309177D01*
G01X1729935Y-1303723D01*
G01X1728571Y-1300086D01*
G01X1727662Y-1293722D01*
G01X1727662Y-1288268D01*
G01X1728117Y-1284631D01*
G01X1729026Y-1279177D01*
G01X1730844Y-1273722D01*
G01X1733117Y-1269631D01*
G01X1735389Y-1266450D01*
G01X1737662Y-1263722D01*
G01X1741299Y-1260541D01*
G01X1745844Y-1257813D01*
G01X1749935Y-1255995D01*
G01X1754935Y-1254631D01*
G01X1759480Y-1253722D01*
G01X1767662Y-1252813D01*
G01X1800389Y-1252359D01*
G37*
G36*
G01X1799935Y-1162359D02*
G01X1831753Y-1162359D01*
G01X1831753Y-1194177D01*
G01X1831298Y-1226450D01*
G01X1801298Y-1226904D01*
G01X1769480Y-1226450D01*
G01X1763117Y-1225541D01*
G01X1757208Y-1224177D01*
G01X1753117Y-1222359D01*
G01X1749480Y-1220541D01*
G01X1746753Y-1218722D01*
G01X1743117Y-1215086D01*
G01X1740844Y-1212359D01*
G01X1739026Y-1209177D01*
G01X1737662Y-1205086D01*
G01X1736753Y-1200995D01*
G01X1736298Y-1196450D01*
G01X1736753Y-1191904D01*
G01X1737208Y-1188723D01*
G01X1738117Y-1184177D01*
G01X1739935Y-1180086D01*
G01X1741299Y-1176904D01*
G01X1743117Y-1174177D01*
G01X1747662Y-1169632D01*
G01X1751299Y-1167359D01*
G01X1756298Y-1165086D01*
G01X1760389Y-1163723D01*
G01X1766753Y-1162813D01*
G01X1799935Y-1162359D01*
G37*
G36*
G01X1679935Y-1822445D02*
G01X1679935Y-1757900D01*
G01X1681753Y-1757900D01*
G01X1697662Y-1757900D01*
G01X1709821Y-1757559D01*
G01X1714480Y-1756536D01*
G01X1716298Y-1752445D01*
G01X1719935Y-1743354D01*
G01X1721753Y-1738354D01*
G01X1723571Y-1733809D01*
G01X1725389Y-1728809D01*
G01X1729026Y-1719718D01*
G01X1730844Y-1714718D01*
G01X1732662Y-1710173D01*
G01X1734480Y-1705172D01*
G01X1738117Y-1696082D01*
G01X1739026Y-1693354D01*
G01X1829026Y-1693354D01*
G01X1829935Y-1695627D01*
G01X1831753Y-1700627D01*
G01X1833571Y-1705172D01*
G01X1834935Y-1709263D01*
G01X1837662Y-1716536D01*
G01X1839026Y-1720627D01*
G01X1840844Y-1725173D01*
G01X1842662Y-1730627D01*
G01X1844480Y-1735173D01*
G01X1845844Y-1739263D01*
G01X1848571Y-1746536D01*
G01X1849935Y-1750627D01*
G01X1851753Y-1755173D01*
G01X1851753Y-1755173D01*
G01X1852662Y-1757900D01*
G01X1866753Y-1757900D01*
G01X1880844Y-1756991D01*
G01X1880389Y-1753809D01*
G01X1879026Y-1749263D01*
G01X1877208Y-1744718D01*
G01X1875389Y-1739718D01*
G01X1871753Y-1730627D01*
G01X1868117Y-1720627D01*
G01X1864480Y-1711536D01*
G01X1862662Y-1706536D01*
G01X1860844Y-1701991D01*
G01X1859026Y-1696991D01*
G01X1855389Y-1687900D01*
G01X1853571Y-1682900D01*
G01X1851753Y-1678354D01*
G01X1849935Y-1673354D01*
G01X1846298Y-1664263D01*
G01X1844480Y-1659263D01*
G01X1842662Y-1654718D01*
G01X1840844Y-1649718D01*
G01X1837207Y-1640627D01*
G01X1835389Y-1635627D01*
G01X1833571Y-1631082D01*
G01X1831753Y-1626082D01*
G01X1828116Y-1616991D01*
G01X1824480Y-1606991D01*
G01X1820844Y-1597900D01*
G01X1819026Y-1592900D01*
G01X1817207Y-1588354D01*
G01X1815389Y-1583354D01*
G01X1811753Y-1574264D01*
G01X1809935Y-1569263D01*
G01X1808117Y-1564718D01*
G01X1806298Y-1559718D01*
G01X1802662Y-1550627D01*
G01X1800844Y-1545627D01*
G01X1799935Y-1543354D01*
G01X1785389Y-1543354D01*
G01X1774139Y-1543695D01*
G01X1769480Y-1544718D01*
G01X1767208Y-1548809D01*
G01X1765389Y-1553354D01*
G01X1763571Y-1557445D01*
G01X1756298Y-1575627D01*
G01X1754480Y-1579718D01*
G01X1750844Y-1588809D01*
G01X1749480Y-1592445D01*
G01X1748117Y-1595627D01*
G01X1746299Y-1599718D01*
G01X1740844Y-1613354D01*
G01X1739026Y-1617445D01*
G01X1731753Y-1635627D01*
G01X1729935Y-1639718D01*
G01X1726298Y-1648809D01*
G01X1724935Y-1652445D01*
G01X1723571Y-1655627D01*
G01X1721753Y-1659718D01*
G01X1716298Y-1673354D01*
G01X1714480Y-1677445D01*
G01X1707207Y-1695627D01*
G01X1705389Y-1699718D01*
G01X1701753Y-1708809D01*
G01X1700389Y-1712445D01*
G01X1699026Y-1715627D01*
G01X1697207Y-1719718D01*
G01X1691753Y-1733354D01*
G01X1689935Y-1737445D01*
G01X1681753Y-1757900D01*
G01X1679935Y-1757900D01*
G01X1679935Y-1486991D01*
G01X1881753Y-1486991D01*
G01X1881753Y-1822445D01*
G01X1679935Y-1822445D01*
G37*
G36*
G01X1816298Y-1657900D02*
G01X1818117Y-1662445D01*
G01X1819480Y-1666536D01*
G01X1819480Y-1669263D01*
G01X1784935Y-1669718D01*
G01X1749480Y-1669263D01*
G01X1748685Y-1668468D01*
G01X1749026Y-1666991D01*
G01X1750844Y-1662445D01*
G01X1754480Y-1652445D01*
G01X1756298Y-1647900D01*
G01X1775389Y-1596991D01*
G01X1778117Y-1588809D01*
G01X1779935Y-1584264D01*
G01X1783117Y-1574718D01*
G01X1784026Y-1571082D01*
G01X1785389Y-1568354D01*
G01X1786185Y-1568695D01*
G01X1786753Y-1570627D01*
G01X1788117Y-1576536D01*
G01X1789480Y-1581082D01*
G01X1790389Y-1585173D01*
G01X1794480Y-1598809D01*
G01X1795844Y-1602900D01*
G01X1809480Y-1639263D01*
G01X1810844Y-1643354D01*
G01X1812662Y-1647900D01*
G01X1816298Y-1657900D01*
G37*
G36*
G01X1680844Y-2609687D02*
G01X1680844Y-2481051D01*
G01X1698116Y-2481051D01*
G01X1698571Y-2489233D01*
G01X1699480Y-2494687D01*
G01X1700389Y-2498778D01*
G01X1701753Y-2504233D01*
G01X1703571Y-2508324D01*
G01X1707662Y-2516506D01*
G01X1710389Y-2520596D01*
G01X1712662Y-2523778D01*
G01X1719480Y-2530596D01*
G01X1722662Y-2532869D01*
G01X1726753Y-2535142D01*
G01X1730389Y-2536960D01*
G01X1734480Y-2538778D01*
G01X1744026Y-2541960D01*
G01X1753117Y-2543778D01*
G01X1753117Y-2543778D01*
G01X1761298Y-2544687D01*
G01X1811298Y-2545142D01*
G01X1859935Y-2545142D01*
G01X1859935Y-2330596D01*
G01X1815844Y-2330596D01*
G01X1770389Y-2331051D01*
G01X1766753Y-2331505D01*
G01X1761298Y-2331960D01*
G01X1747662Y-2334687D01*
G01X1743571Y-2336051D01*
G01X1739480Y-2337869D01*
G01X1735844Y-2339687D01*
G01X1731753Y-2341960D01*
G01X1728571Y-2344233D01*
G01X1724026Y-2347869D01*
G01X1721753Y-2350142D01*
G01X1719480Y-2353324D01*
G01X1714935Y-2360596D01*
G01X1712662Y-2365142D01*
G01X1709480Y-2374687D01*
G01X1708571Y-2383778D01*
G01X1708571Y-2386960D01*
G01X1709480Y-2392869D01*
G01X1710844Y-2399687D01*
G01X1712662Y-2404687D01*
G01X1714935Y-2409233D01*
G01X1717662Y-2413324D01*
G01X1719480Y-2416505D01*
G01X1726753Y-2423778D01*
G01X1729935Y-2426051D01*
G01X1732662Y-2427869D01*
G01X1735844Y-2429687D01*
G01X1736639Y-2430596D01*
G01X1736298Y-2431505D01*
G01X1732662Y-2433324D01*
G01X1728571Y-2435142D01*
G01X1724935Y-2436960D01*
G01X1721753Y-2438778D01*
G01X1719480Y-2440142D01*
G01X1717207Y-2441960D01*
G01X1710389Y-2448778D01*
G01X1707662Y-2451960D01*
G01X1704935Y-2456051D01*
G01X1702662Y-2460596D01*
G01X1700844Y-2465142D01*
G01X1699480Y-2470596D01*
G01X1698571Y-2475596D01*
G01X1698116Y-2481051D01*
G01X1680844Y-2481051D01*
G01X1680844Y-2274233D01*
G01X1881753Y-2274233D01*
G01X1881753Y-2609687D01*
G01X1680844Y-2609687D01*
G37*
G36*
G01X1800389Y-2446051D02*
G01X1831753Y-2446051D01*
G01X1831753Y-2482414D01*
G01X1831298Y-2519233D01*
G01X1797207Y-2519687D01*
G01X1761298Y-2519233D01*
G01X1756753Y-2518324D01*
G01X1751753Y-2516960D01*
G01X1746753Y-2515142D01*
G01X1742208Y-2512869D01*
G01X1739026Y-2510142D01*
G01X1734480Y-2505596D01*
G01X1732662Y-2502869D01*
G01X1729935Y-2497415D01*
G01X1728571Y-2493778D01*
G01X1727662Y-2487414D01*
G01X1727662Y-2481960D01*
G01X1728117Y-2478323D01*
G01X1729026Y-2472869D01*
G01X1730844Y-2467414D01*
G01X1733117Y-2463323D01*
G01X1735389Y-2460142D01*
G01X1737662Y-2457414D01*
G01X1741299Y-2454233D01*
G01X1745844Y-2451505D01*
G01X1749935Y-2449687D01*
G01X1754935Y-2448324D01*
G01X1759480Y-2447414D01*
G01X1767662Y-2446505D01*
G01X1800389Y-2446051D01*
G37*
G36*
G01X1799935Y-2356051D02*
G01X1831753Y-2356051D01*
G01X1831753Y-2387869D01*
G01X1831298Y-2420142D01*
G01X1801298Y-2420596D01*
G01X1769480Y-2420142D01*
G01X1763117Y-2419233D01*
G01X1757208Y-2417869D01*
G01X1753117Y-2416051D01*
G01X1749480Y-2414233D01*
G01X1746753Y-2412415D01*
G01X1743117Y-2408778D01*
G01X1740844Y-2406051D01*
G01X1739026Y-2402869D01*
G01X1737662Y-2398778D01*
G01X1736753Y-2394687D01*
G01X1736298Y-2390142D01*
G01X1736753Y-2385596D01*
G01X1737208Y-2382415D01*
G01X1738117Y-2377869D01*
G01X1739935Y-2373778D01*
G01X1741299Y-2370596D01*
G01X1743117Y-2367869D01*
G01X1747662Y-2363324D01*
G01X1751299Y-2361051D01*
G01X1756298Y-2358778D01*
G01X1760389Y-2357415D01*
G01X1766753Y-2356505D01*
G01X1799935Y-2356051D01*
G37*
G36*
G01X1679935Y-3016137D02*
G01X1679935Y-2951592D01*
G01X1681753Y-2951592D01*
G01X1697662Y-2951592D01*
G01X1709821Y-2951251D01*
G01X1714480Y-2950228D01*
G01X1716298Y-2946137D01*
G01X1719935Y-2937046D01*
G01X1721753Y-2932046D01*
G01X1723571Y-2927501D01*
G01X1725389Y-2922501D01*
G01X1729026Y-2913410D01*
G01X1730844Y-2908410D01*
G01X1732662Y-2903865D01*
G01X1734480Y-2898864D01*
G01X1738117Y-2889774D01*
G01X1739026Y-2887046D01*
G01X1829026Y-2887046D01*
G01X1829935Y-2889319D01*
G01X1831753Y-2894319D01*
G01X1833571Y-2898864D01*
G01X1834935Y-2902955D01*
G01X1837662Y-2910228D01*
G01X1839026Y-2914319D01*
G01X1840844Y-2918865D01*
G01X1842662Y-2924319D01*
G01X1844480Y-2928865D01*
G01X1845844Y-2932956D01*
G01X1848571Y-2940228D01*
G01X1849935Y-2944319D01*
G01X1851753Y-2948865D01*
G01X1851753Y-2948865D01*
G01X1852662Y-2951592D01*
G01X1866753Y-2951592D01*
G01X1880844Y-2950683D01*
G01X1880389Y-2947501D01*
G01X1879026Y-2942956D01*
G01X1877208Y-2938410D01*
G01X1875389Y-2933410D01*
G01X1871753Y-2924319D01*
G01X1868117Y-2914319D01*
G01X1864480Y-2905228D01*
G01X1862662Y-2900228D01*
G01X1860844Y-2895683D01*
G01X1859026Y-2890683D01*
G01X1855389Y-2881592D01*
G01X1853571Y-2876592D01*
G01X1851753Y-2872046D01*
G01X1849935Y-2867046D01*
G01X1846298Y-2857955D01*
G01X1844480Y-2852955D01*
G01X1842662Y-2848410D01*
G01X1840844Y-2843410D01*
G01X1837207Y-2834319D01*
G01X1835389Y-2829319D01*
G01X1833571Y-2824774D01*
G01X1831753Y-2819774D01*
G01X1828116Y-2810683D01*
G01X1824480Y-2800683D01*
G01X1820844Y-2791592D01*
G01X1819026Y-2786592D01*
G01X1817207Y-2782047D01*
G01X1815389Y-2777046D01*
G01X1811753Y-2767956D01*
G01X1809935Y-2762955D01*
G01X1808117Y-2758410D01*
G01X1806298Y-2753410D01*
G01X1802662Y-2744319D01*
G01X1800844Y-2739319D01*
G01X1799935Y-2737046D01*
G01X1785389Y-2737046D01*
G01X1774139Y-2737387D01*
G01X1769480Y-2738410D01*
G01X1767208Y-2742501D01*
G01X1765389Y-2747046D01*
G01X1763571Y-2751137D01*
G01X1756298Y-2769319D01*
G01X1754480Y-2773410D01*
G01X1750844Y-2782501D01*
G01X1749480Y-2786137D01*
G01X1748117Y-2789319D01*
G01X1746299Y-2793410D01*
G01X1740844Y-2807046D01*
G01X1739026Y-2811137D01*
G01X1731753Y-2829319D01*
G01X1729935Y-2833410D01*
G01X1726298Y-2842501D01*
G01X1724935Y-2846137D01*
G01X1723571Y-2849319D01*
G01X1721753Y-2853410D01*
G01X1716298Y-2867046D01*
G01X1714480Y-2871137D01*
G01X1707207Y-2889319D01*
G01X1705389Y-2893410D01*
G01X1701753Y-2902501D01*
G01X1700389Y-2906137D01*
G01X1699026Y-2909319D01*
G01X1697207Y-2913410D01*
G01X1691753Y-2927046D01*
G01X1689935Y-2931137D01*
G01X1681753Y-2951592D01*
G01X1679935Y-2951592D01*
G01X1679935Y-2680683D01*
G01X1881753Y-2680683D01*
G01X1881753Y-3016137D01*
G01X1679935Y-3016137D01*
G37*
G36*
G01X1816298Y-2851592D02*
G01X1818117Y-2856137D01*
G01X1819480Y-2860228D01*
G01X1819480Y-2862955D01*
G01X1784935Y-2863410D01*
G01X1749480Y-2862955D01*
G01X1748685Y-2862160D01*
G01X1749026Y-2860683D01*
G01X1750844Y-2856137D01*
G01X1754480Y-2846137D01*
G01X1756298Y-2841592D01*
G01X1775389Y-2790683D01*
G01X1778117Y-2782501D01*
G01X1779935Y-2777956D01*
G01X1783117Y-2768410D01*
G01X1784026Y-2764774D01*
G01X1785389Y-2762046D01*
G01X1786185Y-2762387D01*
G01X1786753Y-2764319D01*
G01X1788117Y-2770228D01*
G01X1789480Y-2774774D01*
G01X1790389Y-2778865D01*
G01X1794480Y-2792501D01*
G01X1795844Y-2796592D01*
G01X1809480Y-2832955D01*
G01X1810844Y-2837046D01*
G01X1812662Y-2841592D01*
G01X1816298Y-2851592D01*
G37*
G36*
G01X1680844Y-3485879D02*
G01X1680844Y-3357243D01*
G01X1698116Y-3357243D01*
G01X1698571Y-3365425D01*
G01X1699480Y-3370879D01*
G01X1700389Y-3374970D01*
G01X1701753Y-3380425D01*
G01X1703571Y-3384516D01*
G01X1707662Y-3392698D01*
G01X1710389Y-3396788D01*
G01X1712662Y-3399970D01*
G01X1719480Y-3406789D01*
G01X1722662Y-3409061D01*
G01X1726753Y-3411334D01*
G01X1730389Y-3413152D01*
G01X1734480Y-3414970D01*
G01X1744026Y-3418152D01*
G01X1753117Y-3419970D01*
G01X1753117Y-3419970D01*
G01X1761298Y-3420880D01*
G01X1811298Y-3421334D01*
G01X1859935Y-3421334D01*
G01X1859935Y-3206789D01*
G01X1815844Y-3206789D01*
G01X1770389Y-3207243D01*
G01X1766753Y-3207698D01*
G01X1761298Y-3208152D01*
G01X1747662Y-3210880D01*
G01X1743571Y-3212243D01*
G01X1739480Y-3214061D01*
G01X1735844Y-3215880D01*
G01X1731753Y-3218152D01*
G01X1728571Y-3220425D01*
G01X1724026Y-3224061D01*
G01X1721753Y-3226334D01*
G01X1719480Y-3229516D01*
G01X1714935Y-3236789D01*
G01X1712662Y-3241334D01*
G01X1709480Y-3250879D01*
G01X1708571Y-3259970D01*
G01X1708571Y-3263152D01*
G01X1709480Y-3269061D01*
G01X1710844Y-3275880D01*
G01X1712662Y-3280880D01*
G01X1714935Y-3285425D01*
G01X1717662Y-3289516D01*
G01X1719480Y-3292698D01*
G01X1726753Y-3299971D01*
G01X1729935Y-3302243D01*
G01X1732662Y-3304061D01*
G01X1735844Y-3305880D01*
G01X1736639Y-3306789D01*
G01X1736298Y-3307698D01*
G01X1732662Y-3309516D01*
G01X1728571Y-3311334D01*
G01X1724935Y-3313152D01*
G01X1721753Y-3314971D01*
G01X1719480Y-3316334D01*
G01X1717207Y-3318152D01*
G01X1710389Y-3324970D01*
G01X1707662Y-3328152D01*
G01X1704935Y-3332243D01*
G01X1702662Y-3336789D01*
G01X1700844Y-3341334D01*
G01X1699480Y-3346789D01*
G01X1698571Y-3351789D01*
G01X1698116Y-3357243D01*
G01X1680844Y-3357243D01*
G01X1680844Y-3150425D01*
G01X1881753Y-3150425D01*
G01X1881753Y-3485879D01*
G01X1680844Y-3485879D01*
G37*
G36*
G01X1800389Y-3322243D02*
G01X1831753Y-3322243D01*
G01X1831753Y-3358607D01*
G01X1831298Y-3395425D01*
G01X1797207Y-3395879D01*
G01X1761298Y-3395425D01*
G01X1756753Y-3394516D01*
G01X1751753Y-3393152D01*
G01X1746753Y-3391334D01*
G01X1742208Y-3389061D01*
G01X1739026Y-3386334D01*
G01X1734480Y-3381789D01*
G01X1732662Y-3379061D01*
G01X1729935Y-3373607D01*
G01X1728571Y-3369970D01*
G01X1727662Y-3363607D01*
G01X1727662Y-3358152D01*
G01X1728117Y-3354516D01*
G01X1729026Y-3349061D01*
G01X1730844Y-3343607D01*
G01X1733117Y-3339516D01*
G01X1735389Y-3336334D01*
G01X1737662Y-3333607D01*
G01X1741299Y-3330425D01*
G01X1745844Y-3327698D01*
G01X1749935Y-3325880D01*
G01X1754935Y-3324516D01*
G01X1759480Y-3323607D01*
G01X1767662Y-3322698D01*
G01X1800389Y-3322243D01*
G37*
G36*
G01X1799935Y-3232243D02*
G01X1831753Y-3232243D01*
G01X1831753Y-3264061D01*
G01X1831298Y-3296334D01*
G01X1801298Y-3296789D01*
G01X1769480Y-3296334D01*
G01X1763117Y-3295425D01*
G01X1757208Y-3294061D01*
G01X1753117Y-3292243D01*
G01X1749480Y-3290425D01*
G01X1746753Y-3288607D01*
G01X1743117Y-3284971D01*
G01X1740844Y-3282243D01*
G01X1739026Y-3279061D01*
G01X1737662Y-3274971D01*
G01X1736753Y-3270880D01*
G01X1736298Y-3266334D01*
G01X1736753Y-3261789D01*
G01X1737208Y-3258607D01*
G01X1738117Y-3254061D01*
G01X1739935Y-3249970D01*
G01X1741299Y-3246789D01*
G01X1743117Y-3244061D01*
G01X1747662Y-3239516D01*
G01X1751299Y-3237243D01*
G01X1756298Y-3234970D01*
G01X1760389Y-3233607D01*
G01X1766753Y-3232698D01*
G01X1799935Y-3232243D01*
G37*
G36*
G01X1679935Y-3892330D02*
G01X1679935Y-3827784D01*
G01X1681753Y-3827784D01*
G01X1697662Y-3827784D01*
G01X1709821Y-3827443D01*
G01X1714480Y-3826420D01*
G01X1716298Y-3822330D01*
G01X1719935Y-3813239D01*
G01X1721753Y-3808239D01*
G01X1723571Y-3803693D01*
G01X1725389Y-3798693D01*
G01X1729026Y-3789602D01*
G01X1730844Y-3784602D01*
G01X1732662Y-3780057D01*
G01X1734480Y-3775057D01*
G01X1738117Y-3765966D01*
G01X1739026Y-3763239D01*
G01X1829026Y-3763239D01*
G01X1829935Y-3765511D01*
G01X1831753Y-3770511D01*
G01X1833571Y-3775057D01*
G01X1834935Y-3779148D01*
G01X1837662Y-3786420D01*
G01X1839026Y-3790511D01*
G01X1840844Y-3795057D01*
G01X1842662Y-3800511D01*
G01X1844480Y-3805057D01*
G01X1845844Y-3809148D01*
G01X1848571Y-3816420D01*
G01X1849935Y-3820511D01*
G01X1851753Y-3825057D01*
G01X1851753Y-3825057D01*
G01X1852662Y-3827784D01*
G01X1866753Y-3827784D01*
G01X1880844Y-3826875D01*
G01X1880389Y-3823693D01*
G01X1879026Y-3819148D01*
G01X1877208Y-3814602D01*
G01X1875389Y-3809602D01*
G01X1871753Y-3800511D01*
G01X1868117Y-3790511D01*
G01X1864480Y-3781420D01*
G01X1862662Y-3776420D01*
G01X1860844Y-3771875D01*
G01X1859026Y-3766875D01*
G01X1855389Y-3757784D01*
G01X1853571Y-3752784D01*
G01X1851753Y-3748239D01*
G01X1849935Y-3743239D01*
G01X1846298Y-3734148D01*
G01X1844480Y-3729148D01*
G01X1842662Y-3724602D01*
G01X1840844Y-3719602D01*
G01X1837207Y-3710512D01*
G01X1835389Y-3705512D01*
G01X1833571Y-3700966D01*
G01X1831753Y-3695966D01*
G01X1828116Y-3686875D01*
G01X1824480Y-3676875D01*
G01X1820844Y-3667784D01*
G01X1819026Y-3662784D01*
G01X1817207Y-3658239D01*
G01X1815389Y-3653239D01*
G01X1811753Y-3644148D01*
G01X1809935Y-3639148D01*
G01X1808117Y-3634602D01*
G01X1806298Y-3629602D01*
G01X1802662Y-3620511D01*
G01X1800844Y-3615511D01*
G01X1799935Y-3613239D01*
G01X1785389Y-3613239D01*
G01X1774139Y-3613580D01*
G01X1769480Y-3614602D01*
G01X1767208Y-3618693D01*
G01X1765389Y-3623239D01*
G01X1763571Y-3627330D01*
G01X1756298Y-3645511D01*
G01X1754480Y-3649602D01*
G01X1750844Y-3658693D01*
G01X1749480Y-3662329D01*
G01X1748117Y-3665511D01*
G01X1746299Y-3669602D01*
G01X1740844Y-3683239D01*
G01X1739026Y-3687330D01*
G01X1731753Y-3705512D01*
G01X1729935Y-3709602D01*
G01X1726298Y-3718693D01*
G01X1724935Y-3722330D01*
G01X1723571Y-3725511D01*
G01X1721753Y-3729602D01*
G01X1716298Y-3743239D01*
G01X1714480Y-3747330D01*
G01X1707207Y-3765511D01*
G01X1705389Y-3769602D01*
G01X1701753Y-3778693D01*
G01X1700389Y-3782329D01*
G01X1699026Y-3785511D01*
G01X1697207Y-3789602D01*
G01X1691753Y-3803239D01*
G01X1689935Y-3807329D01*
G01X1681753Y-3827784D01*
G01X1679935Y-3827784D01*
G01X1679935Y-3556875D01*
G01X1881753Y-3556875D01*
G01X1881753Y-3892330D01*
G01X1679935Y-3892330D01*
G37*
G36*
G01X1816298Y-3727784D02*
G01X1818117Y-3732330D01*
G01X1819480Y-3736421D01*
G01X1819480Y-3739148D01*
G01X1784935Y-3739602D01*
G01X1749480Y-3739148D01*
G01X1748685Y-3738352D01*
G01X1749026Y-3736875D01*
G01X1750844Y-3732330D01*
G01X1754480Y-3722330D01*
G01X1756298Y-3717784D01*
G01X1775389Y-3666875D01*
G01X1778117Y-3658693D01*
G01X1779935Y-3654148D01*
G01X1783117Y-3644602D01*
G01X1784026Y-3640966D01*
G01X1785389Y-3638239D01*
G01X1786185Y-3638580D01*
G01X1786753Y-3640511D01*
G01X1788117Y-3646420D01*
G01X1789480Y-3650966D01*
G01X1790389Y-3655057D01*
G01X1794480Y-3668693D01*
G01X1795844Y-3672784D01*
G01X1809480Y-3709148D01*
G01X1810844Y-3713239D01*
G01X1812662Y-3717784D01*
G01X1816298Y-3727784D01*
G37*
G36*
G01X1881753Y-4679572D02*
G01X1664480Y-4679572D01*
G01X1664480Y-4400481D01*
G01X1689935Y-4400481D01*
G01X1689935Y-4615026D01*
G01X1718117Y-4615026D01*
G01X1718117Y-4514117D01*
G01X1829935Y-4514117D01*
G01X1829935Y-4615026D01*
G01X1858116Y-4615026D01*
G01X1858116Y-4507754D01*
G01X1858116Y-4507754D01*
G01X1858116Y-4400481D01*
G01X1829935Y-4400481D01*
G01X1829935Y-4488663D01*
G01X1718117Y-4488663D01*
G01X1718117Y-4400481D01*
G01X1689935Y-4400481D01*
G01X1664480Y-4400481D01*
G01X1664480Y-4344117D01*
G01X1881753Y-4344117D01*
G01X1881753Y-4679572D01*
G37*
G36*
G01X1881753Y-5086022D02*
G01X1714480Y-5086022D01*
G01X1714480Y-4996022D01*
G01X1726298Y-4996022D01*
G01X1726298Y-5021476D01*
G01X1859935Y-5021476D01*
G01X1859935Y-4914204D01*
G01X1859935Y-4914204D01*
G01X1859935Y-4806931D01*
G01X1831753Y-4806931D01*
G01X1831753Y-4996022D01*
G01X1726298Y-4996022D01*
G01X1714480Y-4996022D01*
G01X1714480Y-4750567D01*
G01X1881753Y-4750567D01*
G01X1881753Y-5086022D01*
G37*
G54D10*
G01X848638Y-5316531D02*
G01X848638Y-5458771D01*
G01X857528Y-5485441D01*
G01X866418Y-5494331D01*
G01X884198Y-5503221D01*
G01X901978Y-5503221D01*
G01X919758Y-5494331D01*
G01X928648Y-5485441D01*
G01X937538Y-5458771D01*
G01X937538Y-5440991D01*
G01X785646Y-5316531D02*
G01X785646Y-5503221D01*
G01X785646Y-5503221D02*
G01X678966Y-5503221D01*
G01X482624Y-5360981D02*
G01X491514Y-5343201D01*
G01X509294Y-5325421D01*
G01X527074Y-5316531D01*
G01X562634Y-5316531D01*
G01X580414Y-5325421D01*
G01X598194Y-5343201D01*
G01X607084Y-5360981D01*
G01X615974Y-5387651D01*
G01X615974Y-5432101D01*
G01X607084Y-5458771D01*
G01X598194Y-5476551D01*
G01X580414Y-5494331D01*
G01X562634Y-5503221D01*
G01X527074Y-5503221D01*
G01X509294Y-5494331D01*
G01X491514Y-5476551D01*
G01X482624Y-5458771D01*
G01X330732Y-5316531D02*
G01X330732Y-5458771D01*
G01X339622Y-5485441D01*
G01X348512Y-5494331D01*
G01X366292Y-5503221D01*
G01X384072Y-5503221D01*
G01X401852Y-5494331D01*
G01X410742Y-5485441D01*
G01X419632Y-5458771D01*
G01X419632Y-5440991D01*
G01X267740Y-5316531D02*
G01X267740Y-5503221D01*
G01X267740Y-5503221D02*
G01X161060Y-5503221D01*
G01X-35282Y-5360981D02*
G01X-26392Y-5343201D01*
G01X-8612Y-5325421D01*
G01X9168Y-5316531D01*
G01X44728Y-5316531D01*
G01X62508Y-5325421D01*
G01X80288Y-5343201D01*
G01X89178Y-5360981D01*
G01X98068Y-5387651D01*
G01X98068Y-5432101D01*
G01X89178Y-5458771D01*
G01X80288Y-5476551D01*
G01X62508Y-5494331D01*
G01X44728Y-5503221D01*
G01X9168Y-5503221D01*
G01X-8612Y-5494331D01*
G01X-26392Y-5476551D01*
G01X-35282Y-5458771D01*
G01X-187174Y-5316531D02*
G01X-187174Y-5458771D01*
G01X-178284Y-5485441D01*
G01X-169394Y-5494331D01*
G01X-151614Y-5503221D01*
G01X-133834Y-5503221D01*
G01X-116054Y-5494331D01*
G01X-107164Y-5485441D01*
G01X-98274Y-5458771D01*
G01X-98274Y-5440991D01*
G01X-250166Y-5316531D02*
G01X-250166Y-5503221D01*
G01X-250166Y-5503221D02*
G01X-356846Y-5503221D01*
G01X-553188Y-5360981D02*
G01X-544298Y-5343201D01*
G01X-526518Y-5325421D01*
G01X-508738Y-5316531D01*
G01X-473178Y-5316531D01*
G01X-455398Y-5325421D01*
G01X-437618Y-5343201D01*
G01X-428728Y-5360981D01*
G01X-419838Y-5387651D01*
G01X-419838Y-5432101D01*
G01X-428728Y-5458771D01*
G01X-437618Y-5476551D01*
G01X-455398Y-5494331D01*
G01X-473178Y-5503221D01*
G01X-508738Y-5503221D01*
G01X-526518Y-5494331D01*
G01X-544298Y-5476551D01*
G01X-553188Y-5458771D01*
G01X-705080Y-5316531D02*
G01X-705080Y-5458771D01*
G01X-696190Y-5485441D01*
G01X-687300Y-5494331D01*
G01X-669520Y-5503221D01*
G01X-651740Y-5503221D01*
G01X-633960Y-5494331D01*
G01X-625070Y-5485441D01*
G01X-616180Y-5458771D01*
G01X-616180Y-5440991D01*
G01X-768072Y-5316531D02*
G01X-768072Y-5503221D01*
G01X-768072Y-5503221D02*
G01X-874752Y-5503221D01*
G01X-1071094Y-5360981D02*
G01X-1062204Y-5343201D01*
G01X-1044424Y-5325421D01*
G01X-1026644Y-5316531D01*
G01X-991084Y-5316531D01*
G01X-973304Y-5325421D01*
G01X-955524Y-5343201D01*
G01X-946634Y-5360981D01*
G01X-937744Y-5387651D01*
G01X-937744Y-5432101D01*
G01X-946634Y-5458771D01*
G01X-955524Y-5476551D01*
G01X-973304Y-5494331D01*
G01X-991084Y-5503221D01*
G01X-1026644Y-5503221D01*
G01X-1044424Y-5494331D01*
G01X-1062204Y-5476551D01*
G01X-1071094Y-5458771D01*
G54D11*
G01X-6123354Y-3521741D02*
G01X-6120306Y-3515391D01*
G01X-6113956Y-3509295D01*
G01X-6107860Y-3506247D01*
G01X-6095414Y-3506247D01*
G01X-6089318Y-3509295D01*
G01X-6082968Y-3515391D01*
G01X-6079920Y-3521741D01*
G01X-6076872Y-3530885D01*
G01X-6076872Y-3546379D01*
G01X-6079920Y-3555777D01*
G01X-6082968Y-3561873D01*
G01X-6089318Y-3568223D01*
G01X-6095414Y-3571271D01*
G01X-6107860Y-3571271D01*
G01X-6113956Y-3568223D01*
G01X-6120306Y-3561873D01*
G01X-6123354Y-3555777D01*
G01X-6156628Y-3521741D02*
G01X-6156628Y-3518693D01*
G01X-6159676Y-3512343D01*
G01X-6162724Y-3509295D01*
G01X-6168820Y-3506247D01*
G01X-6181266Y-3506247D01*
G01X-6187616Y-3509295D01*
G01X-6190664Y-3512343D01*
G01X-6193712Y-3518693D01*
G01X-6193712Y-3524789D01*
G01X-6190664Y-3530885D01*
G01X-6184314Y-3540283D01*
G01X-6153580Y-3571271D01*
G01X-6196760Y-3571271D01*
G01X-6365047Y-3529585D02*
G01X-6361999Y-3523235D01*
G01X-6355649Y-3517139D01*
G01X-6349553Y-3514091D01*
G01X-6337107Y-3514091D01*
G01X-6331011Y-3517139D01*
G01X-6324661Y-3523235D01*
G01X-6321613Y-3529585D01*
G01X-6318565Y-3538729D01*
G01X-6318565Y-3554223D01*
G01X-6321613Y-3563621D01*
G01X-6324661Y-3569717D01*
G01X-6331011Y-3576067D01*
G01X-6337107Y-3579115D01*
G01X-6349553Y-3579115D01*
G01X-6355649Y-3576067D01*
G01X-6361999Y-3569717D01*
G01X-6365047Y-3563621D01*
G01X-6401369Y-3514091D02*
G01X-6435405Y-3514091D01*
G01X-6416863Y-3538729D01*
G01X-6426007Y-3538729D01*
G01X-6432357Y-3541777D01*
G01X-6435405Y-3545079D01*
G01X-6438453Y-3554223D01*
G01X-6438453Y-3560573D01*
G01X-6435405Y-3569717D01*
G01X-6429309Y-3576067D01*
G01X-6419911Y-3579115D01*
G01X-6410513Y-3579115D01*
G01X-6401369Y-3576067D01*
G01X-6398321Y-3572765D01*
G01X-6395273Y-3566669D01*
G01X-7773707Y-4739344D02*
G01X-7780057Y-4736296D01*
G01X-7786153Y-4729946D01*
G01X-7789201Y-4723850D01*
G01X-7789201Y-4711404D01*
G01X-7786153Y-4705308D01*
G01X-7780057Y-4698958D01*
G01X-7773707Y-4695910D01*
G01X-7764563Y-4692862D01*
G01X-7749069Y-4692862D01*
G01X-7739671Y-4695910D01*
G01X-7733575Y-4698958D01*
G01X-7727225Y-4705308D01*
G01X-7724177Y-4711404D01*
G01X-7724177Y-4723850D01*
G01X-7727225Y-4729946D01*
G01X-7733575Y-4736296D01*
G01X-7739671Y-4739344D01*
G01X-7776755Y-4769570D02*
G01X-7780057Y-4775666D01*
G01X-7789201Y-4784810D01*
G01X-7724177Y-4784810D01*
G01X-7776755Y-4815036D02*
G01X-7780057Y-4821132D01*
G01X-7789201Y-4830276D01*
G01X-7724177Y-4830276D01*
G01X-2670055Y-3900032D02*
G01X-2667007Y-3893682D01*
G01X-2660657Y-3887586D01*
G01X-2654561Y-3884538D01*
G01X-2642115Y-3884538D01*
G01X-2636019Y-3887586D01*
G01X-2629669Y-3893682D01*
G01X-2626621Y-3900032D01*
G01X-2623573Y-3909176D01*
G01X-2623573Y-3924670D01*
G01X-2626621Y-3934068D01*
G01X-2629669Y-3940164D01*
G01X-2636019Y-3946514D01*
G01X-2642115Y-3949562D01*
G01X-2654561Y-3949562D01*
G01X-2660657Y-3946514D01*
G01X-2667007Y-3940164D01*
G01X-2670055Y-3934068D01*
G01X-2700281Y-3896984D02*
G01X-2706377Y-3893682D01*
G01X-2715521Y-3884538D01*
G01X-2715521Y-3949562D01*
G01X-2748795Y-3900032D02*
G01X-2748795Y-3896984D01*
G01X-2751843Y-3890634D01*
G01X-2754891Y-3887586D01*
G01X-2760987Y-3884538D01*
G01X-2773433Y-3884538D01*
G01X-2779783Y-3887586D01*
G01X-2782831Y-3890634D01*
G01X-2785879Y-3896984D01*
G01X-2785879Y-3903080D01*
G01X-2782831Y-3909176D01*
G01X-2776481Y-3918574D01*
G01X-2745747Y-3949562D01*
G01X-2788927Y-3949562D01*
G01X-4365612Y-2625580D02*
G01X-4362564Y-2619230D01*
G01X-4356214Y-2613134D01*
G01X-4350118Y-2610086D01*
G01X-4337672Y-2610086D01*
G01X-4331576Y-2613134D01*
G01X-4325226Y-2619230D01*
G01X-4322178Y-2625580D01*
G01X-4319130Y-2634724D01*
G01X-4319130Y-2650218D01*
G01X-4322178Y-2659616D01*
G01X-4325226Y-2665712D01*
G01X-4331576Y-2672062D01*
G01X-4337672Y-2675110D01*
G01X-4350118Y-2675110D01*
G01X-4356214Y-2672062D01*
G01X-4362564Y-2665712D01*
G01X-4365612Y-2659616D01*
G01X-4395838Y-2622532D02*
G01X-4401934Y-2619230D01*
G01X-4411078Y-2610086D01*
G01X-4411078Y-2675110D01*
G01X-4472038Y-2610086D02*
G01X-4441304Y-2653266D01*
G01X-4487532Y-2653266D01*
G01X-4472038Y-2610086D02*
G01X-4472038Y-2675110D01*
G01X-2700486Y204131D02*
G01X-2697438Y210481D01*
G01X-2691088Y216577D01*
G01X-2684992Y219625D01*
G01X-2672546Y219625D01*
G01X-2666450Y216577D01*
G01X-2660100Y210481D01*
G01X-2657052Y204131D01*
G01X-2654004Y194987D01*
G01X-2654004Y179493D01*
G01X-2657052Y170095D01*
G01X-2660100Y163999D01*
G01X-2666450Y157649D01*
G01X-2672546Y154601D01*
G01X-2684992Y154601D01*
G01X-2691088Y157649D01*
G01X-2697438Y163999D01*
G01X-2700486Y170095D01*
G01X-2730712Y207179D02*
G01X-2736808Y210481D01*
G01X-2745952Y219625D01*
G01X-2745952Y154601D01*
G01X-2813262Y219625D02*
G01X-2782274Y219625D01*
G01X-2779226Y191939D01*
G01X-2782274Y194987D01*
G01X-2791418Y198035D01*
G01X-2800816Y198035D01*
G01X-2810214Y194987D01*
G01X-2816310Y188637D01*
G01X-2819358Y179493D01*
G01X-2819358Y173143D01*
G01X-2816310Y163999D01*
G01X-2810214Y157649D01*
G01X-2800816Y154601D01*
G01X-2791418Y154601D01*
G01X-2782274Y157649D01*
G01X-2779226Y160951D01*
G01X-2776178Y167047D01*
G01X-7784775Y-4093555D02*
G01X-7791125Y-4090507D01*
G01X-7797221Y-4084157D01*
G01X-7800269Y-4078061D01*
G01X-7800269Y-4065615D01*
G01X-7797221Y-4059519D01*
G01X-7791125Y-4053169D01*
G01X-7784775Y-4050121D01*
G01X-7775631Y-4047073D01*
G01X-7760137Y-4047073D01*
G01X-7750739Y-4050121D01*
G01X-7744643Y-4053169D01*
G01X-7738293Y-4059519D01*
G01X-7735245Y-4065615D01*
G01X-7735245Y-4078061D01*
G01X-7738293Y-4084157D01*
G01X-7744643Y-4090507D01*
G01X-7750739Y-4093555D01*
G01X-7787823Y-4123781D02*
G01X-7791125Y-4129877D01*
G01X-7800269Y-4139021D01*
G01X-7735245Y-4139021D01*
G01X-7791125Y-4206331D02*
G01X-7797221Y-4203283D01*
G01X-7800269Y-4193885D01*
G01X-7800269Y-4187789D01*
G01X-7797221Y-4178391D01*
G01X-7787823Y-4172295D01*
G01X-7772583Y-4169247D01*
G01X-7757089Y-4169247D01*
G01X-7744643Y-4172295D01*
G01X-7738293Y-4178391D01*
G01X-7735245Y-4187789D01*
G01X-7735245Y-4190837D01*
G01X-7738293Y-4199981D01*
G01X-7744643Y-4206331D01*
G01X-7753787Y-4209379D01*
G01X-7757089Y-4209379D01*
G01X-7766233Y-4206331D01*
G01X-7772583Y-4199981D01*
G01X-7775631Y-4190837D01*
G01X-7775631Y-4187789D01*
G01X-7772583Y-4178391D01*
G01X-7766233Y-4172295D01*
G01X-7757089Y-4169247D01*
G01X-5178848Y-2826248D02*
G01X-5175800Y-2819898D01*
G01X-5169450Y-2813802D01*
G01X-5163354Y-2810754D01*
G01X-5150908Y-2810754D01*
G01X-5144812Y-2813802D01*
G01X-5138462Y-2819898D01*
G01X-5135414Y-2826248D01*
G01X-5132366Y-2835392D01*
G01X-5132366Y-2850886D01*
G01X-5135414Y-2860284D01*
G01X-5138462Y-2866380D01*
G01X-5144812Y-2872730D01*
G01X-5150908Y-2875778D01*
G01X-5163354Y-2875778D01*
G01X-5169450Y-2872730D01*
G01X-5175800Y-2866380D01*
G01X-5178848Y-2860284D01*
G01X-5212122Y-2826248D02*
G01X-5212122Y-2823200D01*
G01X-5215170Y-2816850D01*
G01X-5218218Y-2813802D01*
G01X-5224314Y-2810754D01*
G01X-5236760Y-2810754D01*
G01X-5243110Y-2813802D01*
G01X-5246158Y-2816850D01*
G01X-5249206Y-2823200D01*
G01X-5249206Y-2829296D01*
G01X-5246158Y-2835392D01*
G01X-5239808Y-2844790D01*
G01X-5209074Y-2875778D01*
G01X-5252254Y-2875778D01*
G01X-5288576Y-2810754D02*
G01X-5322612Y-2810754D01*
G01X-5304070Y-2835392D01*
G01X-5313214Y-2835392D01*
G01X-5319564Y-2838440D01*
G01X-5322612Y-2841742D01*
G01X-5325660Y-2850886D01*
G01X-5325660Y-2857236D01*
G01X-5322612Y-2866380D01*
G01X-5316516Y-2872730D01*
G01X-5307118Y-2875778D01*
G01X-5297720Y-2875778D01*
G01X-5288576Y-2872730D01*
G01X-5285528Y-2869428D01*
G01X-5282480Y-2863332D01*
G01X-3573909Y-2838728D02*
G01X-3567264Y-2836393D01*
G01X-3558463Y-2836573D01*
G01X-3551997Y-2838728D01*
G01X-3543197Y-2847529D01*
G01X-3541041Y-2853995D01*
G01X-3540862Y-2862795D01*
G01X-3543197Y-2869441D01*
G01X-3547507Y-2878062D01*
G01X-3558463Y-2889018D01*
G01X-3567264Y-2893508D01*
G01X-3573730Y-2895663D01*
G01X-3582710Y-2895663D01*
G01X-3589176Y-2893508D01*
G01X-3597976Y-2884707D01*
G01X-3600132Y-2878241D01*
G01X-3600132Y-2869261D01*
G01X-3597976Y-2862795D01*
G01X-3597437Y-2815200D02*
G01X-3595282Y-2813045D01*
G01X-3592947Y-2806399D01*
G01X-3592947Y-2802089D01*
G01X-3595103Y-2795623D01*
G01X-3603903Y-2786822D01*
G01X-3610549Y-2784487D01*
G01X-3614859Y-2784487D01*
G01X-3621505Y-2786822D01*
G01X-3625815Y-2791133D01*
G01X-3627970Y-2797599D01*
G01X-3630126Y-2808734D01*
G01X-3630305Y-2852378D01*
G01X-3660838Y-2821845D01*
G01X-3668920Y-2734737D02*
G01X-3662455Y-2732582D01*
G01X-3653654Y-2737072D01*
G01X-3649343Y-2741382D01*
G01X-3644853Y-2750183D01*
G01X-3647188Y-2761139D01*
G01X-3655809Y-2774070D01*
G01X-3666765Y-2785026D01*
G01X-3677721Y-2791672D01*
G01X-3686522Y-2791851D01*
G01X-3695322Y-2787361D01*
G01X-3697478Y-2785206D01*
G01X-3701788Y-2776585D01*
G01X-3701788Y-2767605D01*
G01X-3697478Y-2758983D01*
G01X-3695143Y-2756649D01*
G01X-3686522Y-2752338D01*
G01X-3677541Y-2752338D01*
G01X-3668920Y-2756649D01*
G01X-3666765Y-2758804D01*
G01X-3662275Y-2767605D01*
G01X-3662455Y-2776405D01*
G01X-3666765Y-2785026D01*
G01X-3709944Y-2964400D02*
G01X-3703299Y-2962065D01*
G01X-3694498Y-2962245D01*
G01X-3688033Y-2964400D01*
G01X-3679232Y-2973201D01*
G01X-3677077Y-2979666D01*
G01X-3676897Y-2988467D01*
G01X-3679232Y-2995112D01*
G01X-3683543Y-3003734D01*
G01X-3694498Y-3014689D01*
G01X-3703299Y-3019180D01*
G01X-3709765Y-3021335D01*
G01X-3718745Y-3021335D01*
G01X-3725211Y-3019180D01*
G01X-3734012Y-3010379D01*
G01X-3736167Y-3003913D01*
G01X-3736167Y-2994933D01*
G01X-3734012Y-2988467D01*
G01X-3733473Y-2940872D02*
G01X-3731317Y-2938716D01*
G01X-3728983Y-2932071D01*
G01X-3728983Y-2927761D01*
G01X-3731138Y-2921295D01*
G01X-3739939Y-2912494D01*
G01X-3746584Y-2910159D01*
G01X-3750894Y-2910159D01*
G01X-3757540Y-2912494D01*
G01X-3761850Y-2916805D01*
G01X-3764006Y-2923270D01*
G01X-3766161Y-2934406D01*
G01X-3766340Y-2978050D01*
G01X-3796873Y-2947517D01*
G01X-3815912Y-2867054D02*
G01X-3820402Y-2875855D01*
G01X-3820222Y-2884655D01*
G01X-3815912Y-2893276D01*
G01X-3813756Y-2895432D01*
G01X-3804956Y-2899922D01*
G01X-3796335Y-2899922D01*
G01X-3787534Y-2895432D01*
G01X-3785379Y-2893276D01*
G01X-3780889Y-2884476D01*
G01X-3780889Y-2875855D01*
G01X-3785379Y-2867054D01*
G01X-3787534Y-2864899D01*
G01X-3796155Y-2860588D01*
G01X-3804956Y-2860409D01*
G01X-3815912Y-2867054D01*
G01X-3826867Y-2878010D01*
G01X-3835668Y-2891121D01*
G01X-3837823Y-2902257D01*
G01X-3833513Y-2910878D01*
G01X-3829023Y-2915368D01*
G01X-3820402Y-2919678D01*
G01X-3813756Y-2917343D01*
G01X-1546530Y-3878239D02*
G01X-1539885Y-3875904D01*
G01X-1531084Y-3876083D01*
G01X-1524618Y-3878239D01*
G01X-1515818Y-3887039D01*
G01X-1513662Y-3893505D01*
G01X-1513483Y-3902306D01*
G01X-1515818Y-3908951D01*
G01X-1520128Y-3917572D01*
G01X-1531084Y-3928528D01*
G01X-1539885Y-3933018D01*
G01X-1546351Y-3935173D01*
G01X-1555331Y-3935173D01*
G01X-1561797Y-3933018D01*
G01X-1570597Y-3924218D01*
G01X-1572753Y-3917752D01*
G01X-1572753Y-3908772D01*
G01X-1570597Y-3902306D01*
G01X-1561258Y-3841599D02*
G01X-1585325Y-3817532D01*
G01X-1589635Y-3848065D01*
G01X-1596101Y-3841599D01*
G01X-1602747Y-3839264D01*
G01X-1607237Y-3839444D01*
G01X-1615858Y-3843754D01*
G01X-1620348Y-3848245D01*
G01X-1624658Y-3856866D01*
G01X-1624838Y-3865666D01*
G01X-1620348Y-3874467D01*
G01X-1613703Y-3881112D01*
G01X-1605081Y-3885423D01*
G01X-1600591Y-3885243D01*
G01X-1594126Y-3883088D01*
G01X-1621964Y-3780893D02*
G01X-1617474Y-3789693D01*
G01X-1619809Y-3800649D01*
G01X-1628430Y-3813581D01*
G01X-1635076Y-3820226D01*
G01X-1648187Y-3829027D01*
G01X-1659143Y-3831362D01*
G01X-1667943Y-3826872D01*
G01X-1672254Y-3822561D01*
G01X-1676744Y-3813760D01*
G01X-1674409Y-3802805D01*
G01X-1665608Y-3789693D01*
G01X-1658963Y-3783048D01*
G01X-1646031Y-3774427D01*
G01X-1635076Y-3772092D01*
G01X-1626275Y-3776582D01*
G01X-1621964Y-3780893D01*
G01X-1188167Y-3515820D02*
G01X-1181522Y-3513485D01*
G01X-1172721Y-3513665D01*
G01X-1166255Y-3515820D01*
G01X-1157455Y-3524620D01*
G01X-1155299Y-3531086D01*
G01X-1155120Y-3539887D01*
G01X-1157455Y-3546532D01*
G01X-1161765Y-3555153D01*
G01X-1172721Y-3566109D01*
G01X-1181522Y-3570599D01*
G01X-1187988Y-3572755D01*
G01X-1196968Y-3572755D01*
G01X-1203434Y-3570599D01*
G01X-1212234Y-3561799D01*
G01X-1214390Y-3555333D01*
G01X-1214390Y-3546353D01*
G01X-1212234Y-3539887D01*
G01X-1202895Y-3479180D02*
G01X-1226962Y-3455113D01*
G01X-1231272Y-3485646D01*
G01X-1237738Y-3479180D01*
G01X-1244384Y-3476845D01*
G01X-1248874Y-3477025D01*
G01X-1257495Y-3481336D01*
G01X-1261985Y-3485826D01*
G01X-1266295Y-3494447D01*
G01X-1266475Y-3503247D01*
G01X-1261985Y-3512048D01*
G01X-1255340Y-3518693D01*
G01X-1246718Y-3523004D01*
G01X-1242228Y-3522824D01*
G01X-1235763Y-3520669D01*
G01X-1259291Y-3440386D02*
G01X-1261266Y-3433740D01*
G01X-1261266Y-3420809D01*
G01X-1307245Y-3466788D01*
G01X-1178807Y-2594417D02*
G01X-1172162Y-2592082D01*
G01X-1163361Y-2592262D01*
G01X-1156895Y-2594417D01*
G01X-1148095Y-2603218D01*
G01X-1145940Y-2609684D01*
G01X-1145760Y-2618484D01*
G01X-1148095Y-2625130D01*
G01X-1152405Y-2633751D01*
G01X-1163361Y-2644707D01*
G01X-1172162Y-2649197D01*
G01X-1178628Y-2651352D01*
G01X-1187608Y-2651352D01*
G01X-1194074Y-2649197D01*
G01X-1202874Y-2640396D01*
G01X-1205030Y-2633930D01*
G01X-1205030Y-2624950D01*
G01X-1202874Y-2618484D01*
G01X-1193535Y-2557778D02*
G01X-1217602Y-2533711D01*
G01X-1221913Y-2564244D01*
G01X-1228378Y-2557778D01*
G01X-1235024Y-2555443D01*
G01X-1239514Y-2555623D01*
G01X-1248135Y-2559933D01*
G01X-1252625Y-2564423D01*
G01X-1256936Y-2573044D01*
G01X-1257115Y-2581845D01*
G01X-1252625Y-2590646D01*
G01X-1245980Y-2597291D01*
G01X-1237359Y-2601601D01*
G01X-1232868Y-2601422D01*
G01X-1226403Y-2599267D01*
G01X-1254241Y-2518983D02*
G01X-1252086Y-2516828D01*
G01X-1249751Y-2510182D01*
G01X-1249751Y-2505872D01*
G01X-1251907Y-2499406D01*
G01X-1260707Y-2490605D01*
G01X-1267353Y-2488271D01*
G01X-1271663Y-2488271D01*
G01X-1278309Y-2490605D01*
G01X-1282619Y-2494916D01*
G01X-1284774Y-2501382D01*
G01X-1286930Y-2512517D01*
G01X-1287109Y-2556161D01*
G01X-1317642Y-2525628D01*
G01X-1490789Y-2146470D02*
G01X-1484144Y-2144135D01*
G01X-1475343Y-2144315D01*
G01X-1468877Y-2146470D01*
G01X-1460077Y-2155271D01*
G01X-1457921Y-2161736D01*
G01X-1457742Y-2170537D01*
G01X-1460077Y-2177182D01*
G01X-1464387Y-2185803D01*
G01X-1475343Y-2196759D01*
G01X-1484144Y-2201250D01*
G01X-1490610Y-2203405D01*
G01X-1499590Y-2203405D01*
G01X-1506056Y-2201250D01*
G01X-1514856Y-2192449D01*
G01X-1517012Y-2185983D01*
G01X-1517012Y-2177003D01*
G01X-1514856Y-2170537D01*
G01X-1505517Y-2109831D02*
G01X-1529584Y-2085763D01*
G01X-1533894Y-2116296D01*
G01X-1540360Y-2109831D01*
G01X-1547006Y-2107496D01*
G01X-1551496Y-2107675D01*
G01X-1560117Y-2111986D01*
G01X-1564607Y-2116476D01*
G01X-1568917Y-2125097D01*
G01X-1569097Y-2133898D01*
G01X-1564607Y-2142698D01*
G01X-1557961Y-2149344D01*
G01X-1549340Y-2153654D01*
G01X-1544850Y-2153475D01*
G01X-1538385Y-2151319D01*
G01X-1557423Y-2057925D02*
G01X-1581490Y-2033858D01*
G01X-1585800Y-2064390D01*
G01X-1592266Y-2057925D01*
G01X-1598911Y-2055590D01*
G01X-1603402Y-2055769D01*
G01X-1612023Y-2060080D01*
G01X-1616513Y-2064570D01*
G01X-1620823Y-2073191D01*
G01X-1621003Y-2081992D01*
G01X-1616513Y-2090792D01*
G01X-1609867Y-2097438D01*
G01X-1601246Y-2101748D01*
G01X-1596756Y-2101569D01*
G01X-1590290Y-2099413D01*
G01X-1793514Y-1680820D02*
G01X-1786869Y-1678485D01*
G01X-1778068Y-1678665D01*
G01X-1771602Y-1680820D01*
G01X-1762802Y-1689621D01*
G01X-1760646Y-1696087D01*
G01X-1760467Y-1704887D01*
G01X-1762802Y-1711533D01*
G01X-1767112Y-1720154D01*
G01X-1778068Y-1731110D01*
G01X-1786869Y-1735600D01*
G01X-1793335Y-1737755D01*
G01X-1802315Y-1737755D01*
G01X-1808781Y-1735600D01*
G01X-1817581Y-1726799D01*
G01X-1819737Y-1720333D01*
G01X-1819737Y-1711353D01*
G01X-1817581Y-1704887D01*
G01X-1825664Y-1626759D02*
G01X-1834464Y-1679024D01*
G01X-1867152Y-1646336D01*
G01X-1825664Y-1626759D02*
G01X-1871642Y-1672738D01*
G01X-1866793Y-1603231D02*
G01X-1868769Y-1596585D01*
G01X-1868769Y-1583654D01*
G01X-1914748Y-1629633D01*
G01X-2469355Y-1215353D02*
G01X-2462710Y-1213018D01*
G01X-2453909Y-1213197D01*
G01X-2447443Y-1215353D01*
G01X-2438643Y-1224153D01*
G01X-2436487Y-1230619D01*
G01X-2436308Y-1239420D01*
G01X-2438643Y-1246065D01*
G01X-2442953Y-1254686D01*
G01X-2453909Y-1265642D01*
G01X-2462710Y-1270132D01*
G01X-2469176Y-1272288D01*
G01X-2478156Y-1272288D01*
G01X-2484622Y-1270132D01*
G01X-2493422Y-1261332D01*
G01X-2495577Y-1254866D01*
G01X-2495577Y-1245886D01*
G01X-2493422Y-1239420D01*
G01X-2501504Y-1161292D02*
G01X-2510305Y-1213557D01*
G01X-2542993Y-1180869D01*
G01X-2501504Y-1161292D02*
G01X-2547483Y-1207270D01*
G01X-2546945Y-1137763D02*
G01X-2544789Y-1135608D01*
G01X-2542454Y-1128963D01*
G01X-2542454Y-1124652D01*
G01X-2544610Y-1118186D01*
G01X-2553410Y-1109386D01*
G01X-2560056Y-1107051D01*
G01X-2564366Y-1107051D01*
G01X-2571012Y-1109386D01*
G01X-2575322Y-1113696D01*
G01X-2577477Y-1120162D01*
G01X-2579633Y-1131298D01*
G01X-2579812Y-1174942D01*
G01X-2610345Y-1144409D01*
G01X-2785477Y-2067106D02*
G01X-2778832Y-2064772D01*
G01X-2770031Y-2064951D01*
G01X-2763565Y-2067106D01*
G01X-2754765Y-2075907D01*
G01X-2752609Y-2082373D01*
G01X-2752430Y-2091173D01*
G01X-2754765Y-2097819D01*
G01X-2759075Y-2106440D01*
G01X-2770031Y-2117396D01*
G01X-2778832Y-2121886D01*
G01X-2785298Y-2124041D01*
G01X-2794278Y-2124041D01*
G01X-2800744Y-2121886D01*
G01X-2809544Y-2113085D01*
G01X-2811700Y-2106620D01*
G01X-2811700Y-2097639D01*
G01X-2809544Y-2091173D01*
G01X-2817627Y-2013045D02*
G01X-2826427Y-2065310D01*
G01X-2859115Y-2032622D01*
G01X-2817627Y-2013045D02*
G01X-2863605Y-2059024D01*
G01X-2854266Y-1976406D02*
G01X-2878333Y-1952339D01*
G01X-2882644Y-1982872D01*
G01X-2889109Y-1976406D01*
G01X-2895755Y-1974071D01*
G01X-2900245Y-1974251D01*
G01X-2908866Y-1978561D01*
G01X-2913356Y-1983051D01*
G01X-2917667Y-1991672D01*
G01X-2917846Y-2000473D01*
G01X-2913356Y-2009274D01*
G01X-2906711Y-2015919D01*
G01X-2898090Y-2020229D01*
G01X-2893599Y-2020050D01*
G01X-2887134Y-2017895D01*
G01X-3082860Y-2858644D02*
G01X-3076215Y-2856309D01*
G01X-3067414Y-2856489D01*
G01X-3060948Y-2858644D01*
G01X-3052148Y-2867444D01*
G01X-3049992Y-2873910D01*
G01X-3049813Y-2882711D01*
G01X-3052148Y-2889356D01*
G01X-3056458Y-2897977D01*
G01X-3067414Y-2908933D01*
G01X-3076215Y-2913423D01*
G01X-3082681Y-2915579D01*
G01X-3091661Y-2915579D01*
G01X-3098127Y-2913423D01*
G01X-3106927Y-2904623D01*
G01X-3109082Y-2898157D01*
G01X-3109082Y-2889177D01*
G01X-3106927Y-2882711D01*
G01X-3115009Y-2804583D02*
G01X-3123810Y-2856848D01*
G01X-3156498Y-2824160D01*
G01X-3115009Y-2804583D02*
G01X-3160988Y-2850562D01*
G01X-3173561Y-2746031D02*
G01X-3151649Y-2767943D01*
G01X-3169071Y-2789675D01*
G01X-3169071Y-2785365D01*
G01X-3173381Y-2776744D01*
G01X-3180027Y-2770098D01*
G01X-3188827Y-2765608D01*
G01X-3197628Y-2765788D01*
G01X-3206249Y-2770098D01*
G01X-3210739Y-2774589D01*
G01X-3215050Y-2783210D01*
G01X-3215229Y-2792010D01*
G01X-3210739Y-2800811D01*
G01X-3204094Y-2807456D01*
G01X-3195473Y-2811767D01*
G01X-3190982Y-2811587D01*
G01X-3184517Y-2809432D01*
G01X-2604910Y-3244444D02*
G01X-2601862Y-3238094D01*
G01X-2595512Y-3231998D01*
G01X-2589416Y-3228950D01*
G01X-2576970Y-3228950D01*
G01X-2570874Y-3231998D01*
G01X-2564524Y-3238094D01*
G01X-2561476Y-3244444D01*
G01X-2558428Y-3253588D01*
G01X-2558428Y-3269082D01*
G01X-2561476Y-3278480D01*
G01X-2564524Y-3284576D01*
G01X-2570874Y-3290926D01*
G01X-2576970Y-3293974D01*
G01X-2589416Y-3293974D01*
G01X-2595512Y-3290926D01*
G01X-2601862Y-3284576D01*
G01X-2604910Y-3278480D01*
G01X-2665870Y-3228950D02*
G01X-2635136Y-3272130D01*
G01X-2681364Y-3272130D01*
G01X-2665870Y-3228950D02*
G01X-2665870Y-3293974D01*
G01X-2748674Y-3238094D02*
G01X-2745626Y-3231998D01*
G01X-2736228Y-3228950D01*
G01X-2730132Y-3228950D01*
G01X-2720734Y-3231998D01*
G01X-2714638Y-3241396D01*
G01X-2711590Y-3256636D01*
G01X-2711590Y-3272130D01*
G01X-2714638Y-3284576D01*
G01X-2720734Y-3290926D01*
G01X-2730132Y-3293974D01*
G01X-2733180Y-3293974D01*
G01X-2742324Y-3290926D01*
G01X-2748674Y-3284576D01*
G01X-2751722Y-3275432D01*
G01X-2751722Y-3272130D01*
G01X-2748674Y-3262986D01*
G01X-2742324Y-3256636D01*
G01X-2733180Y-3253588D01*
G01X-2730132Y-3253588D01*
G01X-2720734Y-3256636D01*
G01X-2714638Y-3262986D01*
G01X-2711590Y-3272130D01*
G01X-4593102Y-3368943D02*
G01X-4590054Y-3362593D01*
G01X-4583704Y-3356497D01*
G01X-4577608Y-3353449D01*
G01X-4565162Y-3353449D01*
G01X-4559066Y-3356497D01*
G01X-4552716Y-3362593D01*
G01X-4549668Y-3368943D01*
G01X-4546620Y-3378087D01*
G01X-4546620Y-3393581D01*
G01X-4549668Y-3402979D01*
G01X-4552716Y-3409075D01*
G01X-4559066Y-3415425D01*
G01X-4565162Y-3418473D01*
G01X-4577608Y-3418473D01*
G01X-4583704Y-3415425D01*
G01X-4590054Y-3409075D01*
G01X-4593102Y-3402979D01*
G01X-4654062Y-3353449D02*
G01X-4623328Y-3396629D01*
G01X-4669556Y-3396629D01*
G01X-4654062Y-3353449D02*
G01X-4654062Y-3418473D01*
G01X-4742962Y-3353449D02*
G01X-4711974Y-3418473D01*
G01X-4699782Y-3353449D02*
G01X-4742962Y-3353449D01*
G01X-6162100Y-1483295D02*
G01X-6159052Y-1476945D01*
G01X-6152702Y-1470849D01*
G01X-6146606Y-1467801D01*
G01X-6134160Y-1467801D01*
G01X-6128064Y-1470849D01*
G01X-6121714Y-1476945D01*
G01X-6118666Y-1483295D01*
G01X-6115618Y-1492439D01*
G01X-6115618Y-1507933D01*
G01X-6118666Y-1517331D01*
G01X-6121714Y-1523427D01*
G01X-6128064Y-1529777D01*
G01X-6134160Y-1532825D01*
G01X-6146606Y-1532825D01*
G01X-6152702Y-1529777D01*
G01X-6159052Y-1523427D01*
G01X-6162100Y-1517331D01*
G01X-6223060Y-1467801D02*
G01X-6192326Y-1510981D01*
G01X-6238554Y-1510981D01*
G01X-6223060Y-1467801D02*
G01X-6223060Y-1532825D01*
G01X-6284020Y-1467801D02*
G01X-6274876Y-1470849D01*
G01X-6271828Y-1476945D01*
G01X-6271828Y-1483295D01*
G01X-6274876Y-1489391D01*
G01X-6280972Y-1492439D01*
G01X-6293418Y-1495487D01*
G01X-6302816Y-1498789D01*
G01X-6308912Y-1504885D01*
G01X-6311960Y-1510981D01*
G01X-6311960Y-1520379D01*
G01X-6308912Y-1526475D01*
G01X-6305864Y-1529777D01*
G01X-6296466Y-1532825D01*
G01X-6284020Y-1532825D01*
G01X-6274876Y-1529777D01*
G01X-6271828Y-1526475D01*
G01X-6268780Y-1520379D01*
G01X-6268780Y-1510981D01*
G01X-6271828Y-1504885D01*
G01X-6277924Y-1498789D01*
G01X-6287322Y-1495487D01*
G01X-6299514Y-1492439D01*
G01X-6305864Y-1489391D01*
G01X-6308912Y-1483295D01*
G01X-6308912Y-1476945D01*
G01X-6305864Y-1470849D01*
G01X-6296466Y-1467801D01*
G01X-6284020Y-1467801D01*
G01X-1794666Y-4752120D02*
G01X-1794666Y-4817144D01*
G01X-1794666Y-4752120D02*
G01X-1816256Y-4752120D01*
G01X-1825654Y-4755168D01*
G01X-1831750Y-4761264D01*
G01X-1834798Y-4767614D01*
G01X-1838100Y-4776758D01*
G01X-1838100Y-4792252D01*
G01X-1834798Y-4801650D01*
G01X-1831750Y-4807746D01*
G01X-1825654Y-4814096D01*
G01X-1816256Y-4817144D01*
G01X-1794666Y-4817144D01*
G01X-1905410Y-4752120D02*
G01X-1874422Y-4752120D01*
G01X-1871374Y-4779806D01*
G01X-1874422Y-4776758D01*
G01X-1883566Y-4773710D01*
G01X-1892964Y-4773710D01*
G01X-1902362Y-4776758D01*
G01X-1908458Y-4783108D01*
G01X-1911506Y-4792252D01*
G01X-1911506Y-4798602D01*
G01X-1908458Y-4807746D01*
G01X-1902362Y-4814096D01*
G01X-1892964Y-4817144D01*
G01X-1883566Y-4817144D01*
G01X-1874422Y-4814096D01*
G01X-1871374Y-4810794D01*
G01X-1868326Y-4804698D01*
G01X-2420532Y214575D02*
G01X-2420532Y149551D01*
G01X-2420532Y214575D02*
G01X-2460664Y214575D01*
G01X-2420532Y183587D02*
G01X-2445424Y183587D01*
G01X-2490890Y214575D02*
G01X-2490890Y149551D01*
G01X-2490890Y214575D02*
G01X-2518576Y214575D01*
G01X-2527974Y211527D01*
G01X-2531022Y208479D01*
G01X-2534070Y202129D01*
G01X-2534070Y196033D01*
G01X-2531022Y189937D01*
G01X-2527974Y186889D01*
G01X-2518576Y183587D01*
G01X-2490890Y183587D02*
G01X-2518576Y183587D01*
G01X-2527974Y180539D01*
G01X-2531022Y177491D01*
G01X-2534070Y171395D01*
G01X-2534070Y161997D01*
G01X-2531022Y155901D01*
G01X-2527974Y152599D01*
G01X-2518576Y149551D01*
G01X-2490890Y149551D01*
G01X-2564296Y202129D02*
G01X-2570392Y205431D01*
G01X-2579536Y214575D01*
G01X-2579536Y149551D01*
G01X-6171112Y-1968947D02*
G01X-6165016Y-1971995D01*
G01X-6158666Y-1978091D01*
G01X-6155618Y-1984441D01*
G01X-6152570Y-1993585D01*
G01X-6152570Y-2009079D01*
G01X-6155618Y-2018477D01*
G01X-6158666Y-2024573D01*
G01X-6165016Y-2030923D01*
G01X-6171112Y-2033971D01*
G01X-6183558Y-2033971D01*
G01X-6189654Y-2030923D01*
G01X-6196004Y-2024573D01*
G01X-6199052Y-2018477D01*
G01X-6202100Y-2009079D01*
G01X-6202100Y-1993585D01*
G01X-6199052Y-1984441D01*
G01X-6196004Y-1978091D01*
G01X-6189654Y-1971995D01*
G01X-6183558Y-1968947D01*
G01X-6171112Y-1968947D01*
G01X-6180510Y-2021525D02*
G01X-6199052Y-2040067D01*
G01X-6269410Y-1968947D02*
G01X-6238422Y-1968947D01*
G01X-6235374Y-1996633D01*
G01X-6238422Y-1993585D01*
G01X-6247566Y-1990537D01*
G01X-6256964Y-1990537D01*
G01X-6266362Y-1993585D01*
G01X-6272458Y-1999935D01*
G01X-6275506Y-2009079D01*
G01X-6275506Y-2015429D01*
G01X-6272458Y-2024573D01*
G01X-6266362Y-2030923D01*
G01X-6256964Y-2033971D01*
G01X-6247566Y-2033971D01*
G01X-6238422Y-2030923D01*
G01X-6235374Y-2027621D01*
G01X-6232326Y-2021525D01*
G01X-6181162Y-2823309D02*
G01X-6175066Y-2826357D01*
G01X-6168716Y-2832453D01*
G01X-6165668Y-2838803D01*
G01X-6162620Y-2847947D01*
G01X-6162620Y-2863441D01*
G01X-6165668Y-2872839D01*
G01X-6168716Y-2878935D01*
G01X-6175066Y-2885285D01*
G01X-6181162Y-2888333D01*
G01X-6193608Y-2888333D01*
G01X-6199704Y-2885285D01*
G01X-6206054Y-2878935D01*
G01X-6209102Y-2872839D01*
G01X-6212150Y-2863441D01*
G01X-6212150Y-2847947D01*
G01X-6209102Y-2838803D01*
G01X-6206054Y-2832453D01*
G01X-6199704Y-2826357D01*
G01X-6193608Y-2823309D01*
G01X-6181162Y-2823309D01*
G01X-6190560Y-2875887D02*
G01X-6209102Y-2894429D01*
G01X-6279460Y-2832453D02*
G01X-6276412Y-2826357D01*
G01X-6267014Y-2823309D01*
G01X-6260918Y-2823309D01*
G01X-6251520Y-2826357D01*
G01X-6245424Y-2835755D01*
G01X-6242376Y-2850995D01*
G01X-6242376Y-2866489D01*
G01X-6245424Y-2878935D01*
G01X-6251520Y-2885285D01*
G01X-6260918Y-2888333D01*
G01X-6263966Y-2888333D01*
G01X-6273110Y-2885285D01*
G01X-6279460Y-2878935D01*
G01X-6282508Y-2869791D01*
G01X-6282508Y-2866489D01*
G01X-6279460Y-2857345D01*
G01X-6273110Y-2850995D01*
G01X-6263966Y-2847947D01*
G01X-6260918Y-2847947D01*
G01X-6251520Y-2850995D01*
G01X-6245424Y-2857345D01*
G01X-6242376Y-2866489D01*
G01X-7450044Y-3352620D02*
G01X-7450044Y-3417644D01*
G01X-7450044Y-3352620D02*
G01X-7477984Y-3352620D01*
G01X-7487128Y-3355668D01*
G01X-7490176Y-3358716D01*
G01X-7493478Y-3365066D01*
G01X-7493478Y-3371162D01*
G01X-7490176Y-3377258D01*
G01X-7487128Y-3380306D01*
G01X-7477984Y-3383608D01*
G01X-7450044Y-3383608D01*
G01X-7471634Y-3383608D02*
G01X-7493478Y-3417644D01*
G01X-7566884Y-3352620D02*
G01X-7535896Y-3417644D01*
G01X-7523704Y-3352620D02*
G01X-7566884Y-3352620D01*
G01X-7789537Y-4897665D02*
G01X-7724513Y-4897665D01*
G01X-7789537Y-4897665D02*
G01X-7789537Y-4925605D01*
G01X-7786489Y-4934749D01*
G01X-7783441Y-4937797D01*
G01X-7777091Y-4941099D01*
G01X-7770995Y-4941099D01*
G01X-7764899Y-4937797D01*
G01X-7761851Y-4934749D01*
G01X-7758549Y-4925605D01*
G01X-7758549Y-4897665D01*
G01X-7758549Y-4919255D02*
G01X-7724513Y-4941099D01*
G01X-7777091Y-4971325D02*
G01X-7780393Y-4977421D01*
G01X-7789537Y-4986565D01*
G01X-7724513Y-4986565D01*
G01X-7789537Y-5022887D02*
G01X-7789537Y-5056923D01*
G01X-7764899Y-5038381D01*
G01X-7764899Y-5047525D01*
G01X-7761851Y-5053875D01*
G01X-7758549Y-5056923D01*
G01X-7749405Y-5059971D01*
G01X-7743055Y-5059971D01*
G01X-7733911Y-5056923D01*
G01X-7727561Y-5050827D01*
G01X-7724513Y-5041429D01*
G01X-7724513Y-5032031D01*
G01X-7727561Y-5022887D01*
G01X-7730863Y-5019839D01*
G01X-7736959Y-5016791D01*
G01X-7802159Y-4246504D02*
G01X-7737135Y-4246504D01*
G01X-7802159Y-4246504D02*
G01X-7802159Y-4274444D01*
G01X-7799111Y-4283588D01*
G01X-7796063Y-4286636D01*
G01X-7789713Y-4289938D01*
G01X-7783617Y-4289938D01*
G01X-7777521Y-4286636D01*
G01X-7774473Y-4283588D01*
G01X-7771171Y-4274444D01*
G01X-7771171Y-4246504D01*
G01X-7771171Y-4268094D02*
G01X-7737135Y-4289938D01*
G01X-7786665Y-4323212D02*
G01X-7789713Y-4323212D01*
G01X-7796063Y-4326260D01*
G01X-7799111Y-4329308D01*
G01X-7802159Y-4335404D01*
G01X-7802159Y-4347850D01*
G01X-7799111Y-4354200D01*
G01X-7796063Y-4357248D01*
G01X-7789713Y-4360296D01*
G01X-7783617Y-4360296D01*
G01X-7777521Y-4357248D01*
G01X-7768123Y-4350898D01*
G01X-7737135Y-4320164D01*
G01X-7737135Y-4363344D01*
G01X-7786665Y-4396618D02*
G01X-7789713Y-4396618D01*
G01X-7796063Y-4399666D01*
G01X-7799111Y-4402714D01*
G01X-7802159Y-4408810D01*
G01X-7802159Y-4421256D01*
G01X-7799111Y-4427606D01*
G01X-7796063Y-4430654D01*
G01X-7789713Y-4433702D01*
G01X-7783617Y-4433702D01*
G01X-7777521Y-4430654D01*
G01X-7768123Y-4424304D01*
G01X-7737135Y-4393570D01*
G01X-7737135Y-4436750D01*
G01X-7759878Y-1797385D02*
G01X-7694854Y-1797385D01*
G01X-7759878Y-1797385D02*
G01X-7759878Y-1825325D01*
G01X-7756830Y-1834469D01*
G01X-7753782Y-1837517D01*
G01X-7747432Y-1840819D01*
G01X-7741336Y-1840819D01*
G01X-7735240Y-1837517D01*
G01X-7732192Y-1834469D01*
G01X-7728890Y-1825325D01*
G01X-7728890Y-1797385D01*
G01X-7728890Y-1818975D02*
G01X-7694854Y-1840819D01*
G01X-7759878Y-1877141D02*
G01X-7759878Y-1911177D01*
G01X-7735240Y-1892635D01*
G01X-7735240Y-1901779D01*
G01X-7732192Y-1908129D01*
G01X-7728890Y-1911177D01*
G01X-7719746Y-1914225D01*
G01X-7713396Y-1914225D01*
G01X-7704252Y-1911177D01*
G01X-7697902Y-1905081D01*
G01X-7694854Y-1895683D01*
G01X-7694854Y-1886285D01*
G01X-7697902Y-1877141D01*
G01X-7701204Y-1874093D01*
G01X-7707300Y-1871045D01*
G01X-7759878Y-1981535D02*
G01X-7759878Y-1950547D01*
G01X-7732192Y-1947499D01*
G01X-7735240Y-1950547D01*
G01X-7738288Y-1959691D01*
G01X-7738288Y-1969089D01*
G01X-7735240Y-1978487D01*
G01X-7728890Y-1984583D01*
G01X-7719746Y-1987631D01*
G01X-7713396Y-1987631D01*
G01X-7704252Y-1984583D01*
G01X-7697902Y-1978487D01*
G01X-7694854Y-1969089D01*
G01X-7694854Y-1959691D01*
G01X-7697902Y-1950547D01*
G01X-7701204Y-1947499D01*
G01X-7707300Y-1944451D01*
G01X-5468653Y-4714536D02*
G01X-5468653Y-4779560D01*
G01X-5468653Y-4714536D02*
G01X-5496593Y-4714536D01*
G01X-5505737Y-4717584D01*
G01X-5508785Y-4720632D01*
G01X-5512087Y-4726982D01*
G01X-5512087Y-4733078D01*
G01X-5508785Y-4739174D01*
G01X-5505737Y-4742222D01*
G01X-5496593Y-4745524D01*
G01X-5468653Y-4745524D01*
G01X-5490243Y-4745524D02*
G01X-5512087Y-4779560D01*
G01X-5548409Y-4714536D02*
G01X-5582445Y-4714536D01*
G01X-5563903Y-4739174D01*
G01X-5573047Y-4739174D01*
G01X-5579397Y-4742222D01*
G01X-5582445Y-4745524D01*
G01X-5585493Y-4754668D01*
G01X-5585493Y-4761018D01*
G01X-5582445Y-4770162D01*
G01X-5576349Y-4776512D01*
G01X-5566951Y-4779560D01*
G01X-5557553Y-4779560D01*
G01X-5548409Y-4776512D01*
G01X-5545361Y-4773210D01*
G01X-5542313Y-4767114D01*
G01X-5652803Y-4723680D02*
G01X-5649755Y-4717584D01*
G01X-5640357Y-4714536D01*
G01X-5634261Y-4714536D01*
G01X-5624863Y-4717584D01*
G01X-5618767Y-4726982D01*
G01X-5615719Y-4742222D01*
G01X-5615719Y-4757716D01*
G01X-5618767Y-4770162D01*
G01X-5624863Y-4776512D01*
G01X-5634261Y-4779560D01*
G01X-5637309Y-4779560D01*
G01X-5646453Y-4776512D01*
G01X-5652803Y-4770162D01*
G01X-5655851Y-4761018D01*
G01X-5655851Y-4757716D01*
G01X-5652803Y-4748572D01*
G01X-5646453Y-4742222D01*
G01X-5637309Y-4739174D01*
G01X-5634261Y-4739174D01*
G01X-5624863Y-4742222D01*
G01X-5618767Y-4748572D01*
G01X-5615719Y-4757716D01*
G01X-7246683Y-2749805D02*
G01X-7246683Y-2814829D01*
G01X-7246683Y-2749805D02*
G01X-7274623Y-2749805D01*
G01X-7283767Y-2752853D01*
G01X-7286815Y-2755901D01*
G01X-7290117Y-2762251D01*
G01X-7290117Y-2768347D01*
G01X-7286815Y-2774443D01*
G01X-7283767Y-2777491D01*
G01X-7274623Y-2780793D01*
G01X-7246683Y-2780793D01*
G01X-7268273Y-2780793D02*
G01X-7290117Y-2814829D01*
G01X-7326439Y-2749805D02*
G01X-7360475Y-2749805D01*
G01X-7341933Y-2774443D01*
G01X-7351077Y-2774443D01*
G01X-7357427Y-2777491D01*
G01X-7360475Y-2780793D01*
G01X-7363523Y-2789937D01*
G01X-7363523Y-2796287D01*
G01X-7360475Y-2805431D01*
G01X-7354379Y-2811781D01*
G01X-7344981Y-2814829D01*
G01X-7335583Y-2814829D01*
G01X-7326439Y-2811781D01*
G01X-7323391Y-2808479D01*
G01X-7320343Y-2802383D01*
G01X-7436929Y-2749805D02*
G01X-7405941Y-2814829D01*
G01X-7393749Y-2749805D02*
G01X-7436929Y-2749805D01*
G01X-1938575Y634276D02*
G01X-1938575Y569252D01*
G01X-1938575Y634276D02*
G01X-1966515Y634276D01*
G01X-1975659Y631228D01*
G01X-1978707Y628180D01*
G01X-1982009Y621830D01*
G01X-1982009Y615734D01*
G01X-1978707Y609638D01*
G01X-1975659Y606590D01*
G01X-1966515Y603288D01*
G01X-1938575Y603288D01*
G01X-1960165Y603288D02*
G01X-1982009Y569252D01*
G01X-2042969Y634276D02*
G01X-2012235Y591096D01*
G01X-2058463Y591096D01*
G01X-2042969Y634276D02*
G01X-2042969Y569252D01*
G01X-2107231Y634276D02*
G01X-2097833Y631228D01*
G01X-2091737Y621830D01*
G01X-2088689Y606590D01*
G01X-2088689Y597192D01*
G01X-2091737Y581698D01*
G01X-2097833Y572300D01*
G01X-2107231Y569252D01*
G01X-2113327Y569252D01*
G01X-2122725Y572300D01*
G01X-2128821Y581698D01*
G01X-2131869Y597192D01*
G01X-2131869Y606590D01*
G01X-2128821Y621830D01*
G01X-2122725Y631228D01*
G01X-2113327Y634276D01*
G01X-2107231Y634276D01*
G01X-2594929Y625610D02*
G01X-2594929Y560586D01*
G01X-2594929Y625610D02*
G01X-2622869Y625610D01*
G01X-2632013Y622562D01*
G01X-2635061Y619514D01*
G01X-2638363Y613164D01*
G01X-2638363Y607068D01*
G01X-2635061Y600972D01*
G01X-2632013Y597924D01*
G01X-2622869Y594622D01*
G01X-2594929Y594622D01*
G01X-2616519Y594622D02*
G01X-2638363Y560586D01*
G01X-2699323Y625610D02*
G01X-2668589Y582430D01*
G01X-2714817Y582430D01*
G01X-2699323Y625610D02*
G01X-2699323Y560586D01*
G01X-2745043Y613164D02*
G01X-2751139Y616466D01*
G01X-2760283Y625610D01*
G01X-2760283Y560586D01*
G01X-7678760Y-2486562D02*
G01X-7743784Y-2486562D01*
G01X-7678760Y-2486562D02*
G01X-7678760Y-2458622D01*
G01X-7681808Y-2449478D01*
G01X-7684856Y-2446430D01*
G01X-7691206Y-2443128D01*
G01X-7697302Y-2443128D01*
G01X-7703398Y-2446430D01*
G01X-7706446Y-2449478D01*
G01X-7709748Y-2458622D01*
G01X-7709748Y-2486562D01*
G01X-7709748Y-2464972D02*
G01X-7743784Y-2443128D01*
G01X-7678760Y-2382168D02*
G01X-7721940Y-2412902D01*
G01X-7721940Y-2366674D01*
G01X-7678760Y-2382168D02*
G01X-7743784Y-2382168D01*
G01X-7694254Y-2333400D02*
G01X-7691206Y-2333400D01*
G01X-7684856Y-2330352D01*
G01X-7681808Y-2327304D01*
G01X-7678760Y-2321208D01*
G01X-7678760Y-2308762D01*
G01X-7681808Y-2302412D01*
G01X-7684856Y-2299364D01*
G01X-7691206Y-2296316D01*
G01X-7697302Y-2296316D01*
G01X-7703398Y-2299364D01*
G01X-7712796Y-2305714D01*
G01X-7743784Y-2336448D01*
G01X-7743784Y-2293268D01*
G01X-5858446Y-1962264D02*
G01X-5858446Y-2027288D01*
G01X-5858446Y-1962264D02*
G01X-5886386Y-1962264D01*
G01X-5895530Y-1965312D01*
G01X-5898578Y-1968360D01*
G01X-5901880Y-1974710D01*
G01X-5901880Y-1980806D01*
G01X-5898578Y-1986902D01*
G01X-5895530Y-1989950D01*
G01X-5886386Y-1993252D01*
G01X-5858446Y-1993252D01*
G01X-5880036Y-1993252D02*
G01X-5901880Y-2027288D01*
G01X-5962840Y-1962264D02*
G01X-5932106Y-2005444D01*
G01X-5978334Y-2005444D01*
G01X-5962840Y-1962264D02*
G01X-5962840Y-2027288D01*
G01X-6014656Y-1962264D02*
G01X-6048692Y-1962264D01*
G01X-6030150Y-1986902D01*
G01X-6039294Y-1986902D01*
G01X-6045644Y-1989950D01*
G01X-6048692Y-1993252D01*
G01X-6051740Y-2002396D01*
G01X-6051740Y-2008746D01*
G01X-6048692Y-2017890D01*
G01X-6042596Y-2024240D01*
G01X-6033198Y-2027288D01*
G01X-6023800Y-2027288D01*
G01X-6014656Y-2024240D01*
G01X-6011608Y-2020938D01*
G01X-6008560Y-2014842D01*
G01X-5856730Y-2861835D02*
G01X-5856730Y-2926859D01*
G01X-5856730Y-2861835D02*
G01X-5884670Y-2861835D01*
G01X-5893814Y-2864883D01*
G01X-5896862Y-2867931D01*
G01X-5900164Y-2874281D01*
G01X-5900164Y-2880377D01*
G01X-5896862Y-2886473D01*
G01X-5893814Y-2889521D01*
G01X-5884670Y-2892823D01*
G01X-5856730Y-2892823D01*
G01X-5878320Y-2892823D02*
G01X-5900164Y-2926859D01*
G01X-5961124Y-2861835D02*
G01X-5930390Y-2905015D01*
G01X-5976618Y-2905015D01*
G01X-5961124Y-2861835D02*
G01X-5961124Y-2926859D01*
G01X-6037578Y-2861835D02*
G01X-6006844Y-2905015D01*
G01X-6053072Y-2905015D01*
G01X-6037578Y-2861835D02*
G01X-6037578Y-2926859D01*
G01X-7745231Y-435130D02*
G01X-7698749Y-435130D01*
G01X-7689605Y-438178D01*
G01X-7683255Y-444528D01*
G01X-7680207Y-453672D01*
G01X-7680207Y-460022D01*
G01X-7683255Y-469166D01*
G01X-7689605Y-475262D01*
G01X-7698749Y-478564D01*
G01X-7745231Y-478564D01*
G01X-7729737Y-511838D02*
G01X-7732785Y-511838D01*
G01X-7739135Y-514886D01*
G01X-7742183Y-517934D01*
G01X-7745231Y-524030D01*
G01X-7745231Y-536476D01*
G01X-7742183Y-542826D01*
G01X-7739135Y-545874D01*
G01X-7732785Y-548922D01*
G01X-7726689Y-548922D01*
G01X-7720593Y-545874D01*
G01X-7711195Y-539524D01*
G01X-7680207Y-508790D01*
G01X-7680207Y-551970D01*
G01X-7743597Y-969229D02*
G01X-7697115Y-969229D01*
G01X-7687971Y-972277D01*
G01X-7681621Y-978627D01*
G01X-7678573Y-987771D01*
G01X-7678573Y-994121D01*
G01X-7681621Y-1003265D01*
G01X-7687971Y-1009361D01*
G01X-7697115Y-1012663D01*
G01X-7743597Y-1012663D01*
G01X-7743597Y-1073623D02*
G01X-7700417Y-1042889D01*
G01X-7700417Y-1089117D01*
G01X-7743597Y-1073623D02*
G01X-7678573Y-1073623D01*
G01X-2346418Y-4779967D02*
G01X-2346418Y-4844991D01*
G01X-2346418Y-4779967D02*
G01X-2374358Y-4779967D01*
G01X-2383502Y-4783015D01*
G01X-2386550Y-4786063D01*
G01X-2389852Y-4792413D01*
G01X-2389852Y-4798509D01*
G01X-2386550Y-4804605D01*
G01X-2383502Y-4807653D01*
G01X-2374358Y-4810955D01*
G01X-2346418Y-4810955D01*
G01X-2368008Y-4810955D02*
G01X-2389852Y-4844991D01*
G01X-2457162Y-4779967D02*
G01X-2426174Y-4779967D01*
G01X-2423126Y-4807653D01*
G01X-2426174Y-4804605D01*
G01X-2435318Y-4801557D01*
G01X-2444716Y-4801557D01*
G01X-2454114Y-4804605D01*
G01X-2460210Y-4810955D01*
G01X-2463258Y-4820099D01*
G01X-2463258Y-4826449D01*
G01X-2460210Y-4835593D01*
G01X-2454114Y-4841943D01*
G01X-2444716Y-4844991D01*
G01X-2435318Y-4844991D01*
G01X-2426174Y-4841943D01*
G01X-2423126Y-4838641D01*
G01X-2420078Y-4832545D01*
G01X-6877825Y-2393047D02*
G01X-6942849Y-2393047D01*
G01X-6877825Y-2393047D02*
G01X-6877825Y-2365107D01*
G01X-6880873Y-2355963D01*
G01X-6883921Y-2352915D01*
G01X-6890271Y-2349613D01*
G01X-6896367Y-2349613D01*
G01X-6902463Y-2352915D01*
G01X-6905511Y-2355963D01*
G01X-6908813Y-2365107D01*
G01X-6908813Y-2393047D01*
G01X-6908813Y-2371457D02*
G01X-6942849Y-2349613D01*
G01X-6877825Y-2313291D02*
G01X-6877825Y-2279255D01*
G01X-6902463Y-2297797D01*
G01X-6902463Y-2288653D01*
G01X-6905511Y-2282303D01*
G01X-6908813Y-2279255D01*
G01X-6917957Y-2276207D01*
G01X-6924307Y-2276207D01*
G01X-6933451Y-2279255D01*
G01X-6939801Y-2285351D01*
G01X-6942849Y-2294749D01*
G01X-6942849Y-2304147D01*
G01X-6939801Y-2313291D01*
G01X-6936499Y-2316339D01*
G01X-6930403Y-2319387D01*
G01X-6877825Y-2230741D02*
G01X-6880873Y-2239885D01*
G01X-6886969Y-2242933D01*
G01X-6893319Y-2242933D01*
G01X-6899415Y-2239885D01*
G01X-6902463Y-2233789D01*
G01X-6905511Y-2221343D01*
G01X-6908813Y-2211945D01*
G01X-6914909Y-2205849D01*
G01X-6921005Y-2202801D01*
G01X-6930403Y-2202801D01*
G01X-6936499Y-2205849D01*
G01X-6939801Y-2208897D01*
G01X-6942849Y-2218295D01*
G01X-6942849Y-2230741D01*
G01X-6939801Y-2239885D01*
G01X-6936499Y-2242933D01*
G01X-6930403Y-2245981D01*
G01X-6921005Y-2245981D01*
G01X-6914909Y-2242933D01*
G01X-6908813Y-2236837D01*
G01X-6905511Y-2227439D01*
G01X-6902463Y-2215247D01*
G01X-6899415Y-2208897D01*
G01X-6893319Y-2205849D01*
G01X-6886969Y-2205849D01*
G01X-6880873Y-2208897D01*
G01X-6877825Y-2218295D01*
G01X-6877825Y-2230741D01*
G01X-6880031Y-2677637D02*
G01X-6945055Y-2677637D01*
G01X-6880031Y-2677637D02*
G01X-6880031Y-2649697D01*
G01X-6883079Y-2640553D01*
G01X-6886127Y-2637505D01*
G01X-6892477Y-2634203D01*
G01X-6898573Y-2634203D01*
G01X-6904669Y-2637505D01*
G01X-6907717Y-2640553D01*
G01X-6911019Y-2649697D01*
G01X-6911019Y-2677637D01*
G01X-6911019Y-2656047D02*
G01X-6945055Y-2634203D01*
G01X-6880031Y-2597881D02*
G01X-6880031Y-2563845D01*
G01X-6904669Y-2582387D01*
G01X-6904669Y-2573243D01*
G01X-6907717Y-2566893D01*
G01X-6911019Y-2563845D01*
G01X-6920163Y-2560797D01*
G01X-6926513Y-2560797D01*
G01X-6935657Y-2563845D01*
G01X-6942007Y-2569941D01*
G01X-6945055Y-2579339D01*
G01X-6945055Y-2588737D01*
G01X-6942007Y-2597881D01*
G01X-6938705Y-2600929D01*
G01X-6932609Y-2603977D01*
G01X-6901621Y-2490439D02*
G01X-6911019Y-2493487D01*
G01X-6917115Y-2499837D01*
G01X-6920163Y-2508981D01*
G01X-6920163Y-2512029D01*
G01X-6917115Y-2521427D01*
G01X-6911019Y-2527523D01*
G01X-6901621Y-2530571D01*
G01X-6898573Y-2530571D01*
G01X-6889175Y-2527523D01*
G01X-6883079Y-2521427D01*
G01X-6880031Y-2512029D01*
G01X-6880031Y-2508981D01*
G01X-6883079Y-2499837D01*
G01X-6889175Y-2493487D01*
G01X-6901621Y-2490439D01*
G01X-6917115Y-2490439D01*
G01X-6932609Y-2493487D01*
G01X-6942007Y-2499837D01*
G01X-6945055Y-2508981D01*
G01X-6945055Y-2515331D01*
G01X-6942007Y-2524475D01*
G01X-6935657Y-2527523D01*
G01X-6992813Y-3450401D02*
G01X-6999163Y-3447353D01*
G01X-7005259Y-3441003D01*
G01X-7008307Y-3434907D01*
G01X-7008307Y-3422461D01*
G01X-7005259Y-3416365D01*
G01X-6999163Y-3410015D01*
G01X-6992813Y-3406967D01*
G01X-6983669Y-3403919D01*
G01X-6968175Y-3403919D01*
G01X-6958777Y-3406967D01*
G01X-6952681Y-3410015D01*
G01X-6946331Y-3416365D01*
G01X-6943283Y-3422461D01*
G01X-6943283Y-3434907D01*
G01X-6946331Y-3441003D01*
G01X-6952681Y-3447353D01*
G01X-6958777Y-3450401D01*
G01X-6995861Y-3480627D02*
G01X-6999163Y-3486723D01*
G01X-7008307Y-3495867D01*
G01X-6943283Y-3495867D01*
G01X-6957067Y-3940213D02*
G01X-6950717Y-3943261D01*
G01X-6944621Y-3949611D01*
G01X-6941573Y-3955707D01*
G01X-6941573Y-3968153D01*
G01X-6944621Y-3974249D01*
G01X-6950717Y-3980599D01*
G01X-6957067Y-3983647D01*
G01X-6966211Y-3986695D01*
G01X-6981705Y-3986695D01*
G01X-6991103Y-3983647D01*
G01X-6997199Y-3980599D01*
G01X-7003549Y-3974249D01*
G01X-7006597Y-3968153D01*
G01X-7006597Y-3955707D01*
G01X-7003549Y-3949611D01*
G01X-6997199Y-3943261D01*
G01X-6991103Y-3940213D01*
G01X-6941573Y-3879253D02*
G01X-6984753Y-3909987D01*
G01X-6984753Y-3863759D01*
G01X-6941573Y-3879253D02*
G01X-7006597Y-3879253D01*
G01X-1821249Y-4955657D02*
G01X-1814899Y-4958705D01*
G01X-1808803Y-4965055D01*
G01X-1805755Y-4971151D01*
G01X-1805755Y-4983597D01*
G01X-1808803Y-4989693D01*
G01X-1814899Y-4996043D01*
G01X-1821249Y-4999091D01*
G01X-1830393Y-5002139D01*
G01X-1845887Y-5002139D01*
G01X-1855285Y-4999091D01*
G01X-1861381Y-4996043D01*
G01X-1867731Y-4989693D01*
G01X-1870779Y-4983597D01*
G01X-1870779Y-4971151D01*
G01X-1867731Y-4965055D01*
G01X-1861381Y-4958705D01*
G01X-1855285Y-4955657D01*
G01X-1814899Y-4888347D02*
G01X-1808803Y-4891395D01*
G01X-1805755Y-4900793D01*
G01X-1805755Y-4906889D01*
G01X-1808803Y-4916287D01*
G01X-1818201Y-4922383D01*
G01X-1833441Y-4925431D01*
G01X-1848935Y-4925431D01*
G01X-1861381Y-4922383D01*
G01X-1867731Y-4916287D01*
G01X-1870779Y-4906889D01*
G01X-1870779Y-4903841D01*
G01X-1867731Y-4894697D01*
G01X-1861381Y-4888347D01*
G01X-1852237Y-4885299D01*
G01X-1848935Y-4885299D01*
G01X-1839791Y-4888347D01*
G01X-1833441Y-4894697D01*
G01X-1830393Y-4903841D01*
G01X-1830393Y-4906889D01*
G01X-1833441Y-4916287D01*
G01X-1839791Y-4922383D01*
G01X-1848935Y-4925431D01*
G01X-600161Y-4143364D02*
G01X-597113Y-4137014D01*
G01X-590763Y-4130918D01*
G01X-584667Y-4127870D01*
G01X-572221Y-4127870D01*
G01X-566125Y-4130918D01*
G01X-559775Y-4137014D01*
G01X-556727Y-4143364D01*
G01X-553679Y-4152508D01*
G01X-553679Y-4168002D01*
G01X-556727Y-4177400D01*
G01X-559775Y-4183496D01*
G01X-566125Y-4189846D01*
G01X-572221Y-4192894D01*
G01X-584667Y-4192894D01*
G01X-590763Y-4189846D01*
G01X-597113Y-4183496D01*
G01X-600161Y-4177400D01*
G01X-667471Y-4127870D02*
G01X-636483Y-4127870D01*
G01X-633435Y-4155556D01*
G01X-636483Y-4152508D01*
G01X-645627Y-4149460D01*
G01X-655025Y-4149460D01*
G01X-664423Y-4152508D01*
G01X-670519Y-4158858D01*
G01X-673567Y-4168002D01*
G01X-673567Y-4174352D01*
G01X-670519Y-4183496D01*
G01X-664423Y-4189846D01*
G01X-655025Y-4192894D01*
G01X-645627Y-4192894D01*
G01X-636483Y-4189846D01*
G01X-633435Y-4186544D01*
G01X-630387Y-4180448D01*
G01X-1977707Y200142D02*
G01X-1974659Y206492D01*
G01X-1968309Y212588D01*
G01X-1962213Y215636D01*
G01X-1949767Y215636D01*
G01X-1943671Y212588D01*
G01X-1937321Y206492D01*
G01X-1934273Y200142D01*
G01X-1931225Y190998D01*
G01X-1931225Y175504D01*
G01X-1934273Y166106D01*
G01X-1937321Y160010D01*
G01X-1943671Y153660D01*
G01X-1949767Y150612D01*
G01X-1962213Y150612D01*
G01X-1968309Y153660D01*
G01X-1974659Y160010D01*
G01X-1977707Y166106D01*
G01X-2007933Y203190D02*
G01X-2014029Y206492D01*
G01X-2023173Y215636D01*
G01X-2023173Y150612D01*
G01X-2096579Y215636D02*
G01X-2065591Y150612D01*
G01X-2053399Y215636D02*
G01X-2096579Y215636D01*
G01X-2207426Y200928D02*
G01X-2204378Y207278D01*
G01X-2198028Y213374D01*
G01X-2191932Y216422D01*
G01X-2179486Y216422D01*
G01X-2173390Y213374D01*
G01X-2167040Y207278D01*
G01X-2163992Y200928D01*
G01X-2160944Y191784D01*
G01X-2160944Y176290D01*
G01X-2163992Y166892D01*
G01X-2167040Y160796D01*
G01X-2173390Y154446D01*
G01X-2179486Y151398D01*
G01X-2191932Y151398D01*
G01X-2198028Y154446D01*
G01X-2204378Y160796D01*
G01X-2207426Y166892D01*
G01X-2240700Y200928D02*
G01X-2240700Y203976D01*
G01X-2243748Y210326D01*
G01X-2246796Y213374D01*
G01X-2252892Y216422D01*
G01X-2265338Y216422D01*
G01X-2271688Y213374D01*
G01X-2274736Y210326D01*
G01X-2277784Y203976D01*
G01X-2277784Y197880D01*
G01X-2274736Y191784D01*
G01X-2268386Y182386D01*
G01X-2237652Y151398D01*
G01X-2280832Y151398D01*
G01X-2341792Y216422D02*
G01X-2311058Y173242D01*
G01X-2357286Y173242D01*
G01X-2341792Y216422D02*
G01X-2341792Y151398D01*
G01X-1991422Y-1270841D02*
G01X-1984776Y-1268506D01*
G01X-1975976Y-1268686D01*
G01X-1969510Y-1270841D01*
G01X-1960709Y-1279641D01*
G01X-1958554Y-1286107D01*
G01X-1958374Y-1294908D01*
G01X-1960709Y-1301553D01*
G01X-1965020Y-1310174D01*
G01X-1975976Y-1321130D01*
G01X-1984776Y-1325620D01*
G01X-1991242Y-1327776D01*
G01X-2000222Y-1327776D01*
G01X-2006688Y-1325620D01*
G01X-2015489Y-1316820D01*
G01X-2017644Y-1310354D01*
G01X-2017644Y-1301374D01*
G01X-2015489Y-1294908D01*
G01X-2010639Y-1247313D02*
G01X-2012615Y-1240667D01*
G01X-2012615Y-1227736D01*
G01X-2058594Y-1273714D01*
G01X-2044764Y-1195586D02*
G01X-2040454Y-1204207D01*
G01X-2042609Y-1210673D01*
G01X-2047099Y-1215163D01*
G01X-2053565Y-1217318D01*
G01X-2060031Y-1215163D01*
G01X-2070987Y-1208518D01*
G01X-2079967Y-1204207D01*
G01X-2088588Y-1204207D01*
G01X-2095054Y-1206363D01*
G01X-2101699Y-1213008D01*
G01X-2103854Y-1219474D01*
G01X-2104034Y-1223964D01*
G01X-2099544Y-1232764D01*
G01X-2090743Y-1241565D01*
G01X-2082122Y-1245876D01*
G01X-2077632Y-1245696D01*
G01X-2071166Y-1243541D01*
G01X-2064521Y-1236895D01*
G01X-2062366Y-1230430D01*
G01X-2062366Y-1221809D01*
G01X-2066676Y-1212828D01*
G01X-2073142Y-1202052D01*
G01X-2075477Y-1195407D01*
G01X-2073322Y-1188941D01*
G01X-2068831Y-1184451D01*
G01X-2062366Y-1182295D01*
G01X-2053565Y-1186786D01*
G01X-2044764Y-1195586D01*
G04 Text End*

G04 PolygonModel Start*
G01X-6226031Y-3986370D02*
G01X-6226031Y-3845370D01*
G01X-6045310Y-3845370D02*
G01X-6045310Y-3986370D01*
G01X-6060550Y-4001610D02*
G01X-6210791Y-4001610D01*
G01X-6226031Y-3624131D02*
G01X-6226031Y-3765131D01*
G01X-6045310Y-3765131D02*
G01X-6045310Y-3624131D01*
G01X-6060550Y-3608891D02*
G01X-6210791Y-3608891D01*
G01X-6045310Y-3986370D02*
G02X-6060550Y-4001610I-15240J0D01*
G01X-6210791Y-4001610D02*
G02X-6226031Y-3986370I0J15240D01*
G01X-6045310Y-3624131D02*
G03X-6060550Y-3608891I-15240J0D01*
G01X-6210791Y-3608891D02*
G03X-6226031Y-3624131I0J-15240D01*
G01X-6459880Y-3986370D02*
G01X-6459880Y-3845370D01*
G01X-6279159Y-3845370D02*
G01X-6279159Y-3986370D01*
G01X-6294399Y-4001610D02*
G01X-6444640Y-4001610D01*
G01X-6459880Y-3624131D02*
G01X-6459880Y-3765131D01*
G01X-6279159Y-3765131D02*
G01X-6279159Y-3624131D01*
G01X-6294399Y-3608891D02*
G01X-6444640Y-3608891D01*
G01X-6279159Y-3986370D02*
G02X-6294399Y-4001610I-15240J0D01*
G01X-6444640Y-4001610D02*
G02X-6459880Y-3986370I0J15240D01*
G01X-6279159Y-3624131D02*
G03X-6294399Y-3608891I-15240J0D01*
G01X-6444640Y-3608891D02*
G03X-6459880Y-3624131I0J-15240D01*
G01X-7690324Y-4679284D02*
G01X-7549323Y-4679284D01*
G01X-7549323Y-4860005D02*
G01X-7690324Y-4860005D01*
G01X-7705564Y-4844765D02*
G01X-7705564Y-4694524D01*
G01X-7328084Y-4679284D02*
G01X-7469085Y-4679284D01*
G01X-7469085Y-4860005D02*
G01X-7328084Y-4860005D01*
G01X-7312844Y-4844765D02*
G01X-7312844Y-4694524D01*
G01X-7690324Y-4860005D02*
G02X-7705564Y-4844765I0J15240D01*
G01X-7705564Y-4694524D02*
G02X-7690324Y-4679284I15240J0D01*
G01X-7328084Y-4860005D02*
G03X-7312844Y-4844765I0J15240D01*
G01X-7312844Y-4694524D02*
G03X-7328084Y-4679284I-15240J0D01*
G01X-2648211Y-4146215D02*
G01X-2789212Y-4146215D01*
G01X-2789212Y-3965494D02*
G01X-2648211Y-3965494D01*
G01X-2632971Y-3980734D02*
G01X-2632971Y-4130975D01*
G01X-3010451Y-4146215D02*
G01X-2869450Y-4146215D01*
G01X-2869450Y-3965494D02*
G01X-3010451Y-3965494D01*
G01X-3025691Y-3980734D02*
G01X-3025691Y-4130975D01*
G01X-2648211Y-3965494D02*
G02X-2632971Y-3980734I0J-15240D01*
G01X-2632971Y-4130975D02*
G02X-2648211Y-4146215I-15240J0D01*
G01X-3010451Y-3965494D02*
G03X-3025691Y-3980734I0J-15240D01*
G01X-3025691Y-4130975D02*
G03X-3010451Y-4146215I15240J0D01*
G01X-4699783Y-2691661D02*
G01X-4558783Y-2691661D01*
G01X-4558783Y-2872382D02*
G01X-4699783Y-2872382D01*
G01X-4715023Y-2857142D02*
G01X-4715023Y-2706901D01*
G01X-4337544Y-2691661D02*
G01X-4478544Y-2691661D01*
G01X-4478544Y-2872382D02*
G01X-4337544Y-2872382D01*
G01X-4322304Y-2857142D02*
G01X-4322304Y-2706901D01*
G01X-4699783Y-2872382D02*
G02X-4715023Y-2857142I0J15240D01*
G01X-4715023Y-2706901D02*
G02X-4699783Y-2691661I15240J0D01*
G01X-4337544Y-2872382D02*
G03X-4322304Y-2857142I0J15240D01*
G01X-4322304Y-2706901D02*
G03X-4337544Y-2691661I-15240J0D01*
G01X-2824970Y-236300D02*
G01X-2824970Y-95299D01*
G01X-2644249Y-95299D02*
G01X-2644249Y-236300D01*
G01X-2659489Y-251540D02*
G01X-2809730Y-251540D01*
G01X-2824970Y125940D02*
G01X-2824970Y-15060D01*
G01X-2644249Y-15060D02*
G01X-2644249Y125940D01*
G01X-2659489Y141180D02*
G01X-2809730Y141180D01*
G01X-2644249Y-236300D02*
G02X-2659489Y-251540I-15240J0D01*
G01X-2809730Y-251540D02*
G02X-2824970Y-236300I0J15240D01*
G01X-2644249Y125940D02*
G03X-2659489Y141180I-15240J0D01*
G01X-2809730Y141180D02*
G03X-2824970Y125940I0J-15240D01*
G01X-7690324Y-4037764D02*
G01X-7549323Y-4037764D01*
G01X-7549323Y-4218485D02*
G01X-7690324Y-4218485D01*
G01X-7705564Y-4203245D02*
G01X-7705564Y-4053004D01*
G01X-7328084Y-4037764D02*
G01X-7469085Y-4037764D01*
G01X-7469085Y-4218485D02*
G01X-7328084Y-4218485D01*
G01X-7312844Y-4203245D02*
G01X-7312844Y-4053004D01*
G01X-7690324Y-4218485D02*
G02X-7705564Y-4203245I0J15240D01*
G01X-7705564Y-4053004D02*
G02X-7690324Y-4037764I15240J0D01*
G01X-7328084Y-4218485D02*
G03X-7312844Y-4203245I0J15240D01*
G01X-7312844Y-4053004D02*
G03X-7328084Y-4037764I-15240J0D01*
G01X-5509845Y-2925308D02*
G01X-5368845Y-2925308D01*
G01X-5368845Y-3106029D02*
G01X-5509845Y-3106029D01*
G01X-5525085Y-3090789D02*
G01X-5525085Y-2940548D01*
G01X-5147606Y-2925308D02*
G01X-5288606Y-2925308D01*
G01X-5288606Y-3106029D02*
G01X-5147606Y-3106029D01*
G01X-5132366Y-3090789D02*
G01X-5132366Y-2940548D01*
G01X-5509845Y-3106029D02*
G02X-5525085Y-3090789I0J15240D01*
G01X-5525085Y-2940548D02*
G02X-5509845Y-2925308I15240J0D01*
G01X-5147606Y-3106029D02*
G03X-5132366Y-3090789I0J15240D01*
G01X-5132366Y-2940548D02*
G03X-5147606Y-2925308I-15240J0D01*
G01X-3904503Y-2402601D02*
G01X-3804800Y-2502304D01*
G01X-3932589Y-2630093D02*
G01X-4032292Y-2530390D01*
G01X-4032292Y-2508838D02*
G01X-3926055Y-2402601D01*
G01X-3648361Y-2658743D02*
G01X-3748063Y-2559041D01*
G01X-3875852Y-2686830D02*
G01X-3776150Y-2786532D01*
G01X-3754597Y-2786532D02*
G01X-3648361Y-2680296D01*
G01X-4032292Y-2530390D02*
G02X-4032292Y-2508838I10776J10776D01*
G01X-3926055Y-2402601D02*
G02X-3904503Y-2402601I10776J-10776D01*
G01X-3776150Y-2786532D02*
G03X-3754597Y-2786532I10776J10776D01*
G01X-3648361Y-2680296D02*
G03X-3648361Y-2658743I-10776J10776D01*
G01X-4050076Y-2538502D02*
G01X-3950373Y-2638205D01*
G01X-4078162Y-2765994D02*
G01X-4177865Y-2666291D01*
G01X-4177865Y-2644739D02*
G01X-4071628Y-2538502D01*
G01X-3793934Y-2794644D02*
G01X-3893636Y-2694942D01*
G01X-4021425Y-2822731D02*
G01X-3921723Y-2922434D01*
G01X-3900170Y-2922434D02*
G01X-3793934Y-2816197D01*
G01X-4177865Y-2666291D02*
G02X-4177865Y-2644739I10776J10776D01*
G01X-4071628Y-2538502D02*
G02X-4050076Y-2538502I10776J-10776D01*
G01X-3921723Y-2922434D02*
G03X-3900170Y-2922434I10776J10776D01*
G01X-3793934Y-2816197D02*
G03X-3793934Y-2794644I-10776J10776D01*
G01X-1829228Y-3696381D02*
G01X-1729525Y-3796083D01*
G01X-1857314Y-3923872D02*
G01X-1957017Y-3824170D01*
G01X-1957017Y-3802617D02*
G01X-1850780Y-3696381D01*
G01X-1573086Y-3952523D02*
G01X-1672788Y-3852820D01*
G01X-1800577Y-3980609D02*
G01X-1700875Y-4080312D01*
G01X-1679322Y-4080312D02*
G01X-1573086Y-3974075D01*
G01X-1957017Y-3824170D02*
G02X-1957017Y-3802617I10776J10776D01*
G01X-1850780Y-3696381D02*
G02X-1829228Y-3696381I10776J-10776D01*
G01X-1700875Y-4080312D02*
G03X-1679322Y-4080312I10776J10776D01*
G01X-1573086Y-3974075D02*
G03X-1573086Y-3952523I-10776J10776D01*
G01X-1492264Y-3351815D02*
G01X-1392561Y-3451518D01*
G01X-1520350Y-3579307D02*
G01X-1620053Y-3479604D01*
G01X-1620053Y-3458052D02*
G01X-1513816Y-3351815D01*
G01X-1236122Y-3607957D02*
G01X-1335824Y-3508255D01*
G01X-1463613Y-3636044D02*
G01X-1363911Y-3735746D01*
G01X-1342358Y-3735746D02*
G01X-1236122Y-3629510D01*
G01X-1620053Y-3479604D02*
G02X-1620053Y-3458052I10776J10776D01*
G01X-1513816Y-3351815D02*
G02X-1492264Y-3351815I10776J-10776D01*
G01X-1363911Y-3735746D02*
G03X-1342358Y-3735746I10776J10776D01*
G01X-1236122Y-3629510D02*
G03X-1236122Y-3607957I-10776J10776D01*
G01X-1343921Y-2795884D02*
G01X-1443624Y-2696181D01*
G01X-1315835Y-2568392D02*
G01X-1216132Y-2668095D01*
G01X-1216132Y-2689647D02*
G01X-1322369Y-2795884D01*
G01X-1600063Y-2539742D02*
G01X-1500361Y-2639444D01*
G01X-1372572Y-2511655D02*
G01X-1472274Y-2411953D01*
G01X-1493827Y-2411953D02*
G01X-1600063Y-2518189D01*
G01X-1216132Y-2668095D02*
G02X-1216132Y-2689647I-10776J-10776D01*
G01X-1322369Y-2795884D02*
G02X-1343921Y-2795884I-10776J10776D01*
G01X-1472274Y-2411953D02*
G03X-1493827Y-2411953I-10776J-10776D01*
G01X-1600063Y-2518189D02*
G03X-1600063Y-2539742I10776J-10776D01*
G01X-1768180Y-1970697D02*
G01X-1668478Y-2070400D01*
G01X-1796267Y-2198189D02*
G01X-1895969Y-2098486D01*
G01X-1895969Y-2076934D02*
G01X-1789733Y-1970697D01*
G01X-1512038Y-2226839D02*
G01X-1611740Y-2127137D01*
G01X-1739529Y-2254926D02*
G01X-1639827Y-2354628D01*
G01X-1618274Y-2354628D02*
G01X-1512038Y-2248392D01*
G01X-1895969Y-2098486D02*
G02X-1895969Y-2076934I10776J10776D01*
G01X-1789733Y-1970697D02*
G02X-1768180Y-1970697I10776J-10776D01*
G01X-1639827Y-2354628D02*
G03X-1618274Y-2354628I10776J10776D01*
G01X-1512038Y-2248392D02*
G03X-1512038Y-2226839I-10776J10776D01*
G01X-189734Y-4695101D02*
G01X-189734Y-4836101D01*
G01X-370455Y-4836101D02*
G01X-370455Y-4695101D01*
G01X-355215Y-4679861D02*
G01X-204974Y-4679861D01*
G01X-189734Y-5057340D02*
G01X-189734Y-4916340D01*
G01X-370455Y-4916340D02*
G01X-370455Y-5057340D01*
G01X-355215Y-5072580D02*
G01X-204974Y-5072580D01*
G01X-370455Y-4695101D02*
G02X-355215Y-4679861I15240J0D01*
G01X-204974Y-4679861D02*
G02X-189734Y-4695101I0J-15240D01*
G01X-370455Y-5057340D02*
G03X-355215Y-5072580I15240J0D01*
G01X-204974Y-5072580D02*
G03X-189734Y-5057340I0J15240D01*
G01X307350Y-4983593D02*
G01X166350Y-4983593D01*
G01X166350Y-4802872D02*
G01X307350Y-4802872D01*
G01X322590Y-4818112D02*
G01X322590Y-4968353D01*
G01X-54889Y-4983593D02*
G01X86111Y-4983593D01*
G01X86111Y-4802872D02*
G01X-54889Y-4802872D01*
G01X-70129Y-4818112D02*
G01X-70129Y-4968353D01*
G01X307350Y-4802872D02*
G02X322590Y-4818112I0J-15240D01*
G01X322590Y-4968353D02*
G02X307350Y-4983593I-15240J0D01*
G01X-54889Y-4802872D02*
G03X-70129Y-4818112I0J-15240D01*
G01X-70129Y-4968353D02*
G03X-54889Y-4983593I15240J0D01*
G01X-2072118Y-1498383D02*
G01X-1972415Y-1598085D01*
G01X-2100205Y-1725874D02*
G01X-2199907Y-1626172D01*
G01X-2199907Y-1604619D02*
G01X-2093670Y-1498383D01*
G01X-1815976Y-1754525D02*
G01X-1915678Y-1654823D01*
G01X-2043467Y-1782612D02*
G01X-1943765Y-1882314D01*
G01X-1922212Y-1882314D02*
G01X-1815976Y-1776078D01*
G01X-2199907Y-1626172D02*
G02X-2199907Y-1604619I10776J10776D01*
G01X-2093670Y-1498383D02*
G02X-2072118Y-1498383I10776J-10776D01*
G01X-1943765Y-1882314D02*
G03X-1922212Y-1882314I10776J10776D01*
G01X-1815976Y-1776078D02*
G03X-1815976Y-1754525I-10776J10776D01*
G01X-2902490Y-1434260D02*
G01X-2802788Y-1334558D01*
G01X-2674999Y-1462347D02*
G01X-2774701Y-1562049D01*
G01X-2796254Y-1562049D02*
G01X-2902490Y-1455813D01*
G01X-2646348Y-1178118D02*
G01X-2746051Y-1277821D01*
G01X-2618262Y-1405610D02*
G01X-2518559Y-1305907D01*
G01X-2518559Y-1284355D02*
G01X-2624796Y-1178118D01*
G01X-2774701Y-1562049D02*
G02X-2796254Y-1562049I-10776J10776D01*
G01X-2902490Y-1455813D02*
G02X-2902490Y-1434260I10776J10776D01*
G01X-2518559Y-1305907D02*
G03X-2518559Y-1284355I-10776J10776D01*
G01X-2624796Y-1178118D02*
G03X-2646348Y-1178118I-10776J-10776D01*
G01X-3101843Y-1887267D02*
G01X-3002140Y-1986969D01*
G01X-3129929Y-2114758D02*
G01X-3229632Y-2015056D01*
G01X-3229632Y-1993503D02*
G01X-3123395Y-1887267D01*
G01X-2845700Y-2143409D02*
G01X-2945403Y-2043706D01*
G01X-3073192Y-2171495D02*
G01X-2973490Y-2271198D01*
G01X-2951937Y-2271198D02*
G01X-2845700Y-2164961D01*
G01X-3229632Y-2015056D02*
G02X-3229632Y-1993503I10776J10776D01*
G01X-3123395Y-1887267D02*
G02X-3101843Y-1887267I10776J-10776D01*
G01X-2973490Y-2271198D02*
G03X-2951937Y-2271198I10776J10776D01*
G01X-2845700Y-2164961D02*
G03X-2845700Y-2143409I-10776J10776D01*
G01X-3502259Y-3076568D02*
G01X-3402556Y-2976865D01*
G01X-3274767Y-3104654D02*
G01X-3374470Y-3204357D01*
G01X-3396022Y-3204357D02*
G01X-3502259Y-3098120D01*
G01X-3246117Y-2820426D02*
G01X-3345819Y-2920128D01*
G01X-3218030Y-3047917D02*
G01X-3118328Y-2948215D01*
G01X-3118328Y-2926662D02*
G01X-3224564Y-2820426D01*
G01X-3374470Y-3204357D02*
G02X-3396022Y-3204357I-10776J10776D01*
G01X-3502259Y-3098120D02*
G02X-3502259Y-3076568I10776J10776D01*
G01X-3118328Y-2948215D02*
G03X-3118328Y-2926662I-10776J10776D01*
G01X-3224564Y-2820426D02*
G03X-3246117Y-2820426I-10776J-10776D01*
G01X-2940752Y-3315253D02*
G01X-2799752Y-3315253D01*
G01X-2799752Y-3495974D02*
G01X-2940752Y-3495974D01*
G01X-2955992Y-3480734D02*
G01X-2955992Y-3330493D01*
G01X-2578512Y-3315253D02*
G01X-2719513Y-3315253D01*
G01X-2719513Y-3495974D02*
G01X-2578512Y-3495974D01*
G01X-2563272Y-3480734D02*
G01X-2563272Y-3330493D01*
G01X-2940752Y-3495974D02*
G02X-2955992Y-3480734I0J15240D01*
G01X-2955992Y-3330493D02*
G02X-2940752Y-3315253I15240J0D01*
G01X-2578512Y-3495974D02*
G03X-2563272Y-3480734I0J15240D01*
G01X-2563272Y-3330493D02*
G03X-2578512Y-3315253I-15240J0D01*
G01X-4559232Y-3620711D02*
G01X-4700232Y-3620711D01*
G01X-4700232Y-3439990D02*
G01X-4559232Y-3439990D01*
G01X-4543992Y-3455230D02*
G01X-4543992Y-3605471D01*
G01X-4921471Y-3620711D02*
G01X-4780471Y-3620711D01*
G01X-4780471Y-3439990D02*
G01X-4921471Y-3439990D01*
G01X-4936711Y-3455230D02*
G01X-4936711Y-3605471D01*
G01X-4559232Y-3439990D02*
G02X-4543992Y-3455230I0J-15240D01*
G01X-4543992Y-3605471D02*
G02X-4559232Y-3620711I-15240J0D01*
G01X-4921471Y-3439990D02*
G03X-4936711Y-3455230I0J-15240D01*
G01X-4936711Y-3605471D02*
G03X-4921471Y-3620711I15240J0D01*
G01X-6496039Y-1555882D02*
G01X-6355039Y-1555882D01*
G01X-6355039Y-1736603D02*
G01X-6496039Y-1736603D01*
G01X-6511279Y-1721363D02*
G01X-6511279Y-1571122D01*
G01X-6133800Y-1555882D02*
G01X-6274800Y-1555882D01*
G01X-6274800Y-1736603D02*
G01X-6133800Y-1736603D01*
G01X-6118560Y-1721363D02*
G01X-6118560Y-1571122D01*
G01X-6496039Y-1736603D02*
G02X-6511279Y-1721363I0J15240D01*
G01X-6511279Y-1571122D02*
G02X-6496039Y-1555882I15240J0D01*
G01X-6133800Y-1736603D02*
G03X-6118560Y-1721363I0J15240D01*
G01X-6118560Y-1571122D02*
G03X-6133800Y-1555882I-15240J0D01*
G54D12*
G01X-2177108Y-4838163D02*
G01X-2177108Y-4852153D01*
G01X-2177108Y-4725153D02*
G01X-2177108Y-4739136D01*
G01X-1999308Y-4725153D02*
G01X-1986210Y-4725153D01*
G01X-1986210Y-4725153D02*
G01X-1986210Y-4739144D01*
G01X-1986210Y-4739144D02*
G01X-1999308Y-4739144D01*
G01X-2010644Y-4852153D02*
G01X-1986768Y-4852153D01*
G01X-1986210Y-4838171D02*
G01X-1986210Y-4850652D01*
G01X-1986210Y-4838171D02*
G01X-1999308Y-4838171D01*
G01X-1999308Y-4739144D02*
G01X-1999308Y-4725153D01*
G01X-1999308Y-4848166D02*
G01X-1999308Y-4838171D01*
G01X-1999308Y-4852153D02*
G01X-2177108Y-4852153D01*
G01X-2107258Y-4750553D02*
G01X-2107258Y-4826753D01*
G01X-2107258Y-4826753D02*
G01X-2069158Y-4788653D01*
G01X-2069158Y-4788653D02*
G01X-2107258Y-4750553D01*
G01X-1999308Y-4848166D02*
G01X-1999308Y-4852153D01*
G01X-1999308Y-4725153D02*
G01X-1999308Y-4729141D01*
G01X-1999308Y-4725153D02*
G01X-2177108Y-4725153D01*
G01X-2139008Y-4788653D02*
G01X-2037408Y-4788653D01*
G01X-2062808Y-4750553D02*
G01X-2062808Y-4826753D01*
G54D13*
G01X-2400009Y-102111D02*
G01X-2400009Y-216411D01*
G01X-2400009Y-216411D02*
G01X-2400009Y-229111D01*
G01X-2400009Y-229111D02*
G01X-2425409Y-254511D01*
G01X-2425409Y-254511D02*
G01X-2565109Y-254511D01*
G01X-2565109Y-254511D02*
G01X-2577809Y-254511D01*
G01X-2577809Y-254511D02*
G01X-2603209Y-229111D01*
G01X-2603209Y-229111D02*
G01X-2603209Y-102111D01*
G01X-2603209Y-25911D02*
G01X-2603209Y88389D01*
G01X-2603209Y88389D02*
G01X-2603209Y101089D01*
G01X-2603209Y101089D02*
G01X-2577809Y126489D01*
G01X-2577809Y126489D02*
G01X-2438109Y126489D01*
G01X-2438109Y126489D02*
G01X-2425409Y126489D01*
G01X-2425409Y126489D02*
G01X-2400009Y101089D01*
G01X-2400009Y101089D02*
G01X-2400009Y-25911D01*
G54D11*
G01X258456Y-3251245D02*
G01X403698Y-3251245D01*
G01X403698Y-3251245D02*
G01X403698Y-3354407D01*
G01X258456Y-3556487D02*
G01X403698Y-3556487D01*
G01X403698Y-3556487D02*
G01X403698Y-3453325D01*
G01X258456Y-3358326D02*
G01X258456Y-3449405D01*
G01X258181Y-3633049D02*
G01X403423Y-3633049D01*
G01X403423Y-3633049D02*
G01X403423Y-3736211D01*
G01X258181Y-3938291D02*
G01X403423Y-3938291D01*
G01X403423Y-3938291D02*
G01X403423Y-3835128D01*
G01X258181Y-3740130D02*
G01X258181Y-3831209D01*
G01X258456Y-1181360D02*
G01X403698Y-1181360D01*
G01X403698Y-1181360D02*
G01X403698Y-1284522D01*
G01X258456Y-1486602D02*
G01X403698Y-1486602D01*
G01X403698Y-1486602D02*
G01X403698Y-1383440D01*
G01X258456Y-1288442D02*
G01X258456Y-1379521D01*
G01X258181Y-1563164D02*
G01X403423Y-1563164D01*
G01X403423Y-1563164D02*
G01X403423Y-1666326D01*
G01X258181Y-1868406D02*
G01X403423Y-1868406D01*
G01X403423Y-1868406D02*
G01X403423Y-1765244D01*
G01X258181Y-1670246D02*
G01X258181Y-1761325D01*
G01X-6148750Y-2393178D02*
G01X-6293992Y-2393178D01*
G01X-6293992Y-2393178D02*
G01X-6293992Y-2290015D01*
G01X-6148750Y-2087936D02*
G01X-6293992Y-2087936D01*
G01X-6293992Y-2087936D02*
G01X-6293992Y-2191098D01*
G01X-6148750Y-2286096D02*
G01X-6148750Y-2195017D01*
G01X-6150956Y-2799591D02*
G01X-6296198Y-2799591D01*
G01X-6296198Y-2799591D02*
G01X-6296198Y-2696429D01*
G01X-6150956Y-2494349D02*
G01X-6296198Y-2494349D01*
G01X-6296198Y-2494349D02*
G01X-6296198Y-2597511D01*
G01X-6150956Y-2692510D02*
G01X-6150956Y-2601430D01*
G01X-7673777Y-3650593D02*
G01X-7802270Y-3650593D01*
G01X-7802270Y-3650593D02*
G01X-7802270Y-3467174D01*
G01X-7802270Y-3467174D02*
G01X-7673777Y-3467174D01*
G01X-7578537Y-3650593D02*
G01X-7450044Y-3650593D01*
G01X-7450044Y-3650593D02*
G01X-7450044Y-3467174D01*
G01X-7450044Y-3467174D02*
G01X-7578537Y-3467174D01*
G01X-7481830Y-4888593D02*
G01X-7353337Y-4888593D01*
G01X-7353337Y-4888593D02*
G01X-7353337Y-5072011D01*
G01X-7353337Y-5072011D02*
G01X-7481830Y-5072011D01*
G01X-7577070Y-4888593D02*
G01X-7705564Y-4888593D01*
G01X-7705564Y-4888593D02*
G01X-7705564Y-5072011D01*
G01X-7705564Y-5072011D02*
G01X-7577070Y-5072011D01*
G01X-47746Y-3357057D02*
G01X-47746Y-3228563D01*
G01X-47746Y-3228563D02*
G01X135673Y-3228563D01*
G01X135673Y-3228563D02*
G01X135673Y-3357057D01*
G01X-47746Y-3452296D02*
G01X-47746Y-3580790D01*
G01X-47746Y-3580790D02*
G01X135673Y-3580790D01*
G01X135673Y-3580790D02*
G01X135673Y-3452296D01*
G01X-48020Y-3738860D02*
G01X-48020Y-3610367D01*
G01X-48020Y-3610367D02*
G01X135398Y-3610367D01*
G01X135398Y-3610367D02*
G01X135398Y-3738860D01*
G01X-48020Y-3834100D02*
G01X-48020Y-3962594D01*
G01X-48020Y-3962594D02*
G01X135398Y-3962594D01*
G01X135398Y-3962594D02*
G01X135398Y-3834100D01*
G01X-7481830Y-4245625D02*
G01X-7353337Y-4245625D01*
G01X-7353337Y-4245625D02*
G01X-7353337Y-4429043D01*
G01X-7353337Y-4429043D02*
G01X-7481830Y-4429043D01*
G01X-7577070Y-4245625D02*
G01X-7705564Y-4245625D01*
G01X-7705564Y-4245625D02*
G01X-7705564Y-4429043D01*
G01X-7705564Y-4429043D02*
G01X-7577070Y-4429043D01*
G01X-47746Y-1287172D02*
G01X-47746Y-1158679D01*
G01X-47746Y-1158679D02*
G01X135673Y-1158679D01*
G01X135673Y-1158679D02*
G01X135673Y-1287172D01*
G01X-47746Y-1382412D02*
G01X-47746Y-1510906D01*
G01X-47746Y-1510906D02*
G01X135673Y-1510906D01*
G01X135673Y-1510906D02*
G01X135673Y-1382412D01*
G01X-48020Y-1668976D02*
G01X-48020Y-1540483D01*
G01X-48020Y-1540483D02*
G01X135398Y-1540483D01*
G01X135398Y-1540483D02*
G01X135398Y-1668976D01*
G01X-48020Y-1764216D02*
G01X-48020Y-1892709D01*
G01X-48020Y-1892709D02*
G01X135398Y-1892709D01*
G01X135398Y-1892709D02*
G01X135398Y-1764216D01*
G01X-7461905Y-1993665D02*
G01X-7461905Y-2122158D01*
G01X-7461905Y-2122158D02*
G01X-7645324Y-2122158D01*
G01X-7645324Y-2122158D02*
G01X-7645324Y-1993665D01*
G01X-7461905Y-1898425D02*
G01X-7461905Y-1769931D01*
G01X-7461905Y-1769931D02*
G01X-7645324Y-1769931D01*
G01X-7645324Y-1769931D02*
G01X-7645324Y-1898425D01*
G01X-5460574Y-5024424D02*
G01X-5460574Y-5152917D01*
G01X-5460574Y-5152917D02*
G01X-5643992Y-5152917D01*
G01X-5643992Y-5152917D02*
G01X-5643992Y-5024424D01*
G01X-5460574Y-4929184D02*
G01X-5460574Y-4800690D01*
G01X-5460574Y-4800690D02*
G01X-5643992Y-4800690D01*
G01X-5643992Y-4800690D02*
G01X-5643992Y-4929184D01*
G01X-7372367Y-2852458D02*
G01X-7243873Y-2852458D01*
G01X-7243873Y-2852458D02*
G01X-7243873Y-3035876D01*
G01X-7243873Y-3035876D02*
G01X-7372367Y-3035876D01*
G01X-7467607Y-2852458D02*
G01X-7596100Y-2852458D01*
G01X-7596100Y-2852458D02*
G01X-7596100Y-3035876D01*
G01X-7596100Y-3035876D02*
G01X-7467607Y-3035876D01*
G01X-2132478Y532767D02*
G01X-2003985Y532767D01*
G01X-2003985Y532767D02*
G01X-2003985Y349349D01*
G01X-2003985Y349349D02*
G01X-2132478Y349349D01*
G01X-2227718Y532767D02*
G01X-2356211Y532767D01*
G01X-2356211Y532767D02*
G01X-2356211Y349349D01*
G01X-2356211Y349349D02*
G01X-2227718Y349349D01*
G01X-2609827Y349349D02*
G01X-2738321Y349349D01*
G01X-2738321Y349349D02*
G01X-2738321Y532767D01*
G01X-2738321Y532767D02*
G01X-2609827Y532767D01*
G01X-2514587Y349349D02*
G01X-2386094Y349349D01*
G01X-2386094Y349349D02*
G01X-2386094Y532767D01*
G01X-2386094Y532767D02*
G01X-2514587Y532767D01*
G01X-7645324Y-2287294D02*
G01X-7645324Y-2158801D01*
G01X-7645324Y-2158801D02*
G01X-7461905Y-2158801D01*
G01X-7461905Y-2158801D02*
G01X-7461905Y-2287294D01*
G01X-7645324Y-2382534D02*
G01X-7645324Y-2511028D01*
G01X-7645324Y-2511028D02*
G01X-7461905Y-2511028D01*
G01X-7461905Y-2511028D02*
G01X-7461905Y-2382534D01*
G01X-5858928Y-2264684D02*
G01X-5858928Y-2393178D01*
G01X-5858928Y-2393178D02*
G01X-6042347Y-2393178D01*
G01X-6042347Y-2393178D02*
G01X-6042347Y-2264684D01*
G01X-5858928Y-2169444D02*
G01X-5858928Y-2040951D01*
G01X-5858928Y-2040951D02*
G01X-6042347Y-2040951D01*
G01X-6042347Y-2040951D02*
G01X-6042347Y-2169444D01*
G01X-5861134Y-2705382D02*
G01X-5861134Y-2833876D01*
G01X-5861134Y-2833876D02*
G01X-6044553Y-2833876D01*
G01X-6044553Y-2833876D02*
G01X-6044553Y-2705382D01*
G01X-5861134Y-2610143D02*
G01X-5861134Y-2481649D01*
G01X-5861134Y-2481649D02*
G01X-6044553Y-2481649D01*
G01X-6044553Y-2481649D02*
G01X-6044553Y-2610143D01*
G01X-7448565Y-618336D02*
G01X-7448565Y-746830D01*
G01X-7448565Y-746830D02*
G01X-7631984Y-746830D01*
G01X-7631984Y-746830D02*
G01X-7631984Y-618336D01*
G01X-7448565Y-523096D02*
G01X-7448565Y-394603D01*
G01X-7448565Y-394603D02*
G01X-7631984Y-394603D01*
G01X-7631984Y-394603D02*
G01X-7631984Y-523096D01*
G01X-7448565Y-1004706D02*
G01X-7448565Y-1133200D01*
G01X-7448565Y-1133200D02*
G01X-7631984Y-1133200D01*
G01X-7631984Y-1133200D02*
G01X-7631984Y-1004706D01*
G01X-7448565Y-909466D02*
G01X-7448565Y-780973D01*
G01X-7448565Y-780973D02*
G01X-7631984Y-780973D01*
G01X-7631984Y-780973D02*
G01X-7631984Y-909466D01*
G01X-2566061Y-5044334D02*
G01X-2694555Y-5044334D01*
G01X-2694555Y-5044334D02*
G01X-2694555Y-4860915D01*
G01X-2694555Y-4860915D02*
G01X-2566061Y-4860915D01*
G01X-2470821Y-5044334D02*
G01X-2342328Y-5044334D01*
G01X-2342328Y-5044334D02*
G01X-2342328Y-4860915D01*
G01X-2342328Y-4860915D02*
G01X-2470821Y-4860915D01*
G01X650195Y-3536178D02*
G01X521702Y-3536178D01*
G01X521702Y-3536178D02*
G01X521702Y-3352760D01*
G01X521702Y-3352760D02*
G01X650195Y-3352760D01*
G01X745435Y-3536178D02*
G01X873928Y-3536178D01*
G01X873928Y-3536178D02*
G01X873928Y-3352760D01*
G01X873928Y-3352760D02*
G01X745435Y-3352760D01*
G01X649920Y-3841782D02*
G01X521427Y-3841782D01*
G01X521427Y-3841782D02*
G01X521427Y-3658364D01*
G01X521427Y-3658364D02*
G01X649920Y-3658364D01*
G01X745160Y-3841782D02*
G01X873654Y-3841782D01*
G01X873654Y-3841782D02*
G01X873654Y-3658364D01*
G01X873654Y-3658364D02*
G01X745160Y-3658364D01*
G01X98857Y-4594461D02*
G01X-29636Y-4594461D01*
G01X-29636Y-4594461D02*
G01X-29636Y-4411043D01*
G01X-29636Y-4411043D02*
G01X98857Y-4411043D01*
G01X194097Y-4594461D02*
G01X322590Y-4594461D01*
G01X322590Y-4594461D02*
G01X322590Y-4411043D01*
G01X322590Y-4411043D02*
G01X194097Y-4411043D01*
G01X650195Y-1466294D02*
G01X521702Y-1466294D01*
G01X521702Y-1466294D02*
G01X521702Y-1282876D01*
G01X521702Y-1282876D02*
G01X650195Y-1282876D01*
G01X745435Y-1466294D02*
G01X873928Y-1466294D01*
G01X873928Y-1466294D02*
G01X873928Y-1282876D01*
G01X873928Y-1282876D02*
G01X745435Y-1282876D01*
G01X649920Y-1771898D02*
G01X521427Y-1771898D01*
G01X521427Y-1771898D02*
G01X521427Y-1588479D01*
G01X521427Y-1588479D02*
G01X649920Y-1588479D01*
G01X745160Y-1771898D02*
G01X873654Y-1771898D01*
G01X873654Y-1771898D02*
G01X873654Y-1588479D01*
G01X873654Y-1588479D02*
G01X745160Y-1588479D01*
G01X-6582701Y-2209759D02*
G01X-6454207Y-2209759D01*
G01X-6454207Y-2209759D02*
G01X-6454207Y-2393178D01*
G01X-6454207Y-2393178D02*
G01X-6582701Y-2393178D01*
G01X-6677941Y-2209759D02*
G01X-6806434Y-2209759D01*
G01X-6806434Y-2209759D02*
G01X-6806434Y-2393178D01*
G01X-6806434Y-2393178D02*
G01X-6677941Y-2393178D01*
G01X-6584907Y-2494349D02*
G01X-6456414Y-2494349D01*
G01X-6456414Y-2494349D02*
G01X-6456414Y-2677768D01*
G01X-6456414Y-2677768D02*
G01X-6584907Y-2677768D01*
G01X-6680147Y-2494349D02*
G01X-6808640Y-2494349D01*
G01X-6808640Y-2494349D02*
G01X-6808640Y-2677768D01*
G01X-6808640Y-2677768D02*
G01X-6680147Y-2677768D01*
G01X-6539946Y-3553124D02*
G01X-6680947Y-3553124D01*
G01X-6680947Y-3372403D02*
G01X-6539946Y-3372403D01*
G01X-6524706Y-3387643D02*
G01X-6524706Y-3537884D01*
G01X-6902186Y-3553124D02*
G01X-6761185Y-3553124D01*
G01X-6761185Y-3372403D02*
G01X-6902186Y-3372403D01*
G01X-6917426Y-3387643D02*
G01X-6917426Y-3537884D01*
G01X-6539946Y-3372403D02*
G02X-6524706Y-3387643I0J-15240D01*
G01X-6524706Y-3537884D02*
G02X-6539946Y-3553124I-15240J0D01*
G01X-6902186Y-3372403D02*
G03X-6917426Y-3387643I0J-15240D01*
G01X-6917426Y-3537884D02*
G03X-6902186Y-3553124I15240J0D01*
G01X-6736705Y-3616230D02*
G01X-6736705Y-3757230D01*
G01X-6917426Y-3757230D02*
G01X-6917426Y-3616230D01*
G01X-6902186Y-3600990D02*
G01X-6751945Y-3600990D01*
G01X-6736705Y-3978469D02*
G01X-6736705Y-3837469D01*
G01X-6917426Y-3837469D02*
G01X-6917426Y-3978469D01*
G01X-6902186Y-3993709D02*
G01X-6751945Y-3993709D01*
G01X-6917426Y-3616230D02*
G02X-6902186Y-3600990I15240J0D01*
G01X-6751945Y-3600990D02*
G02X-6736705Y-3616230I0J-15240D01*
G01X-6917426Y-3978469D02*
G03X-6902186Y-3993709I15240J0D01*
G01X-6751945Y-3993709D02*
G03X-6736705Y-3978469I0J15240D01*
G01X-1901816Y-5041636D02*
G01X-2042817Y-5041636D01*
G01X-2042817Y-4860915D02*
G01X-1901816Y-4860915D01*
G01X-1886576Y-4876155D02*
G01X-1886576Y-5026396D01*
G01X-2264056Y-5041636D02*
G01X-2123055Y-5041636D01*
G01X-2123055Y-4860915D02*
G01X-2264056Y-4860915D01*
G01X-2279296Y-4876155D02*
G01X-2279296Y-5026396D01*
G01X-1901816Y-4860915D02*
G02X-1886576Y-4876155I0J-15240D01*
G01X-1886576Y-5026396D02*
G02X-1901816Y-5041636I-15240J0D01*
G01X-2264056Y-4860915D02*
G03X-2279296Y-4876155I0J-15240D01*
G01X-2279296Y-5026396D02*
G03X-2264056Y-5041636I15240J0D01*
G54D13*
G01X-1569301Y-4531967D02*
G01X-1366101Y-4531967D01*
G01X-1467701Y-4633567D02*
G01X-1467701Y-4430367D01*
G01X-663582Y-4636541D02*
G02X-1762772Y-4641908I-550119J104566D01*
G01X-1763430Y-4425114D02*
G02X-665531Y-4417382I549730J-106859D01*
G54D11*
G01X-1921755Y125940D02*
G01X-1921755Y-15060D01*
G01X-2102476Y-15060D02*
G01X-2102476Y125940D01*
G01X-2087236Y141180D02*
G01X-1936995Y141180D01*
G01X-1921755Y-236300D02*
G01X-1921755Y-95299D01*
G01X-2102476Y-95299D02*
G01X-2102476Y-236300D01*
G01X-2087236Y-251540D02*
G01X-1936995Y-251540D01*
G01X-2102476Y125940D02*
G02X-2087236Y141180I15240J0D01*
G01X-1936995Y141180D02*
G02X-1921755Y125940I0J-15240D01*
G01X-2102476Y-236300D02*
G03X-2087236Y-251540I15240J0D01*
G01X-1936995Y-251540D02*
G03X-1921755Y-236300I0J15240D01*
G01X-2348437Y-236300D02*
G01X-2348437Y-95299D01*
G01X-2167716Y-95299D02*
G01X-2167716Y-236300D01*
G01X-2182956Y-251540D02*
G01X-2333197Y-251540D01*
G01X-2348437Y125940D02*
G01X-2348437Y-15060D01*
G01X-2167716Y-15060D02*
G01X-2167716Y125940D01*
G01X-2182956Y141180D02*
G01X-2333197Y141180D01*
G01X-2167716Y-236300D02*
G02X-2182956Y-251540I-15240J0D01*
G01X-2333197Y-251540D02*
G02X-2348437Y-236300I0J15240D01*
G01X-2167716Y125940D02*
G03X-2182956Y141180I-15240J0D01*
G01X-2333197Y141180D02*
G03X-2348437Y125940I0J-15240D01*
G01X-2028713Y-1374091D02*
G01X-2128415Y-1473794D01*
G01X-2256204Y-1346004D02*
G01X-2156502Y-1246302D01*
G01X-2134949Y-1246302D02*
G01X-2028713Y-1352539D01*
G01X-2284855Y-1630233D02*
G01X-2185152Y-1530531D01*
G01X-2312941Y-1402742D02*
G01X-2412644Y-1502444D01*
G01X-2412644Y-1523997D02*
G01X-2306407Y-1630233D01*
G01X-2156502Y-1246302D02*
G02X-2134949Y-1246302I10776J-10776D01*
G01X-2028713Y-1352539D02*
G02X-2028713Y-1374091I-10776J-10776D01*
G01X-2412644Y-1502444D02*
G03X-2412644Y-1523997I10776J-10776D01*
G01X-2306407Y-1630233D02*
G03X-2284855Y-1630233I10776J10776D01*

G04 Circle Start*
G54D13*
G01X-1620101Y-4531967D02*
G03X-807301Y-4531967I406400J0D01*
G03X-1620101Y-4531967I-406400J0D01*
G04 Circle End*

M02*

