G04 Layer: BottomPasteMaskLayer*
G04 EasyEDA Pro v3.2.149.88089769, 2026-09-01 22:31:21*
G04 Gerber Generator version 0.3*
G04 Scale: 100 percent, Rotated: No, Reflected: No*
G04 Dimensions in millimeters*
G04 Leading zeros omitted, absolute positions, 4 integers and 5 decimals*
G04 Generated by one-click*
G04 Object Configs: Pad,Via,Track,Text,Image,Dimension,BoardOutline,BoardCutout,CopperFilled,SolidRegion,FPCStiffener,Line,PlaneZone,ComponentProperty,ComponentSilkscreen,TearDrop*
G04 Layer Configs: 1,15,16,2,3,4,5,6,7,8,9,10,11,13,14,56*
G04 Copper Areas: 0*
%FSLAX45Y45*%
%MOMM*%
%ADD10R,0.83X0.63*%
%ADD11R,1.0X0.65001*%
%ADD12C,0.6999*%
G75*


G04 PolygonModel Start*
G36*
G01X-6071670Y-3634753D02*
G01X-6066669Y-3639754D01*
G01X-6066669Y-3754756D01*
G01X-6071670Y-3759754D01*
G01X-6113666Y-3759256D01*
G01X-6113666Y-3715256D01*
G01X-6158665Y-3715256D01*
G01X-6158665Y-3760257D01*
G01X-6199668Y-3759754D01*
G01X-6204670Y-3754756D01*
G01X-6204670Y-3639754D01*
G01X-6199668Y-3634753D01*
G01X-6071670Y-3634753D01*
G37*
G36*
G01X-6199671Y-3975748D02*
G01X-6204672Y-3970747D01*
G01X-6204672Y-3855746D01*
G01X-6199671Y-3850747D01*
G01X-6157675Y-3851245D01*
G01X-6157675Y-3895245D01*
G01X-6112676Y-3895245D01*
G01X-6112676Y-3850244D01*
G01X-6071673Y-3850747D01*
G01X-6066671Y-3855746D01*
G01X-6066671Y-3970747D01*
G01X-6071673Y-3975748D01*
G01X-6199671Y-3975748D01*
G37*
G36*
G01X-6305519Y-3634753D02*
G01X-6300518Y-3639754D01*
G01X-6300518Y-3754756D01*
G01X-6305519Y-3759754D01*
G01X-6347515Y-3759256D01*
G01X-6347515Y-3715256D01*
G01X-6392514Y-3715256D01*
G01X-6392514Y-3760257D01*
G01X-6433517Y-3759754D01*
G01X-6438518Y-3754756D01*
G01X-6438518Y-3639754D01*
G01X-6433517Y-3634753D01*
G01X-6305519Y-3634753D01*
G37*
G36*
G01X-6433520Y-3975748D02*
G01X-6438521Y-3970747D01*
G01X-6438521Y-3855746D01*
G01X-6433520Y-3850747D01*
G01X-6391523Y-3851245D01*
G01X-6391523Y-3895245D01*
G01X-6346525Y-3895245D01*
G01X-6346525Y-3850244D01*
G01X-6305522Y-3850747D01*
G01X-6300520Y-3855746D01*
G01X-6300520Y-3970747D01*
G01X-6305522Y-3975748D01*
G01X-6433520Y-3975748D01*
G37*
G36*
G01X-7338706Y-4833645D02*
G01X-7343708Y-4838646D01*
G01X-7458709Y-4838646D01*
G01X-7463707Y-4833645D01*
G01X-7463210Y-4791649D01*
G01X-7419209Y-4791649D01*
G01X-7419209Y-4746650D01*
G01X-7464210Y-4746650D01*
G01X-7463707Y-4705647D01*
G01X-7458709Y-4700645D01*
G01X-7343708Y-4700645D01*
G01X-7338706Y-4705647D01*
G01X-7338706Y-4833645D01*
G37*
G36*
G01X-7679701Y-4705644D02*
G01X-7674700Y-4700643D01*
G01X-7559699Y-4700643D01*
G01X-7554700Y-4705644D01*
G01X-7555198Y-4747640D01*
G01X-7599199Y-4747640D01*
G01X-7599199Y-4792639D01*
G01X-7554197Y-4792639D01*
G01X-7554700Y-4833642D01*
G01X-7559699Y-4838644D01*
G01X-7674700Y-4838644D01*
G01X-7679701Y-4833642D01*
G01X-7679701Y-4705644D01*
G37*
G36*
G01X-2999828Y-3991854D02*
G01X-2994827Y-3986853D01*
G01X-2879826Y-3986853D01*
G01X-2874827Y-3991854D01*
G01X-2875325Y-4033851D01*
G01X-2919326Y-4033851D01*
G01X-2919326Y-4078849D01*
G01X-2874324Y-4078849D01*
G01X-2874827Y-4119853D01*
G01X-2879826Y-4124854D01*
G01X-2994827Y-4124854D01*
G01X-2999828Y-4119853D01*
G01X-2999828Y-3991854D01*
G37*
G36*
G01X-2658833Y-4119855D02*
G01X-2663835Y-4124856D01*
G01X-2778836Y-4124856D01*
G01X-2783834Y-4119855D01*
G01X-2783337Y-4077859D01*
G01X-2739336Y-4077859D01*
G01X-2739336Y-4032860D01*
G01X-2784337Y-4032860D01*
G01X-2783834Y-3991857D01*
G01X-2778836Y-3986856D01*
G01X-2663835Y-3986856D01*
G01X-2658833Y-3991857D01*
G01X-2658833Y-4119855D01*
G37*
G36*
G01X-4348166Y-2846022D02*
G01X-4353167Y-2851023D01*
G01X-4468168Y-2851023D01*
G01X-4473167Y-2846022D01*
G01X-4472669Y-2804026D01*
G01X-4428669Y-2804026D01*
G01X-4428669Y-2759027D01*
G01X-4473670Y-2759027D01*
G01X-4473167Y-2718024D01*
G01X-4468168Y-2713023D01*
G01X-4353167Y-2713023D01*
G01X-4348166Y-2718024D01*
G01X-4348166Y-2846022D01*
G37*
G36*
G01X-4689161Y-2718021D02*
G01X-4684160Y-2713020D01*
G01X-4569159Y-2713020D01*
G01X-4564160Y-2718021D01*
G01X-4564658Y-2760018D01*
G01X-4608658Y-2760018D01*
G01X-4608658Y-2805016D01*
G01X-4563657Y-2805016D01*
G01X-4564160Y-2846019D01*
G01X-4569159Y-2851021D01*
G01X-4684160Y-2851021D01*
G01X-4689161Y-2846019D01*
G01X-4689161Y-2718021D01*
G37*
G36*
G01X-2670609Y115318D02*
G01X-2665608Y110317D01*
G01X-2665608Y-4685D01*
G01X-2670609Y-9683D01*
G01X-2712605Y-9185D01*
G01X-2712605Y34815D01*
G01X-2757604Y34815D01*
G01X-2757604Y-10186D01*
G01X-2798607Y-9683D01*
G01X-2803608Y-4685D01*
G01X-2803608Y110317D01*
G01X-2798607Y115318D01*
G01X-2670609Y115318D01*
G37*
G36*
G01X-2798610Y-225677D02*
G01X-2803611Y-220676D01*
G01X-2803611Y-105675D01*
G01X-2798610Y-100676D01*
G01X-2756613Y-101174D01*
G01X-2756613Y-145174D01*
G01X-2711615Y-145174D01*
G01X-2711615Y-100173D01*
G01X-2670611Y-100676D01*
G01X-2665610Y-105675D01*
G01X-2665610Y-220676D01*
G01X-2670611Y-225677D01*
G01X-2798610Y-225677D01*
G37*
G36*
G01X-7338706Y-4192125D02*
G01X-7343708Y-4197126D01*
G01X-7458709Y-4197126D01*
G01X-7463707Y-4192125D01*
G01X-7463210Y-4150129D01*
G01X-7419209Y-4150129D01*
G01X-7419209Y-4105130D01*
G01X-7464210Y-4105130D01*
G01X-7463707Y-4064127D01*
G01X-7458709Y-4059125D01*
G01X-7343708Y-4059125D01*
G01X-7338706Y-4064127D01*
G01X-7338706Y-4192125D01*
G37*
G36*
G01X-7679701Y-4064124D02*
G01X-7674700Y-4059123D01*
G01X-7559699Y-4059123D01*
G01X-7554700Y-4064124D01*
G01X-7555198Y-4106121D01*
G01X-7599199Y-4106121D01*
G01X-7599199Y-4151119D01*
G01X-7554197Y-4151119D01*
G01X-7554700Y-4192122D01*
G01X-7559699Y-4197124D01*
G01X-7674700Y-4197124D01*
G01X-7679701Y-4192122D01*
G01X-7679701Y-4064124D01*
G37*
G36*
G01X-5158228Y-3079668D02*
G01X-5163229Y-3084670D01*
G01X-5278230Y-3084670D01*
G01X-5283229Y-3079668D01*
G01X-5282731Y-3037672D01*
G01X-5238731Y-3037672D01*
G01X-5238731Y-2992673D01*
G01X-5283732Y-2992673D01*
G01X-5283229Y-2951670D01*
G01X-5278230Y-2946669D01*
G01X-5163229Y-2946669D01*
G01X-5158228Y-2951670D01*
G01X-5158228Y-3079668D01*
G37*
G36*
G01X-5499223Y-2951668D02*
G01X-5494222Y-2946666D01*
G01X-5379221Y-2946666D01*
G01X-5374222Y-2951668D01*
G01X-5374720Y-2993664D01*
G01X-5418720Y-2993664D01*
G01X-5418720Y-3038663D01*
G01X-5373719Y-3038663D01*
G01X-5374222Y-3079666D01*
G01X-5379221Y-3084667D01*
G01X-5494222Y-3084667D01*
G01X-5499223Y-3079666D01*
G01X-5499223Y-2951668D01*
G37*
G36*
G01X-3765021Y-2760382D02*
G01X-3772094Y-2760382D01*
G01X-3853412Y-2679064D01*
G01X-3853410Y-2671993D01*
G01X-3823362Y-2642649D01*
G01X-3792249Y-2673762D01*
G01X-3760431Y-2641943D01*
G01X-3792251Y-2610122D01*
G01X-3762902Y-2581484D01*
G01X-3755831Y-2581483D01*
G01X-3674513Y-2662801D01*
G01X-3674513Y-2669873D01*
G01X-3765021Y-2760382D01*
G37*
G36*
G01X-3915631Y-2428752D02*
G01X-3908558Y-2428752D01*
G01X-3827240Y-2510070D01*
G01X-3827242Y-2517141D01*
G01X-3857290Y-2546485D01*
G01X-3888403Y-2515372D01*
G01X-3920222Y-2547191D01*
G01X-3888401Y-2579011D01*
G01X-3917750Y-2607649D01*
G01X-3924821Y-2607651D01*
G01X-4006139Y-2526333D01*
G01X-4006139Y-2519260D01*
G01X-3915631Y-2428752D01*
G37*
G36*
G01X-3910594Y-2896283D02*
G01X-3917667Y-2896283D01*
G01X-3998985Y-2814965D01*
G01X-3998983Y-2807894D01*
G01X-3968935Y-2778550D01*
G01X-3937822Y-2809663D01*
G01X-3906004Y-2777844D01*
G01X-3937824Y-2746024D01*
G01X-3908475Y-2717386D01*
G01X-3901404Y-2717384D01*
G01X-3820086Y-2798702D01*
G01X-3820086Y-2805775D01*
G01X-3910594Y-2896283D01*
G37*
G36*
G01X-4061204Y-2564653D02*
G01X-4054131Y-2564653D01*
G01X-3972813Y-2645971D01*
G01X-3972815Y-2653042D01*
G01X-4002863Y-2682386D01*
G01X-4033976Y-2651273D01*
G01X-4065795Y-2683092D01*
G01X-4033974Y-2714912D01*
G01X-4063323Y-2743550D01*
G01X-4070394Y-2743552D01*
G01X-4151712Y-2662234D01*
G01X-4151712Y-2655161D01*
G01X-4061204Y-2564653D01*
G37*
G36*
G01X-1689746Y-4054161D02*
G01X-1696819Y-4054161D01*
G01X-1778137Y-3972843D01*
G01X-1778136Y-3965772D01*
G01X-1748088Y-3936428D01*
G01X-1716975Y-3967541D01*
G01X-1685156Y-3935723D01*
G01X-1716976Y-3903902D01*
G01X-1687627Y-3875264D01*
G01X-1680556Y-3875262D01*
G01X-1599238Y-3956580D01*
G01X-1599238Y-3963653D01*
G01X-1689746Y-4054161D01*
G37*
G36*
G01X-1840356Y-3722531D02*
G01X-1833283Y-3722531D01*
G01X-1751965Y-3803849D01*
G01X-1751967Y-3810920D01*
G01X-1782015Y-3840264D01*
G01X-1813128Y-3809151D01*
G01X-1844947Y-3840970D01*
G01X-1813126Y-3872791D01*
G01X-1842476Y-3901429D01*
G01X-1849547Y-3901431D01*
G01X-1930865Y-3820113D01*
G01X-1930865Y-3813040D01*
G01X-1840356Y-3722531D01*
G37*
G36*
G01X-1352782Y-3709596D02*
G01X-1359855Y-3709596D01*
G01X-1441173Y-3628278D01*
G01X-1441172Y-3621207D01*
G01X-1411124Y-3591863D01*
G01X-1380011Y-3622976D01*
G01X-1348192Y-3591157D01*
G01X-1380012Y-3559336D01*
G01X-1350663Y-3530698D01*
G01X-1343592Y-3530697D01*
G01X-1262274Y-3612015D01*
G01X-1262274Y-3619087D01*
G01X-1352782Y-3709596D01*
G37*
G36*
G01X-1503392Y-3377966D02*
G01X-1496319Y-3377966D01*
G01X-1415001Y-3459284D01*
G01X-1415003Y-3466355D01*
G01X-1445051Y-3495699D01*
G01X-1476164Y-3464586D01*
G01X-1507983Y-3496405D01*
G01X-1476162Y-3528225D01*
G01X-1505511Y-3556863D01*
G01X-1512583Y-3556865D01*
G01X-1593901Y-3475547D01*
G01X-1593901Y-3468474D01*
G01X-1503392Y-3377966D01*
G37*
G36*
G01X-1483403Y-2438103D02*
G01X-1476330Y-2438103D01*
G01X-1395012Y-2519421D01*
G01X-1395014Y-2526492D01*
G01X-1425061Y-2555836D01*
G01X-1456174Y-2524723D01*
G01X-1487993Y-2556542D01*
G01X-1456173Y-2588362D01*
G01X-1485522Y-2617001D01*
G01X-1492593Y-2617002D01*
G01X-1573911Y-2535684D01*
G01X-1573911Y-2528611D01*
G01X-1483403Y-2438103D01*
G37*
G36*
G01X-1332793Y-2769733D02*
G01X-1339866Y-2769733D01*
G01X-1421184Y-2688415D01*
G01X-1421182Y-2681344D01*
G01X-1391134Y-2652000D01*
G01X-1360021Y-2683113D01*
G01X-1328202Y-2651294D01*
G01X-1360023Y-2619474D01*
G01X-1330674Y-2590836D01*
G01X-1323603Y-2590834D01*
G01X-1242285Y-2672152D01*
G01X-1242285Y-2679225D01*
G01X-1332793Y-2769733D01*
G37*
G36*
G01X-1628699Y-2328478D02*
G01X-1635771Y-2328478D01*
G01X-1717089Y-2247160D01*
G01X-1717088Y-2240089D01*
G01X-1687040Y-2210745D01*
G01X-1655927Y-2241858D01*
G01X-1624108Y-2210039D01*
G01X-1655929Y-2178218D01*
G01X-1626579Y-2149580D01*
G01X-1619508Y-2149578D01*
G01X-1538190Y-2230896D01*
G01X-1538190Y-2237969D01*
G01X-1628699Y-2328478D01*
G37*
G36*
G01X-1779308Y-1996848D02*
G01X-1772235Y-1996848D01*
G01X-1690917Y-2078166D01*
G01X-1690919Y-2085237D01*
G01X-1720967Y-2114581D01*
G01X-1752080Y-2083468D01*
G01X-1783899Y-2115286D01*
G01X-1752078Y-2147107D01*
G01X-1781428Y-2175745D01*
G01X-1788499Y-2175747D01*
G01X-1869817Y-2094429D01*
G01X-1869817Y-2087356D01*
G01X-1779308Y-1996848D01*
G37*
G36*
G01X-344095Y-5046718D02*
G01X-349096Y-5041717D01*
G01X-349096Y-4926716D01*
G01X-344095Y-4921717D01*
G01X-302098Y-4922215D01*
G01X-302098Y-4966215D01*
G01X-257100Y-4966215D01*
G01X-257100Y-4921214D01*
G01X-216096Y-4921717D01*
G01X-211095Y-4926716D01*
G01X-211095Y-5041717D01*
G01X-216096Y-5046718D01*
G01X-344095Y-5046718D01*
G37*
G36*
G01X-216094Y-4705723D02*
G01X-211093Y-4710724D01*
G01X-211093Y-4825725D01*
G01X-216094Y-4830724D01*
G01X-258090Y-4830226D01*
G01X-258090Y-4786226D01*
G01X-303089Y-4786226D01*
G01X-303089Y-4831227D01*
G01X-344092Y-4830724D01*
G01X-349093Y-4825725D01*
G01X-349093Y-4710724D01*
G01X-344092Y-4705723D01*
G01X-216094Y-4705723D01*
G37*
G36*
G01X-44267Y-4829232D02*
G01X-39266Y-4824230D01*
G01X75735Y-4824230D01*
G01X80734Y-4829232D01*
G01X80236Y-4871228D01*
G01X36236Y-4871228D01*
G01X36236Y-4916227D01*
G01X81237Y-4916227D01*
G01X80734Y-4957230D01*
G01X75735Y-4962231D01*
G01X-39266Y-4962231D01*
G01X-44267Y-4957230D01*
G01X-44267Y-4829232D01*
G37*
G36*
G01X296728Y-4957232D02*
G01X291727Y-4962234D01*
G01X176726Y-4962234D01*
G01X171727Y-4957232D01*
G01X172225Y-4915236D01*
G01X216225Y-4915236D01*
G01X216225Y-4870237D01*
G01X171224Y-4870237D01*
G01X171727Y-4829234D01*
G01X176726Y-4824233D01*
G01X291727Y-4824233D01*
G01X296728Y-4829234D01*
G01X296728Y-4957232D01*
G37*
G36*
G01X-1932637Y-1856163D02*
G01X-1939709Y-1856163D01*
G01X-2021027Y-1774845D01*
G01X-2021026Y-1767774D01*
G01X-1990978Y-1738430D01*
G01X-1959865Y-1769543D01*
G01X-1928046Y-1737725D01*
G01X-1959866Y-1705904D01*
G01X-1930517Y-1677266D01*
G01X-1923446Y-1677264D01*
G01X-1842128Y-1758582D01*
G01X-1842128Y-1765655D01*
G01X-1932637Y-1856163D01*
G37*
G36*
G01X-2083246Y-1524533D02*
G01X-2076173Y-1524533D01*
G01X-1994855Y-1605851D01*
G01X-1994857Y-1612922D01*
G01X-2024905Y-1642266D01*
G01X-2056018Y-1611153D01*
G01X-2087837Y-1642972D01*
G01X-2056016Y-1674793D01*
G01X-2085366Y-1703431D01*
G01X-2092437Y-1703433D01*
G01X-2173755Y-1622115D01*
G01X-2173755Y-1615042D01*
G01X-2083246Y-1524533D01*
G37*
G36*
G01X-2544710Y-1294779D02*
G01X-2544710Y-1301852D01*
G01X-2626028Y-1383170D01*
G01X-2633099Y-1383168D01*
G01X-2662443Y-1353120D01*
G01X-2631330Y-1322007D01*
G01X-2663149Y-1290188D01*
G01X-2694969Y-1322009D01*
G01X-2723607Y-1292660D01*
G01X-2723609Y-1285589D01*
G01X-2642291Y-1204271D01*
G01X-2635218Y-1204271D01*
G01X-2544710Y-1294779D01*
G37*
G36*
G01X-2876340Y-1445389D02*
G01X-2876340Y-1438316D01*
G01X-2795022Y-1356998D01*
G01X-2787951Y-1357000D01*
G01X-2758607Y-1387048D01*
G01X-2789720Y-1418161D01*
G01X-2757901Y-1449979D01*
G01X-2726081Y-1418159D01*
G01X-2697442Y-1447508D01*
G01X-2697441Y-1454579D01*
G01X-2778759Y-1535897D01*
G01X-2785832Y-1535897D01*
G01X-2876340Y-1445389D01*
G37*
G36*
G01X-2962361Y-2245047D02*
G01X-2969434Y-2245047D01*
G01X-3050752Y-2163729D01*
G01X-3050750Y-2156658D01*
G01X-3020702Y-2127314D01*
G01X-2989589Y-2158427D01*
G01X-2957770Y-2126608D01*
G01X-2989591Y-2094788D01*
G01X-2960242Y-2066150D01*
G01X-2953171Y-2066148D01*
G01X-2871853Y-2147466D01*
G01X-2871853Y-2154539D01*
G01X-2962361Y-2245047D01*
G37*
G36*
G01X-3112971Y-1913417D02*
G01X-3105898Y-1913417D01*
G01X-3024580Y-1994735D01*
G01X-3024582Y-2001806D01*
G01X-3054630Y-2031150D01*
G01X-3085743Y-2000037D01*
G01X-3117562Y-2031856D01*
G01X-3085741Y-2063676D01*
G01X-3115090Y-2092314D01*
G01X-3122161Y-2092316D01*
G01X-3203479Y-2010998D01*
G01X-3203479Y-2003925D01*
G01X-3112971Y-1913417D01*
G37*
G36*
G01X-3144478Y-2937086D02*
G01X-3144478Y-2944159D01*
G01X-3225796Y-3025477D01*
G01X-3232867Y-3025475D01*
G01X-3262211Y-2995428D01*
G01X-3231098Y-2964315D01*
G01X-3262917Y-2932496D01*
G01X-3294738Y-2964316D01*
G01X-3323376Y-2934967D01*
G01X-3323377Y-2927896D01*
G01X-3242059Y-2846578D01*
G01X-3234986Y-2846578D01*
G01X-3144478Y-2937086D01*
G37*
G36*
G01X-3476108Y-3087696D02*
G01X-3476108Y-3080623D01*
G01X-3394790Y-2999305D01*
G01X-3387719Y-2999307D01*
G01X-3358375Y-3029355D01*
G01X-3389488Y-3060468D01*
G01X-3357669Y-3092287D01*
G01X-3325849Y-3060466D01*
G01X-3297211Y-3089815D01*
G01X-3297209Y-3096886D01*
G01X-3378527Y-3178204D01*
G01X-3385600Y-3178204D01*
G01X-3476108Y-3087696D01*
G37*
G36*
G01X-2589135Y-3469614D02*
G01X-2594136Y-3474615D01*
G01X-2709137Y-3474615D01*
G01X-2714136Y-3469614D01*
G01X-2713638Y-3427617D01*
G01X-2669638Y-3427617D01*
G01X-2669638Y-3382619D01*
G01X-2714639Y-3382619D01*
G01X-2714136Y-3341616D01*
G01X-2709137Y-3336614D01*
G01X-2594136Y-3336614D01*
G01X-2589135Y-3341616D01*
G01X-2589135Y-3469614D01*
G37*
G36*
G01X-2930130Y-3341613D02*
G01X-2925129Y-3336612D01*
G01X-2810127Y-3336612D01*
G01X-2805129Y-3341613D01*
G01X-2805627Y-3383609D01*
G01X-2849627Y-3383609D01*
G01X-2849627Y-3428608D01*
G01X-2804626Y-3428608D01*
G01X-2805129Y-3469611D01*
G01X-2810127Y-3474613D01*
G01X-2925129Y-3474613D01*
G01X-2930130Y-3469611D01*
G01X-2930130Y-3341613D01*
G37*
G36*
G01X-4910849Y-3466350D02*
G01X-4905848Y-3461349D01*
G01X-4790847Y-3461349D01*
G01X-4785848Y-3466350D01*
G01X-4786346Y-3508347D01*
G01X-4830346Y-3508347D01*
G01X-4830346Y-3553345D01*
G01X-4785345Y-3553345D01*
G01X-4785848Y-3594348D01*
G01X-4790847Y-3599350D01*
G01X-4905848Y-3599350D01*
G01X-4910849Y-3594348D01*
G01X-4910849Y-3466350D01*
G37*
G36*
G01X-4569854Y-3594351D02*
G01X-4574855Y-3599352D01*
G01X-4689856Y-3599352D01*
G01X-4694855Y-3594351D01*
G01X-4694357Y-3552355D01*
G01X-4650357Y-3552355D01*
G01X-4650357Y-3507356D01*
G01X-4695358Y-3507356D01*
G01X-4694855Y-3466353D01*
G01X-4689856Y-3461351D01*
G01X-4574855Y-3461351D01*
G01X-4569854Y-3466353D01*
G01X-4569854Y-3594351D01*
G37*
G36*
G01X-6144422Y-1710242D02*
G01X-6149423Y-1715244D01*
G01X-6264424Y-1715244D01*
G01X-6269423Y-1710242D01*
G01X-6268925Y-1668246D01*
G01X-6224925Y-1668246D01*
G01X-6224925Y-1623247D01*
G01X-6269926Y-1623247D01*
G01X-6269423Y-1582244D01*
G01X-6264424Y-1577243D01*
G01X-6149423Y-1577243D01*
G01X-6144422Y-1582244D01*
G01X-6144422Y-1710242D01*
G37*
G36*
G01X-6485417Y-1582242D02*
G01X-6480416Y-1577240D01*
G01X-6365414Y-1577240D01*
G01X-6360416Y-1582242D01*
G01X-6360914Y-1624238D01*
G01X-6404914Y-1624238D01*
G01X-6404914Y-1669237D01*
G01X-6359913Y-1669237D01*
G01X-6360416Y-1710240D01*
G01X-6365414Y-1715241D01*
G01X-6480416Y-1715241D01*
G01X-6485417Y-1710240D01*
G01X-6485417Y-1582242D01*
G37*
G36*
G01X-2523628Y-95985D02*
G01X-2479567Y-95985D01*
G01X-2432752Y-134491D01*
G01X-2432752Y-203239D01*
G01X-2442752Y-213239D01*
G01X-2560448Y-213239D01*
G01X-2570448Y-203239D01*
G01X-2570448Y-134491D01*
G01X-2523628Y-95985D01*
G37*
G36*
G01X-2523628Y-23986D02*
G01X-2570448Y14520D01*
G01X-2570448Y83268D01*
G01X-2560448Y93268D01*
G01X-2442752Y93268D01*
G01X-2432752Y83268D01*
G01X-2432752Y14520D01*
G01X-2479567Y-23986D01*
G01X-2523628Y-23986D01*
G37*
G36*
G01X-7456155Y-3622884D02*
G01X-7461156Y-3627885D01*
G01X-7576157Y-3627885D01*
G01X-7581156Y-3622884D01*
G01X-7580658Y-3580888D01*
G01X-7536658Y-3580888D01*
G01X-7536658Y-3535889D01*
G01X-7581659Y-3535889D01*
G01X-7581156Y-3494886D01*
G01X-7576157Y-3489885D01*
G01X-7461156Y-3489885D01*
G01X-7456155Y-3494886D01*
G01X-7456155Y-3622884D01*
G37*
G36*
G01X-7671156Y-3622884D02*
G01X-7676157Y-3627885D01*
G01X-7791155Y-3627885D01*
G01X-7796157Y-3622884D01*
G01X-7796157Y-3494886D01*
G01X-7791155Y-3489885D01*
G01X-7676157Y-3489885D01*
G01X-7671156Y-3494886D01*
G01X-7671659Y-3535889D01*
G01X-7715656Y-3535889D01*
G01X-7715656Y-3580888D01*
G01X-7671158Y-3580888D01*
G01X-7671156Y-3622884D01*
G37*
G36*
G01X-7699452Y-4916302D02*
G01X-7694451Y-4911301D01*
G01X-7579450Y-4911301D01*
G01X-7574451Y-4916302D01*
G01X-7574949Y-4958298D01*
G01X-7618950Y-4958298D01*
G01X-7618950Y-5003297D01*
G01X-7573949Y-5003297D01*
G01X-7574451Y-5044300D01*
G01X-7579450Y-5049301D01*
G01X-7694451Y-5049301D01*
G01X-7699452Y-5044300D01*
G01X-7699452Y-4916302D01*
G37*
G36*
G01X-7484452Y-4916302D02*
G01X-7479450Y-4911301D01*
G01X-7364452Y-4911301D01*
G01X-7359451Y-4916302D01*
G01X-7359451Y-5044300D01*
G01X-7364452Y-5049301D01*
G01X-7479450Y-5049301D01*
G01X-7484452Y-5044300D01*
G01X-7483949Y-5003297D01*
G01X-7439951Y-5003297D01*
G01X-7439951Y-4958298D01*
G01X-7484449Y-4958298D01*
G01X-7484452Y-4916302D01*
G37*
G36*
G01X-20037Y-3574679D02*
G01X-25038Y-3569677D01*
G01X-25038Y-3454676D01*
G01X-20037Y-3449678D01*
G01X21960Y-3450175D01*
G01X21960Y-3494176D01*
G01X66958Y-3494176D01*
G01X66958Y-3449175D01*
G01X107961Y-3449678D01*
G01X112963Y-3454676D01*
G01X112963Y-3569677D01*
G01X107961Y-3574679D01*
G01X-20037Y-3574679D01*
G37*
G36*
G01X-20037Y-3359678D02*
G01X-25038Y-3354677D01*
G01X-25038Y-3239678D01*
G01X-20037Y-3234677D01*
G01X107961Y-3234677D01*
G01X112963Y-3239678D01*
G01X112963Y-3354677D01*
G01X107961Y-3359678D01*
G01X66958Y-3359175D01*
G01X66958Y-3315177D01*
G01X21960Y-3315177D01*
G01X21960Y-3359675D01*
G01X-20037Y-3359678D01*
G37*
G36*
G01X-20311Y-3956483D02*
G01X-25313Y-3951481D01*
G01X-25313Y-3836480D01*
G01X-20311Y-3831482D01*
G01X21685Y-3831979D01*
G01X21685Y-3875980D01*
G01X66684Y-3875980D01*
G01X66684Y-3830979D01*
G01X107687Y-3831482D01*
G01X112688Y-3836480D01*
G01X112688Y-3951481D01*
G01X107687Y-3956483D01*
G01X-20311Y-3956483D01*
G37*
G36*
G01X-20311Y-3741482D02*
G01X-25313Y-3736480D01*
G01X-25313Y-3621482D01*
G01X-20311Y-3616481D01*
G01X107687Y-3616481D01*
G01X112688Y-3621482D01*
G01X112688Y-3736480D01*
G01X107687Y-3741482D01*
G01X66684Y-3740979D01*
G01X66684Y-3696981D01*
G01X21685Y-3696981D01*
G01X21685Y-3741479D01*
G01X-20311Y-3741482D01*
G37*
G36*
G01X-7699452Y-4273334D02*
G01X-7694451Y-4268333D01*
G01X-7579450Y-4268333D01*
G01X-7574451Y-4273334D01*
G01X-7574949Y-4315330D01*
G01X-7618950Y-4315330D01*
G01X-7618950Y-4360329D01*
G01X-7573949Y-4360329D01*
G01X-7574451Y-4401332D01*
G01X-7579450Y-4406333D01*
G01X-7694451Y-4406333D01*
G01X-7699452Y-4401332D01*
G01X-7699452Y-4273334D01*
G37*
G36*
G01X-7484452Y-4273334D02*
G01X-7479450Y-4268333D01*
G01X-7364452Y-4268333D01*
G01X-7359451Y-4273334D01*
G01X-7359451Y-4401332D01*
G01X-7364452Y-4406333D01*
G01X-7479450Y-4406333D01*
G01X-7484452Y-4401332D01*
G01X-7483949Y-4360329D01*
G01X-7439951Y-4360329D01*
G01X-7439951Y-4315330D01*
G01X-7484449Y-4315330D01*
G01X-7484452Y-4273334D01*
G37*
G36*
G01X-20037Y-1504794D02*
G01X-25038Y-1499793D01*
G01X-25038Y-1384792D01*
G01X-20037Y-1379793D01*
G01X21960Y-1380291D01*
G01X21960Y-1424292D01*
G01X66958Y-1424292D01*
G01X66958Y-1379290D01*
G01X107961Y-1379793D01*
G01X112963Y-1384792D01*
G01X112963Y-1499793D01*
G01X107961Y-1504794D01*
G01X-20037Y-1504794D01*
G37*
G36*
G01X-20037Y-1289793D02*
G01X-25038Y-1284792D01*
G01X-25038Y-1169794D01*
G01X-20037Y-1164792D01*
G01X107961Y-1164792D01*
G01X112963Y-1169794D01*
G01X112963Y-1284792D01*
G01X107961Y-1289793D01*
G01X66958Y-1289291D01*
G01X66958Y-1245293D01*
G01X21960Y-1245293D01*
G01X21960Y-1289791D01*
G01X-20037Y-1289793D01*
G37*
G36*
G01X-20311Y-1886598D02*
G01X-25313Y-1881597D01*
G01X-25313Y-1766596D01*
G01X-20311Y-1761597D01*
G01X21685Y-1762095D01*
G01X21685Y-1806095D01*
G01X66684Y-1806095D01*
G01X66684Y-1761094D01*
G01X107687Y-1761597D01*
G01X112688Y-1766596D01*
G01X112688Y-1881597D01*
G01X107687Y-1886598D01*
G01X-20311Y-1886598D01*
G37*
G36*
G01X-20311Y-1671597D02*
G01X-25313Y-1666596D01*
G01X-25313Y-1551598D01*
G01X-20311Y-1546596D01*
G01X107687Y-1546596D01*
G01X112688Y-1551598D01*
G01X112688Y-1666596D01*
G01X107687Y-1671597D01*
G01X66684Y-1671094D01*
G01X66684Y-1627097D01*
G01X21685Y-1627097D01*
G01X21685Y-1671595D01*
G01X-20311Y-1671597D01*
G37*
G36*
G01X-7489614Y-1776042D02*
G01X-7484613Y-1781044D01*
G01X-7484613Y-1896045D01*
G01X-7489614Y-1901043D01*
G01X-7531611Y-1900546D01*
G01X-7531611Y-1856545D01*
G01X-7576609Y-1856545D01*
G01X-7576609Y-1901546D01*
G01X-7617612Y-1901043D01*
G01X-7622614Y-1896045D01*
G01X-7622614Y-1781044D01*
G01X-7617612Y-1776042D01*
G01X-7489614Y-1776042D01*
G37*
G36*
G01X-7489614Y-1991043D02*
G01X-7484613Y-1996045D01*
G01X-7484613Y-2111043D01*
G01X-7489614Y-2116044D01*
G01X-7617612Y-2116044D01*
G01X-7622614Y-2111043D01*
G01X-7622614Y-1996045D01*
G01X-7617612Y-1991043D01*
G01X-7576609Y-1991546D01*
G01X-7576609Y-2035544D01*
G01X-7531611Y-2035544D01*
G01X-7531611Y-1991046D01*
G01X-7489614Y-1991043D01*
G37*
G36*
G01X-5488283Y-4806801D02*
G01X-5483281Y-4811803D01*
G01X-5483281Y-4926804D01*
G01X-5488283Y-4931802D01*
G01X-5530279Y-4931305D01*
G01X-5530279Y-4887304D01*
G01X-5575278Y-4887304D01*
G01X-5575278Y-4932305D01*
G01X-5616281Y-4931802D01*
G01X-5621282Y-4926804D01*
G01X-5621282Y-4811803D01*
G01X-5616281Y-4806801D01*
G01X-5488283Y-4806801D01*
G37*
G36*
G01X-5488283Y-5021802D02*
G01X-5483281Y-5026804D01*
G01X-5483281Y-5141802D01*
G01X-5488283Y-5146803D01*
G01X-5616281Y-5146803D01*
G01X-5621282Y-5141802D01*
G01X-5621282Y-5026804D01*
G01X-5616281Y-5021802D01*
G01X-5575278Y-5022305D01*
G01X-5575278Y-5066303D01*
G01X-5530279Y-5066303D01*
G01X-5530279Y-5021805D01*
G01X-5488283Y-5021802D01*
G37*
G36*
G01X-7589989Y-2880167D02*
G01X-7584988Y-2875165D01*
G01X-7469987Y-2875165D01*
G01X-7464988Y-2880167D01*
G01X-7465486Y-2922163D01*
G01X-7509486Y-2922163D01*
G01X-7509486Y-2967162D01*
G01X-7464485Y-2967162D01*
G01X-7464988Y-3008165D01*
G01X-7469987Y-3013166D01*
G01X-7584988Y-3013166D01*
G01X-7589989Y-3008165D01*
G01X-7589989Y-2880167D01*
G37*
G36*
G01X-7374988Y-2880167D02*
G01X-7369987Y-2875165D01*
G01X-7254989Y-2875165D01*
G01X-7249987Y-2880167D01*
G01X-7249987Y-3008165D01*
G01X-7254989Y-3013166D01*
G01X-7369987Y-3013166D01*
G01X-7374988Y-3008165D01*
G01X-7374485Y-2967162D01*
G01X-7330487Y-2967162D01*
G01X-7330487Y-2922163D01*
G01X-7374986Y-2922163D01*
G01X-7374988Y-2880167D01*
G37*
G36*
G01X-2350100Y505058D02*
G01X-2345099Y510059D01*
G01X-2230098Y510059D01*
G01X-2225099Y505058D01*
G01X-2225597Y463062D01*
G01X-2269597Y463062D01*
G01X-2269597Y418063D01*
G01X-2224596Y418063D01*
G01X-2225099Y377060D01*
G01X-2230098Y372059D01*
G01X-2345099Y372059D01*
G01X-2350100Y377060D01*
G01X-2350100Y505058D01*
G37*
G36*
G01X-2135099Y505058D02*
G01X-2130098Y510059D01*
G01X-2015100Y510059D01*
G01X-2010098Y505058D01*
G01X-2010098Y377060D01*
G01X-2015100Y372059D01*
G01X-2130098Y372059D01*
G01X-2135099Y377060D01*
G01X-2134596Y418063D01*
G01X-2090599Y418063D01*
G01X-2090599Y463062D01*
G01X-2135097Y463062D01*
G01X-2135099Y505058D01*
G37*
G36*
G01X-2392205Y377057D02*
G01X-2397206Y372056D01*
G01X-2512207Y372056D01*
G01X-2517206Y377057D01*
G01X-2516708Y419054D01*
G01X-2472708Y419054D01*
G01X-2472708Y464052D01*
G01X-2517709Y464052D01*
G01X-2517206Y505056D01*
G01X-2512207Y510057D01*
G01X-2397206Y510057D01*
G01X-2392205Y505056D01*
G01X-2392205Y377057D01*
G37*
G36*
G01X-2607206Y377057D02*
G01X-2612207Y372056D01*
G01X-2727206Y372056D01*
G01X-2732207Y377057D01*
G01X-2732207Y505056D01*
G01X-2727206Y510057D01*
G01X-2612207Y510057D01*
G01X-2607206Y505056D01*
G01X-2607709Y464052D01*
G01X-2651707Y464052D01*
G01X-2651707Y419054D01*
G01X-2607208Y419054D01*
G01X-2607206Y377057D01*
G37*
G36*
G01X-7617615Y-2504917D02*
G01X-7622616Y-2499915D01*
G01X-7622616Y-2384914D01*
G01X-7617615Y-2379915D01*
G01X-7575619Y-2380413D01*
G01X-7575619Y-2424414D01*
G01X-7530620Y-2424414D01*
G01X-7530620Y-2379413D01*
G01X-7489617Y-2379915D01*
G01X-7484615Y-2384914D01*
G01X-7484615Y-2499915D01*
G01X-7489617Y-2504917D01*
G01X-7617615Y-2504917D01*
G37*
G36*
G01X-7617615Y-2289916D02*
G01X-7622616Y-2284914D01*
G01X-7622616Y-2169916D01*
G01X-7617615Y-2164915D01*
G01X-7489617Y-2164915D01*
G01X-7484615Y-2169916D01*
G01X-7484615Y-2284914D01*
G01X-7489617Y-2289916D01*
G01X-7530620Y-2289413D01*
G01X-7530620Y-2245415D01*
G01X-7575619Y-2245415D01*
G01X-7575619Y-2289913D01*
G01X-7617615Y-2289916D01*
G37*
G36*
G01X-5886637Y-2047062D02*
G01X-5881636Y-2052063D01*
G01X-5881636Y-2167064D01*
G01X-5886637Y-2172063D01*
G01X-5928633Y-2171565D01*
G01X-5928633Y-2127565D01*
G01X-5973632Y-2127565D01*
G01X-5973632Y-2172566D01*
G01X-6014635Y-2172063D01*
G01X-6019636Y-2167064D01*
G01X-6019636Y-2052063D01*
G01X-6014635Y-2047062D01*
G01X-5886637Y-2047062D01*
G37*
G36*
G01X-5886637Y-2262063D02*
G01X-5881636Y-2267064D01*
G01X-5881636Y-2382063D01*
G01X-5886637Y-2387064D01*
G01X-6014635Y-2387064D01*
G01X-6019636Y-2382063D01*
G01X-6019636Y-2267064D01*
G01X-6014635Y-2262063D01*
G01X-5973632Y-2262566D01*
G01X-5973632Y-2306564D01*
G01X-5928633Y-2306564D01*
G01X-5928633Y-2262065D01*
G01X-5886637Y-2262063D01*
G37*
G36*
G01X-5888843Y-2487760D02*
G01X-5883842Y-2492762D01*
G01X-5883842Y-2607763D01*
G01X-5888843Y-2612761D01*
G01X-5930839Y-2612264D01*
G01X-5930839Y-2568263D01*
G01X-5975838Y-2568263D01*
G01X-5975838Y-2613264D01*
G01X-6016841Y-2612761D01*
G01X-6021842Y-2607763D01*
G01X-6021842Y-2492762D01*
G01X-6016841Y-2487760D01*
G01X-5888843Y-2487760D01*
G37*
G36*
G01X-5888843Y-2702761D02*
G01X-5883842Y-2707762D01*
G01X-5883842Y-2822761D01*
G01X-5888843Y-2827762D01*
G01X-6016841Y-2827762D01*
G01X-6021842Y-2822761D01*
G01X-6021842Y-2707762D01*
G01X-6016841Y-2702761D01*
G01X-5975838Y-2703264D01*
G01X-5975838Y-2747262D01*
G01X-5930839Y-2747262D01*
G01X-5930839Y-2702764D01*
G01X-5888843Y-2702761D01*
G37*
G36*
G01X-7476274Y-400714D02*
G01X-7471273Y-405715D01*
G01X-7471273Y-520716D01*
G01X-7476274Y-525715D01*
G01X-7518271Y-525217D01*
G01X-7518271Y-481217D01*
G01X-7563269Y-481217D01*
G01X-7563269Y-526218D01*
G01X-7604273Y-525715D01*
G01X-7609274Y-520716D01*
G01X-7609274Y-405715D01*
G01X-7604273Y-400714D01*
G01X-7476274Y-400714D01*
G37*
G36*
G01X-7476274Y-615715D02*
G01X-7471273Y-620716D01*
G01X-7471273Y-735715D01*
G01X-7476274Y-740716D01*
G01X-7604273Y-740716D01*
G01X-7609274Y-735715D01*
G01X-7609274Y-620716D01*
G01X-7604273Y-615715D01*
G01X-7563269Y-616218D01*
G01X-7563269Y-660216D01*
G01X-7518271Y-660216D01*
G01X-7518271Y-615717D01*
G01X-7476274Y-615715D01*
G37*
G36*
G01X-7476274Y-787084D02*
G01X-7471273Y-792085D01*
G01X-7471273Y-907086D01*
G01X-7476274Y-912085D01*
G01X-7518271Y-911587D01*
G01X-7518271Y-867587D01*
G01X-7563269Y-867587D01*
G01X-7563269Y-912588D01*
G01X-7604273Y-912085D01*
G01X-7609274Y-907086D01*
G01X-7609274Y-792085D01*
G01X-7604273Y-787084D01*
G01X-7476274Y-787084D01*
G37*
G36*
G01X-7476274Y-1002085D02*
G01X-7471273Y-1007086D01*
G01X-7471273Y-1122085D01*
G01X-7476274Y-1127086D01*
G01X-7604273Y-1127086D01*
G01X-7609274Y-1122085D01*
G01X-7609274Y-1007086D01*
G01X-7604273Y-1002085D01*
G01X-7563269Y-1002588D01*
G01X-7563269Y-1046586D01*
G01X-7518271Y-1046586D01*
G01X-7518271Y-1002087D01*
G01X-7476274Y-1002085D01*
G37*
G36*
G01X-2348439Y-5016625D02*
G01X-2353440Y-5021626D01*
G01X-2468441Y-5021626D01*
G01X-2473440Y-5016625D01*
G01X-2472942Y-4974628D01*
G01X-2428942Y-4974628D01*
G01X-2428942Y-4929630D01*
G01X-2473943Y-4929630D01*
G01X-2473440Y-4888626D01*
G01X-2468441Y-4883625D01*
G01X-2353440Y-4883625D01*
G01X-2348439Y-4888626D01*
G01X-2348439Y-5016625D01*
G37*
G36*
G01X-2563440Y-5016625D02*
G01X-2568441Y-5021626D01*
G01X-2683440Y-5021626D01*
G01X-2688441Y-5016625D01*
G01X-2688441Y-4888626D01*
G01X-2683440Y-4883625D01*
G01X-2568441Y-4883625D01*
G01X-2563440Y-4888626D01*
G01X-2563943Y-4929630D01*
G01X-2607941Y-4929630D01*
G01X-2607941Y-4974628D01*
G01X-2563442Y-4974628D01*
G01X-2563440Y-5016625D01*
G37*
G36*
G01X867817Y-3508469D02*
G01X862816Y-3513471D01*
G01X747815Y-3513471D01*
G01X742816Y-3508469D01*
G01X743314Y-3466473D01*
G01X787314Y-3466473D01*
G01X787314Y-3421474D01*
G01X742313Y-3421474D01*
G01X742816Y-3380471D01*
G01X747815Y-3375470D01*
G01X862816Y-3375470D01*
G01X867817Y-3380471D01*
G01X867817Y-3508469D01*
G37*
G36*
G01X652816Y-3508469D02*
G01X647815Y-3513471D01*
G01X532817Y-3513471D01*
G01X527815Y-3508469D01*
G01X527815Y-3380471D01*
G01X532817Y-3375470D01*
G01X647815Y-3375470D01*
G01X652816Y-3380471D01*
G01X652313Y-3421474D01*
G01X608316Y-3421474D01*
G01X608316Y-3466473D01*
G01X652814Y-3466473D01*
G01X652816Y-3508469D01*
G37*
G36*
G01X867543Y-3814073D02*
G01X862541Y-3819075D01*
G01X747540Y-3819075D01*
G01X742542Y-3814073D01*
G01X743039Y-3772077D01*
G01X787040Y-3772077D01*
G01X787040Y-3727078D01*
G01X742039Y-3727078D01*
G01X742542Y-3686075D01*
G01X747540Y-3681074D01*
G01X862541Y-3681074D01*
G01X867543Y-3686075D01*
G01X867543Y-3814073D01*
G37*
G36*
G01X652542Y-3814073D02*
G01X647540Y-3819075D01*
G01X532542Y-3819075D01*
G01X527541Y-3814073D01*
G01X527541Y-3686075D01*
G01X532542Y-3681074D01*
G01X647540Y-3681074D01*
G01X652542Y-3686075D01*
G01X652039Y-3727078D01*
G01X608041Y-3727078D01*
G01X608041Y-3772077D01*
G01X652539Y-3772077D01*
G01X652542Y-3814073D01*
G37*
G36*
G01X316479Y-4566753D02*
G01X311478Y-4571754D01*
G01X196477Y-4571754D01*
G01X191478Y-4566753D01*
G01X191976Y-4524756D01*
G01X235976Y-4524756D01*
G01X235976Y-4479758D01*
G01X190975Y-4479758D01*
G01X191478Y-4438754D01*
G01X196477Y-4433753D01*
G01X311478Y-4433753D01*
G01X316479Y-4438754D01*
G01X316479Y-4566753D01*
G37*
G36*
G01X101478Y-4566753D02*
G01X96477Y-4571754D01*
G01X-18521Y-4571754D01*
G01X-23523Y-4566753D01*
G01X-23523Y-4438754D01*
G01X-18521Y-4433753D01*
G01X96477Y-4433753D01*
G01X101478Y-4438754D01*
G01X100975Y-4479758D01*
G01X56978Y-4479758D01*
G01X56978Y-4524756D01*
G01X101476Y-4524756D01*
G01X101478Y-4566753D01*
G37*
G36*
G01X867817Y-1438585D02*
G01X862816Y-1443586D01*
G01X747815Y-1443586D01*
G01X742816Y-1438585D01*
G01X743314Y-1396589D01*
G01X787314Y-1396589D01*
G01X787314Y-1351590D01*
G01X742313Y-1351590D01*
G01X742816Y-1310587D01*
G01X747815Y-1305586D01*
G01X862816Y-1305586D01*
G01X867817Y-1310587D01*
G01X867817Y-1438585D01*
G37*
G36*
G01X652816Y-1438585D02*
G01X647815Y-1443586D01*
G01X532817Y-1443586D01*
G01X527815Y-1438585D01*
G01X527815Y-1310587D01*
G01X532817Y-1305586D01*
G01X647815Y-1305586D01*
G01X652816Y-1310587D01*
G01X652313Y-1351590D01*
G01X608316Y-1351590D01*
G01X608316Y-1396589D01*
G01X652814Y-1396589D01*
G01X652816Y-1438585D01*
G37*
G36*
G01X867543Y-1744189D02*
G01X862541Y-1749190D01*
G01X747540Y-1749190D01*
G01X742542Y-1744189D01*
G01X743039Y-1702193D01*
G01X787040Y-1702193D01*
G01X787040Y-1657194D01*
G01X742039Y-1657194D01*
G01X742542Y-1616191D01*
G01X747540Y-1611190D01*
G01X862541Y-1611190D01*
G01X867543Y-1616191D01*
G01X867543Y-1744189D01*
G37*
G36*
G01X652542Y-1744189D02*
G01X647540Y-1749190D01*
G01X532542Y-1749190D01*
G01X527541Y-1744189D01*
G01X527541Y-1616191D01*
G01X532542Y-1611190D01*
G01X647540Y-1611190D01*
G01X652542Y-1616191D01*
G01X652039Y-1657194D01*
G01X608041Y-1657194D01*
G01X608041Y-1702193D01*
G01X652539Y-1702193D01*
G01X652542Y-1744189D01*
G37*
G36*
G01X-6800323Y-2237468D02*
G01X-6795322Y-2232467D01*
G01X-6680321Y-2232467D01*
G01X-6675322Y-2237468D01*
G01X-6675820Y-2279464D01*
G01X-6719820Y-2279464D01*
G01X-6719820Y-2324463D01*
G01X-6674819Y-2324463D01*
G01X-6675322Y-2365466D01*
G01X-6680321Y-2370467D01*
G01X-6795322Y-2370467D01*
G01X-6800323Y-2365466D01*
G01X-6800323Y-2237468D01*
G37*
G36*
G01X-6585322Y-2237468D02*
G01X-6580321Y-2232467D01*
G01X-6465322Y-2232467D01*
G01X-6460321Y-2237468D01*
G01X-6460321Y-2365466D01*
G01X-6465322Y-2370467D01*
G01X-6580321Y-2370467D01*
G01X-6585322Y-2365466D01*
G01X-6584819Y-2324463D01*
G01X-6540821Y-2324463D01*
G01X-6540821Y-2279464D01*
G01X-6585320Y-2279464D01*
G01X-6585322Y-2237468D01*
G37*
G36*
G01X-6802529Y-2522058D02*
G01X-6797528Y-2517057D01*
G01X-6682527Y-2517057D01*
G01X-6677528Y-2522058D01*
G01X-6678026Y-2564054D01*
G01X-6722026Y-2564054D01*
G01X-6722026Y-2609053D01*
G01X-6677025Y-2609053D01*
G01X-6677528Y-2650056D01*
G01X-6682527Y-2655057D01*
G01X-6797528Y-2655057D01*
G01X-6802529Y-2650056D01*
G01X-6802529Y-2522058D01*
G37*
G36*
G01X-6587528Y-2522058D02*
G01X-6582527Y-2517057D01*
G01X-6467529Y-2517057D01*
G01X-6462527Y-2522058D01*
G01X-6462527Y-2650056D01*
G01X-6467529Y-2655057D01*
G01X-6582527Y-2655057D01*
G01X-6587528Y-2650056D01*
G01X-6587025Y-2609053D01*
G01X-6543028Y-2609053D01*
G01X-6543028Y-2564054D01*
G01X-6587526Y-2564054D01*
G01X-6587528Y-2522058D01*
G37*
G36*
G01X-6891563Y-3398763D02*
G01X-6886562Y-3393762D01*
G01X-6771561Y-3393762D01*
G01X-6766562Y-3398763D01*
G01X-6767060Y-3440759D01*
G01X-6811061Y-3440759D01*
G01X-6811061Y-3485758D01*
G01X-6766059Y-3485758D01*
G01X-6766562Y-3526761D01*
G01X-6771561Y-3531762D01*
G01X-6886562Y-3531762D01*
G01X-6891563Y-3526761D01*
G01X-6891563Y-3398763D01*
G37*
G36*
G01X-6550568Y-3526764D02*
G01X-6555570Y-3531765D01*
G01X-6670571Y-3531765D01*
G01X-6675569Y-3526764D01*
G01X-6675071Y-3484767D01*
G01X-6631071Y-3484767D01*
G01X-6631071Y-3439769D01*
G01X-6676072Y-3439769D01*
G01X-6675569Y-3398765D01*
G01X-6670571Y-3393764D01*
G01X-6555570Y-3393764D01*
G01X-6550568Y-3398765D01*
G01X-6550568Y-3526764D01*
G37*
G36*
G01X-6891065Y-3967847D02*
G01X-6896067Y-3962846D01*
G01X-6896067Y-3847845D01*
G01X-6891065Y-3842846D01*
G01X-6849069Y-3843344D01*
G01X-6849069Y-3887344D01*
G01X-6804070Y-3887344D01*
G01X-6804070Y-3842343D01*
G01X-6763067Y-3842846D01*
G01X-6758066Y-3847845D01*
G01X-6758066Y-3962846D01*
G01X-6763067Y-3967847D01*
G01X-6891065Y-3967847D01*
G37*
G36*
G01X-6763065Y-3626852D02*
G01X-6758063Y-3631853D01*
G01X-6758063Y-3746854D01*
G01X-6763065Y-3751853D01*
G01X-6805061Y-3751355D01*
G01X-6805061Y-3707355D01*
G01X-6850060Y-3707355D01*
G01X-6850060Y-3752356D01*
G01X-6891063Y-3751853D01*
G01X-6896064Y-3746854D01*
G01X-6896064Y-3631853D01*
G01X-6891063Y-3626852D01*
G01X-6763065Y-3626852D01*
G37*
G36*
G01X-2253433Y-4887275D02*
G01X-2248432Y-4882274D01*
G01X-2133431Y-4882274D01*
G01X-2128432Y-4887275D01*
G01X-2128930Y-4929272D01*
G01X-2172931Y-4929272D01*
G01X-2172931Y-4974270D01*
G01X-2127929Y-4974270D01*
G01X-2128432Y-5015273D01*
G01X-2133431Y-5020275D01*
G01X-2248432Y-5020275D01*
G01X-2253433Y-5015273D01*
G01X-2253433Y-4887275D01*
G37*
G36*
G01X-1912438Y-5015276D02*
G01X-1917440Y-5020277D01*
G01X-2032441Y-5020277D01*
G01X-2037439Y-5015276D01*
G01X-2036942Y-4973280D01*
G01X-1992941Y-4973280D01*
G01X-1992941Y-4928281D01*
G01X-2037942Y-4928281D01*
G01X-2037439Y-4887278D01*
G01X-2032441Y-4882276D01*
G01X-1917440Y-4882276D01*
G01X-1912438Y-4887278D01*
G01X-1912438Y-5015276D01*
G37*
G36*
G01X-2076116Y-225677D02*
G01X-2081117Y-220676D01*
G01X-2081117Y-105675D01*
G01X-2076116Y-100676D01*
G01X-2034119Y-101174D01*
G01X-2034119Y-145174D01*
G01X-1989121Y-145174D01*
G01X-1989121Y-100173D01*
G01X-1948118Y-100676D01*
G01X-1943116Y-105675D01*
G01X-1943116Y-220676D01*
G01X-1948118Y-225677D01*
G01X-2076116Y-225677D01*
G37*
G36*
G01X-1948115Y115318D02*
G01X-1943114Y110317D01*
G01X-1943114Y-4685D01*
G01X-1948115Y-9683D01*
G01X-1990111Y-9185D01*
G01X-1990111Y34815D01*
G01X-2035110Y34815D01*
G01X-2035110Y-10186D01*
G01X-2076113Y-9683D01*
G01X-2081114Y-4685D01*
G01X-2081114Y110317D01*
G01X-2076113Y115318D01*
G01X-1948115Y115318D01*
G37*
G36*
G01X-2194076Y115318D02*
G01X-2189075Y110317D01*
G01X-2189075Y-4685D01*
G01X-2194076Y-9683D01*
G01X-2236072Y-9185D01*
G01X-2236072Y34815D01*
G01X-2281071Y34815D01*
G01X-2281071Y-10186D01*
G01X-2322074Y-9683D01*
G01X-2327075Y-4685D01*
G01X-2327075Y110317D01*
G01X-2322074Y115318D01*
G01X-2194076Y115318D01*
G37*
G36*
G01X-2322077Y-225677D02*
G01X-2327078Y-220676D01*
G01X-2327078Y-105675D01*
G01X-2322077Y-100676D01*
G01X-2280080Y-101174D01*
G01X-2280080Y-145174D01*
G01X-2235082Y-145174D01*
G01X-2235082Y-100173D01*
G01X-2194078Y-100676D01*
G01X-2189077Y-105675D01*
G01X-2189077Y-220676D01*
G01X-2194078Y-225677D01*
G01X-2322077Y-225677D01*
G37*
G36*
G01X-2386493Y-1513572D02*
G01X-2386493Y-1506500D01*
G01X-2305175Y-1425182D01*
G01X-2298104Y-1425183D01*
G01X-2268760Y-1455231D01*
G01X-2299873Y-1486344D01*
G01X-2268055Y-1518163D01*
G01X-2236234Y-1486343D01*
G01X-2207596Y-1515692D01*
G01X-2207594Y-1522763D01*
G01X-2288912Y-1604081D01*
G01X-2295985Y-1604081D01*
G01X-2386493Y-1513572D01*
G37*
G36*
G01X-2054863Y-1362963D02*
G01X-2054863Y-1370036D01*
G01X-2136181Y-1451354D01*
G01X-2143252Y-1451352D01*
G01X-2172596Y-1421304D01*
G01X-2141483Y-1390191D01*
G01X-2173302Y-1358372D01*
G01X-2205123Y-1390193D01*
G01X-2233761Y-1360843D01*
G01X-2233763Y-1353772D01*
G01X-2152445Y-1272454D01*
G01X-2145372Y-1272454D01*
G01X-2054863Y-1362963D01*
G37*

G04 Pad Start*
G54D10*
G01X-1974221Y-4788653D03*
G01X-2202211Y-4788653D03*
G54D11*
G01X231077Y-3498862D03*
G01X231077Y-3308870D03*
G01X431077Y-3403866D03*
G01X230802Y-3880666D03*
G01X230802Y-3690674D03*
G01X430802Y-3785670D03*
G01X231077Y-1428977D03*
G01X231077Y-1238985D03*
G01X431077Y-1333981D03*
G01X230802Y-1810781D03*
G01X230802Y-1620789D03*
G01X430802Y-1715785D03*
G01X-6121372Y-2145561D03*
G01X-6121372Y-2335553D03*
G01X-6321371Y-2240557D03*
G01X-6123578Y-2551974D03*
G01X-6123578Y-2741966D03*
G01X-6323577Y-2646970D03*
G04 Pad End*

M02*

