G04 Layer: InnerLayer1*
G04 EasyEDA Pro v3.2.149.88089769, 2026-09-01 22:31:21*
G04 Gerber Generator version 0.3*
G04 Scale: 100 percent, Rotated: No, Reflected: No*
G04 Dimensions in millimeters*
G04 Leading zeros omitted, absolute positions, 4 integers and 5 decimals*
G04 Generated by one-click*
G04 Object Configs: Pad,Via,Track,Text,Image,Dimension,BoardOutline,BoardCutout,CopperFilled,SolidRegion,FPCStiffener,Line,PlaneZone,ComponentProperty,ComponentSilkscreen,TearDrop*
G04 Layer Configs: 1,15,16,2,3,4,5,6,7,8,9,10,11,13,14,56*
G04 Copper Areas: 0*
%FSLAX45Y45*%
%MOMM*%
%ADD10C,2.4*%
%ADD11R,1.8X1.8*%
%ADD12C,1.8*%
%ADD13C,5.99948*%
%ADD14C,1.00076*%
%ADD15O,2.0X1.1*%
%ADD16O,1.8X1.2*%
%ADD17R,1.7039X1.7*%
%ADD18R,1.7X1.7*%
%ADD19C,1.7*%
%ADD20O,2.0X1.2*%
%ADD21R,1.6X1.6*%
%ADD22C,1.6*%
%ADD23C,0.4572*%
%ADD24C,0.6096*%
G75*


G04 PlaneZone Start*
G36*
G01X-7618722Y781829D02*
G01X-5338544Y781829D01*
G02X-5264198Y707482I0J-74346D01*
G01X-5264198Y311385D01*
G03X-5138544Y185731I125654J0D01*
G01X-3238226Y185731D01*
G03X-3112572Y311385I0J125654D01*
G01X-3112572Y707482D01*
G02X-3038226Y781829I74346J0D01*
G01X1581278Y781829D01*
G02X1955624Y407483I0J-374346D01*
G01X1955624Y-5792517D01*
G02X1581278Y-6166863I-374346J0D01*
G01X-7618722Y-6166863D01*
G02X-7993068Y-5792517I0J374346D01*
G01X-7993068Y407483D01*
G02X-7618722Y781829I374346J0D01*
G37*
%LPC*%
G36*
G01X-7944350Y407483D02*
G03X-7293094Y407483I325628J0D01*
G03X-7944350Y407483I-325628J0D01*
G37*
G36*
G01X-7944350Y-5792517D02*
G03X-7293094Y-5792517I325628J0D01*
G03X-7944350Y-5792517I-325628J0D01*
G37*
G36*
G01X-7720749Y-1612266D02*
G01X-7780749Y-1612266D01*
G03X-7780749Y-1783574I0J-85654D01*
G01X-7720749Y-1783574D01*
G03X-7720749Y-1612266I0J85654D01*
G37*
G36*
G01X-7720749Y-2477263D02*
G01X-7780749Y-2477263D01*
G03X-7780749Y-2648571I0J-85654D01*
G01X-7720749Y-2648571D01*
G03X-7720749Y-2477263I0J85654D01*
G37*
G36*
G01X-7712632Y-244815D02*
G01X-7772632Y-244815D01*
G03X-7772632Y-416122I0J-85654D01*
G01X-7712632Y-416122D01*
G03X-7712632Y-244815I0J85654D01*
G37*
G36*
G01X-7712632Y-1108821D02*
G01X-7772632Y-1108821D01*
G03X-7772632Y-1280129I0J-85654D01*
G01X-7712632Y-1280129D01*
G03X-7712632Y-1108821I0J85654D01*
G37*
G36*
G01X-7774671Y-3558884D02*
G03X-7677643Y-3558884I48514J0D01*
G03X-7774671Y-3558884I-48514J0D01*
G37*
G36*
G01X-7685214Y-4349112D02*
G03X-7588186Y-4349112I48514J0D01*
G03X-7685214Y-4349112I-48514J0D01*
G37*
G36*
G01X-7679789Y-4990006D02*
G03X-7582761Y-4990006I48514J0D01*
G03X-7679789Y-4990006I-48514J0D01*
G37*
G36*
G01X-7602129Y-2234915D02*
G03X-7505101Y-2234915I48514J0D01*
G03X-7602129Y-2234915I-48514J0D01*
G37*
G36*
G01X-7602127Y-2053544D02*
G03X-7505099Y-2053544I48514J0D01*
G03X-7602127Y-2053544I-48514J0D01*
G37*
G36*
G01X-7588789Y-857086D02*
G03X-7491761Y-857086I48514J0D01*
G03X-7588789Y-857086I-48514J0D01*
G37*
G36*
G01X-7588789Y-670716D02*
G03X-7491761Y-670716I48514J0D01*
G03X-7588789Y-670716I-48514J0D01*
G37*
G36*
G01X-7575751Y-2944166D02*
G03X-7478723Y-2944166I48514J0D01*
G03X-7575751Y-2944166I-48514J0D01*
G37*
G36*
G01X-7285735Y-1617266D02*
G01X-7375735Y-1617266D01*
G03X-7375735Y-1778574I0J-80654D01*
G01X-7285735Y-1778574D01*
G03X-7285735Y-1617266I0J80654D01*
G37*
G36*
G01X-7285735Y-2482263D02*
G01X-7375735Y-2482263D01*
G03X-7375735Y-2643571I0J-80654D01*
G01X-7285735Y-2643571D01*
G03X-7285735Y-2482263I0J80654D01*
G37*
G36*
G01X-7284624Y-416122D02*
G03X-7284624Y-244815I0J85654D01*
G01X-7364624Y-244815D01*
G03X-7386043Y-413401I0J-85654D01*
G03X-7383468Y-533844I8409J-60069D01*
G03X-7357880Y-416122I5834J60374D01*
G01X-7284624Y-416122D01*
G37*
G36*
G01X-7364624Y-1280129D02*
G01X-7284624Y-1280129D01*
G03X-7284624Y-1108821I0J85654D01*
G01X-7357880Y-1108821D01*
G03X-7383468Y-991099I-19755J57348D01*
G03X-7386043Y-1111542I5834J-60374D01*
G03X-7364624Y-1280129I21419J-82933D01*
G37*
G36*
G01X-7443409Y-1841430D02*
G03X-7322099Y-1841430I60655J0D01*
G03X-7443409Y-1841430I-60655J0D01*
G37*
G36*
G01X-7443409Y-2419432D02*
G03X-7322099Y-2419432I60655J0D01*
G03X-7443409Y-2419432I-60655J0D01*
G37*
G36*
G01X-7411200Y-737905D02*
G03X-7314172Y-737905I48514J0D01*
G03X-7411200Y-737905I-48514J0D01*
G37*
G36*
G01X-7365719Y-4279682D02*
G03X-7268691Y-4279682I48514J0D01*
G03X-7365719Y-4279682I-48514J0D01*
G37*
G36*
G01X-7352709Y-3865132D02*
G03X-7255681Y-3865132I48514J0D01*
G03X-7352709Y-3865132I-48514J0D01*
G37*
G36*
G01X-7351072Y-4907386D02*
G03X-7254044Y-4907386I48514J0D01*
G03X-7351072Y-4907386I-48514J0D01*
G37*
G36*
G01X-7205080Y-787481D02*
G03X-7108052Y-787481I48514J0D01*
G03X-7205080Y-787481I-48514J0D01*
G37*
G36*
G01X-7180985Y-524274D02*
G03X-7083957Y-524274I48514J0D01*
G03X-7180985Y-524274I-48514J0D01*
G37*
G36*
G01X-7180985Y-1003273D02*
G03X-7083957Y-1003273I48514J0D01*
G03X-7180985Y-1003273I-48514J0D01*
G37*
G36*
G01X-7159563Y-5136190D02*
G03X-7071863Y-5122382I40805J26240D01*
G03X-7022913Y-5048317I8145J47825D01*
G03X-7110612Y-5062124I-40805J-26240D01*
G03X-7159563Y-5136190I-8145J-47825D01*
G37*
G36*
G01X-7155584Y-2370069D02*
G03X-7062334Y-2389202I48513J-367D01*
G03X-6968805Y-2371481I45016J18088D01*
G03X-7062055Y-2352348I-48513J367D01*
G03X-7155584Y-2370069I-45016J-18088D01*
G37*
G36*
G01X-7155584Y-1890059D02*
G03X-7062334Y-1909193I48513J-367D01*
G03X-6968805Y-1891471I45016J18088D01*
G03X-7062055Y-1872338I-48513J367D01*
G03X-7155584Y-1890059I-45016J-18088D01*
G37*
G36*
G01X-6768189Y-5082174D02*
G03X-6999497Y-5082174I-115654J0D01*
G03X-6768189Y-5082174I115654J0D01*
G37*
G36*
G01X-6889648Y-4440238D02*
G03X-6792620Y-4440238I48514J0D01*
G03X-6889648Y-4440238I-48514J0D01*
G37*
G36*
G01X-6875196Y-3929112D02*
G03X-6778168Y-3929112I48514J0D01*
G03X-6875196Y-3929112I-48514J0D01*
G37*
G36*
G01X-6678367Y216956D02*
G03X-6652713Y242610I0J25654D01*
G01X-6652713Y412610D01*
G03X-6678367Y438264I-25654J0D01*
G01X-6848367Y438264D01*
G03X-6874021Y412610I0J-25654D01*
G01X-6874021Y242610D01*
G03X-6848367Y216956I25654J0D01*
G01X-6678367Y216956D01*
G37*
G36*
G01X-6874021Y581610D02*
G03X-6652713Y581610I110654J0D01*
G03X-6874021Y581610I-110654J0D01*
G37*
G36*
G01X-6866924Y-3463527D02*
G03X-6769896Y-3463527I48514J0D01*
G03X-6866924Y-3463527I-48514J0D01*
G37*
G36*
G01X-6849973Y-670065D02*
G03X-6752945Y-670065I48514J0D01*
G03X-6849973Y-670065I-48514J0D01*
G37*
G36*
G01X-6845746Y-857111D02*
G03X-6748718Y-857111I48514J0D01*
G03X-6845746Y-857111I-48514J0D01*
G37*
G36*
G01X-6786085Y-2587071D02*
G03X-6689057Y-2587071I48514J0D01*
G03X-6786085Y-2587071I-48514J0D01*
G37*
G36*
G01X-6786085Y-2301888D02*
G03X-6689057Y-2301888I48514J0D01*
G03X-6786085Y-2301888I-48514J0D01*
G37*
G36*
G01X-6514189Y-5082174D02*
G03X-6745497Y-5082174I-115654J0D01*
G03X-6514189Y-5082174I115654J0D01*
G37*
G36*
G01X-6667624Y-3464745D02*
G03X-6570596Y-3464745I48514J0D01*
G03X-6667624Y-3464745I-48514J0D01*
G37*
G36*
G01X-6620021Y581610D02*
G03X-6398713Y581610I110654J0D01*
G03X-6620021Y581610I-110654J0D01*
G37*
G36*
G01X-6620021Y327610D02*
G03X-6398713Y327610I110654J0D01*
G03X-6620021Y327610I-110654J0D01*
G37*
G36*
G01X-6546815Y-854857D02*
G03X-6449787Y-854857I48514J0D01*
G03X-6546815Y-854857I-48514J0D01*
G37*
G36*
G01X-6546815Y-664865D02*
G03X-6449787Y-664865I48514J0D01*
G03X-6546815Y-664865I-48514J0D01*
G37*
G36*
G01X-6260189Y-5082174D02*
G03X-6491497Y-5082174I-115654J0D01*
G03X-6260189Y-5082174I115654J0D01*
G37*
G36*
G01X-6429578Y-4527499D02*
G03X-6448241Y-4590199I25008J-41572D01*
G03X-6387495Y-4614480I43671J21129D01*
G03X-6368680Y-4679559I42773J-22893D01*
G03X-6303150Y-4662382I23958J42185D01*
G03X-6220007Y-4662382I41572J25008D01*
G03X-6129922Y-4637374I41571J25008D01*
G03X-6220007Y-4612365I-48514J0D01*
G03X-6303150Y-4612365I-41572J-25008D01*
G03X-6361798Y-4591964I-41572J-25008D01*
G03X-6379562Y-4527499I-42773J22894D01*
G03X-6379562Y-4444356I-25008J41572D01*
G03X-6379562Y-4361212I-25008J41572D01*
G03X-6370686Y-4284921I-25008J41571D01*
G03X-6303150Y-4268948I25964J40982D01*
G03X-6220007Y-4268948I41572J25008D01*
G03X-6129922Y-4243939I41571J25008D01*
G03X-6220007Y-4218931I-48514J0D01*
G03X-6303150Y-4218931I-41572J-25008D01*
G03X-6374833Y-4205900I-41572J-25008D01*
G03X-6378606Y-4278659I30110J-38039D01*
G03X-6445849Y-4294153I-25964J-40982D01*
G03X-6429578Y-4361212I41279J-25488D01*
G03X-6429578Y-4444356I25008J-41572D01*
G03X-6429578Y-4527499I25008J-41571D01*
G37*
G36*
G01X-6433006Y447317D02*
G03X-6335978Y447317I48514J0D01*
G03X-6433006Y447317I-48514J0D01*
G37*
G36*
G01X-6366021Y581610D02*
G03X-6144713Y581610I110654J0D01*
G03X-6366021Y581610I-110654J0D01*
G37*
G36*
G01X-6271265Y125781D02*
G03X-6245484Y217398I3810J48364D01*
G03X-6246678Y437922I-9883J110212D01*
G03X-6282384Y220305I-8689J-110312D01*
G03X-6271265Y125781I14929J-46160D01*
G37*
G36*
G01X-6299869Y-1940620D02*
G03X-6308041Y-2009249I29725J-38341D01*
G03X-6299869Y-2077878I37898J-30288D01*
G03X-6231368Y-2068693I29725J38341D01*
G03X-6192592Y-2088052I38776J29156D01*
G03X-6153816Y-2068694I0J48514D01*
G03X-6085316Y-2077878I38775J29156D01*
G03X-6077144Y-2009249I-29725J38341D01*
G03X-6085316Y-1940620I-37897J30288D01*
G03X-6153816Y-1949805I-29725J-38341D01*
G03X-6192592Y-1930447I-38776J-29156D01*
G03X-6231368Y-1949805I0J-48514D01*
G03X-6299869Y-1940620I-38776J-29156D01*
G37*
G36*
G01X-6262649Y-1622266D02*
G03X-6165621Y-1622266I48514J0D01*
G03X-6262649Y-1622266I-48514J0D01*
G37*
G36*
G01X-6249356Y-2741510D02*
G03X-6152328Y-2741510I48514J0D01*
G03X-6249356Y-2741510I-48514J0D01*
G37*
G36*
G01X-6242053Y-2335553D02*
G03X-6145025Y-2335553I48514J0D01*
G03X-6242053Y-2335553I-48514J0D01*
G37*
G36*
G01X-6006189Y-5082174D02*
G03X-6237497Y-5082174I-115654J0D01*
G03X-6006189Y-5082174I115654J0D01*
G37*
G36*
G01X-6184184Y-3705251D02*
G03X-6087156Y-3705251I48514J0D01*
G03X-6184184Y-3705251I-48514J0D01*
G37*
G36*
G01X-6112021Y327610D02*
G03X-5890713Y327610I110654J0D01*
G03X-6112021Y327610I-110654J0D01*
G37*
G36*
G01X-6112021Y581610D02*
G03X-5890713Y581610I110654J0D01*
G03X-6112021Y581610I-110654J0D01*
G37*
G36*
G01X-6019736Y-538651D02*
G03X-5922708Y-538651I48514J0D01*
G03X-6019736Y-538651I-48514J0D01*
G37*
G36*
G01X-6001817Y-2113812D02*
G03X-5904789Y-2113812I48514J0D01*
G03X-6001817Y-2113812I-48514J0D01*
G37*
G36*
G01X-5998998Y-2558707D02*
G03X-5901970Y-2558707I48514J0D01*
G03X-5998998Y-2558707I-48514J0D01*
G37*
G36*
G01X-5957843Y-4966520D02*
G03X-5983497Y-4992174I0J-25654D01*
G01X-5983497Y-5172174D01*
G03X-5957843Y-5197828I25654J0D01*
G01X-5777843Y-5197828D01*
G03X-5752189Y-5172174I0J25654D01*
G01X-5752189Y-4992174D01*
G03X-5777843Y-4966520I-25654J0D01*
G01X-5957843Y-4966520D01*
G37*
G36*
G01X-5974056Y-806956D02*
G03X-5877028Y-806956I48514J0D01*
G03X-5974056Y-806956I-48514J0D01*
G37*
G36*
G01X-5925985Y-2978223D02*
G03X-5845372Y-2944020I32145J36336D01*
G03X-5821253Y-2859839I-8026J47846D01*
G03X-5901865Y-2894042I-32145J-36336D01*
G03X-5925985Y-2978223I8026J-47846D01*
G37*
G36*
G01X-5875582Y-512265D02*
G03X-5835958Y-430046I4979J48258D01*
G03X-5857958Y-341468I-26980J40320D01*
G03X-5897582Y-423687I-4979J-48258D01*
G03X-5875582Y-512265I26980J-40320D01*
G37*
G36*
G01X-5767399Y-504668D02*
G03X-5670371Y-504668I48514J0D01*
G03X-5767399Y-504668I-48514J0D01*
G37*
G36*
G01X-5767344Y-704667D02*
G03X-5670316Y-704667I48514J0D01*
G03X-5767344Y-704667I-48514J0D01*
G37*
G36*
G01X-5611340Y-1548012D02*
G03X-5626546Y-1461551I-27953J39651D01*
G03X-5702870Y-1418178I-48371J3722D01*
G03X-5687665Y-1504638I27953J-39651D01*
G03X-5611340Y-1548012I48371J-3722D01*
G37*
G36*
G01X-5714517Y-3256333D02*
G03X-5617489Y-3256333I48514J0D01*
G03X-5714517Y-3256333I-48514J0D01*
G37*
G36*
G01X-5697025Y-18115D02*
G03X-5623531Y-21073I38020J30135D01*
G03X-5550036Y-18115I35475J33093D01*
G03X-5563937Y54114I-38020J30135D01*
G03X-5550036Y126342I-24119J42094D01*
G03X-5623531Y129301I-38020J-30135D01*
G03X-5697025Y126342I-35475J-33093D01*
G03X-5683124Y54114I38020J-30135D01*
G03X-5697025Y-18115I24119J-42094D01*
G37*
G36*
G01X-5702500Y-2776324D02*
G03X-5605472Y-2776324I48514J0D01*
G03X-5702500Y-2776324I-48514J0D01*
G37*
G36*
G01X-5681090Y-880896D02*
G03X-5584062Y-880896I48514J0D01*
G03X-5681090Y-880896I-48514J0D01*
G37*
G36*
G01X-5620339Y-1738785D02*
G03X-5523311Y-1738785I48514J0D01*
G03X-5620339Y-1738785I-48514J0D01*
G37*
G36*
G01X-5603584Y-4873115D02*
G03X-5506556Y-4873115I48514J0D01*
G03X-5603584Y-4873115I-48514J0D01*
G37*
G36*
G01X-5603584Y-5216229D02*
G03X-5506556Y-5216229I48514J0D01*
G03X-5603584Y-5216229I-48514J0D01*
G37*
G36*
G01X-5593706Y-2377820D02*
G03X-5496678Y-2377820I48514J0D01*
G03X-5593706Y-2377820I-48514J0D01*
G37*
G36*
G01X-5481091Y-881292D02*
G03X-5384063Y-881292I48514J0D01*
G03X-5481091Y-881292I-48514J0D01*
G37*
G36*
G01X-5456724Y-5269321D02*
G03X-5386197Y-5207851I26812J40431D01*
G03X-5357013Y-5118963I2371J48456D01*
G03X-5427540Y-5180434I-26812J-40431D01*
G03X-5456724Y-5269321I-2371J-48456D01*
G37*
G36*
G01X-5262605Y-1770043D02*
G03X-5303865Y-1727474I-48207J-5445D01*
G03X-5368339Y-1685013I-48401J-3314D01*
G03X-5431710Y-1612574I-36311J32174D01*
G03X-5388577Y-1698614I27060J-40266D01*
G03X-5359213Y-1778802I36311J-32174D01*
G03X-5308935Y-1823965I48401J3314D01*
G03X-5262757Y-1866992I48207J5445D01*
G03X-5216990Y-1914471I48505J958D01*
G03X-5134153Y-1945599I48417J3062D01*
G03X-5165835Y-1862973I-34419J34189D01*
G03X-5212222Y-1817563I-48417J-3062D01*
G03X-5262605Y-1770043I-48505J-958D01*
G37*
G36*
G01X-5364701Y-3422310D02*
G03X-5328478Y-3341524I0J48514D01*
G03X-5327806Y-3277750I-36223J32272D01*
G03X-5364701Y-3197734I-36895J31501D01*
G03X-5401596Y-3277750I0J-48514D01*
G03X-5400924Y-3341524I36895J-31502D01*
G03X-5364701Y-3422310I36223J-32272D01*
G37*
G36*
G01X-5410792Y-3145751D02*
G03X-5313764Y-3145751I48514J0D01*
G03X-5410792Y-3145751I-48514J0D01*
G37*
G36*
G01X-5356058Y-2709451D02*
G03X-5327439Y-2621763I0J48514D01*
G03X-5356058Y-2534076I-28619J39173D01*
G03X-5384678Y-2621763I0J-48514D01*
G03X-5356058Y-2709451I28619J-39173D01*
G37*
G36*
G01X-5167538Y-6089141D02*
G03X-5141884Y-6063487I0J25654D01*
G01X-5141884Y-5883488D01*
G03X-5167538Y-5857834I-25654J0D01*
G01X-5347538Y-5857834D01*
G03X-5373192Y-5883488I0J-25654D01*
G01X-5373192Y-6063487D01*
G03X-5347538Y-6089141I25654J0D01*
G01X-5167538Y-6089141D01*
G37*
G36*
G01X-5373192Y-5719488D02*
G03X-5141884Y-5719488I115654J0D01*
G03X-5373192Y-5719488I-115654J0D01*
G37*
G36*
G01X-5340419Y-4212961D02*
G03X-5243391Y-4212961I48514J0D01*
G03X-5340419Y-4212961I-48514J0D01*
G37*
G36*
G01X-5236750Y-4057636D02*
G03X-5139722Y-4057636I48514J0D01*
G03X-5236750Y-4057636I-48514J0D01*
G37*
G36*
G01X-5236524Y-2349941D02*
G03X-5139496Y-2349941I48514J0D01*
G03X-5236524Y-2349941I-48514J0D01*
G37*
G36*
G01X-5173956Y-5042402D02*
G03X-5076928Y-5042402I48514J0D01*
G03X-5173956Y-5042402I-48514J0D01*
G37*
G36*
G01X-5148681Y-3420918D02*
G03X-5051653Y-3420918I48514J0D01*
G03X-5148681Y-3420918I-48514J0D01*
G37*
G36*
G01X-5142780Y-3955360D02*
G03X-5045752Y-3955360I48514J0D01*
G03X-5142780Y-3955360I-48514J0D01*
G37*
G36*
G01X-5127286Y-2519832D02*
G03X-5030258Y-2519832I48514J0D01*
G03X-5127286Y-2519832I-48514J0D01*
G37*
G36*
G01X-5119192Y-5973488D02*
G03X-4887884Y-5973488I115654J0D01*
G03X-5119192Y-5973488I-115654J0D01*
G37*
G36*
G01X-5119192Y-5719488D02*
G03X-4887884Y-5719488I115654J0D01*
G03X-5119192Y-5719488I-115654J0D01*
G37*
G36*
G01X-5105684Y-655758D02*
G03X-5008656Y-655758I48514J0D01*
G03X-5105684Y-655758I-48514J0D01*
G37*
G36*
G01X-5102347Y-505726D02*
G03X-5005319Y-505726I48514J0D01*
G03X-5102347Y-505726I-48514J0D01*
G37*
G36*
G01X-5092686Y-4103316D02*
G03X-4995658Y-4103316I48514J0D01*
G03X-5092686Y-4103316I-48514J0D01*
G37*
G36*
G01X-5068950Y-3734250D02*
G03X-4971922Y-3734250I48514J0D01*
G03X-5068950Y-3734250I-48514J0D01*
G37*
G36*
G01X-5023111Y-2587144D02*
G03X-4926083Y-2587144I48514J0D01*
G03X-5023111Y-2587144I-48514J0D01*
G37*
G36*
G01X-5013317Y-4163448D02*
G03X-4916289Y-4163448I48514J0D01*
G03X-5013317Y-4163448I-48514J0D01*
G37*
G36*
G01X-4960217Y-1156466D02*
G03X-4863189Y-1156466I48514J0D01*
G03X-4960217Y-1156466I-48514J0D01*
G37*
G36*
G01X-4942046Y-3862678D02*
G03X-4858679Y-3831838I34935J33662D01*
G03X-4824767Y-3749673I-1024J48503D01*
G03X-4908134Y-3780512I-34935J-33662D01*
G03X-4942046Y-3862678I1024J-48503D01*
G37*
G36*
G01X-4887032Y-1249566D02*
G03X-4790004Y-1249566I48514J0D01*
G03X-4887032Y-1249566I-48514J0D01*
G37*
G36*
G01X-4865192Y-5973488D02*
G03X-4633884Y-5973488I115654J0D01*
G03X-4865192Y-5973488I-115654J0D01*
G37*
G36*
G01X-4865192Y-5719488D02*
G03X-4633884Y-5719488I115654J0D01*
G03X-4865192Y-5719488I-115654J0D01*
G37*
G36*
G01X-4862892Y-3874696D02*
G03X-4783918Y-3912455I48514J0D01*
G03X-4704944Y-3874696I30460J37760D01*
G03X-4783918Y-3836936I-48514J0D01*
G03X-4862892Y-3874696I-30460J-37760D01*
G37*
G36*
G01X-4717806Y-2182406D02*
G03X-4759922Y-2095093I-22924J42757D01*
G03X-4809333Y-2011692I-26487J40645D01*
G03X-4767217Y-2099004I22924J-42757D01*
G03X-4717806Y-2182406I26487J-40645D01*
G37*
G36*
G01X-4671942Y-2797401D02*
G03X-4574914Y-2797401I48514J0D01*
G03X-4671942Y-2797401I-48514J0D01*
G37*
G36*
G01X-4660516Y-1655641D02*
G03X-4563488Y-1655641I48514J0D01*
G03X-4660516Y-1655641I-48514J0D01*
G37*
G36*
G01X-4656268Y-3533541D02*
G03X-4559240Y-3533541I48514J0D01*
G03X-4656268Y-3533541I-48514J0D01*
G37*
G36*
G01X-4618757Y-2588233D02*
G03X-4521729Y-2588233I48514J0D01*
G03X-4618757Y-2588233I-48514J0D01*
G37*
G36*
G01X-4611192Y-5973488D02*
G03X-4379884Y-5973488I115654J0D01*
G03X-4611192Y-5973488I-115654J0D01*
G37*
G36*
G01X-4611192Y-5719488D02*
G03X-4379884Y-5719488I115654J0D01*
G03X-4611192Y-5719488I-115654J0D01*
G37*
G36*
G01X-4598186Y-1789043D02*
G03X-4501158Y-1789043I48514J0D01*
G03X-4598186Y-1789043I-48514J0D01*
G37*
G36*
G01X-4575962Y-4008933D02*
G03X-4478934Y-4008933I48514J0D01*
G03X-4575962Y-4008933I-48514J0D01*
G37*
G36*
G01X-4421447Y-2185552D02*
G03X-4392169Y-2098355I0J48514D01*
G03X-4393983Y-2019680I-29278J38683D01*
G03X-4408128Y-1926762I-18983J44646D01*
G03X-4440430Y-2015025I-4838J-48272D01*
G03X-4450725Y-2098355I18983J-44646D01*
G03X-4421447Y-2185552I29278J-38683D01*
G37*
G36*
G01X-4401772Y-2507551D02*
G03X-4381649Y-2416133I-2409J48454D01*
G03X-4384904Y-2333134I-26684J40517D01*
G03X-4421490Y-2248072I-31608J36804D01*
G03X-4439940Y-2338812I4979J-48258D01*
G03X-4430865Y-2418580I31608J-36804D01*
G03X-4401772Y-2507551I26684J-40516D01*
G37*
G36*
G01X-4459223Y-3099117D02*
G03X-4362195Y-3099117I48514J0D01*
G03X-4459223Y-3099117I-48514J0D01*
G37*
G36*
G01X-4456662Y-1816755D02*
G03X-4359634Y-1816755I48514J0D01*
G03X-4456662Y-1816755I-48514J0D01*
G37*
G36*
G01X-4445879Y-1655641D02*
G03X-4348851Y-1655641I48514J0D01*
G03X-4445879Y-1655641I-48514J0D01*
G37*
G36*
G01X-4357192Y-5973488D02*
G03X-4125884Y-5973488I115654J0D01*
G03X-4357192Y-5973488I-115654J0D01*
G37*
G36*
G01X-4357192Y-5719488D02*
G03X-4125884Y-5719488I115654J0D01*
G03X-4357192Y-5719488I-115654J0D01*
G37*
G36*
G01X-4352003Y-4399924D02*
G03X-4254975Y-4399924I48514J0D01*
G03X-4352003Y-4399924I-48514J0D01*
G37*
G36*
G01X-4203812Y-2425820D02*
G03X-4246690Y-2339982I-27886J39698D01*
G03X-4312896Y-2270531I-38320J29753D01*
G03X-4270018Y-2356369I27886J-39698D01*
G03X-4203812Y-2425820I38320J-29753D01*
G37*
G36*
G01X-4205968Y-3674872D02*
G03X-4231717Y-3587954I-29460J38545D01*
G03X-4308827Y-3540291I-47649J9118D01*
G03X-4283077Y-3627209I29460J-38545D01*
G03X-4205968Y-3674872I47649J-9118D01*
G37*
G36*
G01X-4311078Y-3085894D02*
G03X-4228035Y-3052676I34537J34071D01*
G03X-4179725Y-3005183I-193J48514D01*
G03X-4130995Y-2946957I1201J48499D01*
G03X-4087532Y-2931576I7490J47932D01*
G03X-4076557Y-2886796I-35973J32551D01*
G03X-4046097Y-2841410I-18052J45030D01*
G03X-4077220Y-2796475I-48513J-356D01*
G03X-4147203Y-2742614I-47250J11003D01*
G03X-4141859Y-2830762I22733J-42858D01*
G03X-4143119Y-2842397I47250J-11004D01*
G03X-4141557Y-2853995I48511J631D01*
G03X-4166222Y-2876029I18052J-45030D01*
G03X-4171034Y-2908751I42718J-22996D01*
G03X-4227027Y-2955664I-7490J-47932D01*
G03X-4276734Y-3003310I-1201J-48499D01*
G03X-4311078Y-3085894I193J-48514D01*
G37*
G36*
G01X-4318214Y-1845466D02*
G03X-4221186Y-1845466I48514J0D01*
G03X-4318214Y-1845466I-48514J0D01*
G37*
G36*
G01X-4287843Y-2538579D02*
G03X-4190815Y-2538579I48514J0D01*
G03X-4287843Y-2538579I-48514J0D01*
G37*
G36*
G01X-4188422Y-2576459D02*
G03X-4091394Y-2576459I48514J0D01*
G03X-4188422Y-2576459I-48514J0D01*
G37*
G36*
G01X-4111080Y-3309937D02*
G03X-4098794Y-3341524I48509J686D01*
G03X-4062571Y-3422310I36223J-32272D01*
G03X-4026348Y-3341524I0J48514D01*
G03X-4014062Y-3309937I-36223J32272D01*
G03X-4025450Y-3278016I-48509J686D01*
G03X-4062571Y-3198267I-37121J31235D01*
G03X-4099692Y-3278016I0J-48514D01*
G03X-4111080Y-3309937I37121J-31235D01*
G37*
G36*
G01X-4103192Y-5973488D02*
G03X-3871884Y-5973488I115654J0D01*
G03X-4103192Y-5973488I-115654J0D01*
G37*
G36*
G01X-4103192Y-5719488D02*
G03X-3871884Y-5719488I115654J0D01*
G03X-4103192Y-5719488I-115654J0D01*
G37*
G36*
G01X-4062163Y-2391263D02*
G03X-3965135Y-2391263I48514J0D01*
G03X-4062163Y-2391263I-48514J0D01*
G37*
G36*
G01X-3896275Y-945329D02*
G03X-3925030Y-859760I-31238J37119D01*
G03X-4004431Y-816812I-48163J5830D01*
G03X-3975675Y-902381I31238J-37119D01*
G03X-3896275Y-945329I48163J-5830D01*
G37*
G36*
G01X-3749320Y-2120196D02*
G03X-3835403Y-2156221I-37911J-30271D01*
G03X-3891326Y-2173970I-16273J-45703D01*
G03X-3889255Y-2232606I39651J-27954D01*
G03X-3857486Y-2315416I34250J-34359D01*
G03X-3817426Y-2236283I2481J48451D01*
G03X-3803504Y-2196170I-34250J34360D01*
G03X-3749320Y-2120196I16273J45703D01*
G37*
G36*
G01X-3844637Y-3682849D02*
G03X-3837372Y-3776778I15207J-46069D01*
G03X-3800159Y-3690230I7942J47859D01*
G03X-3782607Y-3608377I-15207J46069D01*
G03X-3808030Y-3520542I-28297J39407D01*
G03X-3843663Y-3604755I-2874J-48429D01*
G03X-3844637Y-3682849I28297J-39407D01*
G37*
G36*
G01X-3849192Y-5719488D02*
G03X-3617884Y-5719488I115654J0D01*
G03X-3849192Y-5719488I-115654J0D01*
G37*
G36*
G01X-3849192Y-5973488D02*
G03X-3617884Y-5973488I115654J0D01*
G03X-3849192Y-5973488I-115654J0D01*
G37*
G36*
G01X-3747834Y-2043061D02*
G03X-3650806Y-2043061I48514J0D01*
G03X-3747834Y-2043061I-48514J0D01*
G37*
G36*
G01X-3740255Y-116644D02*
G03X-3643227Y-116644I48514J0D01*
G03X-3740255Y-116644I-48514J0D01*
G37*
G36*
G01X-3719047Y-2522167D02*
G03X-3622019Y-2522167I48514J0D01*
G03X-3719047Y-2522167I-48514J0D01*
G37*
G36*
G01X-3668551Y-803616D02*
G03X-3571523Y-803616I48514J0D01*
G03X-3668551Y-803616I-48514J0D01*
G37*
G36*
G01X-3514681Y-358206D02*
G03X-3602079Y-389837I-38960J-28909D01*
G03X-3657683Y-464315I-16644J-45570D01*
G03X-3570285Y-432684I38960J28909D01*
G03X-3514681Y-358206I16644J45570D01*
G37*
G36*
G01X-3523696Y-2748844D02*
G03X-3439981Y-2722702I35671J32881D01*
G03X-3513273Y-2674537I-48044J6739D01*
G03X-3541518Y-2659476I-35672J-32881D01*
G03X-3559541Y-2623961I-48461J-2262D01*
G03X-3611706Y-2553248I-42638J23143D01*
G03X-3632618Y-2638595I9526J-47570D01*
G03X-3597406Y-2709680I42638J-23143D01*
G03X-3523696Y-2748844I48461J2262D01*
G37*
G36*
G01X-3634040Y-1891146D02*
G03X-3537012Y-1891146I48514J0D01*
G03X-3634040Y-1891146I-48514J0D01*
G37*
G36*
G01X-3615471Y-3612903D02*
G03X-3525135Y-3632282I48276J4799D01*
G03X-3440383Y-3595496I36476J31986D01*
G03X-3530718Y-3576118I-48276J-4799D01*
G03X-3615471Y-3612903I-36476J-31986D01*
G37*
G36*
G01X-3600651Y-953603D02*
G03X-3503623Y-953603I48514J0D01*
G03X-3600651Y-953603I-48514J0D01*
G37*
G36*
G01X-3595192Y-5973488D02*
G03X-3363884Y-5973488I115654J0D01*
G03X-3595192Y-5973488I-115654J0D01*
G37*
G36*
G01X-3595192Y-5719488D02*
G03X-3363884Y-5719488I115654J0D01*
G03X-3595192Y-5719488I-115654J0D01*
G37*
G36*
G01X-3581593Y-2509458D02*
G03X-3484565Y-2509458I48514J0D01*
G03X-3581593Y-2509458I-48514J0D01*
G37*
G36*
G01X-3441451Y-1682052D02*
G03X-3525799Y-1712135I-35902J-32629D01*
G03X-3445069Y-1750894I48447J-2546D01*
G03X-3380194Y-1757178I35902J32629D01*
G03X-3367615Y-1693225I-28973J38912D01*
G03X-3302148Y-1642289I17277J45333D01*
G03X-3289611Y-1555291I-14067J46430D01*
G03X-3364405Y-1601462I-26604J-40569D01*
G03X-3391890Y-1672932I14067J-46430D01*
G03X-3441451Y-1682052I-17277J-45334D01*
G37*
G36*
G01X-3522097Y-1879002D02*
G03X-3425069Y-1879002I48514J0D01*
G03X-3522097Y-1879002I-48514J0D01*
G37*
G36*
G01X-3482191Y-2309124D02*
G03X-3385163Y-2309124I48514J0D01*
G03X-3482191Y-2309124I-48514J0D01*
G37*
G36*
G01X-3339106Y-2755789D02*
G03X-3424813Y-2737290I-47237J-11058D01*
G03X-3384859Y-2815339I38470J-29557D01*
G03X-3329264Y-2852069I47237J11058D01*
G03X-3241613Y-2860852I45853J15846D01*
G03X-3291769Y-2788435I-41798J24628D01*
G03X-3339106Y-2755789I-45853J-15846D01*
G37*
G36*
G01X-3430737Y-3090221D02*
G03X-3333709Y-3090221I48514J0D01*
G03X-3430737Y-3090221I-48514J0D01*
G37*
G36*
G01X-3362131Y-803616D02*
G03X-3265103Y-803616I48514J0D01*
G03X-3362131Y-803616I-48514J0D01*
G37*
G36*
G01X-3362039Y-953603D02*
G03X-3265011Y-953603I48514J0D01*
G03X-3362039Y-953603I-48514J0D01*
G37*
G36*
G01X-3346471Y-4481110D02*
G03X-3263731Y-4449562I34305J34304D01*
G03X-3232182Y-4366821I-2756J48436D01*
G03X-3314922Y-4398370I-34305J-34304D01*
G03X-3346471Y-4481110I2756J-48436D01*
G37*
G36*
G01X-3352906Y-204972D02*
G03X-3255878Y-204972I48514J0D01*
G03X-3352906Y-204972I-48514J0D01*
G37*
G36*
G01X-3341192Y-5973488D02*
G03X-3109884Y-5973488I115654J0D01*
G03X-3341192Y-5973488I-115654J0D01*
G37*
G36*
G01X-3341192Y-5719488D02*
G03X-3109884Y-5719488I115654J0D01*
G03X-3341192Y-5719488I-115654J0D01*
G37*
G36*
G01X-3200197Y-5193542D02*
G03X-3235519Y-5110888I-34461J34147D01*
G03X-3267887Y-5194743I861J-48506D01*
G03X-3273118Y-5256783I34461J-34147D01*
G03X-3212975Y-5272883I39693J27894D01*
G03X-3123763Y-5267271I43421J21638D01*
G03X-3190004Y-5207252I-45790J16027D01*
G03X-3200197Y-5193542I-43421J-21638D01*
G37*
G36*
G01X-3241715Y-1367047D02*
G03X-3144687Y-1367047I48514J0D01*
G03X-3241715Y-1367047I-48514J0D01*
G37*
G36*
G01X-3164460Y-1158206D02*
G03X-3067432Y-1158206I48514J0D01*
G03X-3164460Y-1158206I-48514J0D01*
G37*
G36*
G01X-3156689Y-2006962D02*
G03X-3059661Y-2006962I48514J0D01*
G03X-3156689Y-2006962I-48514J0D01*
G37*
G36*
G01X-3149557Y-3424795D02*
G03X-3052529Y-3424795I48514J0D01*
G03X-3149557Y-3424795I-48514J0D01*
G37*
G36*
G01X-3118779Y-204972D02*
G03X-3021751Y-204972I48514J0D01*
G03X-3118779Y-204972I-48514J0D01*
G37*
G36*
G01X-3087192Y-5973488D02*
G03X-2855884Y-5973488I115654J0D01*
G03X-3087192Y-5973488I-115654J0D01*
G37*
G36*
G01X-3087192Y-5719488D02*
G03X-2855884Y-5719488I115654J0D01*
G03X-3087192Y-5719488I-115654J0D01*
G37*
G36*
G01X-3007705Y-1325472D02*
G03X-2924823Y-1358212I48491J1478D01*
G03X-2844090Y-1320484I32242J36250D01*
G03X-2926971Y-1287743I-48491J-1478D01*
G03X-3007705Y-1325472I-32242J-36250D01*
G37*
G36*
G01X-2929366Y-2468884D02*
G03X-2832338Y-2468884I48514J0D01*
G03X-2929366Y-2468884I-48514J0D01*
G37*
G36*
G01X-2928322Y-2963562D02*
G03X-2831294Y-2963562I48514J0D01*
G03X-2928322Y-2963562I-48514J0D01*
G37*
G36*
G01X-2926191Y-4120683D02*
G03X-2829163Y-4120683I48514J0D01*
G03X-2926191Y-4120683I-48514J0D01*
G37*
G36*
G01X-2915449Y-3509490D02*
G03X-2818421Y-3509490I48514J0D01*
G03X-2915449Y-3509490I-48514J0D01*
G37*
G36*
G01X-2898069Y-271708D02*
G03X-2838188Y-291921I41714J24771D01*
G03X-2811782Y-346561I47285J-10848D01*
G03X-2752706Y-332680I20880J43791D01*
G03X-2675822Y-335692I39599J28027D01*
G03X-2588542Y-307747I38780J29150D01*
G03X-2674326Y-275503I-48499J1205D01*
G03X-2751303Y-274743I-38780J-29150D01*
G03X-2809070Y-257786I-39599J-28027D01*
G03X-2829075Y-206821I-47285J10848D01*
G03X-2862077Y-120876I-30803J37481D01*
G03X-2887158Y-209457I2200J-48464D01*
G03X-2898069Y-271708I30803J-37481D01*
G37*
G36*
G01X-2600914Y-2474893D02*
G03X-2664410Y-2475905I-31164J-37181D01*
G03X-2728833Y-2476639I-31798J-36640D01*
G03X-2806226Y-2512728I-28962J-38921D01*
G03X-2840863Y-2594705I487J-48512D01*
G03X-2757308Y-2564071I35124J33465D01*
G03X-2725170Y-2551465I-487J48512D01*
G03X-2663876Y-2548714I28962J38921D01*
G03X-2599696Y-2548199I31798J36640D01*
G03X-2520052Y-2512847I31164J37181D01*
G03X-2479150Y-2432525I4449J48310D01*
G03X-2564083Y-2462709I-36453J-32012D01*
G03X-2600914Y-2474893I-4449J-48310D01*
G37*
G36*
G01X-2839245Y-1210043D02*
G03X-2742217Y-1210043I48514J0D01*
G03X-2839245Y-1210043I-48514J0D01*
G37*
G36*
G01X-2833192Y-5973488D02*
G03X-2601884Y-5973488I115654J0D01*
G03X-2833192Y-5973488I-115654J0D01*
G37*
G36*
G01X-2833192Y-5719488D02*
G03X-2601884Y-5719488I115654J0D01*
G03X-2833192Y-5719488I-115654J0D01*
G37*
G36*
G01X-2790402Y-2271022D02*
G03X-2693374Y-2271022I48514J0D01*
G03X-2790402Y-2271022I-48514J0D01*
G37*
G36*
G01X-2767811Y-4494623D02*
G03X-2670783Y-4494623I48514J0D01*
G03X-2767811Y-4494623I-48514J0D01*
G37*
G36*
G01X-2754860Y-4952624D02*
G03X-2657832Y-4952624I48514J0D01*
G03X-2754860Y-4952624I-48514J0D01*
G37*
G36*
G01X-2694847Y-1495743D02*
G03X-2597819Y-1495743I48514J0D01*
G03X-2694847Y-1495743I-48514J0D01*
G37*
G36*
G01X-2579192Y-5719488D02*
G03X-2347884Y-5719488I115654J0D01*
G03X-2579192Y-5719488I-115654J0D01*
G37*
G36*
G01X-2579192Y-5973488D02*
G03X-2347884Y-5973488I115654J0D01*
G03X-2579192Y-5973488I-115654J0D01*
G37*
G36*
G01X-2562794Y626706D02*
G03X-2465766Y626706I48514J0D01*
G03X-2562794Y626706I-48514J0D01*
G37*
G36*
G01X-2537462Y-5286608D02*
G03X-2440434Y-5286608I48514J0D01*
G03X-2537462Y-5286608I-48514J0D01*
G37*
G36*
G01X-2471260Y-3857406D02*
G03X-2479288Y-3882318I40449J-26785D01*
G03X-2502735Y-3966652I8443J-47774D01*
G03X-2422368Y-3931965I31889J36561D01*
G03X-2396337Y-3850057I-8443J47774D01*
G03X-2396421Y-3796360I-40449J26785D01*
G03X-2397685Y-3727103I-34598J34009D01*
G03X-2445037Y-3653313I-41165J25671D01*
G03X-2472184Y-3736680I6186J-48118D01*
G03X-2471384Y-3789263I41165J-25671D01*
G03X-2471260Y-3857406I34598J-34009D01*
G37*
G36*
G01X-2518153Y-4127497D02*
G03X-2421125Y-4127497I48514J0D01*
G03X-2518153Y-4127497I-48514J0D01*
G37*
G36*
G01X-2417314Y-1545768D02*
G03X-2419079Y-1457196I-20667J43892D01*
G03X-2486228Y-1399411I-46482J13894D01*
G03X-2484463Y-1487983I20667J-43892D01*
G03X-2417314Y-1545768I46482J-13894D01*
G37*
G36*
G01X-2461862Y-3155618D02*
G03X-2493411Y-3238358I2756J-48436D01*
G03X-2410671Y-3206809I34305J34304D01*
G03X-2364990Y-3161129I-2756J48436D01*
G03X-2333442Y-3078389I-2756J48436D01*
G03X-2416182Y-3109937I-34305J-34304D01*
G03X-2461862Y-3155618I2756J-48436D01*
G37*
G36*
G01X-2466174Y-1156999D02*
G03X-2369146Y-1156999I48514J0D01*
G03X-2466174Y-1156999I-48514J0D01*
G37*
G36*
G01X-2449415Y-5244151D02*
G03X-2352387Y-5244151I48514J0D01*
G03X-2449415Y-5244151I-48514J0D01*
G37*
G36*
G01X-2407680Y-3252323D02*
G03X-2310652Y-3252323I48514J0D01*
G03X-2407680Y-3252323I-48514J0D01*
G37*
G36*
G01X-2331364Y508702D02*
G03X-2234336Y508702I48514J0D01*
G03X-2331364Y508702I-48514J0D01*
G37*
G36*
G01X-2325192Y-5973488D02*
G03X-2093884Y-5973488I115654J0D01*
G03X-2325192Y-5973488I-115654J0D01*
G37*
G36*
G01X-2325192Y-5719488D02*
G03X-2093884Y-5719488I115654J0D01*
G03X-2325192Y-5719488I-115654J0D01*
G37*
G36*
G01X-2288326Y-3608183D02*
G03X-2210258Y-3647791I48500J-1146D01*
G03X-2130405Y-3611915I31352J37023D01*
G03X-2208474Y-3572306I-48500J1146D01*
G03X-2288326Y-3608183I-31352J-37023D01*
G37*
G36*
G01X-2232960Y-1039327D02*
G03X-2203363Y-1121992I34236J-34373D01*
G03X-2120817Y-1151918I48310J4447D01*
G03X-2150414Y-1069253I-34236J34373D01*
G03X-2232960Y-1039327I-48310J-4447D01*
G37*
G36*
G01X-2241614Y-3512343D02*
G03X-2144586Y-3512343I48514J0D01*
G03X-2241614Y-3512343I-48514J0D01*
G37*
G36*
G01X-2183812Y-1355765D02*
G03X-2086784Y-1355765I48514J0D01*
G03X-2183812Y-1355765I-48514J0D01*
G37*
G36*
G01X-2081128Y-27D02*
G03X-2006476Y15906I31075J37255D01*
G03X-1931823Y-27I43577J21322D01*
G03X-1934104Y76273I-31075J37255D01*
G03X-1931823Y152573I-28795J39045D01*
G03X-2006476Y136640I-31075J-37255D01*
G03X-2081128Y152573I-43577J-21322D01*
G03X-2078847Y76273I31075J-37255D01*
G03X-2081128Y-27I28795J-39045D01*
G37*
G36*
G01X-1962363Y-2289365D02*
G03X-2008543Y-2333984I2181J-48465D01*
G03X-2050035Y-2374606I6445J-48084D01*
G03X-2083216Y-2455632I2756J-48436D01*
G03X-1999342Y-2430504I35937J32590D01*
G03X-1953737Y-2385914I-2756J48436D01*
G03X-1912329Y-2345813I-6445J48084D01*
G03X-1866374Y-2303391I-2181J48465D01*
G03X-1822643Y-2262132I-4266J48326D01*
G03X-1790170Y-2180826I-3184J48409D01*
G03X-1873824Y-2206655I-35657J-32896D01*
G03X-1918776Y-2249022I3184J-48409D01*
G03X-1962363Y-2289365I4266J-48326D01*
G37*
G36*
G01X-2071192Y-5973488D02*
G03X-1839884Y-5973488I115654J0D01*
G03X-2071192Y-5973488I-115654J0D01*
G37*
G36*
G01X-2071192Y-5719488D02*
G03X-1839884Y-5719488I115654J0D01*
G03X-2071192Y-5719488I-115654J0D01*
G37*
G36*
G01X-2069125Y-1466087D02*
G03X-1972097Y-1466087I48514J0D01*
G03X-2069125Y-1466087I-48514J0D01*
G37*
G36*
G01X-1893472Y-3816503D02*
G03X-1796444Y-3816503I48514J0D01*
G03X-1893472Y-3816503I-48514J0D01*
G37*
G36*
G01X-1876685Y-2107646D02*
G03X-1779657Y-2107646I48514J0D01*
G03X-1876685Y-2107646I-48514J0D01*
G37*
G36*
G01X-1854347Y-4531967D02*
G03X-1623039Y-4531967I115654J0D01*
G03X-1854347Y-4531967I-115654J0D01*
G37*
G36*
G01X-1817192Y-5973488D02*
G03X-1585884Y-5973488I115654J0D01*
G03X-1817192Y-5973488I-115654J0D01*
G37*
G36*
G01X-1817192Y-5719488D02*
G03X-1585884Y-5719488I115654J0D01*
G03X-1817192Y-5719488I-115654J0D01*
G37*
G36*
G01X-1780687Y-4127587D02*
G03X-1683659Y-4127587I48514J0D01*
G03X-1780687Y-4127587I-48514J0D01*
G37*
G36*
G01X-1564816Y-2942081D02*
G03X-1652002Y-2972425I-38684J-29278D01*
G03X-1695489Y-2980139I-14199J-46390D01*
G03X-1714703Y-3019908I29288J-38676D01*
G03X-1733791Y-3105469I10749J-47308D01*
G03X-1655452Y-3066123I29838J38253D01*
G03X-1627956Y-3048663I-10749J47308D01*
G03X-1617699Y-3017748I-38245J29848D01*
G03X-1564816Y-2942081I14199J46390D01*
G37*
G36*
G01X-1736927Y-1823565D02*
G03X-1639899Y-1823565I48514J0D01*
G03X-1736927Y-1823565I-48514J0D01*
G37*
G36*
G01X-1654405Y77904D02*
G03X-1443098Y77904I105654J0D01*
G03X-1654405Y77904I-105654J0D01*
G37*
G36*
G01X-1567096Y-2788241D02*
G03X-1534740Y-2702714I1005J48504D01*
G03X-1563527Y-2615921I-29791J38290D01*
G03X-1595882Y-2701448I-1005J-48504D01*
G03X-1567096Y-2788241I29791J-38290D01*
G37*
G36*
G01X-1563192Y-5973488D02*
G03X-1331884Y-5973488I115654J0D01*
G03X-1563192Y-5973488I-115654J0D01*
G37*
G36*
G01X-1563192Y-5719488D02*
G03X-1331884Y-5719488I115654J0D01*
G03X-1563192Y-5719488I-115654J0D01*
G37*
G36*
G01X-1534173Y-3434251D02*
G03X-1437145Y-3434251I48514J0D01*
G03X-1534173Y-3434251I-48514J0D01*
G37*
G36*
G01X-1412278Y-4121830D02*
G03X-1315250Y-4121830I48514J0D01*
G03X-1412278Y-4121830I-48514J0D01*
G37*
G36*
G01X-1404393Y77904D02*
G03X-1193085Y77904I105654J0D01*
G03X-1404393Y77904I-105654J0D01*
G37*
G36*
G01X-1357230Y-3964728D02*
G03X-1260202Y-3964728I48514J0D01*
G03X-1357230Y-3964728I-48514J0D01*
G37*
G36*
G01X-1309192Y-5719488D02*
G03X-1077884Y-5719488I115654J0D01*
G03X-1309192Y-5719488I-115654J0D01*
G37*
G36*
G01X-1309192Y-5973488D02*
G03X-1077884Y-5973488I115654J0D01*
G03X-1309192Y-5973488I-115654J0D01*
G37*
G36*
G01X-1274077Y-2707292D02*
G03X-1177049Y-2707292I48514J0D01*
G03X-1274077Y-2707292I-48514J0D01*
G37*
G36*
G01X-1097924Y-2409259D02*
G03X-1130393Y-2323502I-31066J37263D01*
G03X-1208908Y-2276134I-47450J10105D01*
G03X-1176440Y-2361891I31066J-37263D01*
G03X-1097924Y-2409259I47450J-10105D01*
G37*
G36*
G01X-1154381Y77904D02*
G03X-943073Y77904I105654J0D01*
G03X-1154381Y77904I-105654J0D01*
G37*
G36*
G01X-1120851Y-2491892D02*
G03X-1023823Y-2491892I48514J0D01*
G03X-1120851Y-2491892I-48514J0D01*
G37*
G36*
G01X-1097172Y-5197252D02*
G03X-1000144Y-5197252I48514J0D01*
G03X-1097172Y-5197252I-48514J0D01*
G37*
G36*
G01X-1072749Y-4877269D02*
G03X-992463Y-4842281I31800J36638D01*
G03X-969116Y-4757871I-8454J47772D01*
G03X-1049403Y-4792859I-31800J-36638D01*
G03X-1072749Y-4877269I8454J-47772D01*
G37*
G36*
G01X-989444Y-3372859D02*
G03X-1026074Y-3419935I11885J-47036D01*
G03X-1046091Y-3505135I10381J-47390D01*
G03X-967179Y-3467285I30398J37810D01*
G03X-929074Y-3418231I-10381J47390D01*
G03X-892529Y-3368338I-11885J47036D01*
G03X-857110Y-3319303I-13040J46729D01*
G03X-897026Y-3273853I-48459J-2306D01*
G03X-891401Y-3189870I-21267J43604D01*
G03X-966725Y-3227436I-26891J-40379D01*
G03X-1013392Y-3282295I1427J-48493D01*
G03X-954059Y-3323123I48094J6366D01*
G01X-953999Y-3324467D01*
G03X-989444Y-3372859I13040J-46729D01*
G37*
G36*
G01X-1055192Y-5973488D02*
G03X-823884Y-5973488I115654J0D01*
G03X-1055192Y-5973488I-115654J0D01*
G37*
G36*
G01X-1055192Y-5719488D02*
G03X-823884Y-5719488I115654J0D01*
G03X-1055192Y-5719488I-115654J0D01*
G37*
G36*
G01X-718740Y-27750D02*
G03X-693086Y-2096I0J25654D01*
G01X-693086Y157904D01*
G03X-718740Y183558I-25654J0D01*
G01X-878740Y183558D01*
G03X-904394Y157904I0J-25654D01*
G01X-904394Y-2096D01*
G03X-878740Y-27750I25654J0D01*
G01X-718740Y-27750D01*
G37*
G36*
G01X-888181Y-2495216D02*
G03X-791153Y-2495216I48514J0D01*
G03X-888181Y-2495216I-48514J0D01*
G37*
G36*
G01X-815996Y-737397D02*
G03X-739823Y-693739I27817J39747D01*
G03X-724890Y-607220I-12885J46772D01*
G03X-801064Y-650879I-27817J-39747D01*
G03X-815996Y-737397I12885J-46772D01*
G37*
G36*
G01X-762484Y-4210821D02*
G03X-728707Y-4127876I-400J48512D01*
G03X-763846Y-4045499I-34739J33865D01*
G03X-797622Y-4128444I400J-48512D01*
G03X-762484Y-4210821I34739J-33865D01*
G37*
G36*
G01X-811335Y-5027357D02*
G03X-714307Y-5027357I48514J0D01*
G03X-811335Y-5027357I-48514J0D01*
G37*
G36*
G01X-804362Y-4531967D02*
G03X-573054Y-4531967I115654J0D01*
G03X-804362Y-4531967I-115654J0D01*
G37*
G36*
G01X-801192Y-5973488D02*
G03X-569884Y-5973488I115654J0D01*
G03X-801192Y-5973488I-115654J0D01*
G37*
G36*
G01X-801192Y-5719488D02*
G03X-569884Y-5719488I115654J0D01*
G03X-801192Y-5719488I-115654J0D01*
G37*
G36*
G01X-701062Y-4306496D02*
G03X-604034Y-4306496I48514J0D01*
G03X-701062Y-4306496I-48514J0D01*
G37*
G36*
G01X-592587Y-4338204D02*
G03X-564194Y-4421621I33422J-35165D01*
G03X-482326Y-4454213I48446J2573D01*
G03X-510719Y-4370796I-33422J35165D01*
G03X-592587Y-4338204I-48446J-2573D01*
G37*
G36*
G01X-451460Y-2409229D02*
G03X-484060Y-2323505I-31101J37233D01*
G03X-562611Y-2276164I-47449J10108D01*
G03X-530011Y-2361888I31101J-37233D01*
G03X-451460Y-2409229I47449J-10108D01*
G37*
G36*
G01X-547192Y-5973488D02*
G03X-315884Y-5973488I115654J0D01*
G03X-547192Y-5973488I-115654J0D01*
G37*
G36*
G01X-547192Y-5719488D02*
G03X-315884Y-5719488I115654J0D01*
G03X-547192Y-5719488I-115654J0D01*
G37*
G36*
G01X-433765Y-4904769D02*
G03X-390043Y-4827184I5084J48247D01*
G03X-416632Y-4742189I-31673J36748D01*
G03X-460354Y-4819774I-5084J-48247D01*
G03X-433765Y-4904769I31673J-36748D01*
G37*
G36*
G01X-459313Y-649217D02*
G03X-362285Y-649217I48514J0D01*
G03X-459313Y-649217I-48514J0D01*
G37*
G36*
G01X-459313Y-2719101D02*
G03X-362285Y-2719101I48514J0D01*
G03X-459313Y-2719101I-48514J0D01*
G37*
G36*
G01X-458355Y-1021875D02*
G03X-361327Y-1021875I48514J0D01*
G03X-458355Y-1021875I-48514J0D01*
G37*
G36*
G01X-458355Y-3091759D02*
G03X-361327Y-3091759I48514J0D01*
G03X-458355Y-3091759I-48514J0D01*
G37*
G36*
G01X-376331Y673140D02*
G03X-279303Y673140I48514J0D01*
G03X-376331Y673140I-48514J0D01*
G37*
G36*
G01X-329103Y-4768475D02*
G03X-232075Y-4768475I48514J0D01*
G03X-329103Y-4768475I-48514J0D01*
G37*
G36*
G01X-322553Y-1550277D02*
G03X-225525Y-1550277I48514J0D01*
G03X-322553Y-1550277I-48514J0D01*
G37*
G36*
G01X-322553Y-3620161D02*
G03X-225525Y-3620161I48514J0D01*
G03X-322553Y-3620161I-48514J0D01*
G37*
G36*
G01X-293192Y-5973488D02*
G03X-61884Y-5973488I115654J0D01*
G03X-293192Y-5973488I-115654J0D01*
G37*
G36*
G01X-293192Y-5719488D02*
G03X-61884Y-5719488I115654J0D01*
G03X-293192Y-5719488I-115654J0D01*
G37*
G36*
G01X-225211Y-456494D02*
G03X-128183Y-456494I48514J0D01*
G03X-225211Y-456494I-48514J0D01*
G37*
G36*
G01X-225211Y-2526378D02*
G03X-128183Y-2526378I48514J0D01*
G03X-225211Y-2526378I-48514J0D01*
G37*
G36*
G01X-181660Y-591617D02*
G03X-84632Y-591617I48514J0D01*
G03X-181660Y-591617I-48514J0D01*
G37*
G36*
G01X-181660Y-2661501D02*
G03X-84632Y-2661501I48514J0D01*
G03X-181660Y-2661501I-48514J0D01*
G37*
G36*
G01X-39192Y-5973488D02*
G03X192116Y-5973488I115654J0D01*
G03X-39192Y-5973488I-115654J0D01*
G37*
G36*
G01X-39192Y-5719488D02*
G03X192116Y-5719488I115654J0D01*
G03X-39192Y-5719488I-115654J0D01*
G37*
G36*
G01X185462Y-4893233D02*
G03X282490Y-4893233I48514J0D01*
G03X185462Y-4893233I-48514J0D01*
G37*
G36*
G01X195527Y-4509348D02*
G03X292555Y-4509348I48514J0D01*
G03X195527Y-4509348I-48514J0D01*
G37*
G36*
G01X214808Y-5973488D02*
G03X446116Y-5973488I115654J0D01*
G03X214808Y-5973488I-115654J0D01*
G37*
G36*
G01X214808Y-5719488D02*
G03X446116Y-5719488I115654J0D01*
G03X214808Y-5719488I-115654J0D01*
G37*
G36*
G01X279646Y-1238985D02*
G03X376674Y-1238985I48514J0D01*
G03X279646Y-1238985I-48514J0D01*
G37*
G36*
G01X279646Y-1620789D02*
G03X376674Y-1620789I48514J0D01*
G03X279646Y-1620789I-48514J0D01*
G37*
G36*
G01X279646Y-3308870D02*
G03X376674Y-3308870I48514J0D01*
G03X279646Y-3308870I-48514J0D01*
G37*
G36*
G01X279646Y-3690674D02*
G03X376674Y-3690674I48514J0D01*
G03X279646Y-3690674I-48514J0D01*
G37*
G36*
G01X468808Y-5973488D02*
G03X700116Y-5973488I115654J0D01*
G03X468808Y-5973488I-115654J0D01*
G37*
G36*
G01X468808Y-5719488D02*
G03X700116Y-5719488I115654J0D01*
G03X468808Y-5719488I-115654J0D01*
G37*
G36*
G01X501629Y198633D02*
G03X598657Y198633I48514J0D01*
G03X501629Y198633I-48514J0D01*
G37*
G36*
G01X722808Y-5973488D02*
G03X954116Y-5973488I115654J0D01*
G03X722808Y-5973488I-115654J0D01*
G37*
G36*
G01X722808Y-5719488D02*
G03X954116Y-5719488I115654J0D01*
G03X722808Y-5719488I-115654J0D01*
G37*
G36*
G01X754379Y-1682139D02*
G03X851407Y-1682139I48514J0D01*
G03X754379Y-1682139I-48514J0D01*
G37*
G36*
G01X754379Y-3752023D02*
G03X851407Y-3752023I48514J0D01*
G03X754379Y-3752023I-48514J0D01*
G37*
G36*
G01X755247Y-1372494D02*
G03X852275Y-1372494I48514J0D01*
G03X755247Y-1372494I-48514J0D01*
G37*
G36*
G01X755247Y-3442379D02*
G03X852275Y-3442379I48514J0D01*
G03X755247Y-3442379I-48514J0D01*
G37*
G36*
G01X1184594Y-541120D02*
G03X1184594Y-249812I0J145654D01*
G03X1184594Y-541120I0J-145654D01*
G37*
G36*
G01X1184594Y-922120D02*
G03X1184594Y-630812I0J145654D01*
G03X1184594Y-922120I0J-145654D01*
G37*
G36*
G01X1184594Y-1417312D02*
G03X1184594Y-1126004I0J145654D01*
G03X1184594Y-1417312I0J-145654D01*
G37*
G36*
G01X1184594Y-2611004D02*
G03X1184594Y-2319696I0J145654D01*
G03X1184594Y-2611004I0J-145654D01*
G37*
G36*
G01X1184594Y-1798312D02*
G03X1184594Y-1507004I0J145654D01*
G03X1184594Y-1798312I0J-145654D01*
G37*
G36*
G01X1184594Y-3487196D02*
G03X1184594Y-3195889I0J145654D01*
G03X1184594Y-3487196I0J-145654D01*
G37*
G36*
G01X1184594Y-3868196D02*
G03X1184594Y-3576889I0J145654D01*
G03X1184594Y-3868196I0J-145654D01*
G37*
G36*
G01X1184594Y-5061889D02*
G03X1184594Y-4770581I0J145654D01*
G03X1184594Y-5061889I0J-145654D01*
G37*
G36*
G01X1184594Y-4680889D02*
G03X1184594Y-4389581I0J145654D01*
G03X1184594Y-4680889I0J-145654D01*
G37*
G36*
G01X1184594Y-2992004D02*
G03X1184594Y-2700696I0J145654D01*
G03X1184594Y-2992004I0J-145654D01*
G37*
G36*
G01X1047153Y-5137385D02*
G03X1144181Y-5137385I48514J0D01*
G03X1047153Y-5137385I-48514J0D01*
G37*
G36*
G01X1052239Y-6098690D02*
G03X1149267Y-6098690I48514J0D01*
G03X1052239Y-6098690I-48514J0D01*
G37*
G36*
G01X1255650Y407483D02*
G03X1906906Y407483I325628J0D01*
G03X1255650Y407483I-325628J0D01*
G37*
G36*
G01X1255650Y-5792517D02*
G03X1906906Y-5792517I325628J0D01*
G03X1255650Y-5792517I-325628J0D01*
G37*
G36*
G01X1686435Y-5996D02*
G03X1607255Y-61609I-37516J-30760D01*
G03X1537201Y-128354I-32537J-35985D01*
G03X1616382Y-72741I37516J30760D01*
G03X1686435Y-5996I32537J35985D01*
G37*
G36*
G01X1686735Y-3987127D02*
G03X1605937Y-4040016I-37816J-30390D01*
G03X1536901Y-4107540I-31220J-37134D01*
G03X1617699Y-4054652I37816J30390D01*
G03X1686735Y-3987127I31220J37134D01*
G37*
%LPD*%
G36*
G01X-7456389Y-2575617D02*
G02X-7456389Y-2550217I0J12700D01*
G01X-7330735Y-2550217D01*
G02X-7330735Y-2575617I0J-12700D01*
G01X-7456389Y-2575617D01*
G37*
G36*
G01X-7456389Y-1710620D02*
G02X-7456389Y-1685220I0J12700D01*
G01X-7330735Y-1685220D01*
G02X-7330735Y-1710620I0J-12700D01*
G01X-7456389Y-1710620D01*
G37*
G36*
G01X-7330735Y-2575617D02*
G02X-7330735Y-2550217I0J12700D01*
G01X-7205081Y-2550217D01*
G02X-7205081Y-2575617I0J-12700D01*
G01X-7330735Y-2575617D01*
G37*
G36*
G01X-7330735Y-1710620D02*
G02X-7330735Y-1685220I0J12700D01*
G01X-7205081Y-1685220D01*
G02X-7205081Y-1710620I0J-12700D01*
G01X-7330735Y-1710620D01*
G37*
G36*
G01X-7324624Y-1207175D02*
G02X-7324624Y-1181775I0J12700D01*
G01X-7198971Y-1181775D01*
G02X-7198971Y-1207175I0J-12700D01*
G01X-7324624Y-1207175D01*
G37*
G36*
G01X-7450278Y-1207175D02*
G02X-7450278Y-1181775I0J12700D01*
G01X-7324624Y-1181775D01*
G02X-7324624Y-1207175I0J-12700D01*
G01X-7450278Y-1207175D01*
G37*
G36*
G01X-7324624Y-343168D02*
G02X-7324624Y-317768I0J12700D01*
G01X-7198971Y-317768D01*
G02X-7198971Y-343168I0J-12700D01*
G01X-7324624Y-343168D01*
G37*
G36*
G01X-7450278Y-343168D02*
G02X-7450278Y-317768I0J12700D01*
G01X-7324624Y-317768D01*
G02X-7324624Y-343168I0J-12700D01*
G01X-7450278Y-343168D01*
G37*
G36*
G01X584462Y-5732188D02*
G02X584462Y-5706788I0J12700D01*
G01X700116Y-5706788D01*
G02X700116Y-5732188I0J-12700D01*
G01X584462Y-5732188D01*
G37*
G36*
G01X584462Y-5986188D02*
G02X584462Y-5960788I0J12700D01*
G01X700116Y-5960788D01*
G02X700116Y-5986188I0J-12700D01*
G01X584462Y-5986188D01*
G37*
G36*
G01X-4865192Y-5986188D02*
G02X-4865192Y-5960788I0J12700D01*
G01X-4749538Y-5960788D01*
G02X-4749538Y-5986188I0J-12700D01*
G01X-4865192Y-5986188D01*
G37*
G36*
G01X-4865192Y-5732188D02*
G02X-4865192Y-5706788I0J12700D01*
G01X-4749538Y-5706788D01*
G02X-4749538Y-5732188I0J-12700D01*
G01X-4865192Y-5732188D01*
G37*
G36*
G01X-5983497Y-5094874D02*
G02X-5983497Y-5069474I0J12700D01*
G01X-5867843Y-5069474D01*
G02X-5867843Y-5094874I0J-12700D01*
G01X-5983497Y-5094874D01*
G37*
G36*
G01X-7742632Y-343168D02*
G02X-7742632Y-317768I0J12700D01*
G01X-7626978Y-317768D01*
G02X-7626978Y-343168I0J-12700D01*
G01X-7742632Y-343168D01*
G37*
G36*
G01X-7742632Y-1207175D02*
G02X-7742632Y-1181775I0J12700D01*
G01X-7626978Y-1181775D01*
G02X-7626978Y-1207175I0J-12700D01*
G01X-7742632Y-1207175D01*
G37*
G36*
G01X-7750749Y-2575617D02*
G02X-7750749Y-2550217I0J12700D01*
G01X-7635095Y-2550217D01*
G02X-7635095Y-2575617I0J-12700D01*
G01X-7750749Y-2575617D01*
G37*
G36*
G01X-7866403Y-2575617D02*
G02X-7866403Y-2550217I0J12700D01*
G01X-7750749Y-2550217D01*
G02X-7750749Y-2575617I0J-12700D01*
G01X-7866403Y-2575617D01*
G37*
G36*
G01X-7750749Y-1710620D02*
G02X-7750749Y-1685220I0J12700D01*
G01X-7635095Y-1685220D01*
G02X-7635095Y-1710620I0J-12700D01*
G01X-7750749Y-1710620D01*
G37*
G36*
G01X-7866403Y-1710620D02*
G02X-7866403Y-1685220I0J12700D01*
G01X-7750749Y-1685220D01*
G02X-7750749Y-1710620I0J-12700D01*
G01X-7866403Y-1710620D01*
G37*
G36*
G01X-7858286Y-343168D02*
G02X-7858286Y-317768I0J12700D01*
G01X-7742632Y-317768D01*
G02X-7742632Y-343168I0J-12700D01*
G01X-7858286Y-343168D01*
G37*
G36*
G01X-7858286Y-1207175D02*
G02X-7858286Y-1181775I0J12700D01*
G01X-7742632Y-1181775D01*
G02X-7742632Y-1207175I0J-12700D01*
G01X-7858286Y-1207175D01*
G37*
G36*
G01X-5867843Y-5094874D02*
G02X-5867843Y-5069474I0J12700D01*
G01X-5752189Y-5069474D01*
G02X-5752189Y-5094874I0J-12700D01*
G01X-5867843Y-5094874D01*
G37*
G36*
G01X-4749538Y-5986188D02*
G02X-4749538Y-5960788I0J12700D01*
G01X-4633884Y-5960788D01*
G02X-4633884Y-5986188I0J-12700D01*
G01X-4749538Y-5986188D01*
G37*
G36*
G01X-4749538Y-5732188D02*
G02X-4749538Y-5706788I0J12700D01*
G01X-4633884Y-5706788D01*
G02X-4633884Y-5732188I0J-12700D01*
G01X-4749538Y-5732188D01*
G37*
G36*
G01X-804362Y-4544667D02*
G02X-804362Y-4519267I0J12700D01*
G01X-688708Y-4519267D01*
G02X-688708Y-4544667I0J-12700D01*
G01X-804362Y-4544667D01*
G37*
G36*
G01X-688708Y-4544667D02*
G02X-688708Y-4519267I0J12700D01*
G01X-573054Y-4519267D01*
G02X-573054Y-4544667I0J-12700D01*
G01X-688708Y-4544667D01*
G37*
G36*
G01X468808Y-5732188D02*
G02X468808Y-5706788I0J12700D01*
G01X584462Y-5706788D01*
G02X584462Y-5732188I0J-12700D01*
G01X468808Y-5732188D01*
G37*
G36*
G01X468808Y-5986188D02*
G02X468808Y-5960788I0J12700D01*
G01X584462Y-5960788D01*
G02X584462Y-5986188I0J-12700D01*
G01X468808Y-5986188D01*
G37*
G36*
G01X-6509367Y568910D02*
G02X-6509367Y594310I0J12700D01*
G01X-6398713Y594310D01*
G02X-6398713Y568910I0J-12700D01*
G01X-6509367Y568910D01*
G37*
G36*
G01X-6509367Y314910D02*
G02X-6509367Y340310I0J12700D01*
G01X-6398713Y340310D01*
G02X-6398713Y314910I0J-12700D01*
G01X-6509367Y314910D01*
G37*
G36*
G01X-6620021Y568910D02*
G02X-6620021Y594310I0J12700D01*
G01X-6509367Y594310D01*
G02X-6509367Y568910I0J-12700D01*
G01X-6620021Y568910D01*
G37*
G36*
G01X-6620021Y314910D02*
G02X-6620021Y340310I0J12700D01*
G01X-6509367Y340310D01*
G02X-6509367Y314910I0J-12700D01*
G01X-6620021Y314910D01*
G37*
G36*
G01X-904394Y65204D02*
G02X-904394Y90604I0J12700D01*
G01X-798740Y90604D01*
G02X-798740Y65204I0J-12700D01*
G01X-904394Y65204D01*
G37*
G36*
G01X-798740Y65204D02*
G02X-798740Y90604I0J12700D01*
G01X-693086Y90604D01*
G02X-693086Y65204I0J-12700D01*
G01X-798740Y65204D01*
G37*
G36*
G01X-5880543Y-5082174D02*
G02X-5855143Y-5082174I12700J0D01*
G01X-5855143Y-5197828D01*
G02X-5880543Y-5197828I-12700J0D01*
G01X-5880543Y-5082174D01*
G37*
G36*
G01X-4736838Y-5719488D02*
G02X-4762238Y-5719488I-12700J0D01*
G01X-4762238Y-5603834D01*
G02X-4736838Y-5603834I12700J0D01*
G01X-4736838Y-5719488D01*
G37*
G36*
G01X-676008Y-4531967D02*
G02X-701408Y-4531967I-12700J0D01*
G01X-701408Y-4416313D01*
G02X-676008Y-4416313I12700J0D01*
G01X-676008Y-4531967D01*
G37*
G36*
G01X597162Y-5719488D02*
G02X571762Y-5719488I-12700J0D01*
G01X571762Y-5603834D01*
G02X597162Y-5603834I12700J0D01*
G01X597162Y-5719488D01*
G37*
G36*
G01X-5855143Y-5082174D02*
G02X-5880543Y-5082174I-12700J0D01*
G01X-5880543Y-4966520D01*
G02X-5855143Y-4966520I12700J0D01*
G01X-5855143Y-5082174D01*
G37*
G36*
G01X-4736838Y-5973488D02*
G02X-4762238Y-5973488I-12700J0D01*
G01X-4762238Y-5857834D01*
G02X-4736838Y-5857834I12700J0D01*
G01X-4736838Y-5973488D01*
G37*
G36*
G01X-4762238Y-5973488D02*
G02X-4736838Y-5973488I12700J0D01*
G01X-4736838Y-6089141D01*
G02X-4762238Y-6089141I-12700J0D01*
G01X-4762238Y-5973488D01*
G37*
G36*
G01X-4762238Y-5719488D02*
G02X-4736838Y-5719488I12700J0D01*
G01X-4736838Y-5835141D01*
G02X-4762238Y-5835141I-12700J0D01*
G01X-4762238Y-5719488D01*
G37*
G36*
G01X-701408Y-4531967D02*
G02X-676008Y-4531967I12700J0D01*
G01X-676008Y-4647621D01*
G02X-701408Y-4647621I-12700J0D01*
G01X-701408Y-4531967D01*
G37*
G36*
G01X571762Y-5719488D02*
G02X597162Y-5719488I12700J0D01*
G01X597162Y-5835141D01*
G02X571762Y-5835141I-12700J0D01*
G01X571762Y-5719488D01*
G37*
G36*
G01X597162Y-5973488D02*
G02X571762Y-5973488I-12700J0D01*
G01X571762Y-5857834D01*
G02X597162Y-5857834I12700J0D01*
G01X597162Y-5973488D01*
G37*
G36*
G01X571762Y-5973488D02*
G02X597162Y-5973488I12700J0D01*
G01X597162Y-6089141D01*
G02X571762Y-6089141I-12700J0D01*
G01X571762Y-5973488D01*
G37*
G36*
G01X-6496667Y327610D02*
G02X-6522067Y327610I-12700J0D01*
G01X-6522067Y438264D01*
G02X-6496667Y438264I12700J0D01*
G01X-6496667Y327610D01*
G37*
G36*
G01X-6496667Y581610D02*
G02X-6522067Y581610I-12700J0D01*
G01X-6522067Y692264D01*
G02X-6496667Y692264I12700J0D01*
G01X-6496667Y581610D01*
G37*
G36*
G01X-6522067Y581610D02*
G02X-6496667Y581610I12700J0D01*
G01X-6496667Y470956D01*
G02X-6522067Y470956I-12700J0D01*
G01X-6522067Y581610D01*
G37*
G36*
G01X-6522067Y327610D02*
G02X-6496667Y327610I12700J0D01*
G01X-6496667Y216956D01*
G02X-6522067Y216956I-12700J0D01*
G01X-6522067Y327610D01*
G37*
G36*
G01X-786040Y77904D02*
G02X-811440Y77904I-12700J0D01*
G01X-811440Y183558D01*
G02X-786040Y183558I12700J0D01*
G01X-786040Y77904D01*
G37*
G36*
G01X-811440Y77904D02*
G02X-786040Y77904I12700J0D01*
G01X-786040Y-27750D01*
G02X-811440Y-27750I-12700J0D01*
G01X-811440Y77904D01*
G37*
G36*
G01X-7763449Y-2477263D02*
G02X-7738049Y-2477263I12700J0D01*
G01X-7738049Y-2562917D01*
G02X-7763449Y-2562917I-12700J0D01*
G01X-7763449Y-2477263D01*
G37*
G36*
G01X-7763449Y-1697920D02*
G02X-7738049Y-1697920I12700J0D01*
G01X-7738049Y-1783574D01*
G02X-7763449Y-1783574I-12700J0D01*
G01X-7763449Y-1697920D01*
G37*
G36*
G01X-7729932Y-1280129D02*
G02X-7755332Y-1280129I-12700J0D01*
G01X-7755332Y-1194475D01*
G02X-7729932Y-1194475I12700J0D01*
G01X-7729932Y-1280129D01*
G37*
G36*
G01X-7311924Y-1280129D02*
G02X-7337324Y-1280129I-12700J0D01*
G01X-7337324Y-1194475D01*
G02X-7311924Y-1194475I12700J0D01*
G01X-7311924Y-1280129D01*
G37*
G36*
G01X-7729932Y-330468D02*
G02X-7755332Y-330468I-12700J0D01*
G01X-7755332Y-244815D01*
G02X-7729932Y-244815I12700J0D01*
G01X-7729932Y-330468D01*
G37*
G36*
G01X-7755332Y-330468D02*
G02X-7729932Y-330468I12700J0D01*
G01X-7729932Y-416122D01*
G02X-7755332Y-416122I-12700J0D01*
G01X-7755332Y-330468D01*
G37*
G36*
G01X-7337324Y-244815D02*
G02X-7311924Y-244815I12700J0D01*
G01X-7311924Y-330468D01*
G02X-7337324Y-330468I-12700J0D01*
G01X-7337324Y-244815D01*
G37*
G36*
G01X-7311924Y-416122D02*
G02X-7337324Y-416122I-12700J0D01*
G01X-7337324Y-330468D01*
G02X-7311924Y-330468I12700J0D01*
G01X-7311924Y-416122D01*
G37*
G36*
G01X-7738049Y-2648571D02*
G02X-7763449Y-2648571I-12700J0D01*
G01X-7763449Y-2562917D01*
G02X-7738049Y-2562917I12700J0D01*
G01X-7738049Y-2648571D01*
G37*
G36*
G01X-7738049Y-1697920D02*
G02X-7763449Y-1697920I-12700J0D01*
G01X-7763449Y-1612266D01*
G02X-7738049Y-1612266I12700J0D01*
G01X-7738049Y-1697920D01*
G37*
G36*
G01X-7755332Y-1108821D02*
G02X-7729932Y-1108821I12700J0D01*
G01X-7729932Y-1194475D01*
G02X-7755332Y-1194475I-12700J0D01*
G01X-7755332Y-1108821D01*
G37*
G36*
G01X-7337324Y-1108821D02*
G02X-7311924Y-1108821I12700J0D01*
G01X-7311924Y-1194475D01*
G02X-7337324Y-1194475I-12700J0D01*
G01X-7337324Y-1108821D01*
G37*
G36*
G01X-7318035Y-1778574D02*
G02X-7343435Y-1778574I-12700J0D01*
G01X-7343435Y-1697920D01*
G02X-7318035Y-1697920I12700J0D01*
G01X-7318035Y-1778574D01*
G37*
G36*
G01X-7343435Y-1617266D02*
G02X-7318035Y-1617266I12700J0D01*
G01X-7318035Y-1697920D01*
G02X-7343435Y-1697920I-12700J0D01*
G01X-7343435Y-1617266D01*
G37*
G36*
G01X-7343435Y-2482263D02*
G02X-7318035Y-2482263I12700J0D01*
G01X-7318035Y-2562917D01*
G02X-7343435Y-2562917I-12700J0D01*
G01X-7343435Y-2482263D01*
G37*
G36*
G01X-7318035Y-2643571D02*
G02X-7343435Y-2643571I-12700J0D01*
G01X-7343435Y-2562917D01*
G02X-7318035Y-2562917I12700J0D01*
G01X-7318035Y-2643571D01*
G37*
G04 PlaneZone End*

G04 Pad Start*
G54D10*
G01X1184594Y-3722542D03*
G01X1184594Y-3341542D03*
G01X1184594Y-2846350D03*
G01X1184594Y-2465350D03*
G01X1184594Y-776466D03*
G01X1184594Y-395466D03*
G01X1184594Y-1652658D03*
G01X1184594Y-1271658D03*
G01X1184594Y-4916235D03*
G01X1184594Y-4535235D03*
G54D11*
G01X-5867843Y-5082174D03*
G54D12*
G01X-6121843Y-5082174D03*
G01X-6375843Y-5082174D03*
G01X-6629843Y-5082174D03*
G01X-6883843Y-5082174D03*
G54D13*
G01X-7618722Y407483D03*
G54D14*
G01X-7618722Y642433D03*
G01X-7618722Y172533D03*
G01X-7383772Y407483D03*
G01X-7853672Y407483D03*
G01X-7453622Y572583D03*
G01X-7783822Y242383D03*
G01X-7453622Y242383D03*
G01X-7783822Y572583D03*
G54D13*
G01X-7618722Y-5792517D03*
G54D14*
G01X-7618722Y-5557567D03*
G01X-7618722Y-6027467D03*
G01X-7383772Y-5792517D03*
G01X-7853672Y-5792517D03*
G01X-7453622Y-5627417D03*
G01X-7783822Y-5957617D03*
G01X-7453622Y-5957617D03*
G01X-7783822Y-5627417D03*
G54D13*
G01X1581278Y-5792517D03*
G54D14*
G01X1581278Y-5557567D03*
G01X1581278Y-6027467D03*
G01X1816228Y-5792517D03*
G01X1346328Y-5792517D03*
G01X1746378Y-5627417D03*
G01X1416178Y-5957617D03*
G01X1746378Y-5957617D03*
G01X1416178Y-5627417D03*
G54D15*
G01X-7330735Y-1697920D03*
G01X-7330735Y-2562917D03*
G54D16*
G01X-7750749Y-1697920D03*
G01X-7750749Y-2562917D03*
G54D18*
G01X-6763367Y327610D03*
G54D19*
G01X-6763367Y581610D03*
G01X-6509367Y327610D03*
G01X-6509367Y581610D03*
G01X-6255367Y327610D03*
G01X-6255367Y581610D03*
G01X-6001367Y327610D03*
G01X-6001367Y581610D03*
G54D16*
G01X-7742632Y-330468D03*
G01X-7742632Y-1194475D03*
G54D20*
G01X-7324624Y-1194475D03*
G01X-7324624Y-330468D03*
G54D12*
G01X838462Y-5719488D03*
G01X838462Y-5973488D03*
G01X584462Y-5719488D03*
G01X584462Y-5973488D03*
G01X330462Y-5719488D03*
G01X330462Y-5973488D03*
G01X76462Y-5719488D03*
G01X76462Y-5973488D03*
G01X-177538Y-5719488D03*
G01X-177538Y-5973488D03*
G01X-431538Y-5719488D03*
G01X-431538Y-5973488D03*
G01X-685538Y-5719488D03*
G01X-685538Y-5973488D03*
G01X-939538Y-5719488D03*
G01X-939538Y-5973488D03*
G01X-1193538Y-5719488D03*
G01X-1193538Y-5973488D03*
G01X-1447538Y-5719488D03*
G01X-1447538Y-5973488D03*
G01X-1701538Y-5719488D03*
G01X-1701538Y-5973488D03*
G01X-1955538Y-5719488D03*
G01X-1955538Y-5973488D03*
G01X-2209538Y-5719488D03*
G01X-2209538Y-5973488D03*
G01X-2463538Y-5719488D03*
G01X-2463538Y-5973488D03*
G01X-2717538Y-5719488D03*
G01X-2717538Y-5973488D03*
G01X-2971538Y-5719488D03*
G01X-2971538Y-5973488D03*
G01X-3225538Y-5719488D03*
G01X-3225538Y-5973488D03*
G01X-3479538Y-5719488D03*
G01X-3479538Y-5973488D03*
G01X-3733538Y-5719488D03*
G01X-3733538Y-5973488D03*
G01X-3987538Y-5719488D03*
G01X-3987538Y-5973488D03*
G01X-4241538Y-5719488D03*
G01X-4241538Y-5973488D03*
G01X-4495538Y-5719488D03*
G01X-4495538Y-5973488D03*
G01X-4749538Y-5719488D03*
G01X-4749538Y-5973488D03*
G01X-5003538Y-5719488D03*
G01X-5003538Y-5973488D03*
G01X-5257538Y-5719488D03*
G54D11*
G01X-5257538Y-5973488D03*
G54D13*
G01X1581278Y407483D03*
G54D14*
G01X1581278Y642433D03*
G01X1581278Y172533D03*
G01X1816228Y407483D03*
G01X1346328Y407483D03*
G01X1746378Y572583D03*
G01X1416178Y242383D03*
G01X1746378Y242383D03*
G01X1416178Y572583D03*
G54D21*
G01X-798740Y77904D03*
G54D22*
G01X-1048727Y77904D03*
G01X-1298739Y77904D03*
G01X-1548752Y77904D03*
G54D12*
G01X-1738693Y-4531967D03*
G01X-688708Y-4531967D03*
G04 Pad End*

G04 Via Start*
G54D23*
G01X-7553613Y-2053544D03*
G01X-7553615Y-2234915D03*
G01X-7540275Y-670716D03*
G01X-7540275Y-857086D03*
G01X-7665596Y-1057086D03*
G01X-7665596Y-470716D03*
G01X-7688980Y-1846045D03*
G01X-7688980Y-2434914D03*
G01X-7527237Y-2944166D03*
G01X-7107071Y-1890426D03*
G01X-7107071Y-2370435D03*
G01X-7132471Y-524274D03*
G01X-7132471Y-1003273D03*
G01X-7017318Y-1891105D03*
G01X-7017318Y-2371114D03*
G01X-6826682Y-3929112D03*
G01X-6135670Y-3705251D03*
G01X-6364235Y-4040024D03*
G01X-6135670Y-4040494D03*
G01X-6365626Y-3586201D03*
G01X-6827738Y-3667054D03*
G01X-6619110Y-3464745D03*
G01X-6818410Y-3463527D03*
G01X-6841134Y-4440238D03*
G01X-5555070Y-4873115D03*
G01X-7726157Y-3558884D03*
G01X-7636700Y-4349112D03*
G01X-7822399Y-4165318D03*
G01X-7317205Y-4279682D03*
G01X-7409204Y-4026975D03*
G01X-7631275Y-4990006D03*
G01X-7302558Y-4907386D03*
G01X-7808835Y-4775020D03*
G01X-7304692Y-4769645D03*
G01X-7304195Y-3865132D03*
G01X-6404570Y-4319641D03*
G01X-6404570Y-4402784D03*
G01X-6404570Y-4485927D03*
G01X-6404570Y-4569070D03*
G01X-6344722Y-4243939D03*
G01X-6261579Y-4243939D03*
G01X-6178436Y-4243939D03*
G01X-6344722Y-4637374D03*
G01X-6261579Y-4637374D03*
G01X-6178436Y-4637374D03*
G01X-5555070Y-5216229D03*
G01X-5125442Y-5042402D03*
G01X1100753Y-6098690D03*
G01X1095667Y-5137385D03*
G01X-280589Y-4768475D03*
G01X-280095Y-5006390D03*
G01X26259Y-5001106D03*
G01X233976Y-4893233D03*
G01X-130163Y-4636348D03*
G01X-44025Y-4502752D03*
G01X244041Y-4509348D03*
G01X658486Y-4613715D03*
G01X659137Y-4783619D03*
G01X776530Y-4655933D03*
G01X776530Y-4741767D03*
G01X-614255Y-2526378D03*
G01X-176697Y-2526378D03*
G01X-133146Y-2661501D03*
G01X638692Y-2847609D03*
G01X756735Y-2889828D03*
G01X756735Y-2975661D03*
G01X639343Y-3017514D03*
G01X-274039Y-3620161D03*
G01X803761Y-3442379D03*
G01X802893Y-3752023D03*
G01X594810Y-3294894D03*
G01X593428Y-3905256D03*
G01X-410799Y-2719101D03*
G01X-409841Y-3091759D03*
G01X328160Y-3529526D03*
G01X-27213Y-3172022D03*
G01X-29817Y-3099233D03*
G01X-108304Y-3097280D03*
G01X-108304Y-3172022D03*
G01X-185400Y-3172022D03*
G01X-185400Y-3097280D03*
G01X328160Y-3690674D03*
G01X328160Y-3308870D03*
G01X803761Y-1372494D03*
G01X802893Y-1682139D03*
G01X328160Y-1620789D03*
G01X328160Y-1238985D03*
G01X328160Y-1459641D03*
G01X-614255Y-456494D03*
G01X-410799Y-649217D03*
G01X-409841Y-1021875D03*
G01X-274039Y-1550277D03*
G01X-185400Y-1027395D03*
G01X-185400Y-1102138D03*
G01X-176697Y-456494D03*
G01X-133146Y-591617D03*
G01X-108304Y-1102138D03*
G01X-108304Y-1027395D03*
G01X-29817Y-1029348D03*
G01X-27213Y-1102138D03*
G01X638692Y-777725D03*
G01X639343Y-947629D03*
G01X756735Y-905777D03*
G01X756735Y-819943D03*
G01X593428Y-1835372D03*
G01X594810Y-1225010D03*
G01X-2590492Y-771855D03*
G01X-1963733Y-556277D03*
G01X-2790902Y-302770D03*
G01X-1904795Y-155180D03*
G01X-2762618Y441058D03*
G01X-1966879Y441058D03*
G01X-2514280Y626706D03*
G01X-2282850Y508702D03*
G01X-2435775Y302933D03*
G01X-1450291Y-789967D03*
G01X-1385564Y-854693D03*
G01X-1256111Y-984146D03*
G01X-1134848Y-1105409D03*
G01X-1613064Y-788558D03*
G01X-1137982Y-1197266D03*
G01X-1227177Y-1286460D03*
G01X-1307893Y-1362502D03*
G01X-1396786Y-1456070D03*
G01X-1636639Y-1537767D03*
G01X-1478483Y-1537767D03*
G01X-1748104Y-1635804D03*
G01X-1850639Y-1544104D03*
G01X-1825969Y-1346587D03*
G01X-1905132Y-1267424D03*
G01X-1905132Y-1077979D03*
G01X-1701745Y-874592D03*
G01X-1791658Y-964505D03*
G01X-1307753Y-2061894D03*
G01X-1205092Y-2166174D03*
G01X-1021770Y-2105198D03*
G01X-931830Y-2195138D03*
G01X-771071Y-2195138D03*
G01X-686777Y-2110844D03*
G01X-686777Y-2020702D03*
G01X-598538Y-1932462D03*
G01X-598538Y-1853734D03*
G01X-688552Y-1763720D03*
G01X-786831Y-1665441D03*
G01X-854274Y-1597999D03*
G01X-949910Y-1597999D03*
G01X-1043433Y-1691522D03*
G01X-1141218Y-1691522D03*
G01X-1224815Y-1784946D03*
G01X-1220569Y-1974710D03*
G01X-7156566Y-787481D03*
G01X-7362686Y-737905D03*
G01X-6797232Y-857111D03*
G01X-6801459Y-670065D03*
G01X-6498301Y-759861D03*
G01X-6498301Y-664865D03*
G01X-6498301Y-854857D03*
G01X-6214135Y-1622266D03*
G01X-6414919Y-1646242D03*
G01X-6737571Y-2301888D03*
G01X-6737571Y-2587071D03*
G01X-6193539Y-2335553D03*
G01X-6200842Y-2741510D03*
G01X-5953303Y-2113812D03*
G01X-5950484Y-2558707D03*
G01X-6750634Y-1876266D03*
G01X-6270143Y-1978961D03*
G01X-6192592Y-1978961D03*
G01X-6115041Y-1978961D03*
G01X-6115041Y-2039538D03*
G01X-6192592Y-2039538D03*
G01X-6270143Y-2039538D03*
G01X-5659005Y96208D03*
G01X-5659005Y12020D03*
G01X-5311450Y-684421D03*
G01X-5718830Y-704667D03*
G01X-5618329Y-162275D03*
G01X-5409849Y-162275D03*
G01X-5588056Y96208D03*
G01X-5588056Y12020D03*
G01X-5632576Y-880896D03*
G01X-5718885Y-504668D03*
G01X-5432577Y-881292D03*
G01X-5925542Y-806956D03*
G01X-6267456Y174145D03*
G01X-5971222Y-538651D03*
G01X-6384492Y447317D03*
G01X-3618723Y-435406D03*
G01X-5870602Y-464007D03*
G01X-3553641Y-387115D03*
G01X-5862938Y-389726D03*
G01X-3670533Y-2522167D03*
G01X-3533079Y-2509458D03*
G01X-2805739Y-2561239D03*
G01X-2757795Y-2515559D03*
G01X-2696208Y-2512545D03*
G01X-2632078Y-2512074D03*
G01X-2568532Y-2511018D03*
G01X-2459106Y-3204053D03*
G01X-2413426Y-3158373D03*
G01X-2367746Y-3112693D03*
G01X-1564531Y-2664424D03*
G01X-1566091Y-2739737D03*
G01X-1015693Y-3467325D03*
G01X-977560Y-3419895D03*
G01X-940959Y-3371195D03*
G01X-905569Y-3321609D03*
G01X-965298Y-3275929D03*
G01X-918293Y-3230249D03*
G01X-3488659Y-3600296D03*
G01X-4907110Y-3829015D03*
G01X-4786410Y-2054448D03*
G01X-4421447Y-2059671D03*
G01X-3567195Y-3608104D03*
G01X-4859702Y-3783335D03*
G01X-4740730Y-2139650D03*
G01X-4421447Y-2137038D03*
G01X-3101043Y-3424795D03*
G01X-5100167Y-3420918D03*
G01X-5188010Y-2349941D03*
G01X-5545192Y-2377820D03*
G01X-3829430Y-3728918D03*
G01X-5020436Y-3734250D03*
G01X-3815366Y-3644161D03*
G01X-4235428Y-3636326D03*
G01X-3810904Y-3568971D03*
G01X-4279367Y-3578837D03*
G01X-4062571Y-3373796D03*
G01X-5364701Y-3373796D03*
G01X-4062571Y-3309251D03*
G01X-5364701Y-3309251D03*
G01X-4062571Y-3246781D03*
G01X-5364701Y-3246248D03*
G01X-2239826Y-3609329D03*
G01X-4753458Y-3874696D03*
G01X-2178906Y-3610768D03*
G01X-4814378Y-3874696D03*
G01X-3283411Y-2836223D03*
G01X-4410709Y-3099117D03*
G01X-3337622Y-2804281D03*
G01X-4276541Y-3051823D03*
G01X-3386343Y-2766848D03*
G01X-4228228Y-3004163D03*
G01X-3488025Y-2715963D03*
G01X-4178524Y-2956684D03*
G01X-3851676Y-2201924D03*
G01X-3855006Y-2266965D03*
G01X-3585526Y-1891146D03*
G01X-5168572Y-1911410D03*
G01X-3473583Y-1879002D03*
G01X-4412965Y-1975034D03*
G01X-3477352Y-1714681D03*
G01X-5214252Y-1866035D03*
G01X-3409167Y-1718265D03*
G01X-5260727Y-1818521D03*
G01X-3350338Y-1647891D03*
G01X-5310812Y-1775488D03*
G01X-3316216Y-1595859D03*
G01X-5352266Y-1730787D03*
G01X-2741888Y-2271022D03*
G01X-4416512Y-2296330D03*
G01X-2515603Y-2464537D03*
G01X-4404181Y-2459097D03*
G01X-2959214Y-1323993D03*
G01X-5674917Y-1457829D03*
G01X-2892581Y-1321962D03*
G01X-5639294Y-1508360D03*
G01X-2359166Y-3252323D03*
G01X-5362278Y-3145751D03*
G01X-2047279Y-2423042D03*
G01X-2002098Y-2382068D03*
G01X-1960182Y-2337830D03*
G01X-1914510Y-2297348D03*
G01X-1870640Y-2255065D03*
G01X-1825828Y-2213723D03*
G01X-4269700Y-1845466D03*
G01X-4408148Y-1816755D03*
G01X-5404650Y-1652840D03*
G01X-5571825Y-1738785D03*
G01X-1703954Y-3067216D03*
G01X-3589979Y-2661738D03*
G01X-1666201Y-3018815D03*
G01X-3602179Y-2600818D03*
G01X-4285009Y-2310230D03*
G01X-4408332Y-2375617D03*
G01X-4239329Y-2538579D03*
G01X-5078772Y-2519832D03*
G01X-5356058Y-2582590D03*
G01X-5356058Y-2660937D03*
G01X-1603499Y-2971359D03*
G01X-4231698Y-2386122D03*
G01X-763446Y-4094012D03*
G01X-762884Y-4162309D03*
G01X-4964803Y-4163448D03*
G01X-4974597Y-2587144D03*
G01X-4570243Y-2588233D03*
G01X-5291905Y-4212961D03*
G01X-2465561Y-1443303D03*
G01X-2437981Y-1501877D03*
G01X291601Y507656D03*
G01X550143Y198633D03*
G01X-4397365Y-1655641D03*
G01X-3313617Y-803616D03*
G01X-3620037Y-803616D03*
G01X-3313525Y-953603D03*
G01X-3552137Y-953603D03*
G01X-3927513Y-908211D03*
G01X-3973193Y-853930D03*
G01X-2198724Y-1073700D03*
G01X-2155054Y-1117545D03*
G01X-752708Y-646967D03*
G01X-788179Y-697650D03*
G01X-1000917Y-4794509D03*
G01X-421717Y-4790436D03*
G01X-1040949Y-4840631D03*
G01X-428681Y-4856522D03*
G01X-3266486Y-4401126D03*
G01X-3312166Y-4446806D03*
G01X-559165Y-4373368D03*
G01X-515748Y-4419049D03*
G01X-4469228Y-4272924D03*
G01X-4303489Y-4399924D03*
G01X-652548Y-4306496D03*
G01X-839667Y-2495216D03*
G01X-1072337Y-2491892D03*
G01X-3548945Y-2707418D03*
G01X-4123505Y-2899025D03*
G01X-4549672Y-1789043D03*
G01X-1688413Y-1823565D03*
G01X-2880852Y-2468884D03*
G01X-2879808Y-2963562D03*
G01X-2438851Y-3701431D03*
G01X-2431019Y-3762351D03*
G01X-2436786Y-3823271D03*
G01X-2430811Y-3884192D03*
G01X-5094266Y-3955360D03*
G01X-4527448Y-4008933D03*
G01X-5188236Y-4057636D03*
G01X-5044172Y-4103316D03*
G01X-4821260Y-4921818D03*
G01X-5420342Y-3656332D03*
G01X-5543722Y-2616329D03*
G01X-5543722Y-1576326D03*
G01X-3070265Y-204972D03*
G01X-3304392Y-204972D03*
G01X-3193201Y-1367047D03*
G01X-4838518Y-1249566D03*
G01X-2790731Y-1210043D03*
G01X-4911703Y-1156466D03*
G01X-1308716Y-3964728D03*
G01X1648919Y-4017518D03*
G01X1648919Y-36756D03*
G01X-5053833Y-505726D03*
G01X-1363764Y-4121830D03*
G01X1574717Y-4077150D03*
G01X1574717Y-97594D03*
G01X-5057170Y-655758D03*
G01X-2417660Y-1156999D03*
G01X-3115946Y-1158206D03*
G01X-1128990Y-2371996D03*
G01X-482562Y-2371996D03*
G01X-1177843Y-2313397D03*
G01X-531509Y-2313397D03*
G01X-2706346Y-4952624D03*
G01X-2292249Y-4951276D03*
G01X-2193100Y-3512343D03*
G01X-1732173Y-4127587D03*
G01X-762821Y-5027357D03*
G01X-7118757Y-5109950D03*
G01X-1048658Y-5197252D03*
G01X-7063719Y-5074557D03*
G01X-2470846Y-3930091D03*
G01X-2469639Y-4127497D03*
G01X-2488948Y-5286608D03*
G01X-3169553Y-5251245D03*
G01X-2400901Y-5244151D03*
G01X-4124470Y-2785472D03*
G01X-5853398Y-2896175D03*
G01X-4094610Y-2841766D03*
G01X-5893839Y-2941888D03*
G01X-2135298Y-1355765D03*
G01X-3234658Y-5159395D03*
G01X-5383825Y-5159395D03*
G01X-3233425Y-5228890D03*
G01X-5429911Y-5228890D03*
G01X-3433677Y-2309124D03*
G01X-3699320Y-2043061D03*
G01X-3691741Y-116644D03*
G01X-327817Y673140D03*
G01X-4013649Y-2391263D03*
G01X-4139908Y-2576459D03*
G01X-3689685Y-2585347D03*
G01X-2877677Y-4120683D03*
G01X-2648993Y-4143941D03*
G01X-2050053Y115318D03*
G01X-1962899Y115318D03*
G01X-1962899Y37228D03*
G01X-2050053Y37228D03*
G01X-2713107Y-304653D03*
G01X-2856356Y-246938D03*
G01X-2637041Y-306542D03*
G01X-2859877Y-169340D03*
G01X-5196417Y-1103616D03*
G01X-999075Y-165932D03*
G01X-999075Y-537798D03*
G01X-1102041Y-165932D03*
G01X-1102041Y-537798D03*
G01X-1205008Y-537798D03*
G01X-1307975Y-537798D03*
G01X-1410942Y-537798D03*
G01X-990232Y-872294D03*
G01X-1093198Y-872294D03*
G01X-990232Y-748338D03*
G01X-1093198Y-748338D03*
G01X-1196166Y-748338D03*
G01X-2646333Y-1495743D03*
G01X-2566785Y-1234076D03*
G01X-1225563Y-2707292D03*
G01X-1584323Y-2584567D03*
G01X-1828171Y-2107646D03*
G01X-1550314Y-1874065D03*
G01X-1567317Y-2393319D03*
G01X-2020611Y-1466087D03*
G01X-2047676Y-1858307D03*
G01X-2380904Y-1583112D03*
G01X-3108175Y-2006962D03*
G01X-3050322Y-1885778D03*
G01X-2894871Y-2077858D03*
G01X-3820344Y-1945222D03*
G01X-3616692Y-2061089D03*
G01X-3787231Y-2150467D03*
G01X-4607754Y-3533541D03*
G01X-4668482Y-3671661D03*
G01X-4267794Y-3235749D03*
G01X-5666003Y-3256333D03*
G01X-5663920Y-3016328D03*
G01X-5146690Y-3015668D03*
G01X-5653986Y-2776324D03*
G01X-4623428Y-2797401D03*
G01X-4281172Y-2776324D03*
G01X-4612002Y-1655641D03*
G01X-4119506Y-1723013D03*
G01X-7091368Y-708512D03*
G01X-7018421Y-783608D03*
G01X-7024652Y-938713D03*
G01X-3060496Y-3481930D03*
G01X-2866935Y-3509490D03*
G01X-2659632Y-3509810D03*
G01X-3382223Y-3090221D03*
G01X-3167091Y-3014172D03*
G01X-3676250Y-3313425D03*
G01X-4033689Y-2839317D03*
G01X-2827543Y-4175982D03*
G01X-1485659Y-3434251D03*
G01X-1811464Y-3252323D03*
G01X-1266513Y-3675133D03*
G01X-1844958Y-3816503D03*
G01X-1634412Y-4062620D03*
G01X-2099888Y-3530408D03*
G54D24*
G01X-7258367Y741543D03*
G01X-6992709Y741543D03*
G01X-6727051Y741543D03*
G01X-6461393Y741543D03*
G01X-6195735Y741543D03*
G01X-5930078Y741543D03*
G01X-5664420Y741543D03*
G01X-5398762Y741543D03*
G01X-5398762Y539385D03*
G01X-5664420Y539385D03*
G01X-5398762Y337227D03*
G01X-5664420Y337227D03*
G01X-3019673Y741543D03*
G01X-3019673Y539385D03*
G01X-2754015Y741543D03*
G54D23*
G01X-1639426Y464955D03*
G01X-1463052Y464955D03*
G01X-1286678Y464955D03*
G01X-1465789Y306286D03*
G01X-1642163Y306286D03*
G01X-1289415Y306286D03*
G01X-1113041Y306286D03*
G01X-933930Y464955D03*
G01X-757556Y464955D03*
G01X-757556Y288581D03*
G01X-6959376Y-2895174D03*
G01X-6781576Y-2895174D03*
G01X-6603776Y-2895174D03*
G01X-6425976Y-2895174D03*
G01X-6959376Y-3072974D03*
G01X-6781576Y-3072974D03*
G01X-6603776Y-3072974D03*
G01X-6425976Y-3072974D03*
G01X-6959376Y-3250774D03*
G01X-6781576Y-3250774D03*
G01X-6603776Y-3250774D03*
G01X-6425976Y-3250774D03*
G01X-6280711Y-3134953D03*
G01X-6102911Y-3134953D03*
G01X-5925111Y-3134953D03*
G01X-6280711Y-3312753D03*
G01X-6102911Y-3312753D03*
G01X-5925111Y-3312753D03*
G01X1614921Y-4567603D03*
G01X1792721Y-4567603D03*
G01X1614921Y-4745403D03*
G01X1792721Y-4745403D03*
G01X1614921Y-4923203D03*
G01X1792721Y-4923203D03*
G01X-7803601Y-3312206D03*
G01X-7625801Y-3312206D03*
G01X-7448001Y-3312206D03*
G01X-7803601Y-3134406D03*
G01X-7625801Y-3134406D03*
G01X-7448001Y-3134406D03*
G01X-7761947Y-3926480D03*
G01X-7584147Y-3926480D03*
G01X-7406347Y-3926480D03*
G01X-7751342Y-4533273D03*
G01X-7573542Y-4533273D03*
G01X-7395742Y-4533273D03*
G01X-7751873Y-5187019D03*
G01X-7574073Y-5187019D03*
G01X-7396273Y-5187019D03*
G01X-6544892Y-4875522D03*
G01X-6722692Y-4875522D03*
G01X-6900492Y-4875522D03*
G01X-7069448Y-4248817D03*
G01X-7069448Y-4071017D03*
G01X-5439853Y-4349649D03*
G01X-5439853Y-4171849D03*
G01X-5439853Y-3994049D03*
G01X-5617653Y-4349649D03*
G01X-5617653Y-4171849D03*
G01X-5617653Y-3994049D03*
G01X-4605048Y-5049697D03*
G01X-4427248Y-5049697D03*
G01X-4249448Y-5049697D03*
G01X-4605048Y-4871897D03*
G01X-4427248Y-4871897D03*
G01X-4249448Y-4871897D03*
G01X-2687945Y-4734525D03*
G01X-2687945Y-4582125D03*
G01X-2865745Y-4886925D03*
G01X-2865745Y-4734525D03*
G01X-2865745Y-4582125D03*
G01X-3264953Y-4936412D03*
G01X-3264953Y-4758612D03*
G01X-3264953Y-4580812D03*
G01X-1502911Y-5074089D03*
G01X-1502911Y-4896289D03*
G01X-1502911Y-4718489D03*
G01X-1680711Y-5074089D03*
G01X-1680711Y-4896289D03*
G01X-1680711Y-4718489D03*
G01X-385770Y-4301575D03*
G01X-207970Y-4301575D03*
G01X-30170Y-4301575D03*
G01X-385770Y-4123775D03*
G01X-207970Y-4123775D03*
G01X-30170Y-4123775D03*
G01X228260Y-5113066D03*
G01X406060Y-5113066D03*
G01X583860Y-5113066D03*
G01X1078663Y-4172379D03*
G01X1256463Y-4172379D03*
G01X1434263Y-4172379D03*
G01X1437121Y-4567603D03*
G01X1437121Y-4745403D03*
G01X1437121Y-4923203D03*
G01X1612063Y-4172379D03*
G01X1789863Y-4172379D03*
G01X147630Y-4301575D03*
G01X325430Y-4301575D03*
G01X147630Y-4123775D03*
G01X325430Y-4123775D03*
G01X-130781Y-2195711D03*
G01X47019Y-2195711D03*
G01X224819Y-2195711D03*
G01X-130781Y-2017911D03*
G01X47019Y-2017911D03*
G01X224819Y-2017911D03*
G01X402619Y-2195711D03*
G01X580419Y-2195711D03*
G01X402619Y-2017911D03*
G01X580419Y-2017911D03*
G01X758219Y-2195711D03*
G01X936019Y-2195711D03*
G01X758219Y-2017911D03*
G01X936019Y-2017911D03*
G01X47019Y-2373511D03*
G01X47019Y-2551311D03*
G01X224819Y-2373511D03*
G01X224819Y-2551311D03*
G01X1474157Y-3620942D03*
G01X1474157Y-3443142D03*
G01X1474157Y-3265342D03*
G01X1474157Y-3798742D03*
G01X1762590Y-3620942D03*
G01X1762590Y-3443142D03*
G01X1762590Y-3265342D03*
G01X1762590Y-3798742D03*
G01X1486882Y-2744750D03*
G01X1486882Y-2566950D03*
G01X1486882Y-2389150D03*
G01X1486882Y-2922550D03*
G01X1771073Y-2744750D03*
G01X1771073Y-2566950D03*
G01X1771073Y-2389150D03*
G01X1771073Y-2922550D03*
G01X1493509Y-1551058D03*
G01X1493509Y-1373258D03*
G01X1493509Y-1195458D03*
G01X1493509Y-1728858D03*
G01X1781942Y-1551058D03*
G01X1781942Y-1373258D03*
G01X1781942Y-1195458D03*
G01X1781942Y-1728858D03*
G01X1470180Y-674866D03*
G01X1470180Y-497066D03*
G01X1470180Y-319266D03*
G01X1470180Y-852666D03*
G01X1775580Y-674866D03*
G01X1775580Y-497066D03*
G01X1775580Y-319266D03*
G01X1775580Y-852666D03*
G54D24*
G01X-7070518Y553694D03*
G01X-7070518Y288036D03*
G01X-7258367Y100188D03*
G01X-412657Y741543D03*
G01X-146999Y741543D03*
G01X118659Y741543D03*
G01X384317Y741543D03*
G01X649975Y741543D03*
G01X915633Y741543D03*
G01X1181291Y741543D03*
G01X993443Y553694D03*
G01X993443Y288036D03*
G01X1181291Y100188D03*
G54D23*
G01X1479584Y-2151804D03*
G01X1479584Y-1974004D03*
G01X1301784Y-2151804D03*
G01X1301784Y-1974004D03*
G01X1784008Y-2151804D03*
G01X1784008Y-1974004D03*
G01X-7087948Y-6092304D03*
G01X-7265748Y-6092304D03*
G01X-6898628Y-5654575D03*
G01X-6720828Y-5654575D03*
G01X-6543028Y-5654575D03*
G01X-6898628Y-5476775D03*
G01X-6720828Y-5476775D03*
G01X-6543028Y-5476775D03*
G01X-6245412Y-5658817D03*
G01X-6067612Y-5658817D03*
G01X-5889812Y-5658817D03*
G01X-6245412Y-5481017D03*
G01X-6067612Y-5481017D03*
G01X-5889812Y-5481017D03*
G01X-6898628Y-5832375D03*
G01X-6720828Y-5832375D03*
G01X-6543028Y-5832375D03*
G01X-6245412Y-5836617D03*
G01X-6067612Y-5836617D03*
G01X-5889812Y-5836617D03*
G01X-5534212Y-5481017D03*
G01X-5712012Y-5658817D03*
G01X-5534212Y-5658817D03*
G01X-5712012Y-5481017D03*
G01X-5712012Y-5836617D03*
G01X-5534212Y-5836617D03*
G01X-289364Y-5141907D03*
G01X-467164Y-5141907D03*
G01X-644964Y-5141907D03*
G01X-6291275Y-1356251D03*
G01X-6113475Y-1356251D03*
G01X-5935675Y-1356251D03*
G01X-6291275Y-1178451D03*
G01X-6113475Y-1178451D03*
G01X-5935675Y-1178451D03*
G01X-6911618Y-1435781D03*
G01X-6733818Y-1435781D03*
G01X-6556018Y-1435781D03*
G01X-6911618Y-1257981D03*
G01X-6733818Y-1257981D03*
G01X-6556018Y-1257981D03*
G01X-5653436Y-1159363D03*
G01X-5475636Y-1159363D03*
G01X-5297836Y-1159363D03*
G01X-6790790Y-289118D03*
G01X-6612990Y-289118D03*
G01X-6435190Y-289118D03*
G01X-6939597Y-216660D03*
G01X-6939597Y-38860D03*
G01X-6939597Y138940D03*
G01X183630Y-192463D03*
G01X5830Y-192463D03*
G01X183630Y-370263D03*
G01X5830Y-370263D03*
G01X183630Y-548063D03*
G01X5830Y-548063D03*
G01X-342967Y-194784D03*
G01X-165167Y-194784D03*
G01X-749426Y-461062D03*
G01X-749426Y-283262D03*
G01X561648Y-190458D03*
G01X383848Y-190458D03*
G01X736439Y-192621D03*
G01X914239Y-192621D03*
G01X373032Y-569007D03*
G01X550832Y-569007D03*
G01X751581Y-569007D03*
G01X929381Y-569007D03*
G01X-581182Y464955D03*
G01X-581182Y288581D03*
G01X-404808Y464955D03*
G01X-404808Y288581D03*
G01X-404808Y112207D03*
G01X-244599Y54979D03*
G01X-66799Y54979D03*
G01X104198Y57300D03*
G01X402968Y270899D03*
G01X400647Y441896D03*
G01X1614921Y-5278803D03*
G01X1614921Y-5101003D03*
G01X1792721Y-5101003D03*
G01X1792721Y-5278803D03*
G01X1437121Y-5278803D03*
G01X1437121Y-5101003D03*
G01X1199382Y-5460057D03*
G01X1199382Y-5282257D03*
G01X1199382Y-5637857D03*
G01X1615606Y-5409403D03*
G01X1437806Y-5409403D03*
G01X1793406Y-5409403D03*
G01X1199382Y-5815657D03*
G01X1199382Y-5993457D03*
G01X-4739886Y-1018086D03*
G01X-4739886Y-662486D03*
G01X-4739886Y-840286D03*
G01X-4562086Y-1018086D03*
G01X-4562086Y-840286D03*
G01X-4562086Y-662486D03*
G01X-4786604Y124685D03*
G01X-4431004Y124685D03*
G01X-4608804Y124685D03*
G01X-4786604Y-53115D03*
G01X-4608804Y-53115D03*
G01X-4431004Y-53115D03*
G01X-4075404Y124685D03*
G01X-4253204Y124685D03*
G01X-4253204Y-53115D03*
G01X-4075404Y-53115D03*
G01X-3719804Y124685D03*
G01X-3897604Y124685D03*
G01X-3897604Y-53115D03*
G01X-3542004Y124685D03*
G01X-4608804Y-230915D03*
G01X-4431004Y-230915D03*
G01X-4253204Y-230915D03*
G01X-4075404Y-230915D03*
G01X-3897604Y-230915D03*
G01X-4404239Y-1015171D03*
G01X-4226439Y-1015171D03*
G01X-4404239Y-837371D03*
G01X-4226439Y-837371D03*
G01X-3814031Y-765734D03*
G01X-3814031Y-587934D03*
G01X-3810786Y-964320D03*
G01X-3676428Y-4941557D03*
G01X-3676428Y-4763757D03*
G01X-3676428Y-4585957D03*
G01X-3791074Y-4762017D03*
G01X-3791074Y-4584217D03*
G01X-3791074Y-4406417D03*
G01X-3364936Y-4932905D03*
G01X-3364936Y-4755105D03*
G01X-3364936Y-4577305D03*
G01X-3791074Y-4939817D03*
G01X-4794889Y-5103370D03*
G01X-4972689Y-5103370D03*
G01X-5530990Y-4475849D03*
G01X-5353190Y-4475849D03*
G01X-5353190Y-4653649D03*
G01X-3666466Y-4101676D03*
G01X-3762229Y-4193593D03*
G01X-5218276Y-3912750D03*
G01X-5218276Y-3734950D03*
G01X-4619004Y-2450051D03*
G01X-4698320Y-2447167D03*
G01X-3170414Y-2660152D03*
G01X-2974529Y-2660152D03*
G01X-2974529Y-2825993D03*
G01X-2806885Y-2699886D03*
G01X-2806885Y-2865727D03*
G01X-2701612Y-2756128D03*
G01X-2701612Y-2921969D03*
G01X-6374151Y-394657D03*
G01X-6196351Y-394657D03*
G01X-6374151Y-572457D03*
G01X-6196351Y-572457D03*
G01X-6410925Y-1007037D03*
G01X-6233125Y-1007037D03*
G01X-6162164Y-717176D03*
G01X-5984364Y-717176D03*
G01X-5969644Y-924838D03*
G01X-5791844Y-924838D03*
G01X-2984401Y-971018D03*
G01X-2803717Y-971018D03*
G01X-2985843Y-1084943D03*
G01X-2808043Y-1084943D03*
G01X-2687330Y-1084943D03*
G01X-2509530Y-1084943D03*
G01X-2221774Y-775975D03*
G01X-2043974Y-775975D03*
G01X-2218890Y-647148D03*
G01X-2324002Y-938691D03*
G01X-2146202Y-938691D03*
G01X-2982347Y-749136D03*
G01X-301136Y-2195615D03*
G01X-132411Y-2375156D03*
G01X-314114Y-2370829D03*
G01X-449311Y-3809858D03*
G01X-449311Y-3941809D03*
G01X-306543Y-3939646D03*
G01X-7843673Y-924021D03*
G01X-7843673Y-568421D03*
G01X-7843673Y-746221D03*
G01X-7665873Y-924021D03*
G01X-7665873Y-746221D03*
G01X-7665873Y-568421D03*
G01X-7829728Y-2324654D03*
G01X-7829728Y-1969054D03*
G01X-7829728Y-2146854D03*
G01X-7690028Y-2324654D03*
G01X-7690028Y-2146854D03*
G01X-7690028Y-1969054D03*
G01X-2007734Y-2881421D03*
G01X-1829934Y-2881421D03*
G01X-1829934Y-2703621D03*
G01X-2007734Y-2703621D03*
G01X-1732651Y-2588042D03*
G01X-1910451Y-2588042D03*
G01X-1652134Y-2881421D03*
G01X-2765640Y-3154126D03*
G01X-2943440Y-3154126D03*
G01X-3121240Y-3154126D03*
G01X-2070865Y-3415516D03*
G01X-1945141Y-3289792D03*
G01X-3120708Y-3323596D03*
G01X-992619Y-2829203D03*
G01X-992619Y-3007003D03*
G01X-943078Y-2626080D03*
G01X-2865745Y-5064725D03*
G01X-2457598Y-3357333D03*
G01X-2283585Y-3517886D03*
G01X-3017833Y-3323783D03*
G01X-2095975Y-2519015D03*
G01X-2079191Y-2188815D03*
G01X-1983051Y-2238808D03*
G01X-1032231Y-4987477D03*
G01X-1032231Y-5083616D03*
G01X-3138168Y-4744705D03*
G01X-3138168Y-4859431D03*
G01X-3138168Y-4608186D03*
G01X-6237350Y-2439890D03*
G01X-6127110Y-2439890D03*
G01X-5991874Y-2439890D03*
G01X-4149311Y-2432605D03*
G01X-151489Y-3706481D03*
G01X-151489Y-3806700D03*
G01X-149687Y-1620186D03*
G01X-149687Y-1718249D03*
G01X-2719297Y-4494623D03*
G01X-2919296Y-4493982D03*
G01X-4836339Y-4513412D03*
G01X-4836339Y-4413412D03*
G01X-4736339Y-4413412D03*
G01X-4736339Y-4513412D03*
G04 Via End*

M02*

