G04 Layer: BottomSolderMaskLayer*
G04 EasyEDA Pro v3.2.149.88089769, 2026-09-01 22:31:21*
G04 Gerber Generator version 0.3*
G04 Scale: 100 percent, Rotated: No, Reflected: No*
G04 Dimensions in millimeters*
G04 Leading zeros omitted, absolute positions, 4 integers and 5 decimals*
G04 Generated by one-click*
G04 Object Configs: Pad,Via,Track,Text,Image,Dimension,BoardOutline,BoardCutout,CopperFilled,SolidRegion,FPCStiffener,Line,PlaneZone,ComponentProperty,ComponentSilkscreen,TearDrop*
G04 Layer Configs: 1,15,16,2,3,4,5,6,7,8,9,10,11,13,14,56*
G04 Copper Areas: 0*
%FSLAX45Y45*%
%MOMM*%
%AMRoundRect*1,1,$1,$2,$3*1,1,$1,$4,$5*1,1,$1,0-$2,0-$3*1,1,$1,0-$4,0-$5*20,1,$1,$2,$3,$4,$5,0*20,1,$1,$4,$5,0-$2,0-$3,0*20,1,$1,0-$2,0-$3,0-$4,0-$5,0*20,1,$1,0-$4,0-$5,$2,$3,0*4,1,4,$2,$3,$4,$5,0-$2,0-$3,0-$4,0-$5,$2,$3,0*%
%ADD10RoundRect,0.1016X-0.675X-0.705X-0.675X0.705*%
%ADD11RoundRect,0.1016X-0.705X0.67501X0.705X0.67501*%
%ADD12RoundRect,0.1016X0.02121X-0.97581X-0.97581X0.02121*%
%ADD13RoundRect,0.1016X-0.97581X-0.02121X0.02121X0.97581*%
%ADD14C,2.5016*%
%ADD15RoundRect,0.1086X-0.415X-0.315X-0.415X0.315*%
%ADD16RoundRect,0.10003X-0.415X-0.315X-0.415X0.315*%
%ADD17RoundRect,0.1016X-0.68851X-0.56627X-0.68851X0.56627*%
%ADD18RoundRect,0.1016X-0.9X0.9X0.9X0.9*%
%ADD19C,1.9016*%
%ADD20C,6.20268*%
%ADD21C,1.20396*%
%ADD22RoundRect,0.1016X-0.5X0.32501X0.5X0.32501*%
%ADD23RoundRect,0.1016X-0.56627X0.68851X0.56627X0.68851*%
%ADD24O,2.10002X1.20002*%
%ADD25O,1.90002X1.30002*%
%ADD26RoundRect,0.1016X-0.85X0.85X0.85X0.85*%
%ADD27C,1.8016*%
%ADD28O,1.9016X1.3016*%
%ADD29O,2.1016X1.3016*%
%ADD30RoundRect,0.10003X-0.8X0.8X0.8X0.8*%
%ADD31C,1.70002*%
G75*


G04 Pad Start*
G54D10*
G01X-6135670Y-3905251D03*
G01X-6135670Y-3705251D03*
G01X-6369519Y-3905251D03*
G01X-6369519Y-3705251D03*
G54D11*
G01X-7609204Y-4769645D03*
G01X-7409204Y-4769645D03*
G01X-2729331Y-4055855D03*
G01X-2929331Y-4055855D03*
G01X-4618663Y-2782022D03*
G01X-4418664Y-2782022D03*
G54D10*
G01X-2734609Y-155180D03*
G01X-2734609Y44820D03*
G54D11*
G01X-7609204Y-4128125D03*
G01X-7409204Y-4128125D03*
G01X-5428725Y-3015668D03*
G01X-5228726Y-3015668D03*
G54D12*
G01X-3911037Y-2523856D03*
G01X-3769616Y-2665277D03*
G01X-4056610Y-2659757D03*
G01X-3915189Y-2801179D03*
G01X-1835762Y-3817636D03*
G01X-1694341Y-3959057D03*
G01X-1498798Y-3473070D03*
G01X-1357377Y-3614491D03*
G01X-1337387Y-2674629D03*
G01X-1478808Y-2533208D03*
G01X-1774714Y-2091952D03*
G01X-1633293Y-2233373D03*
G54D10*
G01X-280094Y-4776221D03*
G01X-280094Y-4976220D03*
G54D11*
G01X226230Y-4893232D03*
G01X26231Y-4893232D03*
G54D12*
G01X-2078652Y-1619638D03*
G01X-1937231Y-1761059D03*
G54D13*
G01X-2781235Y-1440794D03*
G01X-2639814Y-1299373D03*
G54D12*
G01X-3108377Y-2008522D03*
G01X-2966955Y-2149943D03*
G54D13*
G01X-3381004Y-3083102D03*
G01X-3239583Y-2941681D03*
G54D11*
G01X-2859632Y-3405613D03*
G01X-2659632Y-3405613D03*
G01X-4640352Y-3530351D03*
G01X-4840351Y-3530351D03*
G01X-6414919Y-1646242D03*
G01X-6214919Y-1646242D03*
G54D14*
G01X1184594Y-3722542D03*
G01X1184594Y-3341542D03*
G01X1184594Y-2846350D03*
G01X1184594Y-2465350D03*
G01X1184594Y-776466D03*
G01X1184594Y-395466D03*
G01X1184594Y-1652658D03*
G01X1184594Y-1271658D03*
G01X1184594Y-4916235D03*
G01X1184594Y-4535235D03*
G54D16*
G01X-1974221Y-4788653D03*
G01X-2202211Y-4788653D03*
G54D17*
G01X-2501604Y-156607D03*
G01X-2501604Y36636D03*
G54D18*
G01X-5867843Y-5082174D03*
G54D19*
G01X-6121843Y-5082174D03*
G01X-6375843Y-5082174D03*
G01X-6629843Y-5082174D03*
G01X-6883843Y-5082174D03*
G54D20*
G01X-7618722Y407483D03*
G54D21*
G01X-7618722Y642433D03*
G01X-7618722Y172533D03*
G01X-7383772Y407483D03*
G01X-7853672Y407483D03*
G01X-7453622Y572583D03*
G01X-7783822Y242383D03*
G01X-7453622Y242383D03*
G01X-7783822Y572583D03*
G54D20*
G01X-7618722Y-5792517D03*
G54D21*
G01X-7618722Y-5557567D03*
G01X-7618722Y-6027467D03*
G01X-7383772Y-5792517D03*
G01X-7853672Y-5792517D03*
G01X-7453622Y-5627417D03*
G01X-7783822Y-5957617D03*
G01X-7453622Y-5957617D03*
G01X-7783822Y-5627417D03*
G54D20*
G01X1581278Y-5792517D03*
G54D21*
G01X1581278Y-5557567D03*
G01X1581278Y-6027467D03*
G01X1816228Y-5792517D03*
G01X1346328Y-5792517D03*
G01X1746378Y-5627417D03*
G01X1416178Y-5957617D03*
G01X1746378Y-5957617D03*
G01X1416178Y-5627417D03*
G54D22*
G01X231077Y-3498862D03*
G01X231077Y-3308870D03*
G01X431077Y-3403866D03*
G01X230802Y-3880666D03*
G01X230802Y-3690674D03*
G01X430802Y-3785670D03*
G01X231077Y-1428977D03*
G01X231077Y-1238985D03*
G01X431077Y-1333981D03*
G01X230802Y-1810781D03*
G01X230802Y-1620789D03*
G01X430802Y-1715785D03*
G01X-6121372Y-2145561D03*
G01X-6121372Y-2335553D03*
G01X-6321371Y-2240557D03*
G01X-6123578Y-2551974D03*
G01X-6123578Y-2741966D03*
G01X-6323577Y-2646970D03*
G54D23*
G01X-7726157Y-3558884D03*
G01X-7526157Y-3558884D03*
G01X-7429450Y-4980302D03*
G01X-7629450Y-4980302D03*
G54D17*
G01X43964Y-3304677D03*
G01X43964Y-3504676D03*
G01X43689Y-3686481D03*
G01X43689Y-3886480D03*
G54D23*
G01X-7429450Y-4337334D03*
G01X-7629450Y-4337334D03*
G54D17*
G01X43964Y-1234792D03*
G01X43964Y-1434792D03*
G01X43689Y-1616596D03*
G01X43689Y-1816596D03*
G01X-7553615Y-2046044D03*
G01X-7553615Y-1846045D03*
G01X-5552283Y-5076803D03*
G01X-5552283Y-4876804D03*
G54D23*
G01X-7319987Y-2944167D03*
G01X-7519987Y-2944167D03*
G01X-2080098Y441058D03*
G01X-2280098Y441058D03*
G01X-2662207Y441058D03*
G01X-2462207Y441058D03*
G54D17*
G01X-7553615Y-2234915D03*
G01X-7553615Y-2434914D03*
G01X-5950637Y-2317064D03*
G01X-5950637Y-2117064D03*
G01X-5952843Y-2757762D03*
G01X-5952843Y-2557763D03*
G54D24*
G01X-7330735Y-1697920D03*
G01X-7330735Y-2562917D03*
G54D25*
G01X-7750749Y-1697920D03*
G01X-7750749Y-2562917D03*
G54D17*
G01X-7540275Y-670716D03*
G01X-7540275Y-470716D03*
G01X-7540275Y-1057086D03*
G01X-7540275Y-857086D03*
G54D26*
G01X-6763367Y327610D03*
G54D27*
G01X-6763367Y581610D03*
G01X-6509367Y327610D03*
G01X-6509367Y581610D03*
G01X-6255367Y327610D03*
G01X-6255367Y581610D03*
G01X-6001367Y327610D03*
G01X-6001367Y581610D03*
G54D28*
G01X-7742632Y-330468D03*
G01X-7742632Y-1194475D03*
G54D29*
G01X-7324624Y-1194475D03*
G01X-7324624Y-330468D03*
G54D19*
G01X838462Y-5719488D03*
G01X838462Y-5973488D03*
G01X584462Y-5719488D03*
G01X584462Y-5973488D03*
G01X330462Y-5719488D03*
G01X330462Y-5973488D03*
G01X76462Y-5719488D03*
G01X76462Y-5973488D03*
G01X-177538Y-5719488D03*
G01X-177538Y-5973488D03*
G01X-431538Y-5719488D03*
G01X-431538Y-5973488D03*
G01X-685538Y-5719488D03*
G01X-685538Y-5973488D03*
G01X-939538Y-5719488D03*
G01X-939538Y-5973488D03*
G01X-1193538Y-5719488D03*
G01X-1193538Y-5973488D03*
G01X-1447538Y-5719488D03*
G01X-1447538Y-5973488D03*
G01X-1701538Y-5719488D03*
G01X-1701538Y-5973488D03*
G01X-1955538Y-5719488D03*
G01X-1955538Y-5973488D03*
G01X-2209538Y-5719488D03*
G01X-2209538Y-5973488D03*
G01X-2463538Y-5719488D03*
G01X-2463538Y-5973488D03*
G01X-2717538Y-5719488D03*
G01X-2717538Y-5973488D03*
G01X-2971538Y-5719488D03*
G01X-2971538Y-5973488D03*
G01X-3225538Y-5719488D03*
G01X-3225538Y-5973488D03*
G01X-3479538Y-5719488D03*
G01X-3479538Y-5973488D03*
G01X-3733538Y-5719488D03*
G01X-3733538Y-5973488D03*
G01X-3987538Y-5719488D03*
G01X-3987538Y-5973488D03*
G01X-4241538Y-5719488D03*
G01X-4241538Y-5973488D03*
G01X-4495538Y-5719488D03*
G01X-4495538Y-5973488D03*
G01X-4749538Y-5719488D03*
G01X-4749538Y-5973488D03*
G01X-5003538Y-5719488D03*
G01X-5003538Y-5973488D03*
G01X-5257538Y-5719488D03*
G54D18*
G01X-5257538Y-5973488D03*
G54D20*
G01X1581278Y407483D03*
G54D21*
G01X1581278Y642433D03*
G01X1581278Y172533D03*
G01X1816228Y407483D03*
G01X1346328Y407483D03*
G01X1746378Y572583D03*
G01X1416178Y242383D03*
G01X1746378Y242383D03*
G01X1416178Y572583D03*
G54D23*
G01X-2618441Y-4952624D03*
G01X-2418441Y-4952624D03*
G01X597815Y-3444469D03*
G01X797815Y-3444469D03*
G01X597541Y-3750073D03*
G01X797540Y-3750073D03*
G01X46477Y-4502752D03*
G01X246477Y-4502752D03*
G01X597815Y-1374585D03*
G01X797815Y-1374585D03*
G01X597541Y-1680189D03*
G01X797540Y-1680189D03*
G01X-6530321Y-2301468D03*
G01X-6730321Y-2301468D03*
G01X-6532527Y-2586058D03*
G01X-6732527Y-2586058D03*
G54D30*
G01X-798740Y77904D03*
G54D31*
G01X-1048727Y77904D03*
G01X-1298739Y77904D03*
G01X-1548752Y77904D03*
G54D11*
G01X-6621066Y-3462763D03*
G01X-6821066Y-3462763D03*
G54D10*
G01X-6827065Y-3697350D03*
G01X-6827065Y-3897349D03*
G54D11*
G01X-1982936Y-4951276D03*
G01X-2182936Y-4951276D03*
G54D19*
G01X-1738693Y-4531967D03*
G01X-688708Y-4531967D03*
G54D10*
G01X-2012115Y44820D03*
G01X-2012115Y-155180D03*
G01X-2258076Y-155180D03*
G01X-2258076Y44820D03*
G54D13*
G01X-2149968Y-1367557D03*
G01X-2291389Y-1508978D03*
G04 Pad End*

M02*

