G04 Layer: TopSolderMaskLayer*
G04 EasyEDA Pro v3.2.149.88089769, 2026-09-01 22:31:21*
G04 Gerber Generator version 0.3*
G04 Scale: 100 percent, Rotated: No, Reflected: No*
G04 Dimensions in millimeters*
G04 Leading zeros omitted, absolute positions, 4 integers and 5 decimals*
G04 Generated by one-click*
G04 Object Configs: Pad,Via,Track,Text,Image,Dimension,BoardOutline,BoardCutout,CopperFilled,SolidRegion,FPCStiffener,Line,PlaneZone,ComponentProperty,ComponentSilkscreen,TearDrop*
G04 Layer Configs: 1,15,16,2,3,4,5,6,7,8,9,10,11,13,14,56*
G04 Copper Areas: 0*
%FSLAX45Y45*%
%MOMM*%
%AMRoundRect*1,1,$1,$2,$3*1,1,$1,$4,$5*1,1,$1,0-$2,0-$3*1,1,$1,0-$4,0-$5*20,1,$1,$2,$3,$4,$5,0*20,1,$1,$4,$5,0-$2,0-$3,0*20,1,$1,0-$2,0-$3,0-$4,0-$5,0*20,1,$1,0-$4,0-$5,$2,$3,0*4,1,4,$2,$3,$4,$5,0-$2,0-$3,0-$4,0-$5,$2,$3,0*%
%AMOval*1,1,$1,$2,$3*1,1,$1,$4,$5*20,1,$1,$2,$3,$4,$5,0*%
%ADD10RoundRect,0.1016X-0.52501X0.35X0.52501X0.35*%
%ADD11RoundRect,0.1016X-0.705X0.67501X0.705X0.67501*%
%ADD12RoundRect,0.1016X-0.675X-0.705X-0.675X0.705*%
%ADD13C,2.5016*%
%ADD14RoundRect,0.1016X-0.536X-0.266X-0.536X0.266*%
%ADD15RoundRect,0.1016X-0.5X0.32501X0.5X0.32501*%
%ADD16RoundRect,0.1016X-0.9X0.9X0.9X0.9*%
%ADD17C,1.9016*%
%ADD18RoundRect,0.1016X-0.75X1.5X0.75X1.5*%
%ADD19RoundRect,0.1016X-0.5X0.69977X0.5X0.69977*%
%ADD20RoundRect,0.1016X-0.5X0.69977X0.5X0.69977*%
%ADD21RoundRect,0.1016X-0.62501X-0.5X-0.62501X0.5*%
%ADD22RoundRect,0.1016X-0.75X0.5X0.75X0.5*%
%ADD23RoundRect,0.10003X-0.47501X0.47501X0.47501X0.47501*%
%ADD24RoundRect,0.10003X-0.25X0.25X0.25X0.25*%
%ADD25C,6.20268*%
%ADD26C,1.20396*%
%ADD27RoundRect,0.1016X-0.56627X0.68851X0.56627X0.68851*%
%ADD28RoundRect,0.1016X-0.68851X-0.56627X-0.68851X0.56627*%
%ADD29C,1.9*%
%ADD30RoundRect,0.10003X-0.55X-0.27501X-0.55X0.27501*%
%ADD31RoundRect,0.10003X-0.55X-0.15X-0.55X0.15*%
%ADD32O,2.10002X1.20002*%
%ADD33O,1.90002X1.30002*%
%ADD34Oval,0.38161X-0.60811X-0.60811X0.60811X0.60811*%
%ADD35Oval,0.38161X0.60811X-0.60811X-0.60811X0.60811*%
%ADD36RoundRect,0.10201X-0.55X0.3X0.55X0.3*%
%ADD37O,1.5016X0.66159*%
%ADD38RoundRect,0.1016X-1.7X-2.15X-1.7X2.15*%
%ADD39O,1.9016X0.6016*%
%ADD40O,1.9016X0.68961*%
%ADD41RoundRect,0.1016X-0.85X0.85X0.85X0.85*%
%ADD42C,1.8016*%
%ADD43O,1.9666X0.7316*%
%ADD44O,0.67X2.05181*%
%ADD45RoundRect,0.1X-0.65X-0.15X-0.65X0.15*%
%ADD46O,1.9016X1.3016*%
%ADD47O,2.1016X1.3016*%
%ADD48RoundRect,0.10003X-1.0X0.5X1.0X0.5*%
%ADD49RoundRect,0.10003X-0.35X0.35X0.35X0.35*%
%ADD50RoundRect,0.1016X0.08838X-0.90156X-0.90156X0.08838*%
%ADD51RoundRect,0.1016X-0.98995X-0.28284X0.28284X0.98995*%
%ADD52RoundRect,0.10003X-0.8X0.8X0.8X0.8*%
%ADD53C,1.70002*%
%ADD54RoundRect,0.1016X0.02121X-0.97581X-0.97581X0.02121*%
G75*


G04 Pad Start*
G54D10*
G01X-7724209Y-3555616D03*
G01X-7304195Y-3555616D03*
G01X-7724209Y-3770602D03*
G01X-7304195Y-3770602D03*
G54D11*
G01X-5125442Y-4921818D03*
G01X-4925443Y-4921818D03*
G01X-2390493Y-453386D03*
G01X-2590492Y-453386D03*
G01X-2390493Y-654984D03*
G01X-2590492Y-654984D03*
G54D12*
G01X-4117583Y-1594252D03*
G01X-4117583Y-1794252D03*
G54D11*
G01X-2163733Y-451738D03*
G01X-1963733Y-451738D03*
G01X-500029Y-2526378D03*
G01X-300029Y-2526378D03*
G54D12*
G01X-5618329Y37725D03*
G01X-5618329Y-162275D03*
G01X-5409849Y37725D03*
G01X-5409849Y-162275D03*
G01X-5408500Y-484421D03*
G01X-5408500Y-684421D03*
G54D11*
G01X-500029Y-456494D03*
G01X-300029Y-456494D03*
G54D12*
G01X-3818634Y-2054054D03*
G01X-3818634Y-1854054D03*
G54D13*
G01X1184594Y-3722542D03*
G01X1184594Y-3341542D03*
G01X1184594Y-2846350D03*
G01X1184594Y-2465350D03*
G01X1184594Y-776466D03*
G01X1184594Y-395466D03*
G01X1184594Y-1652658D03*
G01X1184594Y-1271658D03*
G01X1184594Y-4916235D03*
G01X1184594Y-4535235D03*
G54D14*
G01X-6568638Y-854857D03*
G01X-6568638Y-759861D03*
G01X-6568638Y-664865D03*
G01X-6798457Y-664865D03*
G01X-6798457Y-759861D03*
G01X-6798457Y-854857D03*
G54D15*
G01X864483Y-3032670D03*
G01X864483Y-2842678D03*
G01X664483Y-2937674D03*
G01X864483Y-962786D03*
G01X864483Y-772794D03*
G01X664483Y-867790D03*
G01X884277Y-4798776D03*
G01X884277Y-4608784D03*
G01X684278Y-4703780D03*
G54D16*
G01X-5867843Y-5082174D03*
G54D17*
G01X-6121843Y-5082174D03*
G01X-6375843Y-5082174D03*
G01X-6629843Y-5082174D03*
G01X-6883843Y-5082174D03*
G54D10*
G01X-7724209Y-4165318D03*
G01X-7304195Y-4165318D03*
G01X-7724209Y-4380304D03*
G01X-7304195Y-4380304D03*
G54D18*
G01X-6844963Y-4442253D03*
G01X-6274962Y-4442253D03*
G54D20*
G01X593703Y-3442379D03*
G01X803761Y-3442379D03*
G01X593428Y-3747982D03*
G01X803486Y-3747982D03*
G01X593703Y-1372494D03*
G01X803761Y-1372494D03*
G01X-6514507Y-2302481D03*
G01X-6724565Y-2302481D03*
G01X593428Y-1678098D03*
G01X803486Y-1678098D03*
G01X-6516713Y-2587071D03*
G01X-6726771Y-2587071D03*
G54D21*
G01X-5555070Y-5093130D03*
G01X-5555070Y-4873115D03*
G54D20*
G01X-7525527Y-2939885D03*
G01X-7735585Y-2939885D03*
G54D22*
G01X666807Y207682D03*
G01X666807Y507656D03*
G01X166808Y507656D03*
G01X166808Y207682D03*
G54D23*
G01X-2514085Y628217D03*
G54D24*
G01X-2406593Y605713D03*
G01X-2326583Y605713D03*
G54D23*
G01X-2219090Y628217D03*
G54D25*
G01X-7618722Y407483D03*
G54D26*
G01X-7618722Y642433D03*
G01X-7618722Y172533D03*
G01X-7383772Y407483D03*
G01X-7853672Y407483D03*
G01X-7453622Y572583D03*
G01X-7783822Y242383D03*
G01X-7453622Y242383D03*
G01X-7783822Y572583D03*
G54D25*
G01X-7618722Y-5792517D03*
G54D26*
G01X-7618722Y-5557567D03*
G01X-7618722Y-6027467D03*
G01X-7383772Y-5792517D03*
G01X-7853672Y-5792517D03*
G01X-7453622Y-5627417D03*
G01X-7783822Y-5957617D03*
G01X-7453622Y-5957617D03*
G01X-7783822Y-5627417D03*
G54D25*
G01X1581278Y-5792517D03*
G54D26*
G01X1581278Y-5557567D03*
G01X1581278Y-6027467D03*
G01X1816228Y-5792517D03*
G01X1346328Y-5792517D03*
G01X1746378Y-5627417D03*
G01X1416178Y-5957617D03*
G01X1746378Y-5957617D03*
G01X1416178Y-5627417D03*
G54D27*
G01X-6779278Y-464808D03*
G01X-6579278Y-464808D03*
G01X-6779278Y-1074690D03*
G01X-6579278Y-1074690D03*
G54D28*
G01X-6365626Y-3708632D03*
G01X-6365626Y-3908632D03*
G01X-274039Y-3314221D03*
G01X-274039Y-3514221D03*
G01X-6142368Y-3708632D03*
G01X-6142368Y-3908632D03*
G54D27*
G01X296647Y-2822641D03*
G01X96648Y-2822641D03*
G01X296647Y-3025029D03*
G01X96648Y-3025029D03*
G54D28*
G01X-45454Y-3314221D03*
G01X-45454Y-3514221D03*
G01X183130Y-3314221D03*
G01X183130Y-3514221D03*
G01X497653Y-3030852D03*
G01X497653Y-2830852D03*
G01X-274039Y-1244337D03*
G01X-274039Y-1444336D03*
G01X-2910106Y143772D03*
G01X-2910106Y-56228D03*
G54D27*
G01X296647Y-752756D03*
G01X96648Y-752756D03*
G01X296647Y-955145D03*
G01X96648Y-955145D03*
G54D28*
G01X-45454Y-1244337D03*
G01X-45454Y-1444336D03*
G01X183130Y-1244337D03*
G01X183130Y-1444336D03*
G01X497653Y-960967D03*
G01X497653Y-760968D03*
G01X475282Y-4805518D03*
G01X475282Y-4605518D03*
G01X-2693486Y140244D03*
G01X-2693486Y-59756D03*
G01X-172700Y413021D03*
G01X-172700Y213021D03*
G54D10*
G01X-7724209Y-4775020D03*
G01X-7304195Y-4775020D03*
G01X-7724209Y-4990006D03*
G01X-7304195Y-4990006D03*
G54D29*
G01X-2607918Y426480D03*
G01X-5993460Y-4438789D03*
G01X-7101826Y-2717970D03*
G54D30*
G01X-7275744Y-1810416D03*
G01X-7275744Y-1890426D03*
G54D31*
G01X-7275744Y-1955425D03*
G01X-7275744Y-2005437D03*
G01X-7275744Y-2055425D03*
G01X-7275744Y-2105412D03*
G01X-7275744Y-2155424D03*
G01X-7275744Y-2205412D03*
G01X-7275744Y-2255424D03*
G01X-7275744Y-2305437D03*
G54D30*
G01X-7275744Y-2370435D03*
G01X-7275744Y-2450420D03*
G54D32*
G01X-7330735Y-1697920D03*
G01X-7330735Y-2562917D03*
G54D33*
G01X-7750749Y-1697920D03*
G01X-7750749Y-2562917D03*
G54D34*
G01X-1163155Y-2547582D03*
G01X-1198519Y-2512217D03*
G01X-1233865Y-2476871D03*
G01X-1269229Y-2441507D03*
G01X-1304576Y-2406161D03*
G01X-1339940Y-2370796D03*
G01X-1375286Y-2335450D03*
G01X-1410650Y-2300086D03*
G01X-1445997Y-2264740D03*
G01X-1481361Y-2229375D03*
G01X-1516707Y-2194029D03*
G01X-1552072Y-2158665D03*
G01X-1587418Y-2123318D03*
G01X-1622782Y-2087954D03*
G01X-1658128Y-2052608D03*
G01X-1693493Y-2017244D03*
G01X-1728839Y-1981897D03*
G01X-1764203Y-1946533D03*
G01X-1799549Y-1911187D03*
G01X-1834914Y-1875823D03*
G01X-1870260Y-1840476D03*
G01X-1905624Y-1805112D03*
G01X-1940971Y-1769766D03*
G01X-1976335Y-1734402D03*
G01X-2011681Y-1699055D03*
G01X-2047045Y-1663691D03*
G01X-2082392Y-1628345D03*
G01X-2117756Y-1592980D03*
G01X-2153102Y-1557634D03*
G01X-2188466Y-1522270D03*
G01X-2223813Y-1486924D03*
G01X-2259177Y-1451559D03*
G01X-2294523Y-1416213D03*
G01X-2329887Y-1380849D03*
G01X-2365234Y-1345503D03*
G01X-2400598Y-1310138D03*
G54D35*
G01X-2690517Y-1310138D03*
G01X-2725881Y-1345503D03*
G01X-2761227Y-1380849D03*
G01X-2796591Y-1416213D03*
G01X-2831938Y-1451559D03*
G01X-2867302Y-1486924D03*
G01X-2902648Y-1522270D03*
G01X-2938012Y-1557634D03*
G01X-2973359Y-1592980D03*
G01X-3008723Y-1628345D03*
G01X-3044069Y-1663691D03*
G01X-3079433Y-1699055D03*
G01X-3114780Y-1734402D03*
G01X-3150144Y-1769766D03*
G01X-3185490Y-1805112D03*
G01X-3220855Y-1840476D03*
G01X-3256201Y-1875823D03*
G01X-3291565Y-1911187D03*
G01X-3326911Y-1946533D03*
G01X-3362276Y-1981897D03*
G01X-3397622Y-2017244D03*
G01X-3432986Y-2052608D03*
G01X-3468332Y-2087954D03*
G01X-3503697Y-2123318D03*
G01X-3539043Y-2158665D03*
G01X-3574407Y-2194029D03*
G01X-3609754Y-2229375D03*
G01X-3645118Y-2264740D03*
G01X-3680464Y-2300086D03*
G01X-3715828Y-2335450D03*
G01X-3751175Y-2370796D03*
G01X-3786539Y-2406161D03*
G01X-3821885Y-2441507D03*
G01X-3857249Y-2476871D03*
G01X-3892596Y-2512217D03*
G01X-3927960Y-2547582D03*
G54D34*
G01X-3927960Y-2837500D03*
G01X-3892596Y-2872865D03*
G01X-3857249Y-2908211D03*
G01X-3821885Y-2943575D03*
G01X-3786539Y-2978921D03*
G01X-3751175Y-3014286D03*
G01X-3715828Y-3049632D03*
G01X-3680464Y-3084996D03*
G01X-3645118Y-3120342D03*
G01X-3609754Y-3155707D03*
G01X-3574407Y-3191053D03*
G01X-3539043Y-3226417D03*
G01X-3503697Y-3261763D03*
G01X-3468332Y-3297128D03*
G01X-3432986Y-3332474D03*
G01X-3397622Y-3367838D03*
G01X-3362276Y-3403185D03*
G01X-3326911Y-3438549D03*
G01X-3291565Y-3473895D03*
G01X-3256201Y-3509259D03*
G01X-3220855Y-3544606D03*
G01X-3185490Y-3579970D03*
G01X-3150144Y-3615316D03*
G01X-3114780Y-3650680D03*
G01X-3079433Y-3686027D03*
G01X-3044069Y-3721391D03*
G01X-3008723Y-3756737D03*
G01X-2973359Y-3792101D03*
G01X-2938012Y-3827448D03*
G01X-2902648Y-3862812D03*
G01X-2867302Y-3898158D03*
G01X-2831938Y-3933523D03*
G01X-2796591Y-3968869D03*
G01X-2761227Y-4004233D03*
G01X-2725881Y-4039579D03*
G01X-2690517Y-4074944D03*
G54D35*
G01X-2400598Y-4074944D03*
G01X-2365234Y-4039579D03*
G01X-2329887Y-4004233D03*
G01X-2294523Y-3968869D03*
G01X-2259177Y-3933523D03*
G01X-2223813Y-3898158D03*
G01X-2188466Y-3862812D03*
G01X-2153102Y-3827448D03*
G01X-2117756Y-3792101D03*
G01X-2082392Y-3756737D03*
G01X-2047045Y-3721391D03*
G01X-2011681Y-3686027D03*
G01X-1976335Y-3650680D03*
G01X-1940971Y-3615316D03*
G01X-1905624Y-3579970D03*
G01X-1870260Y-3544606D03*
G01X-1834914Y-3509259D03*
G01X-1799549Y-3473895D03*
G01X-1764203Y-3438549D03*
G01X-1728839Y-3403185D03*
G01X-1693493Y-3367838D03*
G01X-1658128Y-3332474D03*
G01X-1622782Y-3297128D03*
G01X-1587418Y-3261763D03*
G01X-1552072Y-3226417D03*
G01X-1516707Y-3191053D03*
G01X-1481361Y-3155707D03*
G01X-1445997Y-3120342D03*
G01X-1410650Y-3084996D03*
G01X-1375286Y-3049632D03*
G01X-1339940Y-3014286D03*
G01X-1304576Y-2978921D03*
G01X-1269229Y-2943575D03*
G01X-1233865Y-2908211D03*
G01X-1198519Y-2872865D03*
G01X-1163155Y-2837500D03*
G54D36*
G01X-6826682Y-3929112D03*
G01X-6826682Y-3834116D03*
G01X-6826682Y-3739120D03*
G01X-6556680Y-3739120D03*
G01X-6556680Y-3834116D03*
G01X-6556680Y-3929112D03*
G54D37*
G01X-4383609Y-4653924D03*
G01X-4383609Y-4526924D03*
G01X-4383609Y-4399924D03*
G01X-4383609Y-4272924D03*
G01X-5189094Y-4272924D03*
G01X-5189094Y-4399924D03*
G01X-5189094Y-4526924D03*
G01X-5189094Y-4653924D03*
G54D38*
G01X-4786352Y-4463424D03*
G54D39*
G01X-4415302Y-3656332D03*
G01X-4415302Y-3576322D03*
G01X-4415302Y-3496338D03*
G01X-4415302Y-3416328D03*
G01X-4415302Y-3336318D03*
G01X-4415302Y-3256333D03*
G01X-4415302Y-3176323D03*
G01X-4415302Y-3096338D03*
G01X-4415302Y-3016328D03*
G01X-4415302Y-2936318D03*
G01X-4415302Y-2856334D03*
G01X-4415302Y-2776324D03*
G01X-4415302Y-2696339D03*
G01X-4415302Y-2616329D03*
G01X-4415302Y-2536319D03*
G01X-4415302Y-2456335D03*
G01X-4415302Y-2376325D03*
G01X-4415302Y-2296340D03*
G01X-4415302Y-2216330D03*
G01X-4415302Y-2136320D03*
G01X-4415302Y-2056335D03*
G01X-4415302Y-1976325D03*
G01X-4415302Y-1896315D03*
G01X-4415302Y-1816331D03*
G01X-4415302Y-1736321D03*
G01X-4415302Y-1656336D03*
G01X-4415302Y-1576326D03*
G01X-5543722Y-3656332D03*
G01X-5543722Y-3576322D03*
G01X-5543722Y-3496338D03*
G01X-5543722Y-3416328D03*
G01X-5543722Y-3336318D03*
G01X-5543722Y-3256333D03*
G01X-5543722Y-3176323D03*
G01X-5543722Y-3096338D03*
G01X-5543722Y-3016328D03*
G01X-5543722Y-2936318D03*
G01X-5543722Y-2856334D03*
G01X-5543722Y-2776324D03*
G01X-5543722Y-2696339D03*
G01X-5543722Y-2616329D03*
G01X-5543722Y-2536319D03*
G01X-5543722Y-2456335D03*
G01X-5543722Y-2376325D03*
G01X-5543722Y-2296340D03*
G01X-5543722Y-2216330D03*
G01X-5543722Y-2136320D03*
G01X-5543722Y-2056335D03*
G01X-5543722Y-1976325D03*
G01X-5543722Y-1896315D03*
G01X-5543722Y-1816331D03*
G01X-5543722Y-1736321D03*
G01X-5543722Y-1656336D03*
G01X-5543722Y-1576326D03*
G54D40*
G01X-653134Y-2970852D03*
G01X-653134Y-2843852D03*
G01X-653134Y-2716852D03*
G01X-133146Y-3097852D03*
G01X-133146Y-2970852D03*
G01X-133146Y-2843852D03*
G01X-133146Y-2716852D03*
G01X-653134Y-3097852D03*
G54D41*
G01X-6763367Y327610D03*
G54D42*
G01X-6763367Y581610D03*
G01X-6509367Y327610D03*
G01X-6509367Y581610D03*
G01X-6255367Y327610D03*
G01X-6255367Y581610D03*
G01X-6001367Y327610D03*
G01X-6001367Y581610D03*
G54D40*
G01X-653134Y-900967D03*
G01X-653134Y-773967D03*
G01X-653134Y-646967D03*
G01X-133146Y-1027967D03*
G01X-133146Y-900967D03*
G01X-133146Y-773967D03*
G01X-133146Y-646967D03*
G01X-653134Y-1027967D03*
G54D43*
G01X-6745879Y-1622266D03*
G01X-6745879Y-1749266D03*
G01X-6745879Y-1876266D03*
G01X-6745879Y-2003266D03*
G01X-6209380Y-1622266D03*
G01X-6209380Y-1749266D03*
G01X-6209380Y-1876266D03*
G01X-6209380Y-2003266D03*
G54D44*
G01X-2052163Y359724D03*
G01X-2179163Y359724D03*
G01X-2306163Y359724D03*
G01X-2433163Y359724D03*
G01X-2052163Y-181296D03*
G01X-2179163Y-181296D03*
G01X-2306163Y-181296D03*
G01X-2433163Y-181296D03*
G54D40*
G01X-275948Y-4763348D03*
G01X-275948Y-4636348D03*
G01X-275948Y-4509348D03*
G01X244041Y-4890348D03*
G01X244041Y-4763348D03*
G01X244041Y-4636348D03*
G01X244041Y-4509348D03*
G01X-275948Y-4890348D03*
G54D45*
G01X-7259626Y-427471D03*
G01X-7259626Y-457468D03*
G01X-7259626Y-507481D03*
G01X-7259626Y-537478D03*
G01X-7259626Y-587466D03*
G01X-7259626Y-637478D03*
G01X-7259626Y-687465D03*
G01X-7259626Y-737478D03*
G01X-7259626Y-787465D03*
G01X-7259626Y-837478D03*
G01X-7259626Y-937478D03*
G01X-7259651Y-987465D03*
G01X-7259651Y-1017488D03*
G01X-7259626Y-1067475D03*
G01X-7259626Y-1097472D03*
G01X-7259626Y-887440D03*
G54D46*
G01X-7742632Y-330468D03*
G01X-7742632Y-1194475D03*
G54D47*
G01X-7324624Y-1194475D03*
G01X-7324624Y-330468D03*
G54D48*
G01X-5063534Y96382D03*
G01X-5063534Y-53605D03*
G01X-5063534Y-203617D03*
G01X-5063534Y-353604D03*
G01X-5063534Y-503617D03*
G01X-5063534Y-653604D03*
G01X-5063534Y-803616D03*
G01X-5063534Y-953603D03*
G01X-5063534Y-1103616D03*
G01X-3313525Y-1103616D03*
G01X-3313525Y-953603D03*
G01X-3313525Y-803616D03*
G01X-3313525Y-653604D03*
G01X-3313525Y-503617D03*
G01X-3313525Y-353604D03*
G01X-3313525Y-203617D03*
G01X-3313525Y-53605D03*
G01X-3313525Y96382D03*
G54D49*
G01X-4202525Y-413599D03*
G01X-4202525Y-523607D03*
G01X-4202525Y-633614D03*
G01X-4092543Y-413599D03*
G01X-4092543Y-523607D03*
G01X-4092543Y-633614D03*
G01X-3982536Y-633614D03*
G01X-3982536Y-523607D03*
G01X-3982536Y-413599D03*
G54D50*
G01X-1448269Y-1222126D03*
G01X-1603825Y-1066570D03*
G01X-1490692Y-953437D03*
G01X-1335136Y-1108993D03*
G54D51*
G01X-760309Y-1929191D03*
G01X-937094Y-1752406D03*
G54D17*
G01X838462Y-5719488D03*
G01X838462Y-5973488D03*
G01X584462Y-5719488D03*
G01X584462Y-5973488D03*
G01X330462Y-5719488D03*
G01X330462Y-5973488D03*
G01X76462Y-5719488D03*
G01X76462Y-5973488D03*
G01X-177538Y-5719488D03*
G01X-177538Y-5973488D03*
G01X-431538Y-5719488D03*
G01X-431538Y-5973488D03*
G01X-685538Y-5719488D03*
G01X-685538Y-5973488D03*
G01X-939538Y-5719488D03*
G01X-939538Y-5973488D03*
G01X-1193538Y-5719488D03*
G01X-1193538Y-5973488D03*
G01X-1447538Y-5719488D03*
G01X-1447538Y-5973488D03*
G01X-1701538Y-5719488D03*
G01X-1701538Y-5973488D03*
G01X-1955538Y-5719488D03*
G01X-1955538Y-5973488D03*
G01X-2209538Y-5719488D03*
G01X-2209538Y-5973488D03*
G01X-2463538Y-5719488D03*
G01X-2463538Y-5973488D03*
G01X-2717538Y-5719488D03*
G01X-2717538Y-5973488D03*
G01X-2971538Y-5719488D03*
G01X-2971538Y-5973488D03*
G01X-3225538Y-5719488D03*
G01X-3225538Y-5973488D03*
G01X-3479538Y-5719488D03*
G01X-3479538Y-5973488D03*
G01X-3733538Y-5719488D03*
G01X-3733538Y-5973488D03*
G01X-3987538Y-5719488D03*
G01X-3987538Y-5973488D03*
G01X-4241538Y-5719488D03*
G01X-4241538Y-5973488D03*
G01X-4495538Y-5719488D03*
G01X-4495538Y-5973488D03*
G01X-4749538Y-5719488D03*
G01X-4749538Y-5973488D03*
G01X-5003538Y-5719488D03*
G01X-5003538Y-5973488D03*
G01X-5257538Y-5719488D03*
G54D16*
G01X-5257538Y-5973488D03*
G54D25*
G01X1581278Y407483D03*
G54D26*
G01X1581278Y642433D03*
G01X1581278Y172533D03*
G01X1816228Y407483D03*
G01X1346328Y407483D03*
G01X1746378Y572583D03*
G01X1416178Y242383D03*
G01X1746378Y242383D03*
G01X1416178Y572583D03*
G54D28*
G01X-5618329Y-704667D03*
G01X-5618329Y-504668D03*
G54D27*
G01X-5632576Y-988348D03*
G01X-5432577Y-988348D03*
G54D52*
G01X-798740Y77904D03*
G54D53*
G01X-1048727Y77904D03*
G01X-1298739Y77904D03*
G01X-1548752Y77904D03*
G54D54*
G01X-1763711Y-1219400D03*
G01X-1905132Y-1077979D03*
G01X-912492Y-2053717D03*
G01X-771071Y-2195138D03*
G01X-1069285Y-1902431D03*
G01X-1210706Y-1761009D03*
G01X-1603446Y-1376620D03*
G01X-1462025Y-1518041D03*
G54D17*
G01X-1738693Y-4531967D03*
G01X-688708Y-4531967D03*
G54D11*
G01X-2719297Y-4337583D03*
G01X-2919296Y-4337583D03*
G04 Pad End*

M02*

