G04 Layer: InnerLayer2*
G04 EasyEDA Pro v3.2.149.88089769, 2026-09-01 22:31:21*
G04 Gerber Generator version 0.3*
G04 Scale: 100 percent, Rotated: No, Reflected: No*
G04 Dimensions in millimeters*
G04 Leading zeros omitted, absolute positions, 4 integers and 5 decimals*
G04 Generated by one-click*
G04 Object Configs: Pad,Via,Track,Text,Image,Dimension,BoardOutline,BoardCutout,CopperFilled,SolidRegion,FPCStiffener,Line,PlaneZone,ComponentProperty,ComponentSilkscreen,TearDrop*
G04 Layer Configs: 1,15,16,2,3,4,5,6,7,8,9,10,11,13,14,56*
G04 Copper Areas: 0*
%FSLAX45Y45*%
%MOMM*%
%ADD10C,2.4*%
%ADD11R,1.8X1.8*%
%ADD12C,1.8*%
%ADD13C,5.99948*%
%ADD14C,1.00076*%
%ADD15O,2.0X1.1*%
%ADD16O,1.8031X1.2*%
%ADD17O,1.8X1.2*%
%ADD18R,1.7X1.7*%
%ADD19C,1.7*%
%ADD20O,2.0X1.2*%
%ADD21R,1.6X1.6*%
%ADD22C,1.6*%
%ADD23C,0.4572*%
%ADD24C,0.6096*%
G75*


G04 PlaneZone Start*
G36*
G01X-7618722Y781829D02*
G01X-7297458Y781829D01*
G03X-7258367Y685409I39091J-40286D01*
G03X-7219276Y781829I0J56134D01*
G01X-7031800Y781829D01*
G03X-6992709Y685409I39091J-40286D01*
G03X-6953618Y781829I0J56134D01*
G01X-6766142Y781829D01*
G03X-6753024Y691779I39091J-40286D01*
G03X-6787869Y473703I-10343J-110169D01*
G03X-6725117Y685442I24502J107907D01*
G03X-6687960Y781829I-1934J56101D01*
G01X-6500484Y781829D01*
G03X-6461393Y685409I39091J-40286D01*
G03X-6422302Y781829I0J56134D01*
G01X-6234826Y781829D01*
G03X-6195735Y685409I39091J-40286D01*
G03X-6156645Y781829I0J56134D01*
G01X-5969168Y781829D01*
G03X-5930078Y685409I39091J-40286D01*
G03X-5890987Y781829I0J56134D01*
G01X-5703511Y781829D01*
G03X-5664420Y685409I39091J-40286D01*
G03X-5625329Y781829I0J56134D01*
G01X-5437852Y781829D01*
G03X-5398762Y685409I39091J-40286D01*
G03X-5359671Y781829I0J56134D01*
G01X-5338544Y781829D01*
G02X-5264198Y707482I0J-74346D01*
G01X-5264198Y311385D01*
G03X-5138544Y185731I125654J0D01*
G01X-3238226Y185731D01*
G03X-3112572Y311385I0J125654D01*
G01X-3112572Y707482D01*
G02X-3062593Y777722I74346J0D01*
G03X-3016866Y685479I42920J-36179D01*
G03X-2980583Y781829I-2807J56064D01*
G01X-2793106Y781829D01*
G03X-2754015Y685409I39091J-40286D01*
G03X-2714924Y781829I0J56134D01*
G01X-451748Y781829D01*
G03X-412657Y685409I39091J-40286D01*
G03X-373566Y781829I0J56134D01*
G01X-186090Y781829D01*
G03X-146999Y685409I39091J-40286D01*
G03X-107908Y781829I0J56134D01*
G01X79568Y781829D01*
G03X118659Y685409I39091J-40286D01*
G03X157750Y781829I0J56134D01*
G01X345226Y781829D01*
G03X384317Y685409I39091J-40286D01*
G03X423408Y781829I0J56134D01*
G01X610884Y781829D01*
G03X649975Y685409I39091J-40286D01*
G03X689066Y781829I0J56134D01*
G01X876542Y781829D01*
G03X915633Y685409I39091J-40286D01*
G03X954724Y781829I0J56134D01*
G01X1142200Y781829D01*
G03X1181291Y685409I39091J-40286D01*
G03X1220382Y781829I0J56134D01*
G01X1581278Y781829D01*
G02X1955624Y407483I0J-374346D01*
G01X1955624Y-5792517D01*
G02X1581278Y-6166863I-374346J0D01*
G01X-7618722Y-6166863D01*
G02X-7993068Y-5792517I0J374346D01*
G01X-7993068Y407483D01*
G02X-7618722Y781829I374346J0D01*
G37*
%LPC*%
G36*
G01X-7944350Y407483D02*
G03X-7293094Y407483I325628J0D01*
G03X-7944350Y407483I-325628J0D01*
G37*
G36*
G01X-7944350Y-5792517D02*
G03X-7293094Y-5792517I325628J0D01*
G03X-7944350Y-5792517I-325628J0D01*
G37*
G36*
G01X-7892187Y-746221D02*
G03X-7795159Y-746221I48514J0D01*
G03X-7892187Y-746221I-48514J0D01*
G37*
G36*
G01X-7892187Y-568421D02*
G03X-7795159Y-568421I48514J0D01*
G03X-7892187Y-568421I-48514J0D01*
G37*
G36*
G01X-7892187Y-924021D02*
G03X-7795159Y-924021I48514J0D01*
G03X-7892187Y-924021I-48514J0D01*
G37*
G36*
G01X-7878242Y-1969054D02*
G03X-7781214Y-1969054I48514J0D01*
G03X-7878242Y-1969054I-48514J0D01*
G37*
G36*
G01X-7878242Y-2146854D02*
G03X-7781214Y-2146854I48514J0D01*
G03X-7878242Y-2146854I-48514J0D01*
G37*
G36*
G01X-7878242Y-2324654D02*
G03X-7781214Y-2324654I48514J0D01*
G03X-7878242Y-2324654I-48514J0D01*
G37*
G36*
G01X-7870913Y-4165318D02*
G03X-7773885Y-4165318I48514J0D01*
G03X-7870913Y-4165318I-48514J0D01*
G37*
G36*
G01X-7720749Y-1612266D02*
G01X-7780749Y-1612266D01*
G03X-7780749Y-1783574I0J-85654D01*
G01X-7720749Y-1783574D01*
G03X-7720749Y-1612266I0J85654D01*
G37*
G36*
G01X-7720749Y-2477263D02*
G01X-7780749Y-2477263D01*
G03X-7780749Y-2648571I0J-85654D01*
G01X-7720749Y-2648571D01*
G03X-7688841Y-2483428I0J85654D01*
G03X-7677294Y-2387829I-139J48514D01*
G03X-7711787Y-2477733I-11686J-47085D01*
G03X-7720749Y-2477263I-8962J-85184D01*
G37*
G36*
G01X-7712632Y-244815D02*
G01X-7772632Y-244815D01*
G03X-7772632Y-416122I0J-85654D01*
G01X-7712632Y-416122D01*
G03X-7712632Y-244815I0J85654D01*
G37*
G36*
G01X-7712632Y-1108821D02*
G01X-7772632Y-1108821D01*
G03X-7772632Y-1280129I0J-85654D01*
G01X-7712632Y-1280129D01*
G03X-7712632Y-1108821I0J85654D01*
G37*
G36*
G01X-7857349Y-4775020D02*
G03X-7760321Y-4775020I48514J0D01*
G03X-7857349Y-4775020I-48514J0D01*
G37*
G36*
G01X-7852115Y-3312206D02*
G03X-7755087Y-3312206I48514J0D01*
G03X-7852115Y-3312206I-48514J0D01*
G37*
G36*
G01X-7852115Y-3134406D02*
G03X-7755087Y-3134406I48514J0D01*
G03X-7852115Y-3134406I-48514J0D01*
G37*
G36*
G01X-7810461Y-3926480D02*
G03X-7713433Y-3926480I48514J0D01*
G03X-7810461Y-3926480I-48514J0D01*
G37*
G36*
G01X-7800387Y-5187019D02*
G03X-7703359Y-5187019I48514J0D01*
G03X-7800387Y-5187019I-48514J0D01*
G37*
G36*
G01X-7799856Y-4533273D02*
G03X-7702828Y-4533273I48514J0D01*
G03X-7799856Y-4533273I-48514J0D01*
G37*
G36*
G01X-7774671Y-3558884D02*
G03X-7677643Y-3558884I48514J0D01*
G03X-7774671Y-3558884I-48514J0D01*
G37*
G36*
G01X-7738542Y-1969054D02*
G03X-7641514Y-1969054I48514J0D01*
G03X-7738542Y-1969054I-48514J0D01*
G37*
G36*
G01X-7738542Y-2324654D02*
G03X-7641514Y-2324654I48514J0D01*
G03X-7738542Y-2324654I-48514J0D01*
G37*
G36*
G01X-7738542Y-2146854D02*
G03X-7641514Y-2146854I48514J0D01*
G03X-7738542Y-2146854I-48514J0D01*
G37*
G36*
G01X-7737494Y-1846045D02*
G03X-7640466Y-1846045I48514J0D01*
G03X-7737494Y-1846045I-48514J0D01*
G37*
G36*
G01X-7714387Y-924021D02*
G03X-7617359Y-924021I48514J0D01*
G03X-7714387Y-924021I-48514J0D01*
G37*
G36*
G01X-7714387Y-746221D02*
G03X-7617359Y-746221I48514J0D01*
G03X-7714387Y-746221I-48514J0D01*
G37*
G36*
G01X-7714387Y-568421D02*
G03X-7617359Y-568421I48514J0D01*
G03X-7714387Y-568421I-48514J0D01*
G37*
G36*
G01X-7714110Y-470716D02*
G03X-7617082Y-470716I48514J0D01*
G03X-7714110Y-470716I-48514J0D01*
G37*
G36*
G01X-7714110Y-1057086D02*
G03X-7617082Y-1057086I48514J0D01*
G03X-7714110Y-1057086I-48514J0D01*
G37*
G36*
G01X-7685214Y-4349112D02*
G03X-7588186Y-4349112I48514J0D01*
G03X-7685214Y-4349112I-48514J0D01*
G37*
G36*
G01X-7679789Y-4990006D02*
G03X-7582761Y-4990006I48514J0D01*
G03X-7679789Y-4990006I-48514J0D01*
G37*
G36*
G01X-7674315Y-3312206D02*
G03X-7577287Y-3312206I48514J0D01*
G03X-7674315Y-3312206I-48514J0D01*
G37*
G36*
G01X-7674315Y-3134406D02*
G03X-7577287Y-3134406I48514J0D01*
G03X-7674315Y-3134406I-48514J0D01*
G37*
G36*
G01X-7632661Y-3926480D02*
G03X-7535633Y-3926480I48514J0D01*
G03X-7632661Y-3926480I-48514J0D01*
G37*
G36*
G01X-7622587Y-5187019D02*
G03X-7525559Y-5187019I48514J0D01*
G03X-7622587Y-5187019I-48514J0D01*
G37*
G36*
G01X-7622056Y-4533273D02*
G03X-7525028Y-4533273I48514J0D01*
G03X-7622056Y-4533273I-48514J0D01*
G37*
G36*
G01X-7602129Y-2234915D02*
G03X-7505101Y-2234915I48514J0D01*
G03X-7602129Y-2234915I-48514J0D01*
G37*
G36*
G01X-7602127Y-2053544D02*
G03X-7505099Y-2053544I48514J0D01*
G03X-7602127Y-2053544I-48514J0D01*
G37*
G36*
G01X-7588789Y-670716D02*
G03X-7491761Y-670716I48514J0D01*
G03X-7588789Y-670716I-48514J0D01*
G37*
G36*
G01X-7588789Y-857086D02*
G03X-7491761Y-857086I48514J0D01*
G03X-7588789Y-857086I-48514J0D01*
G37*
G36*
G01X-7575751Y-2944166D02*
G03X-7478723Y-2944166I48514J0D01*
G03X-7575751Y-2944166I-48514J0D01*
G37*
G36*
G01X-7496515Y-3312206D02*
G03X-7399487Y-3312206I48514J0D01*
G03X-7496515Y-3312206I-48514J0D01*
G37*
G36*
G01X-7496515Y-3134406D02*
G03X-7399487Y-3134406I48514J0D01*
G03X-7496515Y-3134406I-48514J0D01*
G37*
G36*
G01X-7457718Y-4026975D02*
G03X-7360690Y-4026975I48514J0D01*
G03X-7457718Y-4026975I-48514J0D01*
G37*
G36*
G01X-7285735Y-1617266D02*
G01X-7375735Y-1617266D01*
G03X-7375735Y-1778574I0J-80654D01*
G01X-7285735Y-1778574D01*
G03X-7285735Y-1617266I0J80654D01*
G37*
G36*
G01X-7285735Y-2482263D02*
G01X-7375735Y-2482263D01*
G03X-7375735Y-2643571I0J-80654D01*
G01X-7285735Y-2643571D01*
G03X-7285735Y-2482263I0J80654D01*
G37*
G36*
G01X-7454861Y-3926480D02*
G03X-7357833Y-3926480I48514J0D01*
G03X-7454861Y-3926480I-48514J0D01*
G37*
G36*
G01X-7284624Y-416122D02*
G03X-7284624Y-244815I0J85654D01*
G01X-7364624Y-244815D01*
G03X-7386043Y-413401I0J-85654D01*
G03X-7383468Y-533844I8409J-60069D01*
G03X-7357880Y-416122I5834J60374D01*
G01X-7284624Y-416122D01*
G37*
G36*
G01X-7364624Y-1280129D02*
G01X-7284624Y-1280129D01*
G03X-7284624Y-1108821I0J85654D01*
G01X-7357880Y-1108821D01*
G03X-7383468Y-991099I-19755J57348D01*
G03X-7386043Y-1111542I5834J-60374D01*
G03X-7364624Y-1280129I21419J-82933D01*
G37*
G36*
G01X-7444787Y-5187019D02*
G03X-7347759Y-5187019I48514J0D01*
G03X-7444787Y-5187019I-48514J0D01*
G37*
G36*
G01X-7444256Y-4533273D02*
G03X-7347228Y-4533273I48514J0D01*
G03X-7444256Y-4533273I-48514J0D01*
G37*
G36*
G01X-7443409Y-1841430D02*
G03X-7322099Y-1841430I60655J0D01*
G03X-7443409Y-1841430I-60655J0D01*
G37*
G36*
G01X-7443409Y-2419432D02*
G03X-7322099Y-2419432I60655J0D01*
G03X-7443409Y-2419432I-60655J0D01*
G37*
G36*
G01X-7411200Y-737905D02*
G03X-7314172Y-737905I48514J0D01*
G03X-7411200Y-737905I-48514J0D01*
G37*
G36*
G01X-7353206Y-4769645D02*
G03X-7256178Y-4769645I48514J0D01*
G03X-7353206Y-4769645I-48514J0D01*
G37*
G36*
G01X-7314501Y100188D02*
G03X-7202233Y100188I56134J0D01*
G03X-7314501Y100188I-56134J0D01*
G37*
G36*
G01X-7314262Y-6092304D02*
G03X-7217234Y-6092304I48514J0D01*
G03X-7314262Y-6092304I-48514J0D01*
G37*
G36*
G01X-7205080Y-787481D02*
G03X-7108052Y-787481I48514J0D01*
G03X-7205080Y-787481I-48514J0D01*
G37*
G36*
G01X-7180985Y-524274D02*
G03X-7083957Y-524274I48514J0D01*
G03X-7180985Y-524274I-48514J0D01*
G37*
G36*
G01X-7180985Y-1003273D02*
G03X-7083957Y-1003273I48514J0D01*
G03X-7180985Y-1003273I-48514J0D01*
G37*
G36*
G01X-7159563Y-5136190D02*
G03X-7071863Y-5122382I40805J26240D01*
G03X-7022913Y-5048317I8145J47825D01*
G03X-7110612Y-5062124I-40805J-26240D01*
G03X-7159563Y-5136190I-8145J-47825D01*
G37*
G36*
G01X-7155584Y-1890059D02*
G03X-7062334Y-1909193I48513J-367D01*
G03X-6968805Y-1891471I45016J18088D01*
G03X-7062055Y-1872338I-48513J367D01*
G03X-7155584Y-1890059I-45016J-18088D01*
G37*
G36*
G01X-7155584Y-2370069D02*
G03X-7062334Y-2389202I48513J-367D01*
G03X-6968805Y-2371481I45016J18088D01*
G03X-7062055Y-2352348I-48513J367D01*
G03X-7155584Y-2370069I-45016J-18088D01*
G37*
G36*
G01X-7139882Y-708512D02*
G03X-7042854Y-708512I48514J0D01*
G03X-7139882Y-708512I-48514J0D01*
G37*
G36*
G01X-7136462Y-6092304D02*
G03X-7039434Y-6092304I48514J0D01*
G03X-7136462Y-6092304I-48514J0D01*
G37*
G36*
G01X-7126652Y553694D02*
G03X-7014384Y553694I56134J0D01*
G03X-7126652Y553694I-56134J0D01*
G37*
G36*
G01X-7126652Y288036D02*
G03X-7014384Y288036I56134J0D01*
G03X-7126652Y288036I-56134J0D01*
G37*
G36*
G01X-7117962Y-4248817D02*
G03X-7020934Y-4248817I48514J0D01*
G03X-7117962Y-4248817I-48514J0D01*
G37*
G36*
G01X-7117962Y-4071017D02*
G03X-7020934Y-4071017I48514J0D01*
G03X-7117962Y-4071017I-48514J0D01*
G37*
G36*
G01X-7073166Y-938713D02*
G03X-6976138Y-938713I48514J0D01*
G03X-7073166Y-938713I-48514J0D01*
G37*
G36*
G01X-7066935Y-783608D02*
G03X-6969907Y-783608I48514J0D01*
G03X-7066935Y-783608I-48514J0D01*
G37*
G36*
G01X-7007890Y-2895174D02*
G03X-6910862Y-2895174I48514J0D01*
G03X-7007890Y-2895174I-48514J0D01*
G37*
G36*
G01X-7007890Y-3250774D02*
G03X-6910862Y-3250774I48514J0D01*
G03X-7007890Y-3250774I-48514J0D01*
G37*
G36*
G01X-7007890Y-3072974D02*
G03X-6910862Y-3072974I48514J0D01*
G03X-7007890Y-3072974I-48514J0D01*
G37*
G36*
G01X-6768189Y-5082174D02*
G03X-6999497Y-5082174I-115654J0D01*
G03X-6768189Y-5082174I115654J0D01*
G37*
G36*
G01X-6988111Y-38860D02*
G03X-6891083Y-38860I48514J0D01*
G03X-6988111Y-38860I-48514J0D01*
G37*
G36*
G01X-6988111Y138940D02*
G03X-6891083Y138940I48514J0D01*
G03X-6988111Y138940I-48514J0D01*
G37*
G36*
G01X-6988111Y-216660D02*
G03X-6891083Y-216660I48514J0D01*
G03X-6988111Y-216660I-48514J0D01*
G37*
G36*
G01X-6960132Y-1257981D02*
G03X-6863104Y-1257981I48514J0D01*
G03X-6960132Y-1257981I-48514J0D01*
G37*
G36*
G01X-6960132Y-1435781D02*
G03X-6863104Y-1435781I48514J0D01*
G03X-6960132Y-1435781I-48514J0D01*
G37*
G36*
G01X-6949006Y-4875522D02*
G03X-6851978Y-4875522I48514J0D01*
G03X-6949006Y-4875522I-48514J0D01*
G37*
G36*
G01X-6947142Y-5832375D02*
G03X-6850114Y-5832375I48514J0D01*
G03X-6947142Y-5832375I-48514J0D01*
G37*
G36*
G01X-6947142Y-5654575D02*
G03X-6850114Y-5654575I48514J0D01*
G03X-6947142Y-5654575I-48514J0D01*
G37*
G36*
G01X-6947142Y-5476775D02*
G03X-6850114Y-5476775I48514J0D01*
G03X-6947142Y-5476775I-48514J0D01*
G37*
G36*
G01X-6889648Y-4440238D02*
G03X-6792620Y-4440238I48514J0D01*
G03X-6889648Y-4440238I-48514J0D01*
G37*
G36*
G01X-6876252Y-3667054D02*
G03X-6779224Y-3667054I48514J0D01*
G03X-6876252Y-3667054I-48514J0D01*
G37*
G36*
G01X-6875196Y-3929112D02*
G03X-6778168Y-3929112I48514J0D01*
G03X-6875196Y-3929112I-48514J0D01*
G37*
G36*
G01X-6678367Y216956D02*
G03X-6652713Y242610I0J25654D01*
G01X-6652713Y412610D01*
G03X-6678367Y438264I-25654J0D01*
G01X-6848367Y438264D01*
G03X-6874021Y412610I0J-25654D01*
G01X-6874021Y242610D01*
G03X-6848367Y216956I25654J0D01*
G01X-6678367Y216956D01*
G37*
G36*
G01X-6866924Y-3463527D02*
G03X-6769896Y-3463527I48514J0D01*
G03X-6866924Y-3463527I-48514J0D01*
G37*
G36*
G01X-6849973Y-670065D02*
G03X-6752945Y-670065I48514J0D01*
G03X-6849973Y-670065I-48514J0D01*
G37*
G36*
G01X-6845746Y-857111D02*
G03X-6748718Y-857111I48514J0D01*
G03X-6845746Y-857111I-48514J0D01*
G37*
G36*
G01X-6839304Y-289118D02*
G03X-6742276Y-289118I48514J0D01*
G03X-6839304Y-289118I-48514J0D01*
G37*
G36*
G01X-6830090Y-2895174D02*
G03X-6733062Y-2895174I48514J0D01*
G03X-6830090Y-2895174I-48514J0D01*
G37*
G36*
G01X-6830090Y-3250774D02*
G03X-6733062Y-3250774I48514J0D01*
G03X-6830090Y-3250774I-48514J0D01*
G37*
G36*
G01X-6830090Y-3072974D02*
G03X-6733062Y-3072974I48514J0D01*
G03X-6830090Y-3072974I-48514J0D01*
G37*
G36*
G01X-6799148Y-1876266D02*
G03X-6702120Y-1876266I48514J0D01*
G03X-6799148Y-1876266I-48514J0D01*
G37*
G36*
G01X-6786085Y-2587071D02*
G03X-6689057Y-2587071I48514J0D01*
G03X-6786085Y-2587071I-48514J0D01*
G37*
G36*
G01X-6786085Y-2301888D02*
G03X-6689057Y-2301888I48514J0D01*
G03X-6786085Y-2301888I-48514J0D01*
G37*
G36*
G01X-6782332Y-1257981D02*
G03X-6685304Y-1257981I48514J0D01*
G03X-6782332Y-1257981I-48514J0D01*
G37*
G36*
G01X-6782332Y-1435781D02*
G03X-6685304Y-1435781I48514J0D01*
G03X-6782332Y-1435781I-48514J0D01*
G37*
G36*
G01X-6771206Y-4875522D02*
G03X-6674178Y-4875522I48514J0D01*
G03X-6771206Y-4875522I-48514J0D01*
G37*
G36*
G01X-6769342Y-5832375D02*
G03X-6672314Y-5832375I48514J0D01*
G03X-6769342Y-5832375I-48514J0D01*
G37*
G36*
G01X-6769342Y-5654575D02*
G03X-6672314Y-5654575I48514J0D01*
G03X-6769342Y-5654575I-48514J0D01*
G37*
G36*
G01X-6769342Y-5476775D02*
G03X-6672314Y-5476775I48514J0D01*
G03X-6769342Y-5476775I-48514J0D01*
G37*
G36*
G01X-6514189Y-5082174D02*
G03X-6745497Y-5082174I-115654J0D01*
G03X-6514189Y-5082174I115654J0D01*
G37*
G36*
G01X-6667624Y-3464745D02*
G03X-6570596Y-3464745I48514J0D01*
G03X-6667624Y-3464745I-48514J0D01*
G37*
G36*
G01X-6661504Y-289118D02*
G03X-6564476Y-289118I48514J0D01*
G03X-6661504Y-289118I-48514J0D01*
G37*
G36*
G01X-6652290Y-2895174D02*
G03X-6555262Y-2895174I48514J0D01*
G03X-6652290Y-2895174I-48514J0D01*
G37*
G36*
G01X-6652290Y-3250774D02*
G03X-6555262Y-3250774I48514J0D01*
G03X-6652290Y-3250774I-48514J0D01*
G37*
G36*
G01X-6652290Y-3072974D02*
G03X-6555262Y-3072974I48514J0D01*
G03X-6652290Y-3072974I-48514J0D01*
G37*
G36*
G01X-6620021Y581610D02*
G03X-6398713Y581610I110654J0D01*
G03X-6620021Y581610I-110654J0D01*
G37*
G36*
G01X-6620021Y327610D02*
G03X-6398713Y327610I110654J0D01*
G03X-6620021Y327610I-110654J0D01*
G37*
G36*
G01X-6604532Y-1257981D02*
G03X-6507504Y-1257981I48514J0D01*
G03X-6604532Y-1257981I-48514J0D01*
G37*
G36*
G01X-6604532Y-1435781D02*
G03X-6507504Y-1435781I48514J0D01*
G03X-6604532Y-1435781I-48514J0D01*
G37*
G36*
G01X-6593406Y-4875522D02*
G03X-6496378Y-4875522I48514J0D01*
G03X-6593406Y-4875522I-48514J0D01*
G37*
G36*
G01X-6591542Y-5832375D02*
G03X-6494514Y-5832375I48514J0D01*
G03X-6591542Y-5832375I-48514J0D01*
G37*
G36*
G01X-6591542Y-5654575D02*
G03X-6494514Y-5654575I48514J0D01*
G03X-6591542Y-5654575I-48514J0D01*
G37*
G36*
G01X-6591542Y-5476775D02*
G03X-6494514Y-5476775I48514J0D01*
G03X-6591542Y-5476775I-48514J0D01*
G37*
G36*
G01X-6508178Y-807359D02*
G03X-6498301Y-903371I9877J-47498D01*
G03X-6488425Y-807359I0J48514D01*
G03X-6488425Y-712363I-9877J47498D01*
G03X-6498301Y-616351I-9877J47498D01*
G03X-6508178Y-712363I0J-48514D01*
G03X-6508178Y-807359I9877J-47498D01*
G37*
G36*
G01X-6260189Y-5082174D02*
G03X-6491497Y-5082174I-115654J0D01*
G03X-6260189Y-5082174I115654J0D01*
G37*
G36*
G01X-6483704Y-289118D02*
G03X-6386676Y-289118I48514J0D01*
G03X-6483704Y-289118I-48514J0D01*
G37*
G36*
G01X-6474490Y-2895174D02*
G03X-6377462Y-2895174I48514J0D01*
G03X-6474490Y-2895174I-48514J0D01*
G37*
G36*
G01X-6474490Y-3250774D02*
G03X-6377462Y-3250774I48514J0D01*
G03X-6474490Y-3250774I-48514J0D01*
G37*
G36*
G01X-6474490Y-3072974D02*
G03X-6377462Y-3072974I48514J0D01*
G03X-6474490Y-3072974I-48514J0D01*
G37*
G36*
G01X-6463433Y-1646242D02*
G03X-6366405Y-1646242I48514J0D01*
G03X-6463433Y-1646242I-48514J0D01*
G37*
G36*
G01X-6459439Y-1007037D02*
G03X-6362411Y-1007037I48514J0D01*
G03X-6459439Y-1007037I-48514J0D01*
G37*
G36*
G01X-6433006Y447317D02*
G03X-6335978Y447317I48514J0D01*
G03X-6433006Y447317I-48514J0D01*
G37*
G36*
G01X-6422665Y-394657D02*
G03X-6325637Y-394657I48514J0D01*
G03X-6422665Y-394657I-48514J0D01*
G37*
G36*
G01X-6422665Y-572457D02*
G03X-6325637Y-572457I48514J0D01*
G03X-6422665Y-572457I-48514J0D01*
G37*
G36*
G01X-6414140Y-3586201D02*
G03X-6317112Y-3586201I48514J0D01*
G03X-6414140Y-3586201I-48514J0D01*
G37*
G36*
G01X-6412749Y-4040024D02*
G03X-6315721Y-4040024I48514J0D01*
G03X-6412749Y-4040024I-48514J0D01*
G37*
G36*
G01X-6366021Y581610D02*
G03X-6144713Y581610I110654J0D01*
G03X-6366021Y581610I-110654J0D01*
G37*
G36*
G01X-6271265Y125781D02*
G03X-6245484Y217398I3810J48364D01*
G03X-6246678Y437922I-9883J110212D01*
G03X-6282384Y220305I-8689J-110312D01*
G03X-6271265Y125781I14929J-46160D01*
G37*
G36*
G01X-6339789Y-1356251D02*
G03X-6242761Y-1356251I48514J0D01*
G03X-6339789Y-1356251I-48514J0D01*
G37*
G36*
G01X-6339789Y-1178451D02*
G03X-6242761Y-1178451I48514J0D01*
G03X-6339789Y-1178451I-48514J0D01*
G37*
G36*
G01X-6329225Y-3134953D02*
G03X-6232197Y-3134953I48514J0D01*
G03X-6329225Y-3134953I-48514J0D01*
G37*
G36*
G01X-6329225Y-3312753D02*
G03X-6232197Y-3312753I48514J0D01*
G03X-6329225Y-3312753I-48514J0D01*
G37*
G36*
G01X-6293926Y-5836617D02*
G03X-6196898Y-5836617I48514J0D01*
G03X-6293926Y-5836617I-48514J0D01*
G37*
G36*
G01X-6293926Y-5658817D02*
G03X-6196898Y-5658817I48514J0D01*
G03X-6293926Y-5658817I-48514J0D01*
G37*
G36*
G01X-6293926Y-5481017D02*
G03X-6196898Y-5481017I48514J0D01*
G03X-6293926Y-5481017I-48514J0D01*
G37*
G36*
G01X-6285864Y-2439890D02*
G03X-6188836Y-2439890I48514J0D01*
G03X-6285864Y-2439890I-48514J0D01*
G37*
G36*
G01X-6281639Y-1007037D02*
G03X-6184611Y-1007037I48514J0D01*
G03X-6281639Y-1007037I-48514J0D01*
G37*
G36*
G01X-6244865Y-394657D02*
G03X-6147837Y-394657I48514J0D01*
G03X-6244865Y-394657I-48514J0D01*
G37*
G36*
G01X-6244865Y-572457D02*
G03X-6147837Y-572457I48514J0D01*
G03X-6244865Y-572457I-48514J0D01*
G37*
G36*
G01X-6006189Y-5082174D02*
G03X-6237497Y-5082174I-115654J0D01*
G03X-6006189Y-5082174I115654J0D01*
G37*
G36*
G01X-6210678Y-717176D02*
G03X-6113650Y-717176I48514J0D01*
G03X-6210678Y-717176I-48514J0D01*
G37*
G36*
G01X-6184184Y-4040494D02*
G03X-6087156Y-4040494I48514J0D01*
G03X-6184184Y-4040494I-48514J0D01*
G37*
G36*
G01X-6175624Y-2439890D02*
G03X-6078596Y-2439890I48514J0D01*
G03X-6175624Y-2439890I-48514J0D01*
G37*
G36*
G01X-6161989Y-1178451D02*
G03X-6064961Y-1178451I48514J0D01*
G03X-6161989Y-1178451I-48514J0D01*
G37*
G36*
G01X-6161989Y-1356251D02*
G03X-6064961Y-1356251I48514J0D01*
G03X-6161989Y-1356251I-48514J0D01*
G37*
G36*
G01X-6151425Y-3134953D02*
G03X-6054397Y-3134953I48514J0D01*
G03X-6151425Y-3134953I-48514J0D01*
G37*
G36*
G01X-6151425Y-3312753D02*
G03X-6054397Y-3312753I48514J0D01*
G03X-6151425Y-3312753I-48514J0D01*
G37*
G36*
G01X-6116126Y-5836617D02*
G03X-6019098Y-5836617I48514J0D01*
G03X-6116126Y-5836617I-48514J0D01*
G37*
G36*
G01X-6116126Y-5481017D02*
G03X-6019098Y-5481017I48514J0D01*
G03X-6116126Y-5481017I-48514J0D01*
G37*
G36*
G01X-6116126Y-5658817D02*
G03X-6019098Y-5658817I48514J0D01*
G03X-6116126Y-5658817I-48514J0D01*
G37*
G36*
G01X-6112021Y581610D02*
G03X-5890713Y581610I110654J0D01*
G03X-6112021Y581610I-110654J0D01*
G37*
G36*
G01X-6112021Y327610D02*
G03X-5890713Y327610I110654J0D01*
G03X-6112021Y327610I-110654J0D01*
G37*
G36*
G01X-6040388Y-2439890D02*
G03X-5943360Y-2439890I48514J0D01*
G03X-6040388Y-2439890I-48514J0D01*
G37*
G36*
G01X-6032878Y-717176D02*
G03X-5935850Y-717176I48514J0D01*
G03X-6032878Y-717176I-48514J0D01*
G37*
G36*
G01X-6019736Y-538651D02*
G03X-5922708Y-538651I48514J0D01*
G03X-6019736Y-538651I-48514J0D01*
G37*
G36*
G01X-6018158Y-924838D02*
G03X-5921130Y-924838I48514J0D01*
G03X-6018158Y-924838I-48514J0D01*
G37*
G36*
G01X-6001817Y-2113812D02*
G03X-5904789Y-2113812I48514J0D01*
G03X-6001817Y-2113812I-48514J0D01*
G37*
G36*
G01X-5998998Y-2558707D02*
G03X-5901970Y-2558707I48514J0D01*
G03X-5998998Y-2558707I-48514J0D01*
G37*
G36*
G01X-5984189Y-1356251D02*
G03X-5887161Y-1356251I48514J0D01*
G03X-5984189Y-1356251I-48514J0D01*
G37*
G36*
G01X-5984189Y-1178451D02*
G03X-5887161Y-1178451I48514J0D01*
G03X-5984189Y-1178451I-48514J0D01*
G37*
G36*
G01X-5957843Y-4966520D02*
G03X-5983497Y-4992174I0J-25654D01*
G01X-5983497Y-5172174D01*
G03X-5957843Y-5197828I25654J0D01*
G01X-5777843Y-5197828D01*
G03X-5752189Y-5172174I0J25654D01*
G01X-5752189Y-4992174D01*
G03X-5777843Y-4966520I-25654J0D01*
G01X-5957843Y-4966520D01*
G37*
G36*
G01X-5974056Y-806956D02*
G03X-5877028Y-806956I48514J0D01*
G03X-5974056Y-806956I-48514J0D01*
G37*
G36*
G01X-5973625Y-3134953D02*
G03X-5876597Y-3134953I48514J0D01*
G03X-5973625Y-3134953I-48514J0D01*
G37*
G36*
G01X-5973625Y-3312753D02*
G03X-5876597Y-3312753I48514J0D01*
G03X-5973625Y-3312753I-48514J0D01*
G37*
G36*
G01X-5925985Y-2978223D02*
G03X-5845372Y-2944020I32145J36336D01*
G03X-5821253Y-2859839I-8026J47846D01*
G03X-5901865Y-2894042I-32145J-36336D01*
G03X-5925985Y-2978223I8026J-47846D01*
G37*
G36*
G01X-5938326Y-5836617D02*
G03X-5841298Y-5836617I48514J0D01*
G03X-5938326Y-5836617I-48514J0D01*
G37*
G36*
G01X-5938326Y-5481017D02*
G03X-5841298Y-5481017I48514J0D01*
G03X-5938326Y-5481017I-48514J0D01*
G37*
G36*
G01X-5938326Y-5658817D02*
G03X-5841298Y-5658817I48514J0D01*
G03X-5938326Y-5658817I-48514J0D01*
G37*
G36*
G01X-5875582Y-512265D02*
G03X-5835958Y-430046I4979J48258D01*
G03X-5857958Y-341468I-26980J40320D01*
G03X-5897582Y-423687I-4979J-48258D01*
G03X-5875582Y-512265I26980J-40320D01*
G37*
G36*
G01X-5840358Y-924838D02*
G03X-5743330Y-924838I48514J0D01*
G03X-5840358Y-924838I-48514J0D01*
G37*
G36*
G01X-5767399Y-504668D02*
G03X-5670371Y-504668I48514J0D01*
G03X-5767399Y-504668I-48514J0D01*
G37*
G36*
G01X-5760526Y-5836617D02*
G03X-5663498Y-5836617I48514J0D01*
G03X-5760526Y-5836617I-48514J0D01*
G37*
G36*
G01X-5760526Y-5481017D02*
G03X-5663498Y-5481017I48514J0D01*
G03X-5760526Y-5481017I-48514J0D01*
G37*
G36*
G01X-5760526Y-5658817D02*
G03X-5663498Y-5658817I48514J0D01*
G03X-5760526Y-5658817I-48514J0D01*
G37*
G36*
G01X-5611340Y-1548012D02*
G03X-5626546Y-1461551I-27953J39651D01*
G03X-5702870Y-1418178I-48371J3722D01*
G03X-5687665Y-1504638I27953J-39651D01*
G03X-5611340Y-1548012I48371J-3722D01*
G37*
G36*
G01X-5720554Y539385D02*
G03X-5608286Y539385I56134J0D01*
G03X-5720554Y539385I-56134J0D01*
G37*
G36*
G01X-5720554Y337227D02*
G03X-5608286Y337227I56134J0D01*
G03X-5720554Y337227I-56134J0D01*
G37*
G36*
G01X-5712434Y-3016328D02*
G03X-5615406Y-3016328I48514J0D01*
G03X-5712434Y-3016328I-48514J0D01*
G37*
G36*
G01X-5701950Y-1159363D02*
G03X-5604922Y-1159363I48514J0D01*
G03X-5701950Y-1159363I-48514J0D01*
G37*
G36*
G01X-5666843Y-162275D02*
G03X-5569815Y-162275I48514J0D01*
G03X-5666843Y-162275I-48514J0D01*
G37*
G36*
G01X-5666167Y-4171849D02*
G03X-5569139Y-4171849I48514J0D01*
G03X-5666167Y-4171849I-48514J0D01*
G37*
G36*
G01X-5666167Y-3994049D02*
G03X-5569139Y-3994049I48514J0D01*
G03X-5666167Y-3994049I-48514J0D01*
G37*
G36*
G01X-5666167Y-4349649D02*
G03X-5569139Y-4349649I48514J0D01*
G03X-5666167Y-4349649I-48514J0D01*
G37*
G36*
G01X-5620339Y-1738785D02*
G03X-5523311Y-1738785I48514J0D01*
G03X-5620339Y-1738785I-48514J0D01*
G37*
G36*
G01X-5603584Y-4873115D02*
G03X-5506556Y-4873115I48514J0D01*
G03X-5603584Y-4873115I-48514J0D01*
G37*
G36*
G01X-5593706Y-2377820D02*
G03X-5496678Y-2377820I48514J0D01*
G03X-5593706Y-2377820I-48514J0D01*
G37*
G36*
G01X-5592236Y-1576326D02*
G03X-5495208Y-1576326I48514J0D01*
G03X-5592236Y-1576326I-48514J0D01*
G37*
G36*
G01X-5592236Y-2616329D02*
G03X-5495208Y-2616329I48514J0D01*
G03X-5592236Y-2616329I-48514J0D01*
G37*
G36*
G01X-5582726Y-5836617D02*
G03X-5485698Y-5836617I48514J0D01*
G03X-5582726Y-5836617I-48514J0D01*
G37*
G36*
G01X-5582726Y-5481017D02*
G03X-5485698Y-5481017I48514J0D01*
G03X-5582726Y-5481017I-48514J0D01*
G37*
G36*
G01X-5582726Y-5658817D02*
G03X-5485698Y-5658817I48514J0D01*
G03X-5582726Y-5658817I-48514J0D01*
G37*
G36*
G01X-5579504Y-4475849D02*
G03X-5482476Y-4475849I48514J0D01*
G03X-5579504Y-4475849I-48514J0D01*
G37*
G36*
G01X-5524150Y-1159363D02*
G03X-5427122Y-1159363I48514J0D01*
G03X-5524150Y-1159363I-48514J0D01*
G37*
G36*
G01X-5488367Y-4171849D02*
G03X-5391339Y-4171849I48514J0D01*
G03X-5488367Y-4171849I-48514J0D01*
G37*
G36*
G01X-5488367Y-3994049D02*
G03X-5391339Y-3994049I48514J0D01*
G03X-5488367Y-3994049I-48514J0D01*
G37*
G36*
G01X-5488367Y-4349649D02*
G03X-5391339Y-4349649I48514J0D01*
G03X-5488367Y-4349649I-48514J0D01*
G37*
G36*
G01X-5481091Y-881292D02*
G03X-5384063Y-881292I48514J0D01*
G03X-5481091Y-881292I-48514J0D01*
G37*
G36*
G01X-5456724Y-5269321D02*
G03X-5386197Y-5207851I26812J40431D01*
G03X-5357013Y-5118963I2371J48456D01*
G03X-5427540Y-5180434I-26812J-40431D01*
G03X-5456724Y-5269321I-2371J-48456D01*
G37*
G36*
G01X-5468856Y-3656332D02*
G03X-5371828Y-3656332I48514J0D01*
G03X-5468856Y-3656332I-48514J0D01*
G37*
G36*
G01X-5458363Y-162275D02*
G03X-5361335Y-162275I48514J0D01*
G03X-5458363Y-162275I-48514J0D01*
G37*
G36*
G01X-5454896Y539385D02*
G03X-5342628Y539385I56134J0D01*
G03X-5454896Y539385I-56134J0D01*
G37*
G36*
G01X-5454896Y337227D02*
G03X-5342628Y337227I56134J0D01*
G03X-5454896Y337227I-56134J0D01*
G37*
G36*
G01X-5262757Y-1866992D02*
G03X-5216990Y-1914471I48505J958D01*
G03X-5134153Y-1945599I48417J3062D01*
G03X-5165835Y-1862973I-34419J34189D01*
G03X-5212222Y-1817563I-48417J-3062D01*
G03X-5262605Y-1770043I-48505J-958D01*
G03X-5303865Y-1727474I-48207J-5445D01*
G03X-5368339Y-1685013I-48401J-3314D01*
G03X-5431710Y-1612574I-36311J32174D01*
G03X-5388577Y-1698614I27060J-40266D01*
G03X-5359213Y-1778802I36311J-32174D01*
G03X-5308935Y-1823965I48401J3314D01*
G03X-5262757Y-1866992I48207J5445D01*
G37*
G36*
G01X-5364701Y-3422310D02*
G03X-5328478Y-3341524I0J48514D01*
G03X-5327806Y-3277750I-36223J32272D01*
G03X-5364701Y-3197734I-36895J31501D01*
G03X-5401596Y-3277750I0J-48514D01*
G03X-5400924Y-3341524I36895J-31502D01*
G03X-5364701Y-3422310I36223J-32272D01*
G37*
G36*
G01X-5410792Y-3145751D02*
G03X-5313764Y-3145751I48514J0D01*
G03X-5410792Y-3145751I-48514J0D01*
G37*
G36*
G01X-5356058Y-2709451D02*
G03X-5327439Y-2621763I0J48514D01*
G03X-5356058Y-2534076I-28619J39173D01*
G03X-5384678Y-2621763I0J-48514D01*
G03X-5356058Y-2709451I28619J-39173D01*
G37*
G36*
G01X-5401704Y-4653649D02*
G03X-5304676Y-4653649I48514J0D01*
G03X-5401704Y-4653649I-48514J0D01*
G37*
G36*
G01X-5401704Y-4475849D02*
G03X-5304676Y-4475849I48514J0D01*
G03X-5401704Y-4475849I-48514J0D01*
G37*
G36*
G01X-5167538Y-6089141D02*
G03X-5141884Y-6063487I0J25654D01*
G01X-5141884Y-5883488D01*
G03X-5167538Y-5857834I-25654J0D01*
G01X-5347538Y-5857834D01*
G03X-5373192Y-5883488I0J-25654D01*
G01X-5373192Y-6063487D01*
G03X-5347538Y-6089141I25654J0D01*
G01X-5167538Y-6089141D01*
G37*
G36*
G01X-5373192Y-5719488D02*
G03X-5141884Y-5719488I115654J0D01*
G03X-5373192Y-5719488I-115654J0D01*
G37*
G36*
G01X-5359964Y-684421D02*
G03X-5262936Y-684421I48514J0D01*
G03X-5359964Y-684421I-48514J0D01*
G37*
G36*
G01X-5346350Y-1159363D02*
G03X-5249322Y-1159363I48514J0D01*
G03X-5346350Y-1159363I-48514J0D01*
G37*
G36*
G01X-5340419Y-4212961D02*
G03X-5243391Y-4212961I48514J0D01*
G03X-5340419Y-4212961I-48514J0D01*
G37*
G36*
G01X-5266790Y-3734950D02*
G03X-5169762Y-3734950I48514J0D01*
G03X-5266790Y-3734950I-48514J0D01*
G37*
G36*
G01X-5266790Y-3912750D02*
G03X-5169762Y-3912750I48514J0D01*
G03X-5266790Y-3912750I-48514J0D01*
G37*
G36*
G01X-5244931Y-1103616D02*
G03X-5147903Y-1103616I48514J0D01*
G03X-5244931Y-1103616I-48514J0D01*
G37*
G36*
G01X-5236750Y-4057636D02*
G03X-5139722Y-4057636I48514J0D01*
G03X-5236750Y-4057636I-48514J0D01*
G37*
G36*
G01X-5236524Y-2349941D02*
G03X-5139496Y-2349941I48514J0D01*
G03X-5236524Y-2349941I-48514J0D01*
G37*
G36*
G01X-5195204Y-3015668D02*
G03X-5098176Y-3015668I48514J0D01*
G03X-5195204Y-3015668I-48514J0D01*
G37*
G36*
G01X-5148681Y-3420918D02*
G03X-5051653Y-3420918I48514J0D01*
G03X-5148681Y-3420918I-48514J0D01*
G37*
G36*
G01X-5142780Y-3955360D02*
G03X-5045752Y-3955360I48514J0D01*
G03X-5142780Y-3955360I-48514J0D01*
G37*
G36*
G01X-5127286Y-2519832D02*
G03X-5030258Y-2519832I48514J0D01*
G03X-5127286Y-2519832I-48514J0D01*
G37*
G36*
G01X-5119192Y-5973488D02*
G03X-4887884Y-5973488I115654J0D01*
G03X-5119192Y-5973488I-115654J0D01*
G37*
G36*
G01X-5119192Y-5719488D02*
G03X-4887884Y-5719488I115654J0D01*
G03X-5119192Y-5719488I-115654J0D01*
G37*
G36*
G01X-5105684Y-655758D02*
G03X-5008656Y-655758I48514J0D01*
G03X-5105684Y-655758I-48514J0D01*
G37*
G36*
G01X-5102347Y-505726D02*
G03X-5005319Y-505726I48514J0D01*
G03X-5102347Y-505726I-48514J0D01*
G37*
G36*
G01X-5092686Y-4103316D02*
G03X-4995658Y-4103316I48514J0D01*
G03X-5092686Y-4103316I-48514J0D01*
G37*
G36*
G01X-5068950Y-3734250D02*
G03X-4971922Y-3734250I48514J0D01*
G03X-5068950Y-3734250I-48514J0D01*
G37*
G36*
G01X-5023111Y-2587144D02*
G03X-4926083Y-2587144I48514J0D01*
G03X-5023111Y-2587144I-48514J0D01*
G37*
G36*
G01X-5021203Y-5103370D02*
G03X-4924175Y-5103370I48514J0D01*
G03X-5021203Y-5103370I-48514J0D01*
G37*
G36*
G01X-5013317Y-4163448D02*
G03X-4916289Y-4163448I48514J0D01*
G03X-5013317Y-4163448I-48514J0D01*
G37*
G36*
G01X-4960217Y-1156466D02*
G03X-4863189Y-1156466I48514J0D01*
G03X-4960217Y-1156466I-48514J0D01*
G37*
G36*
G01X-4942046Y-3862678D02*
G03X-4858679Y-3831838I34935J33662D01*
G03X-4824767Y-3749673I-1024J48503D01*
G03X-4908134Y-3780512I-34935J-33662D01*
G03X-4942046Y-3862678I1024J-48503D01*
G37*
G36*
G01X-4887032Y-1249566D02*
G03X-4790004Y-1249566I48514J0D01*
G03X-4887032Y-1249566I-48514J0D01*
G37*
G36*
G01X-4884853Y-4513412D02*
G03X-4787825Y-4513412I48514J0D01*
G03X-4884853Y-4513412I-48514J0D01*
G37*
G36*
G01X-4884853Y-4413412D02*
G03X-4787825Y-4413412I48514J0D01*
G03X-4884853Y-4413412I-48514J0D01*
G37*
G36*
G01X-4869774Y-4921818D02*
G03X-4772746Y-4921818I48514J0D01*
G03X-4869774Y-4921818I-48514J0D01*
G37*
G36*
G01X-4865192Y-5973488D02*
G03X-4633884Y-5973488I115654J0D01*
G03X-4865192Y-5973488I-115654J0D01*
G37*
G36*
G01X-4865192Y-5719488D02*
G03X-4633884Y-5719488I115654J0D01*
G03X-4865192Y-5719488I-115654J0D01*
G37*
G36*
G01X-4862892Y-3874696D02*
G03X-4783918Y-3912455I48514J0D01*
G03X-4704944Y-3874696I30460J37760D01*
G03X-4783918Y-3836936I-48514J0D01*
G03X-4862892Y-3874696I-30460J-37760D01*
G37*
G36*
G01X-4843403Y-5103370D02*
G03X-4746375Y-5103370I48514J0D01*
G03X-4843403Y-5103370I-48514J0D01*
G37*
G36*
G01X-4835118Y124685D02*
G03X-4738090Y124685I48514J0D01*
G03X-4835118Y124685I-48514J0D01*
G37*
G36*
G01X-4835118Y-53115D02*
G03X-4738090Y-53115I48514J0D01*
G03X-4835118Y-53115I-48514J0D01*
G37*
G36*
G01X-4717806Y-2182406D02*
G03X-4759922Y-2095093I-22924J42757D01*
G03X-4809333Y-2011692I-26487J40645D01*
G03X-4767217Y-2099004I22924J-42757D01*
G03X-4717806Y-2182406I26487J-40645D01*
G37*
G36*
G01X-4788400Y-1018086D02*
G03X-4691372Y-1018086I48514J0D01*
G03X-4788400Y-1018086I-48514J0D01*
G37*
G36*
G01X-4788400Y-840286D02*
G03X-4691372Y-840286I48514J0D01*
G03X-4788400Y-840286I-48514J0D01*
G37*
G36*
G01X-4788400Y-662486D02*
G03X-4691372Y-662486I48514J0D01*
G03X-4788400Y-662486I-48514J0D01*
G37*
G36*
G01X-4784853Y-4513412D02*
G03X-4687825Y-4513412I48514J0D01*
G03X-4784853Y-4513412I-48514J0D01*
G37*
G36*
G01X-4784853Y-4413412D02*
G03X-4687825Y-4413412I48514J0D01*
G03X-4784853Y-4413412I-48514J0D01*
G37*
G36*
G01X-4746802Y-2445404D02*
G03X-4659676Y-2476498I48482J-1763D01*
G03X-4570522Y-2451814I40672J26447D01*
G03X-4657648Y-2420721I-48482J1763D01*
G03X-4746802Y-2445404I-40672J-26446D01*
G37*
G36*
G01X-4716996Y-3671661D02*
G03X-4619968Y-3671661I48514J0D01*
G03X-4716996Y-3671661I-48514J0D01*
G37*
G36*
G01X-4657318Y124685D02*
G03X-4560290Y124685I48514J0D01*
G03X-4657318Y124685I-48514J0D01*
G37*
G36*
G01X-4657318Y-230915D02*
G03X-4560290Y-230915I48514J0D01*
G03X-4657318Y-230915I-48514J0D01*
G37*
G36*
G01X-4657318Y-53115D02*
G03X-4560290Y-53115I48514J0D01*
G03X-4657318Y-53115I-48514J0D01*
G37*
G36*
G01X-4653562Y-5049697D02*
G03X-4556534Y-5049697I48514J0D01*
G03X-4653562Y-5049697I-48514J0D01*
G37*
G36*
G01X-4653562Y-4871897D02*
G03X-4556534Y-4871897I48514J0D01*
G03X-4653562Y-4871897I-48514J0D01*
G37*
G36*
G01X-4618757Y-2588233D02*
G03X-4521729Y-2588233I48514J0D01*
G03X-4618757Y-2588233I-48514J0D01*
G37*
G36*
G01X-4611192Y-5973488D02*
G03X-4379884Y-5973488I115654J0D01*
G03X-4611192Y-5973488I-115654J0D01*
G37*
G36*
G01X-4611192Y-5719488D02*
G03X-4379884Y-5719488I115654J0D01*
G03X-4611192Y-5719488I-115654J0D01*
G37*
G36*
G01X-4610600Y-662486D02*
G03X-4513572Y-662486I48514J0D01*
G03X-4610600Y-662486I-48514J0D01*
G37*
G36*
G01X-4610600Y-840286D02*
G03X-4513572Y-840286I48514J0D01*
G03X-4610600Y-840286I-48514J0D01*
G37*
G36*
G01X-4610600Y-1018086D02*
G03X-4513572Y-1018086I48514J0D01*
G03X-4610600Y-1018086I-48514J0D01*
G37*
G36*
G01X-4598186Y-1789043D02*
G03X-4501158Y-1789043I48514J0D01*
G03X-4598186Y-1789043I-48514J0D01*
G37*
G36*
G01X-4575962Y-4008933D02*
G03X-4478934Y-4008933I48514J0D01*
G03X-4575962Y-4008933I-48514J0D01*
G37*
G36*
G01X-4517742Y-4272924D02*
G03X-4420714Y-4272924I48514J0D01*
G03X-4517742Y-4272924I-48514J0D01*
G37*
G36*
G01X-4479518Y124685D02*
G03X-4382490Y124685I48514J0D01*
G03X-4479518Y124685I-48514J0D01*
G37*
G36*
G01X-4479518Y-230915D02*
G03X-4382490Y-230915I48514J0D01*
G03X-4479518Y-230915I-48514J0D01*
G37*
G36*
G01X-4479518Y-53115D02*
G03X-4382490Y-53115I48514J0D01*
G03X-4479518Y-53115I-48514J0D01*
G37*
G36*
G01X-4475762Y-4871897D02*
G03X-4378734Y-4871897I48514J0D01*
G03X-4475762Y-4871897I-48514J0D01*
G37*
G36*
G01X-4475762Y-5049697D02*
G03X-4378734Y-5049697I48514J0D01*
G03X-4475762Y-5049697I-48514J0D01*
G37*
G36*
G01X-4450725Y-2098355D02*
G03X-4421447Y-2185552I29278J-38683D01*
G03X-4392169Y-2098355I0J48514D01*
G03X-4393983Y-2019680I-29278J38683D01*
G03X-4408128Y-1926762I-18983J44646D01*
G03X-4440430Y-2015025I-4838J-48272D01*
G03X-4450725Y-2098355I18983J-44646D01*
G37*
G36*
G01X-4430865Y-2418580D02*
G03X-4401772Y-2507551I26684J-40516D01*
G03X-4381649Y-2416133I-2409J48454D01*
G03X-4384904Y-2333134I-26684J40517D01*
G03X-4421490Y-2248072I-31608J36804D01*
G03X-4439940Y-2338812I4979J-48258D01*
G03X-4430865Y-2418580I31608J-36804D01*
G37*
G36*
G01X-4459223Y-3099117D02*
G03X-4362195Y-3099117I48514J0D01*
G03X-4459223Y-3099117I-48514J0D01*
G37*
G36*
G01X-4456662Y-1816755D02*
G03X-4359634Y-1816755I48514J0D01*
G03X-4456662Y-1816755I-48514J0D01*
G37*
G36*
G01X-4452753Y-1015171D02*
G03X-4355725Y-1015171I48514J0D01*
G03X-4452753Y-1015171I-48514J0D01*
G37*
G36*
G01X-4452753Y-837371D02*
G03X-4355725Y-837371I48514J0D01*
G03X-4452753Y-837371I-48514J0D01*
G37*
G36*
G01X-4445879Y-1655641D02*
G03X-4348851Y-1655641I48514J0D01*
G03X-4445879Y-1655641I-48514J0D01*
G37*
G36*
G01X-4357192Y-5973488D02*
G03X-4125884Y-5973488I115654J0D01*
G03X-4357192Y-5973488I-115654J0D01*
G37*
G36*
G01X-4357192Y-5719488D02*
G03X-4125884Y-5719488I115654J0D01*
G03X-4357192Y-5719488I-115654J0D01*
G37*
G36*
G01X-4352003Y-4399924D02*
G03X-4254975Y-4399924I48514J0D01*
G03X-4352003Y-4399924I-48514J0D01*
G37*
G36*
G01X-4262920Y-2423254D02*
G03X-4195809Y-2418765I31222J37132D01*
G03X-4107059Y-2456445I46498J-13840D01*
G03X-4185200Y-2399962I-42253J23839D01*
G03X-4246690Y-2339982I-46498J13840D01*
G03X-4312896Y-2270531I-38320J29753D01*
G03X-4270018Y-2356369I27886J-39698D01*
G03X-4262920Y-2423254I38320J-29752D01*
G37*
G36*
G01X-4329686Y-2776324D02*
G03X-4232658Y-2776324I48514J0D01*
G03X-4329686Y-2776324I-48514J0D01*
G37*
G36*
G01X-4205968Y-3674872D02*
G03X-4231717Y-3587954I-29460J38545D01*
G03X-4308827Y-3540291I-47649J9118D01*
G03X-4283077Y-3627209I29460J-38545D01*
G03X-4205968Y-3674872I47649J-9118D01*
G37*
G36*
G01X-4311078Y-3085894D02*
G03X-4228035Y-3052676I34537J34071D01*
G03X-4179725Y-3005183I-193J48514D01*
G03X-4130995Y-2946957I1201J48499D01*
G03X-4076557Y-2886796I7491J47932D01*
G03X-4062634Y-2878251I-18052J45030D01*
G03X-3985215Y-2837369I28944J38934D01*
G03X-4065665Y-2802832I-48475J-1948D01*
G03X-4077220Y-2796475I-28944J-38934D01*
G03X-4147203Y-2742614I-47250J11003D01*
G03X-4141859Y-2830762I22733J-42858D01*
G03X-4141557Y-2853995I47250J-11004D01*
G03X-4171034Y-2908751I18052J-45030D01*
G03X-4227027Y-2955664I-7490J-47932D01*
G03X-4276734Y-3003310I-1201J-48499D01*
G03X-4311078Y-3085894I193J-48514D01*
G37*
G36*
G01X-4318214Y-1845466D02*
G03X-4221186Y-1845466I48514J0D01*
G03X-4318214Y-1845466I-48514J0D01*
G37*
G36*
G01X-4316308Y-3235749D02*
G03X-4219280Y-3235749I48514J0D01*
G03X-4316308Y-3235749I-48514J0D01*
G37*
G36*
G01X-4301718Y124685D02*
G03X-4204690Y124685I48514J0D01*
G03X-4301718Y124685I-48514J0D01*
G37*
G36*
G01X-4301718Y-230915D02*
G03X-4204690Y-230915I48514J0D01*
G03X-4301718Y-230915I-48514J0D01*
G37*
G36*
G01X-4301718Y-53115D02*
G03X-4204690Y-53115I48514J0D01*
G03X-4301718Y-53115I-48514J0D01*
G37*
G36*
G01X-4297962Y-5049697D02*
G03X-4200934Y-5049697I48514J0D01*
G03X-4297962Y-5049697I-48514J0D01*
G37*
G36*
G01X-4297962Y-4871897D02*
G03X-4200934Y-4871897I48514J0D01*
G03X-4297962Y-4871897I-48514J0D01*
G37*
G36*
G01X-4287843Y-2538579D02*
G03X-4190815Y-2538579I48514J0D01*
G03X-4287843Y-2538579I-48514J0D01*
G37*
G36*
G01X-4274953Y-837371D02*
G03X-4177925Y-837371I48514J0D01*
G03X-4274953Y-837371I-48514J0D01*
G37*
G36*
G01X-4274953Y-1015171D02*
G03X-4177925Y-1015171I48514J0D01*
G03X-4274953Y-1015171I-48514J0D01*
G37*
G36*
G01X-4168020Y-1723013D02*
G03X-4070992Y-1723013I48514J0D01*
G03X-4168020Y-1723013I-48514J0D01*
G37*
G36*
G01X-4123918Y124685D02*
G03X-4026890Y124685I48514J0D01*
G03X-4123918Y124685I-48514J0D01*
G37*
G36*
G01X-4123918Y-230915D02*
G03X-4026890Y-230915I48514J0D01*
G03X-4123918Y-230915I-48514J0D01*
G37*
G36*
G01X-4123918Y-53115D02*
G03X-4026890Y-53115I48514J0D01*
G03X-4123918Y-53115I-48514J0D01*
G37*
G36*
G01X-4111080Y-3309937D02*
G03X-4098794Y-3341524I48509J686D01*
G03X-4062571Y-3422310I36223J-32272D01*
G03X-4026348Y-3341524I0J48514D01*
G03X-4014062Y-3309937I-36223J32272D01*
G03X-4025450Y-3278016I-48509J686D01*
G03X-4062571Y-3198267I-37121J31235D01*
G03X-4099692Y-3278016I0J-48514D01*
G03X-4111080Y-3309937I37121J-31235D01*
G37*
G36*
G01X-4103192Y-5973488D02*
G03X-3871884Y-5973488I115654J0D01*
G03X-4103192Y-5973488I-115654J0D01*
G37*
G36*
G01X-4103192Y-5719488D02*
G03X-3871884Y-5719488I115654J0D01*
G03X-4103192Y-5719488I-115654J0D01*
G37*
G36*
G01X-4062163Y-2391263D02*
G03X-3965135Y-2391263I48514J0D01*
G03X-4062163Y-2391263I-48514J0D01*
G37*
G36*
G01X-3896275Y-945329D02*
G03X-3925030Y-859760I-31238J37119D01*
G03X-4004431Y-816812I-48163J5830D01*
G03X-3975675Y-902381I31238J-37119D01*
G03X-3896275Y-945329I48163J-5830D01*
G37*
G36*
G01X-3946118Y124685D02*
G03X-3849090Y124685I48514J0D01*
G03X-3946118Y124685I-48514J0D01*
G37*
G36*
G01X-3946118Y-230915D02*
G03X-3849090Y-230915I48514J0D01*
G03X-3946118Y-230915I-48514J0D01*
G37*
G36*
G01X-3946118Y-53115D02*
G03X-3849090Y-53115I48514J0D01*
G03X-3946118Y-53115I-48514J0D01*
G37*
G36*
G01X-3857486Y-2315416D02*
G03X-3817426Y-2236283I2481J48451D01*
G03X-3849195Y-2153473I-34250J34359D01*
G03X-3889255Y-2232606I-2481J-48451D01*
G03X-3857486Y-2315416I34250J-34359D01*
G37*
G36*
G01X-3844637Y-3682849D02*
G03X-3837372Y-3776778I15207J-46069D01*
G03X-3800159Y-3690230I7942J47859D01*
G03X-3782607Y-3608377I-15207J46069D01*
G03X-3808030Y-3520542I-28297J39407D01*
G03X-3843663Y-3604755I-2874J-48429D01*
G03X-3844637Y-3682849I28297J-39407D01*
G37*
G36*
G01X-3868858Y-1945222D02*
G03X-3771830Y-1945222I48514J0D01*
G03X-3868858Y-1945222I-48514J0D01*
G37*
G36*
G01X-3862545Y-587934D02*
G03X-3765517Y-587934I48514J0D01*
G03X-3862545Y-587934I-48514J0D01*
G37*
G36*
G01X-3862545Y-765734D02*
G03X-3765517Y-765734I48514J0D01*
G03X-3862545Y-765734I-48514J0D01*
G37*
G36*
G01X-3859300Y-964320D02*
G03X-3762272Y-964320I48514J0D01*
G03X-3859300Y-964320I-48514J0D01*
G37*
G36*
G01X-3849192Y-5719488D02*
G03X-3617884Y-5719488I115654J0D01*
G03X-3849192Y-5719488I-115654J0D01*
G37*
G36*
G01X-3849192Y-5973488D02*
G03X-3617884Y-5973488I115654J0D01*
G03X-3849192Y-5973488I-115654J0D01*
G37*
G36*
G01X-3839588Y-4584217D02*
G03X-3742560Y-4584217I48514J0D01*
G03X-3839588Y-4584217I-48514J0D01*
G37*
G36*
G01X-3839588Y-4762017D02*
G03X-3742560Y-4762017I48514J0D01*
G03X-3839588Y-4762017I-48514J0D01*
G37*
G36*
G01X-3839588Y-4939817D02*
G03X-3742560Y-4939817I48514J0D01*
G03X-3839588Y-4939817I-48514J0D01*
G37*
G36*
G01X-3839588Y-4406417D02*
G03X-3742560Y-4406417I48514J0D01*
G03X-3839588Y-4406417I-48514J0D01*
G37*
G36*
G01X-3810743Y-4193593D02*
G03X-3713715Y-4193593I48514J0D01*
G03X-3810743Y-4193593I-48514J0D01*
G37*
G36*
G01X-3768318Y124685D02*
G03X-3671290Y124685I48514J0D01*
G03X-3768318Y124685I-48514J0D01*
G37*
G36*
G01X-3746719Y-2032720D02*
G03X-3663075Y-2075309I47399J-10341D01*
G03X-3569292Y-2071430I46383J14220D01*
G03X-3652937Y-2028842I-47399J10341D01*
G03X-3746719Y-2032720I-46383J-14220D01*
G37*
G36*
G01X-3740255Y-116644D02*
G03X-3643227Y-116644I48514J0D01*
G03X-3740255Y-116644I-48514J0D01*
G37*
G36*
G01X-3523696Y-2748844D02*
G03X-3439981Y-2722702I35671J32881D01*
G03X-3513273Y-2674537I-48044J6739D01*
G03X-3541518Y-2659476I-35672J-32881D01*
G03X-3559541Y-2623961I-48461J-2262D01*
G03X-3577123Y-2559275I-42638J23143D01*
G03X-3642541Y-2573901I-25056J-41543D01*
G03X-3646086Y-2564071I-47145J-11446D01*
G03X-3656459Y-2475739I-24447J41904D01*
G03X-3714133Y-2543443I-14074J-46428D01*
G03X-3725004Y-2618607I24447J-41904D01*
G03X-3649323Y-2612264I35319J33260D01*
G03X-3632618Y-2638595I47144J11446D01*
G03X-3597406Y-2709680I42638J-23143D01*
G03X-3523696Y-2748844I48461J2262D01*
G37*
G36*
G01X-3724942Y-4585957D02*
G03X-3627914Y-4585957I48514J0D01*
G03X-3724942Y-4585957I-48514J0D01*
G37*
G36*
G01X-3724942Y-4941557D02*
G03X-3627914Y-4941557I48514J0D01*
G03X-3724942Y-4941557I-48514J0D01*
G37*
G36*
G01X-3724942Y-4763757D02*
G03X-3627914Y-4763757I48514J0D01*
G03X-3724942Y-4763757I-48514J0D01*
G37*
G36*
G01X-3724764Y-3313425D02*
G03X-3627736Y-3313425I48514J0D01*
G03X-3724764Y-3313425I-48514J0D01*
G37*
G36*
G01X-3714980Y-4101676D02*
G03X-3617952Y-4101676I48514J0D01*
G03X-3714980Y-4101676I-48514J0D01*
G37*
G36*
G01X-3668551Y-803616D02*
G03X-3571523Y-803616I48514J0D01*
G03X-3668551Y-803616I-48514J0D01*
G37*
G36*
G01X-3514681Y-358206D02*
G03X-3602079Y-389837I-38960J-28909D01*
G03X-3657683Y-464315I-16644J-45570D01*
G03X-3570285Y-432684I38960J28909D01*
G03X-3514681Y-358206I16644J45570D01*
G37*
G36*
G01X-3634040Y-1891146D02*
G03X-3537012Y-1891146I48514J0D01*
G03X-3634040Y-1891146I-48514J0D01*
G37*
G36*
G01X-3615471Y-3612903D02*
G03X-3525135Y-3632282I48276J4799D01*
G03X-3440383Y-3595496I36476J31986D01*
G03X-3530718Y-3576118I-48276J-4799D01*
G03X-3615471Y-3612903I-36476J-31986D01*
G37*
G36*
G01X-3600651Y-953603D02*
G03X-3503623Y-953603I48514J0D01*
G03X-3600651Y-953603I-48514J0D01*
G37*
G36*
G01X-3595192Y-5973488D02*
G03X-3363884Y-5973488I115654J0D01*
G03X-3595192Y-5973488I-115654J0D01*
G37*
G36*
G01X-3595192Y-5719488D02*
G03X-3363884Y-5719488I115654J0D01*
G03X-3595192Y-5719488I-115654J0D01*
G37*
G36*
G01X-3590518Y124685D02*
G03X-3493490Y124685I48514J0D01*
G03X-3590518Y124685I-48514J0D01*
G37*
G36*
G01X-3581593Y-2509458D02*
G03X-3484565Y-2509458I48514J0D01*
G03X-3581593Y-2509458I-48514J0D01*
G37*
G36*
G01X-3441451Y-1682052D02*
G03X-3525799Y-1712135I-35902J-32629D01*
G03X-3445069Y-1750894I48447J-2546D01*
G03X-3380194Y-1757178I35902J32629D01*
G03X-3367615Y-1693225I-28973J38912D01*
G03X-3302148Y-1642289I17277J45333D01*
G03X-3289611Y-1555291I-14067J46430D01*
G03X-3364405Y-1601462I-26604J-40569D01*
G03X-3391890Y-1672932I14067J-46430D01*
G03X-3441451Y-1682052I-17277J-45334D01*
G37*
G36*
G01X-3522097Y-1879002D02*
G03X-3425069Y-1879002I48514J0D01*
G03X-3522097Y-1879002I-48514J0D01*
G37*
G36*
G01X-3482191Y-2309124D02*
G03X-3385163Y-2309124I48514J0D01*
G03X-3482191Y-2309124I-48514J0D01*
G37*
G36*
G01X-3339106Y-2755789D02*
G03X-3424813Y-2737290I-47237J-11058D01*
G03X-3384859Y-2815339I38470J-29557D01*
G03X-3329264Y-2852069I47237J11058D01*
G03X-3241613Y-2860852I45853J15846D01*
G03X-3291769Y-2788435I-41798J24628D01*
G03X-3339106Y-2755789I-45853J-15846D01*
G37*
G36*
G01X-3413450Y-4755105D02*
G03X-3316422Y-4755105I48514J0D01*
G03X-3413450Y-4755105I-48514J0D01*
G37*
G36*
G01X-3413450Y-4577305D02*
G03X-3316422Y-4577305I48514J0D01*
G03X-3413450Y-4577305I-48514J0D01*
G37*
G36*
G01X-3413450Y-4932905D02*
G03X-3316422Y-4932905I48514J0D01*
G03X-3413450Y-4932905I-48514J0D01*
G37*
G36*
G01X-3362131Y-803616D02*
G03X-3265103Y-803616I48514J0D01*
G03X-3362131Y-803616I-48514J0D01*
G37*
G36*
G01X-3362039Y-953603D02*
G03X-3265011Y-953603I48514J0D01*
G03X-3362039Y-953603I-48514J0D01*
G37*
G36*
G01X-3346471Y-4481110D02*
G03X-3263731Y-4449562I34305J34304D01*
G03X-3232182Y-4366821I-2756J48436D01*
G03X-3314922Y-4398370I-34305J-34304D01*
G03X-3346471Y-4481110I2756J-48436D01*
G37*
G36*
G01X-3352906Y-204972D02*
G03X-3255878Y-204972I48514J0D01*
G03X-3352906Y-204972I-48514J0D01*
G37*
G36*
G01X-3341192Y-5973488D02*
G03X-3109884Y-5973488I115654J0D01*
G03X-3341192Y-5973488I-115654J0D01*
G37*
G36*
G01X-3341192Y-5719488D02*
G03X-3109884Y-5719488I115654J0D01*
G03X-3341192Y-5719488I-115654J0D01*
G37*
G36*
G01X-3313467Y-4758612D02*
G03X-3216439Y-4758612I48514J0D01*
G03X-3313467Y-4758612I-48514J0D01*
G37*
G36*
G01X-3313467Y-4580812D02*
G03X-3216439Y-4580812I48514J0D01*
G03X-3313467Y-4580812I-48514J0D01*
G37*
G36*
G01X-3313467Y-4936412D02*
G03X-3216439Y-4936412I48514J0D01*
G03X-3313467Y-4936412I-48514J0D01*
G37*
G36*
G01X-3273118Y-5256783D02*
G03X-3212975Y-5272883I39693J27894D01*
G03X-3123763Y-5267271I43421J21638D01*
G03X-3190004Y-5207252I-45790J16027D01*
G03X-3200197Y-5193542I-43421J-21638D01*
G03X-3235519Y-5110888I-34461J34147D01*
G03X-3267887Y-5194743I861J-48506D01*
G03X-3273118Y-5256783I34461J-34147D01*
G37*
G36*
G01X-3241715Y-1367047D02*
G03X-3144687Y-1367047I48514J0D01*
G03X-3241715Y-1367047I-48514J0D01*
G37*
G36*
G01X-3218928Y-2660152D02*
G03X-3121900Y-2660152I48514J0D01*
G03X-3218928Y-2660152I-48514J0D01*
G37*
G36*
G01X-3215605Y-3014172D02*
G03X-3118577Y-3014172I48514J0D01*
G03X-3215605Y-3014172I-48514J0D01*
G37*
G36*
G01X-3186682Y-4608186D02*
G03X-3089654Y-4608186I48514J0D01*
G03X-3186682Y-4608186I-48514J0D01*
G37*
G36*
G01X-3186682Y-4744705D02*
G03X-3089654Y-4744705I48514J0D01*
G03X-3186682Y-4744705I-48514J0D01*
G37*
G36*
G01X-3186682Y-4859431D02*
G03X-3089654Y-4859431I48514J0D01*
G03X-3186682Y-4859431I-48514J0D01*
G37*
G36*
G01X-3169754Y-3154126D02*
G03X-3072726Y-3154126I48514J0D01*
G03X-3169754Y-3154126I-48514J0D01*
G37*
G36*
G01X-3169222Y-3323596D02*
G03X-3072194Y-3323596I48514J0D01*
G03X-3169222Y-3323596I-48514J0D01*
G37*
G36*
G01X-3164460Y-1158206D02*
G03X-3067432Y-1158206I48514J0D01*
G03X-3164460Y-1158206I-48514J0D01*
G37*
G36*
G01X-3032419Y-3521493D02*
G03X-3053399Y-3433938I-28077J39564D01*
G03X-3129120Y-3385231I-47645J9143D01*
G03X-3108141Y-3472787I28077J-39564D01*
G03X-3032419Y-3521493I47645J-9143D01*
G37*
G36*
G01X-3118779Y-204972D02*
G03X-3021751Y-204972I48514J0D01*
G03X-3118779Y-204972I-48514J0D01*
G37*
G36*
G01X-3098836Y-1885778D02*
G03X-3001808Y-1885778I48514J0D01*
G03X-3098836Y-1885778I-48514J0D01*
G37*
G36*
G01X-3087192Y-5973488D02*
G03X-2855884Y-5973488I115654J0D01*
G03X-3087192Y-5973488I-115654J0D01*
G37*
G36*
G01X-3087192Y-5719488D02*
G03X-2855884Y-5719488I115654J0D01*
G03X-3087192Y-5719488I-115654J0D01*
G37*
G36*
G01X-3075807Y539385D02*
G03X-2963539Y539385I56134J0D01*
G03X-3075807Y539385I-56134J0D01*
G37*
G36*
G01X-3066347Y-3323783D02*
G03X-2969319Y-3323783I48514J0D01*
G03X-3066347Y-3323783I-48514J0D01*
G37*
G36*
G01X-3034357Y-1084943D02*
G03X-2937329Y-1084943I48514J0D01*
G03X-3034357Y-1084943I-48514J0D01*
G37*
G36*
G01X-3032915Y-971018D02*
G03X-2935887Y-971018I48514J0D01*
G03X-3032915Y-971018I-48514J0D01*
G37*
G36*
G01X-3030861Y-749136D02*
G03X-2933833Y-749136I48514J0D01*
G03X-3030861Y-749136I-48514J0D01*
G37*
G36*
G01X-3023043Y-2825993D02*
G03X-2926015Y-2825993I48514J0D01*
G03X-3023043Y-2825993I-48514J0D01*
G37*
G36*
G01X-3023043Y-2660152D02*
G03X-2926015Y-2660152I48514J0D01*
G03X-3023043Y-2660152I-48514J0D01*
G37*
G36*
G01X-3007705Y-1325472D02*
G03X-2924823Y-1358212I48491J1478D01*
G03X-2844090Y-1320484I32242J36250D01*
G03X-2926971Y-1287743I-48491J-1478D01*
G03X-3007705Y-1325472I-32242J-36250D01*
G37*
G36*
G01X-2991954Y-3154126D02*
G03X-2894926Y-3154126I48514J0D01*
G03X-2991954Y-3154126I-48514J0D01*
G37*
G36*
G01X-2967810Y-4493982D02*
G03X-2870782Y-4493982I48514J0D01*
G03X-2967810Y-4493982I-48514J0D01*
G37*
G36*
G01X-2943385Y-2077858D02*
G03X-2846357Y-2077858I48514J0D01*
G03X-2943385Y-2077858I-48514J0D01*
G37*
G36*
G01X-2929366Y-2468884D02*
G03X-2832338Y-2468884I48514J0D01*
G03X-2929366Y-2468884I-48514J0D01*
G37*
G36*
G01X-2928322Y-2963562D02*
G03X-2831294Y-2963562I48514J0D01*
G03X-2928322Y-2963562I-48514J0D01*
G37*
G36*
G01X-2794958Y-4211924D02*
G03X-2829646Y-4127514I-32585J35942D01*
G03X-2910262Y-4084742I-48031J6830D01*
G03X-2875574Y-4169152I32585J-35942D01*
G03X-2794958Y-4211924I48031J-6830D01*
G37*
G36*
G01X-2914259Y-4734525D02*
G03X-2817231Y-4734525I48514J0D01*
G03X-2914259Y-4734525I-48514J0D01*
G37*
G36*
G01X-2914259Y-4582125D02*
G03X-2817231Y-4582125I48514J0D01*
G03X-2914259Y-4582125I-48514J0D01*
G37*
G36*
G01X-2914259Y-5064725D02*
G03X-2817231Y-5064725I48514J0D01*
G03X-2914259Y-5064725I-48514J0D01*
G37*
G36*
G01X-2914259Y-4886925D02*
G03X-2817231Y-4886925I48514J0D01*
G03X-2914259Y-4886925I-48514J0D01*
G37*
G36*
G01X-2856557Y-1084943D02*
G03X-2759529Y-1084943I48514J0D01*
G03X-2856557Y-1084943I-48514J0D01*
G37*
G36*
G01X-2855399Y-2865727D02*
G03X-2758371Y-2865727I48514J0D01*
G03X-2855399Y-2865727I-48514J0D01*
G37*
G36*
G01X-2855399Y-2699886D02*
G03X-2758371Y-2699886I48514J0D01*
G03X-2855399Y-2699886I-48514J0D01*
G37*
G36*
G01X-2600914Y-2474893D02*
G03X-2664410Y-2475905I-31164J-37181D01*
G03X-2728833Y-2476639I-31798J-36640D01*
G03X-2806226Y-2512728I-28962J-38921D01*
G03X-2840863Y-2594705I487J-48512D01*
G03X-2757308Y-2564071I35124J33465D01*
G03X-2725170Y-2551465I-487J48512D01*
G03X-2663876Y-2548714I28962J38921D01*
G03X-2599696Y-2548199I31798J36640D01*
G03X-2520052Y-2512847I31164J37181D01*
G03X-2479150Y-2432525I4449J48310D01*
G03X-2564083Y-2462709I-36453J-32012D01*
G03X-2600914Y-2474893I-4449J-48310D01*
G37*
G36*
G01X-2852231Y-971018D02*
G03X-2755203Y-971018I48514J0D01*
G03X-2852231Y-971018I-48514J0D01*
G37*
G36*
G01X-2839245Y-1210043D02*
G03X-2742217Y-1210043I48514J0D01*
G03X-2839245Y-1210043I-48514J0D01*
G37*
G36*
G01X-2833192Y-5973488D02*
G03X-2601884Y-5973488I115654J0D01*
G03X-2833192Y-5973488I-115654J0D01*
G37*
G36*
G01X-2833192Y-5719488D02*
G03X-2601884Y-5719488I115654J0D01*
G03X-2833192Y-5719488I-115654J0D01*
G37*
G36*
G01X-2814154Y-3154126D02*
G03X-2717126Y-3154126I48514J0D01*
G03X-2814154Y-3154126I-48514J0D01*
G37*
G36*
G01X-2811132Y441058D02*
G03X-2714104Y441058I48514J0D01*
G03X-2811132Y441058I-48514J0D01*
G37*
G36*
G01X-2790402Y-2271022D02*
G03X-2693374Y-2271022I48514J0D01*
G03X-2790402Y-2271022I-48514J0D01*
G37*
G36*
G01X-2750126Y-2921969D02*
G03X-2653098Y-2921969I48514J0D01*
G03X-2750126Y-2921969I-48514J0D01*
G37*
G36*
G01X-2750126Y-2756128D02*
G03X-2653098Y-2756128I48514J0D01*
G03X-2750126Y-2756128I-48514J0D01*
G37*
G36*
G01X-2736459Y-4582125D02*
G03X-2639431Y-4582125I48514J0D01*
G03X-2736459Y-4582125I-48514J0D01*
G37*
G36*
G01X-2736459Y-4734525D02*
G03X-2639431Y-4734525I48514J0D01*
G03X-2736459Y-4734525I-48514J0D01*
G37*
G36*
G01X-2735844Y-1084943D02*
G03X-2638816Y-1084943I48514J0D01*
G03X-2735844Y-1084943I-48514J0D01*
G37*
G36*
G01X-2708146Y-3509810D02*
G03X-2611118Y-3509810I48514J0D01*
G03X-2708146Y-3509810I-48514J0D01*
G37*
G36*
G01X-2697507Y-4143941D02*
G03X-2600479Y-4143941I48514J0D01*
G03X-2697507Y-4143941I-48514J0D01*
G37*
G36*
G01X-2639006Y-771855D02*
G03X-2541978Y-771855I48514J0D01*
G03X-2639006Y-771855I-48514J0D01*
G37*
G36*
G01X-2615299Y-1234076D02*
G03X-2518271Y-1234076I48514J0D01*
G03X-2615299Y-1234076I-48514J0D01*
G37*
G36*
G01X-2579192Y-5719488D02*
G03X-2347884Y-5719488I115654J0D01*
G03X-2579192Y-5719488I-115654J0D01*
G37*
G36*
G01X-2579192Y-5973488D02*
G03X-2347884Y-5973488I115654J0D01*
G03X-2579192Y-5973488I-115654J0D01*
G37*
G36*
G01X-2562794Y626706D02*
G03X-2465766Y626706I48514J0D01*
G03X-2562794Y626706I-48514J0D01*
G37*
G36*
G01X-2558044Y-1084943D02*
G03X-2461016Y-1084943I48514J0D01*
G03X-2558044Y-1084943I-48514J0D01*
G37*
G36*
G01X-2537462Y-5286608D02*
G03X-2440434Y-5286608I48514J0D01*
G03X-2537462Y-5286608I-48514J0D01*
G37*
G36*
G01X-2471384Y-3789263D02*
G03X-2471260Y-3857406I34598J-34009D01*
G03X-2479288Y-3882318I40449J-26785D01*
G03X-2502735Y-3966652I8443J-47774D01*
G03X-2422368Y-3931965I31889J36561D01*
G03X-2396337Y-3850057I-8443J47774D01*
G03X-2396421Y-3796360I-40449J26785D01*
G03X-2397685Y-3727103I-34598J34009D01*
G03X-2445037Y-3653313I-41165J25671D01*
G03X-2472184Y-3736680I6186J-48118D01*
G03X-2471384Y-3789263I41165J-25671D01*
G37*
G36*
G01X-2518153Y-4127497D02*
G03X-2421125Y-4127497I48514J0D01*
G03X-2518153Y-4127497I-48514J0D01*
G37*
G36*
G01X-2417314Y-1545768D02*
G03X-2419079Y-1457196I-20667J43892D01*
G03X-2486228Y-1399411I-46482J13894D01*
G03X-2484463Y-1487983I20667J-43892D01*
G03X-2417314Y-1545768I46482J-13894D01*
G37*
G36*
G01X-2461862Y-3155618D02*
G03X-2493411Y-3238358I2756J-48436D01*
G03X-2410671Y-3206809I34305J34304D01*
G03X-2364990Y-3161129I-2756J48436D01*
G03X-2333442Y-3078389I-2756J48436D01*
G03X-2416182Y-3109937I-34305J-34304D01*
G03X-2461862Y-3155618I2756J-48436D01*
G37*
G36*
G01X-2506112Y-3357333D02*
G03X-2409084Y-3357333I48514J0D01*
G03X-2506112Y-3357333I-48514J0D01*
G37*
G36*
G01X-2484289Y302933D02*
G03X-2387261Y302933I48514J0D01*
G03X-2484289Y302933I-48514J0D01*
G37*
G36*
G01X-2466174Y-1156999D02*
G03X-2369146Y-1156999I48514J0D01*
G03X-2466174Y-1156999I-48514J0D01*
G37*
G36*
G01X-2449415Y-5244151D02*
G03X-2352387Y-5244151I48514J0D01*
G03X-2449415Y-5244151I-48514J0D01*
G37*
G36*
G01X-2429418Y-1583112D02*
G03X-2332390Y-1583112I48514J0D01*
G03X-2429418Y-1583112I-48514J0D01*
G37*
G36*
G01X-2407680Y-3252323D02*
G03X-2310652Y-3252323I48514J0D01*
G03X-2407680Y-3252323I-48514J0D01*
G37*
G36*
G01X-2372516Y-938691D02*
G03X-2275488Y-938691I48514J0D01*
G03X-2372516Y-938691I-48514J0D01*
G37*
G36*
G01X-2340763Y-4951276D02*
G03X-2243735Y-4951276I48514J0D01*
G03X-2340763Y-4951276I-48514J0D01*
G37*
G36*
G01X-2332008Y-3520853D02*
G03X-2237285Y-3532375I48423J2967D01*
G03X-2148395Y-3531186I44185J20032D01*
G03X-2052260Y-3539638I48508J779D01*
G03X-2144593Y-3511564I-47628J9230D01*
G03X-2239400Y-3497854I-48508J-779D01*
G03X-2332008Y-3520853I-44185J-20032D01*
G37*
G36*
G01X-2331364Y508702D02*
G03X-2234336Y508702I48514J0D01*
G03X-2331364Y508702I-48514J0D01*
G37*
G36*
G01X-2325192Y-5973488D02*
G03X-2093884Y-5973488I115654J0D01*
G03X-2325192Y-5973488I-115654J0D01*
G37*
G36*
G01X-2325192Y-5719488D02*
G03X-2093884Y-5719488I115654J0D01*
G03X-2325192Y-5719488I-115654J0D01*
G37*
G36*
G01X-2288326Y-3608183D02*
G03X-2210258Y-3647791I48500J-1146D01*
G03X-2130405Y-3611915I31352J37023D01*
G03X-2208474Y-3572306I-48500J1146D01*
G03X-2288326Y-3608183I-31352J-37023D01*
G37*
G36*
G01X-2270288Y-775975D02*
G03X-2173260Y-775975I48514J0D01*
G03X-2270288Y-775975I-48514J0D01*
G37*
G36*
G01X-2267404Y-647148D02*
G03X-2170376Y-647148I48514J0D01*
G03X-2267404Y-647148I-48514J0D01*
G37*
G36*
G01X-2232960Y-1039327D02*
G03X-2203363Y-1121992I34236J-34373D01*
G03X-2120817Y-1151918I48310J4447D01*
G03X-2150414Y-1069253I-34236J34373D01*
G03X-2232960Y-1039327I-48310J-4447D01*
G37*
G36*
G01X-2194716Y-938691D02*
G03X-2097688Y-938691I48514J0D01*
G03X-2194716Y-938691I-48514J0D01*
G37*
G36*
G01X-2183812Y-1355765D02*
G03X-2086784Y-1355765I48514J0D01*
G03X-2183812Y-1355765I-48514J0D01*
G37*
G36*
G01X-2144489Y-2519015D02*
G03X-2047461Y-2519015I48514J0D01*
G03X-2144489Y-2519015I-48514J0D01*
G37*
G36*
G01X-2127705Y-2188815D02*
G03X-2030677Y-2188815I48514J0D01*
G03X-2127705Y-2188815I-48514J0D01*
G37*
G36*
G01X-2119379Y-3415516D02*
G03X-2022351Y-3415516I48514J0D01*
G03X-2119379Y-3415516I-48514J0D01*
G37*
G36*
G01X-2081128Y-27D02*
G03X-2006476Y15906I31075J37255D01*
G03X-1931823Y-27I43577J21322D01*
G03X-1934104Y76273I-31075J37255D01*
G03X-1931823Y152573I-28795J39045D01*
G03X-2006476Y136640I-31075J-37255D01*
G03X-2081128Y152573I-43577J-21322D01*
G03X-2078847Y76273I31075J-37255D01*
G03X-2081128Y-27I28795J-39045D01*
G37*
G36*
G01X-2096190Y-1858307D02*
G03X-1999162Y-1858307I48514J0D01*
G03X-2096190Y-1858307I-48514J0D01*
G37*
G36*
G01X-1962363Y-2289365D02*
G03X-2008543Y-2333984I2181J-48465D01*
G03X-2050035Y-2374606I6445J-48084D01*
G03X-2083216Y-2455632I2756J-48436D01*
G03X-1999342Y-2430504I35937J32590D01*
G03X-1953737Y-2385914I-2756J48436D01*
G03X-1912329Y-2345813I-6445J48084D01*
G03X-1866374Y-2303391I-2181J48465D01*
G03X-1822643Y-2262132I-4266J48326D01*
G03X-1790170Y-2180826I-3184J48409D01*
G03X-1873824Y-2206655I-35657J-32896D01*
G03X-1918776Y-2249022I3184J-48409D01*
G03X-1937120Y-2254425I4266J-48326D01*
G03X-2019941Y-2207300I-45932J15617D01*
G03X-1960442Y-2281731I36890J-31508D01*
G03X-1962363Y-2289365I45931J-15618D01*
G37*
G36*
G01X-2092488Y-775975D02*
G03X-1995460Y-775975I48514J0D01*
G03X-2092488Y-775975I-48514J0D01*
G37*
G36*
G01X-2071192Y-5973488D02*
G03X-1839884Y-5973488I115654J0D01*
G03X-2071192Y-5973488I-115654J0D01*
G37*
G36*
G01X-2071192Y-5719488D02*
G03X-1839884Y-5719488I115654J0D01*
G03X-2071192Y-5719488I-115654J0D01*
G37*
G36*
G01X-2056248Y-2881421D02*
G03X-1959220Y-2881421I48514J0D01*
G03X-2056248Y-2881421I-48514J0D01*
G37*
G36*
G01X-2056248Y-2703621D02*
G03X-1959220Y-2703621I48514J0D01*
G03X-2056248Y-2703621I-48514J0D01*
G37*
G36*
G01X-2015393Y441058D02*
G03X-1918365Y441058I48514J0D01*
G03X-2015393Y441058I-48514J0D01*
G37*
G36*
G01X-2012247Y-556277D02*
G03X-1915219Y-556277I48514J0D01*
G03X-2012247Y-556277I-48514J0D01*
G37*
G36*
G01X-1993655Y-3289792D02*
G03X-1896627Y-3289792I48514J0D01*
G03X-1993655Y-3289792I-48514J0D01*
G37*
G36*
G01X-1958965Y-2588042D02*
G03X-1861937Y-2588042I48514J0D01*
G03X-1958965Y-2588042I-48514J0D01*
G37*
G36*
G01X-1953646Y-1077979D02*
G03X-1856618Y-1077979I48514J0D01*
G03X-1953646Y-1077979I-48514J0D01*
G37*
G36*
G01X-1953646Y-1267424D02*
G03X-1856618Y-1267424I48514J0D01*
G03X-1953646Y-1267424I-48514J0D01*
G37*
G36*
G01X-1953309Y-155180D02*
G03X-1856281Y-155180I48514J0D01*
G03X-1953309Y-155180I-48514J0D01*
G37*
G36*
G01X-1899153Y-1544104D02*
G03X-1802125Y-1544104I48514J0D01*
G03X-1899153Y-1544104I-48514J0D01*
G37*
G36*
G01X-1878448Y-2881421D02*
G03X-1781420Y-2881421I48514J0D01*
G03X-1878448Y-2881421I-48514J0D01*
G37*
G36*
G01X-1878448Y-2703621D02*
G03X-1781420Y-2703621I48514J0D01*
G03X-1878448Y-2703621I-48514J0D01*
G37*
G36*
G01X-1874483Y-1346587D02*
G03X-1777455Y-1346587I48514J0D01*
G03X-1874483Y-1346587I-48514J0D01*
G37*
G36*
G01X-1859978Y-3252323D02*
G03X-1762950Y-3252323I48514J0D01*
G03X-1859978Y-3252323I-48514J0D01*
G37*
G36*
G01X-1854347Y-4531967D02*
G03X-1623039Y-4531967I115654J0D01*
G03X-1854347Y-4531967I-115654J0D01*
G37*
G36*
G01X-1840172Y-964505D02*
G03X-1743144Y-964505I48514J0D01*
G03X-1840172Y-964505I-48514J0D01*
G37*
G36*
G01X-1817192Y-5973488D02*
G03X-1585884Y-5973488I115654J0D01*
G03X-1817192Y-5973488I-115654J0D01*
G37*
G36*
G01X-1817192Y-5719488D02*
G03X-1585884Y-5719488I115654J0D01*
G03X-1817192Y-5719488I-115654J0D01*
G37*
G36*
G01X-1796618Y-1635804D02*
G03X-1699590Y-1635804I48514J0D01*
G03X-1796618Y-1635804I-48514J0D01*
G37*
G36*
G01X-1781165Y-2588042D02*
G03X-1684137Y-2588042I48514J0D01*
G03X-1781165Y-2588042I-48514J0D01*
G37*
G36*
G01X-1780687Y-4127587D02*
G03X-1683659Y-4127587I48514J0D01*
G03X-1780687Y-4127587I-48514J0D01*
G37*
G36*
G01X-1714703Y-3019908D02*
G03X-1733791Y-3105469I10749J-47308D01*
G03X-1655452Y-3066123I29838J38253D01*
G03X-1617699Y-3017748I-10749J47308D01*
G03X-1564816Y-2942081I14199J46390D01*
G03X-1652002Y-2972425I-38684J-29278D01*
G03X-1714703Y-3019908I-14199J-46390D01*
G37*
G36*
G01X-1750259Y-874592D02*
G03X-1653231Y-874592I48514J0D01*
G03X-1750259Y-874592I-48514J0D01*
G37*
G36*
G01X-1736927Y-1823565D02*
G03X-1639899Y-1823565I48514J0D01*
G03X-1736927Y-1823565I-48514J0D01*
G37*
G36*
G01X-1729225Y-4718489D02*
G03X-1632197Y-4718489I48514J0D01*
G03X-1729225Y-4718489I-48514J0D01*
G37*
G36*
G01X-1729225Y-5074089D02*
G03X-1632197Y-5074089I48514J0D01*
G03X-1729225Y-5074089I-48514J0D01*
G37*
G36*
G01X-1729225Y-4896289D02*
G03X-1632197Y-4896289I48514J0D01*
G03X-1729225Y-4896289I-48514J0D01*
G37*
G36*
G01X-1700648Y-2881421D02*
G03X-1603620Y-2881421I48514J0D01*
G03X-1700648Y-2881421I-48514J0D01*
G37*
G36*
G01X-1690677Y306286D02*
G03X-1593649Y306286I48514J0D01*
G03X-1690677Y306286I-48514J0D01*
G37*
G36*
G01X-1687940Y464955D02*
G03X-1590912Y464955I48514J0D01*
G03X-1687940Y464955I-48514J0D01*
G37*
G36*
G01X-1685153Y-1537767D02*
G03X-1588125Y-1537767I48514J0D01*
G03X-1685153Y-1537767I-48514J0D01*
G37*
G36*
G01X-1682926Y-4062620D02*
G03X-1585898Y-4062620I48514J0D01*
G03X-1682926Y-4062620I-48514J0D01*
G37*
G36*
G01X-1661578Y-788558D02*
G03X-1564550Y-788558I48514J0D01*
G03X-1661578Y-788558I-48514J0D01*
G37*
G36*
G01X-1654405Y77904D02*
G03X-1443098Y77904I105654J0D01*
G03X-1654405Y77904I-105654J0D01*
G37*
G36*
G01X-1567096Y-2788241D02*
G03X-1534740Y-2702714I1005J48504D01*
G03X-1549465Y-2618309I-29791J38290D01*
G03X-1595993Y-2537478I-34858J33742D01*
G03X-1599389Y-2630682I11670J-47089D01*
G03X-1595882Y-2701448I34858J-33742D01*
G03X-1567096Y-2788241I29791J-38290D01*
G37*
G36*
G01X-1615831Y-2393319D02*
G03X-1518803Y-2393319I48514J0D01*
G03X-1615831Y-2393319I-48514J0D01*
G37*
G36*
G01X-1598828Y-1874065D02*
G03X-1501800Y-1874065I48514J0D01*
G03X-1598828Y-1874065I-48514J0D01*
G37*
G36*
G01X-1563192Y-5973488D02*
G03X-1331884Y-5973488I115654J0D01*
G03X-1563192Y-5973488I-115654J0D01*
G37*
G36*
G01X-1563192Y-5719488D02*
G03X-1331884Y-5719488I115654J0D01*
G03X-1563192Y-5719488I-115654J0D01*
G37*
G36*
G01X-1551425Y-4718489D02*
G03X-1454397Y-4718489I48514J0D01*
G03X-1551425Y-4718489I-48514J0D01*
G37*
G36*
G01X-1551425Y-5074089D02*
G03X-1454397Y-5074089I48514J0D01*
G03X-1551425Y-5074089I-48514J0D01*
G37*
G36*
G01X-1551425Y-4896289D02*
G03X-1454397Y-4896289I48514J0D01*
G03X-1551425Y-4896289I-48514J0D01*
G37*
G36*
G01X-1526997Y-1537767D02*
G03X-1429969Y-1537767I48514J0D01*
G03X-1526997Y-1537767I-48514J0D01*
G37*
G36*
G01X-1514303Y306286D02*
G03X-1417275Y306286I48514J0D01*
G03X-1514303Y306286I-48514J0D01*
G37*
G36*
G01X-1511566Y464955D02*
G03X-1414538Y464955I48514J0D01*
G03X-1511566Y464955I-48514J0D01*
G37*
G36*
G01X-1351260Y-888998D02*
G03X-1406551Y-810954I-34305J34304D01*
G03X-1484595Y-755662I-43740J20987D01*
G03X-1429304Y-833706I34305J-34304D01*
G03X-1351260Y-888998I43740J-20987D01*
G37*
G36*
G01X-1459456Y-537798D02*
G03X-1362428Y-537798I48514J0D01*
G03X-1459456Y-537798I-48514J0D01*
G37*
G36*
G01X-1445300Y-1456070D02*
G03X-1348272Y-1456070I48514J0D01*
G03X-1445300Y-1456070I-48514J0D01*
G37*
G36*
G01X-1412278Y-4121830D02*
G03X-1315250Y-4121830I48514J0D01*
G03X-1412278Y-4121830I-48514J0D01*
G37*
G36*
G01X-1404393Y77904D02*
G03X-1193085Y77904I105654J0D01*
G03X-1404393Y77904I-105654J0D01*
G37*
G36*
G01X-1357230Y-3964728D02*
G03X-1260202Y-3964728I48514J0D01*
G03X-1357230Y-3964728I-48514J0D01*
G37*
G36*
G01X-1356489Y-537798D02*
G03X-1259461Y-537798I48514J0D01*
G03X-1356489Y-537798I-48514J0D01*
G37*
G36*
G01X-1356407Y-1362502D02*
G03X-1259379Y-1362502I48514J0D01*
G03X-1356407Y-1362502I-48514J0D01*
G37*
G36*
G01X-1356267Y-2061894D02*
G03X-1259239Y-2061894I48514J0D01*
G03X-1356267Y-2061894I-48514J0D01*
G37*
G36*
G01X-1337929Y306286D02*
G03X-1240901Y306286I48514J0D01*
G03X-1337929Y306286I-48514J0D01*
G37*
G36*
G01X-1335192Y464955D02*
G03X-1238164Y464955I48514J0D01*
G03X-1335192Y464955I-48514J0D01*
G37*
G36*
G01X-1315027Y-3675133D02*
G03X-1217999Y-3675133I48514J0D01*
G03X-1315027Y-3675133I-48514J0D01*
G37*
G36*
G01X-1309192Y-5719488D02*
G03X-1077884Y-5719488I115654J0D01*
G03X-1309192Y-5719488I-115654J0D01*
G37*
G36*
G01X-1309192Y-5973488D02*
G03X-1077884Y-5973488I115654J0D01*
G03X-1309192Y-5973488I-115654J0D01*
G37*
G36*
G01X-1304625Y-984146D02*
G03X-1207597Y-984146I48514J0D01*
G03X-1304625Y-984146I-48514J0D01*
G37*
G36*
G01X-1275691Y-1286460D02*
G03X-1178663Y-1286460I48514J0D01*
G03X-1275691Y-1286460I-48514J0D01*
G37*
G36*
G01X-1273329Y-1784946D02*
G03X-1176301Y-1784946I48514J0D01*
G03X-1273329Y-1784946I-48514J0D01*
G37*
G36*
G01X-1269083Y-1974710D02*
G03X-1172055Y-1974710I48514J0D01*
G03X-1269083Y-1974710I-48514J0D01*
G37*
G36*
G01X-1253606Y-2166174D02*
G03X-1156578Y-2166174I48514J0D01*
G03X-1253606Y-2166174I-48514J0D01*
G37*
G36*
G01X-1253522Y-537798D02*
G03X-1156494Y-537798I48514J0D01*
G03X-1253522Y-537798I-48514J0D01*
G37*
G36*
G01X-1244680Y-748338D02*
G03X-1147652Y-748338I48514J0D01*
G03X-1244680Y-748338I-48514J0D01*
G37*
G36*
G01X-1097924Y-2409259D02*
G03X-1130393Y-2323502I-31066J37263D01*
G03X-1208908Y-2276134I-47450J10105D01*
G03X-1176440Y-2361891I31066J-37263D01*
G03X-1097924Y-2409259I47450J-10105D01*
G37*
G36*
G01X-1189732Y-1691522D02*
G03X-1092704Y-1691522I48514J0D01*
G03X-1189732Y-1691522I-48514J0D01*
G37*
G36*
G01X-1139636Y-1245752D02*
G03X-1120876Y-1151868I1654J48486D01*
G03X-1133194Y-1056923I-13972J46458D01*
G03X-1151954Y-1150807I-1654J-48486D01*
G03X-1139636Y-1245752I13972J-46458D01*
G37*
G36*
G01X-1161555Y306286D02*
G03X-1064527Y306286I48514J0D01*
G03X-1161555Y306286I-48514J0D01*
G37*
G36*
G01X-1154381Y77904D02*
G03X-943073Y77904I105654J0D01*
G03X-1154381Y77904I-105654J0D01*
G37*
G36*
G01X-1150555Y-165932D02*
G03X-1053527Y-165932I48514J0D01*
G03X-1150555Y-165932I-48514J0D01*
G37*
G36*
G01X-1150555Y-537798D02*
G03X-1053527Y-537798I48514J0D01*
G03X-1150555Y-537798I-48514J0D01*
G37*
G36*
G01X-1141712Y-748338D02*
G03X-1044684Y-748338I48514J0D01*
G03X-1141712Y-748338I-48514J0D01*
G37*
G36*
G01X-1141712Y-872294D02*
G03X-1044684Y-872294I48514J0D01*
G03X-1141712Y-872294I-48514J0D01*
G37*
G36*
G01X-1120851Y-2491892D02*
G03X-1023823Y-2491892I48514J0D01*
G03X-1120851Y-2491892I-48514J0D01*
G37*
G36*
G01X-1097172Y-5197252D02*
G03X-1000144Y-5197252I48514J0D01*
G03X-1097172Y-5197252I-48514J0D01*
G37*
G36*
G01X-1091947Y-1691522D02*
G03X-994919Y-1691522I48514J0D01*
G03X-1091947Y-1691522I-48514J0D01*
G37*
G36*
G01X-1072749Y-4877269D02*
G03X-992463Y-4842281I31800J36638D01*
G03X-969116Y-4757871I-8454J47772D01*
G03X-1049403Y-4792859I-31800J-36638D01*
G03X-1072749Y-4877269I8454J-47772D01*
G37*
G36*
G01X-1032231Y-5132130D02*
G03X-1025681Y-5035547I0J48514D01*
G03X-1032231Y-4938963I-6550J48070D01*
G03X-1038782Y-5035547I0J-48514D01*
G03X-1032231Y-5132130I6550J-48070D01*
G37*
G36*
G01X-1070284Y-2105198D02*
G03X-973256Y-2105198I48514J0D01*
G03X-1070284Y-2105198I-48514J0D01*
G37*
G36*
G01X-989444Y-3372859D02*
G03X-1026074Y-3419935I11885J-47036D01*
G03X-1046091Y-3505135I10381J-47390D01*
G03X-967179Y-3467285I30398J37810D01*
G03X-929074Y-3418231I-10381J47390D01*
G03X-892529Y-3368338I-11885J47036D01*
G03X-857110Y-3319303I-13040J46729D01*
G03X-897026Y-3273853I-48459J-2306D01*
G03X-891401Y-3189870I-21267J43604D01*
G03X-966725Y-3227436I-26891J-40379D01*
G03X-1013392Y-3282295I1427J-48493D01*
G03X-954059Y-3323123I48094J6366D01*
G01X-953999Y-3324467D01*
G03X-989444Y-3372859I13040J-46729D01*
G37*
G36*
G01X-1055192Y-5973488D02*
G03X-823884Y-5973488I115654J0D01*
G03X-1055192Y-5973488I-115654J0D01*
G37*
G36*
G01X-1055192Y-5719488D02*
G03X-823884Y-5719488I115654J0D01*
G03X-1055192Y-5719488I-115654J0D01*
G37*
G36*
G01X-1047589Y-165932D02*
G03X-950561Y-165932I48514J0D01*
G03X-1047589Y-165932I-48514J0D01*
G37*
G36*
G01X-1047589Y-537798D02*
G03X-950561Y-537798I48514J0D01*
G03X-1047589Y-537798I-48514J0D01*
G37*
G36*
G01X-1041133Y-3007003D02*
G03X-944105Y-3007003I48514J0D01*
G03X-1041133Y-3007003I-48514J0D01*
G37*
G36*
G01X-1041133Y-2829203D02*
G03X-944105Y-2829203I48514J0D01*
G03X-1041133Y-2829203I-48514J0D01*
G37*
G36*
G01X-1038746Y-748338D02*
G03X-941718Y-748338I48514J0D01*
G03X-1038746Y-748338I-48514J0D01*
G37*
G36*
G01X-1038746Y-872294D02*
G03X-941718Y-872294I48514J0D01*
G03X-1038746Y-872294I-48514J0D01*
G37*
G36*
G01X-998424Y-1597999D02*
G03X-902092Y-1606185I48514J0D01*
G03X-826851Y-1638019I47818J8186D01*
G03X-752526Y-1699746I40020J-27423D01*
G03X-814253Y-1625421I-34305J34304D01*
G03X-836047Y-1553039I-40020J27423D01*
G03X-902092Y-1589812I-18226J-44960D01*
G03X-998424Y-1597999I-47818J-8186D01*
G37*
G36*
G01X-991592Y-2626080D02*
G03X-894564Y-2626080I48514J0D01*
G03X-991592Y-2626080I-48514J0D01*
G37*
G36*
G01X-982444Y464955D02*
G03X-885416Y464955I48514J0D01*
G03X-982444Y464955I-48514J0D01*
G37*
G36*
G01X-980344Y-2195138D02*
G03X-883316Y-2195138I48514J0D01*
G03X-980344Y-2195138I-48514J0D01*
G37*
G36*
G01X-718740Y-27750D02*
G03X-693086Y-2096I0J25654D01*
G01X-693086Y157904D01*
G03X-718740Y183558I-25654J0D01*
G01X-878740Y183558D01*
G03X-904394Y157904I0J-25654D01*
G01X-904394Y-2096D01*
G03X-878740Y-27750I25654J0D01*
G01X-718740Y-27750D01*
G37*
G36*
G01X-888181Y-2495216D02*
G03X-791153Y-2495216I48514J0D01*
G03X-888181Y-2495216I-48514J0D01*
G37*
G36*
G01X-815996Y-737397D02*
G03X-739823Y-693739I27817J39747D01*
G03X-724890Y-607220I-12885J46772D01*
G03X-801064Y-650879I-27817J-39747D01*
G03X-815996Y-737397I12885J-46772D01*
G37*
G36*
G01X-819585Y-2195138D02*
G03X-722557Y-2195138I48514J0D01*
G03X-819585Y-2195138I-48514J0D01*
G37*
G36*
G01X-762484Y-4210821D02*
G03X-728707Y-4127876I-400J48512D01*
G03X-763846Y-4045499I-34739J33865D01*
G03X-797622Y-4128444I400J-48512D01*
G03X-762484Y-4210821I34739J-33865D01*
G37*
G36*
G01X-811335Y-5027357D02*
G03X-714307Y-5027357I48514J0D01*
G03X-811335Y-5027357I-48514J0D01*
G37*
G36*
G01X-806070Y464955D02*
G03X-709042Y464955I48514J0D01*
G03X-806070Y464955I-48514J0D01*
G37*
G36*
G01X-806070Y288581D02*
G03X-709042Y288581I48514J0D01*
G03X-806070Y288581I-48514J0D01*
G37*
G36*
G01X-804362Y-4531967D02*
G03X-573054Y-4531967I115654J0D01*
G03X-804362Y-4531967I-115654J0D01*
G37*
G36*
G01X-801192Y-5973488D02*
G03X-569884Y-5973488I115654J0D01*
G03X-801192Y-5973488I-115654J0D01*
G37*
G36*
G01X-801192Y-5719488D02*
G03X-569884Y-5719488I115654J0D01*
G03X-801192Y-5719488I-115654J0D01*
G37*
G36*
G01X-797940Y-283262D02*
G03X-700912Y-283262I48514J0D01*
G03X-797940Y-283262I-48514J0D01*
G37*
G36*
G01X-797940Y-461062D02*
G03X-700912Y-461062I48514J0D01*
G03X-797940Y-461062I-48514J0D01*
G37*
G36*
G01X-737066Y-1763720D02*
G03X-640038Y-1763720I48514J0D01*
G03X-737066Y-1763720I-48514J0D01*
G37*
G36*
G01X-686777Y-2159358D02*
G03X-668827Y-2065773I0J48514D01*
G03X-686777Y-1972188I-17950J45071D01*
G03X-704728Y-2065773I0J-48514D01*
G03X-686777Y-2159358I17950J-45071D01*
G37*
G36*
G01X-701062Y-4306496D02*
G03X-604034Y-4306496I48514J0D01*
G03X-701062Y-4306496I-48514J0D01*
G37*
G36*
G01X-693478Y-5141907D02*
G03X-596450Y-5141907I48514J0D01*
G03X-693478Y-5141907I-48514J0D01*
G37*
G36*
G01X-662769Y-456494D02*
G03X-565741Y-456494I48514J0D01*
G03X-662769Y-456494I-48514J0D01*
G37*
G36*
G01X-662769Y-2526378D02*
G03X-565741Y-2526378I48514J0D01*
G03X-662769Y-2526378I-48514J0D01*
G37*
G36*
G01X-598538Y-1980976D02*
G03X-570182Y-1893098I0J48514D01*
G03X-598538Y-1805220I-28356J39364D01*
G03X-626894Y-1893098I0J-48514D01*
G03X-598538Y-1980976I28356J-39364D01*
G37*
G36*
G01X-629696Y464955D02*
G03X-532668Y464955I48514J0D01*
G03X-629696Y464955I-48514J0D01*
G37*
G36*
G01X-629696Y288581D02*
G03X-532668Y288581I48514J0D01*
G03X-629696Y288581I-48514J0D01*
G37*
G36*
G01X-592587Y-4338204D02*
G03X-564194Y-4421621I33422J-35165D01*
G03X-482326Y-4454213I48446J2573D01*
G03X-510719Y-4370796I-33422J35165D01*
G03X-592587Y-4338204I-48446J-2573D01*
G37*
G36*
G01X-451460Y-2409229D02*
G03X-484060Y-2323505I-31101J37233D01*
G03X-562611Y-2276164I-47449J10108D01*
G03X-530011Y-2361888I31101J-37233D01*
G03X-451460Y-2409229I47449J-10108D01*
G37*
G36*
G01X-547192Y-5973488D02*
G03X-315884Y-5973488I115654J0D01*
G03X-547192Y-5973488I-115654J0D01*
G37*
G36*
G01X-547192Y-5719488D02*
G03X-315884Y-5719488I115654J0D01*
G03X-547192Y-5719488I-115654J0D01*
G37*
G36*
G01X-515678Y-5141907D02*
G03X-418650Y-5141907I48514J0D01*
G03X-515678Y-5141907I-48514J0D01*
G37*
G36*
G01X-497825Y-3809858D02*
G03X-400797Y-3809858I48514J0D01*
G03X-497825Y-3809858I-48514J0D01*
G37*
G36*
G01X-497825Y-3941809D02*
G03X-400797Y-3941809I48514J0D01*
G03X-497825Y-3941809I-48514J0D01*
G37*
G36*
G01X-433765Y-4904769D02*
G03X-390043Y-4827184I5084J48247D01*
G03X-416632Y-4742189I-31673J36748D01*
G03X-460354Y-4819774I-5084J-48247D01*
G03X-433765Y-4904769I31673J-36748D01*
G37*
G36*
G01X-459313Y-649217D02*
G03X-362285Y-649217I48514J0D01*
G03X-459313Y-649217I-48514J0D01*
G37*
G36*
G01X-459313Y-2719101D02*
G03X-362285Y-2719101I48514J0D01*
G03X-459313Y-2719101I-48514J0D01*
G37*
G36*
G01X-458355Y-1021875D02*
G03X-361327Y-1021875I48514J0D01*
G03X-458355Y-1021875I-48514J0D01*
G37*
G36*
G01X-458355Y-3091759D02*
G03X-361327Y-3091759I48514J0D01*
G03X-458355Y-3091759I-48514J0D01*
G37*
G36*
G01X-453322Y112207D02*
G03X-356294Y112207I48514J0D01*
G03X-453322Y112207I-48514J0D01*
G37*
G36*
G01X-453322Y464955D02*
G03X-356294Y464955I48514J0D01*
G03X-453322Y464955I-48514J0D01*
G37*
G36*
G01X-453322Y288581D02*
G03X-356294Y288581I48514J0D01*
G03X-453322Y288581I-48514J0D01*
G37*
G36*
G01X-434284Y-4301575D02*
G03X-337256Y-4301575I48514J0D01*
G03X-434284Y-4301575I-48514J0D01*
G37*
G36*
G01X-434284Y-4123775D02*
G03X-337256Y-4123775I48514J0D01*
G03X-434284Y-4123775I-48514J0D01*
G37*
G36*
G01X-391481Y-194784D02*
G03X-294453Y-194784I48514J0D01*
G03X-391481Y-194784I-48514J0D01*
G37*
G36*
G01X-376331Y673140D02*
G03X-279303Y673140I48514J0D01*
G03X-376331Y673140I-48514J0D01*
G37*
G36*
G01X-362628Y-2370829D02*
G03X-265600Y-2370829I48514J0D01*
G03X-362628Y-2370829I-48514J0D01*
G37*
G36*
G01X-355057Y-3939646D02*
G03X-258029Y-3939646I48514J0D01*
G03X-355057Y-3939646I-48514J0D01*
G37*
G36*
G01X-349650Y-2195615D02*
G03X-252622Y-2195615I48514J0D01*
G03X-349650Y-2195615I-48514J0D01*
G37*
G36*
G01X-337878Y-5141907D02*
G03X-240850Y-5141907I48514J0D01*
G03X-337878Y-5141907I-48514J0D01*
G37*
G36*
G01X-329103Y-4768475D02*
G03X-232075Y-4768475I48514J0D01*
G03X-329103Y-4768475I-48514J0D01*
G37*
G36*
G01X-328609Y-5006390D02*
G03X-231581Y-5006390I48514J0D01*
G03X-328609Y-5006390I-48514J0D01*
G37*
G36*
G01X-293192Y-5973488D02*
G03X-61884Y-5973488I115654J0D01*
G03X-293192Y-5973488I-115654J0D01*
G37*
G36*
G01X-293192Y-5719488D02*
G03X-61884Y-5719488I115654J0D01*
G03X-293192Y-5719488I-115654J0D01*
G37*
G36*
G01X-293113Y54979D02*
G03X-196085Y54979I48514J0D01*
G03X-293113Y54979I-48514J0D01*
G37*
G36*
G01X-256484Y-4301575D02*
G03X-159456Y-4301575I48514J0D01*
G03X-256484Y-4301575I-48514J0D01*
G37*
G36*
G01X-256484Y-4123775D02*
G03X-159456Y-4123775I48514J0D01*
G03X-256484Y-4123775I-48514J0D01*
G37*
G36*
G01X2649Y-993299D02*
G03X-68351Y-999874I-32466J-36050D01*
G03X-146852Y-997940I-39952J-27521D01*
G03X-219030Y-992429I-38548J-29456D01*
G03X-216336Y-1064767I33630J-34967D01*
G03X-219030Y-1137105I30935J-37371D01*
G03X-146852Y-1131594I33630J34967D01*
G03X-67759Y-1128778I38548J29456D01*
G03X5250Y-1138190I40545J26640D01*
G03X3516Y-1064597I-32464J36052D01*
G03X2649Y-993299I-33333J35249D01*
G37*
G36*
G01X2649Y-3063183D02*
G03X-68351Y-3069758I-32466J-36050D01*
G03X-146852Y-3067824I-39952J-27521D01*
G03X-219030Y-3062313I-38548J-29456D01*
G03X-216336Y-3134651I33630J-34967D01*
G03X-219030Y-3206989I30935J-37371D01*
G03X-146852Y-3201478I33630J34967D01*
G03X-67758Y-3198663I38548J29456D01*
G03X5250Y-3208074I40545J26640D01*
G03X3516Y-3134482I-32464J36052D01*
G03X2649Y-3063183I-33333J35249D01*
G37*
G36*
G01X-213681Y-194784D02*
G03X-116653Y-194784I48514J0D01*
G03X-213681Y-194784I-48514J0D01*
G37*
G36*
G01X-200003Y-3706481D02*
G03X-102975Y-3706481I48514J0D01*
G03X-200003Y-3706481I-48514J0D01*
G37*
G36*
G01X-200003Y-3806700D02*
G03X-102975Y-3806700I48514J0D01*
G03X-200003Y-3806700I-48514J0D01*
G37*
G36*
G01X-198201Y-1718249D02*
G03X-101173Y-1718249I48514J0D01*
G03X-198201Y-1718249I-48514J0D01*
G37*
G36*
G01X-198201Y-1620186D02*
G03X-101173Y-1620186I48514J0D01*
G03X-198201Y-1620186I-48514J0D01*
G37*
G36*
G01X-180925Y-2375156D02*
G03X-83897Y-2375156I48514J0D01*
G03X-180925Y-2375156I-48514J0D01*
G37*
G36*
G01X-179295Y-2195711D02*
G03X-82267Y-2195711I48514J0D01*
G03X-179295Y-2195711I-48514J0D01*
G37*
G36*
G01X-179295Y-2017911D02*
G03X-82267Y-2017911I48514J0D01*
G03X-179295Y-2017911I-48514J0D01*
G37*
G36*
G01X-178677Y-4636348D02*
G03X-81649Y-4636348I48514J0D01*
G03X-178677Y-4636348I-48514J0D01*
G37*
G36*
G01X-115313Y54979D02*
G03X-18285Y54979I48514J0D01*
G03X-115313Y54979I-48514J0D01*
G37*
G36*
G01X-92539Y-4502752D02*
G03X4489Y-4502752I48514J0D01*
G03X-92539Y-4502752I-48514J0D01*
G37*
G36*
G01X-78684Y-4123775D02*
G03X18344Y-4123775I48514J0D01*
G03X-78684Y-4123775I-48514J0D01*
G37*
G36*
G01X-78684Y-4301575D02*
G03X18344Y-4301575I48514J0D01*
G03X-78684Y-4301575I-48514J0D01*
G37*
G36*
G01X-42684Y-370263D02*
G03X54344Y-370263I48514J0D01*
G03X-42684Y-370263I-48514J0D01*
G37*
G36*
G01X-42684Y-192463D02*
G03X54344Y-192463I48514J0D01*
G03X-42684Y-192463I-48514J0D01*
G37*
G36*
G01X-42684Y-548063D02*
G03X54344Y-548063I48514J0D01*
G03X-42684Y-548063I-48514J0D01*
G37*
G36*
G01X-39192Y-5973488D02*
G03X192116Y-5973488I115654J0D01*
G03X-39192Y-5973488I-115654J0D01*
G37*
G36*
G01X-39192Y-5719488D02*
G03X192116Y-5719488I115654J0D01*
G03X-39192Y-5719488I-115654J0D01*
G37*
G36*
G01X-22255Y-5001106D02*
G03X74773Y-5001106I48514J0D01*
G03X-22255Y-5001106I-48514J0D01*
G37*
G36*
G01X-1495Y-2017911D02*
G03X95533Y-2017911I48514J0D01*
G03X-1495Y-2017911I-48514J0D01*
G37*
G36*
G01X-1495Y-2195711D02*
G03X95533Y-2195711I48514J0D01*
G03X-1495Y-2195711I-48514J0D01*
G37*
G36*
G01X-1495Y-2373511D02*
G03X95533Y-2373511I48514J0D01*
G03X-1495Y-2373511I-48514J0D01*
G37*
G36*
G01X-1495Y-2551311D02*
G03X95533Y-2551311I48514J0D01*
G03X-1495Y-2551311I-48514J0D01*
G37*
G36*
G01X55684Y57300D02*
G03X152712Y57300I48514J0D01*
G03X55684Y57300I-48514J0D01*
G37*
G36*
G01X99116Y-4301575D02*
G03X196144Y-4301575I48514J0D01*
G03X99116Y-4301575I-48514J0D01*
G37*
G36*
G01X99116Y-4123775D02*
G03X196144Y-4123775I48514J0D01*
G03X99116Y-4123775I-48514J0D01*
G37*
G36*
G01X135116Y-370263D02*
G03X232144Y-370263I48514J0D01*
G03X135116Y-370263I-48514J0D01*
G37*
G36*
G01X135116Y-192463D02*
G03X232144Y-192463I48514J0D01*
G03X135116Y-192463I-48514J0D01*
G37*
G36*
G01X135116Y-548063D02*
G03X232144Y-548063I48514J0D01*
G03X135116Y-548063I-48514J0D01*
G37*
G36*
G01X176305Y-2195711D02*
G03X273333Y-2195711I48514J0D01*
G03X176305Y-2195711I-48514J0D01*
G37*
G36*
G01X176305Y-2017911D02*
G03X273333Y-2017911I48514J0D01*
G03X176305Y-2017911I-48514J0D01*
G37*
G36*
G01X176305Y-2551311D02*
G03X273333Y-2551311I48514J0D01*
G03X176305Y-2551311I-48514J0D01*
G37*
G36*
G01X176305Y-2373511D02*
G03X273333Y-2373511I48514J0D01*
G03X176305Y-2373511I-48514J0D01*
G37*
G36*
G01X179746Y-5113066D02*
G03X276774Y-5113066I48514J0D01*
G03X179746Y-5113066I-48514J0D01*
G37*
G36*
G01X195527Y-4509348D02*
G03X292555Y-4509348I48514J0D01*
G03X195527Y-4509348I-48514J0D01*
G37*
G36*
G01X214808Y-5973488D02*
G03X446116Y-5973488I115654J0D01*
G03X214808Y-5973488I-115654J0D01*
G37*
G36*
G01X214808Y-5719488D02*
G03X446116Y-5719488I115654J0D01*
G03X214808Y-5719488I-115654J0D01*
G37*
G36*
G01X243087Y507656D02*
G03X340115Y507656I48514J0D01*
G03X243087Y507656I-48514J0D01*
G37*
G36*
G01X276916Y-4301575D02*
G03X373944Y-4301575I48514J0D01*
G03X276916Y-4301575I-48514J0D01*
G37*
G36*
G01X276916Y-4123775D02*
G03X373944Y-4123775I48514J0D01*
G03X276916Y-4123775I-48514J0D01*
G37*
G36*
G01X279646Y-1459641D02*
G03X376674Y-1459641I48514J0D01*
G03X279646Y-1459641I-48514J0D01*
G37*
G36*
G01X279646Y-3529526D02*
G03X376674Y-3529526I48514J0D01*
G03X279646Y-3529526I-48514J0D01*
G37*
G36*
G01X324518Y-569007D02*
G03X421546Y-569007I48514J0D01*
G03X324518Y-569007I-48514J0D01*
G37*
G36*
G01X335334Y-190458D02*
G03X432362Y-190458I48514J0D01*
G03X335334Y-190458I-48514J0D01*
G37*
G36*
G01X352133Y441896D02*
G03X449161Y441896I48514J0D01*
G03X352133Y441896I-48514J0D01*
G37*
G36*
G01X354105Y-2195711D02*
G03X451133Y-2195711I48514J0D01*
G03X354105Y-2195711I-48514J0D01*
G37*
G36*
G01X354105Y-2017911D02*
G03X451133Y-2017911I48514J0D01*
G03X354105Y-2017911I-48514J0D01*
G37*
G36*
G01X354454Y270899D02*
G03X451482Y270899I48514J0D01*
G03X354454Y270899I-48514J0D01*
G37*
G36*
G01X357546Y-5113066D02*
G03X454574Y-5113066I48514J0D01*
G03X357546Y-5113066I-48514J0D01*
G37*
G36*
G01X468808Y-5719488D02*
G03X700116Y-5719488I115654J0D01*
G03X468808Y-5719488I-115654J0D01*
G37*
G36*
G01X468808Y-5973488D02*
G03X700116Y-5973488I115654J0D01*
G03X468808Y-5973488I-115654J0D01*
G37*
G36*
G01X502318Y-569007D02*
G03X599346Y-569007I48514J0D01*
G03X502318Y-569007I-48514J0D01*
G37*
G36*
G01X513134Y-190458D02*
G03X610162Y-190458I48514J0D01*
G03X513134Y-190458I-48514J0D01*
G37*
G36*
G01X531905Y-2195711D02*
G03X628933Y-2195711I48514J0D01*
G03X531905Y-2195711I-48514J0D01*
G37*
G36*
G01X531905Y-2017911D02*
G03X628933Y-2017911I48514J0D01*
G03X531905Y-2017911I-48514J0D01*
G37*
G36*
G01X535346Y-5113066D02*
G03X632374Y-5113066I48514J0D01*
G03X535346Y-5113066I-48514J0D01*
G37*
G36*
G01X544914Y-1835372D02*
G03X641942Y-1835372I48514J0D01*
G03X544914Y-1835372I-48514J0D01*
G37*
G36*
G01X544914Y-3905256D02*
G03X641942Y-3905256I48514J0D01*
G03X544914Y-3905256I-48514J0D01*
G37*
G36*
G01X546296Y-1225010D02*
G03X643324Y-1225010I48514J0D01*
G03X546296Y-1225010I-48514J0D01*
G37*
G36*
G01X546296Y-3294894D02*
G03X643324Y-3294894I48514J0D01*
G03X546296Y-3294894I-48514J0D01*
G37*
G36*
G01X590178Y-777725D02*
G03X687206Y-777725I48514J0D01*
G03X590178Y-777725I-48514J0D01*
G37*
G36*
G01X590178Y-2847609D02*
G03X687206Y-2847609I48514J0D01*
G03X590178Y-2847609I-48514J0D01*
G37*
G36*
G01X590829Y-947629D02*
G03X687857Y-947629I48514J0D01*
G03X590829Y-947629I-48514J0D01*
G37*
G36*
G01X590829Y-3017514D02*
G03X687857Y-3017514I48514J0D01*
G03X590829Y-3017514I-48514J0D01*
G37*
G36*
G01X609972Y-4613715D02*
G03X707000Y-4613715I48514J0D01*
G03X609972Y-4613715I-48514J0D01*
G37*
G36*
G01X610623Y-4783619D02*
G03X707651Y-4783619I48514J0D01*
G03X610623Y-4783619I-48514J0D01*
G37*
G36*
G01X687925Y-192621D02*
G03X784953Y-192621I48514J0D01*
G03X687925Y-192621I-48514J0D01*
G37*
G36*
G01X703067Y-569007D02*
G03X800095Y-569007I48514J0D01*
G03X703067Y-569007I-48514J0D01*
G37*
G36*
G01X756735Y-954291D02*
G03X779357Y-862860I0J48514D01*
G03X756735Y-771429I-22622J42917D01*
G03X734113Y-862860I0J-48514D01*
G03X756735Y-954291I22622J-42917D01*
G37*
G36*
G01X756735Y-3024175D02*
G03X779357Y-2932744I0J48514D01*
G03X756735Y-2841314I-22622J42917D01*
G03X734113Y-2932744I0J-48514D01*
G03X756735Y-3024175I22622J-42917D01*
G37*
G36*
G01X709705Y-2195711D02*
G03X806733Y-2195711I48514J0D01*
G03X709705Y-2195711I-48514J0D01*
G37*
G36*
G01X709705Y-2017911D02*
G03X806733Y-2017911I48514J0D01*
G03X709705Y-2017911I-48514J0D01*
G37*
G36*
G01X722808Y-5973488D02*
G03X954116Y-5973488I115654J0D01*
G03X722808Y-5973488I-115654J0D01*
G37*
G36*
G01X722808Y-5719488D02*
G03X954116Y-5719488I115654J0D01*
G03X722808Y-5719488I-115654J0D01*
G37*
G36*
G01X776530Y-4790281D02*
G03X799152Y-4698850I0J48514D01*
G03X776530Y-4607419I-22622J42917D01*
G03X753908Y-4698850I0J-48514D01*
G03X776530Y-4790281I22622J-42917D01*
G37*
G36*
G01X754379Y-1682139D02*
G03X851407Y-1682139I48514J0D01*
G03X754379Y-1682139I-48514J0D01*
G37*
G36*
G01X754379Y-3752023D02*
G03X851407Y-3752023I48514J0D01*
G03X754379Y-3752023I-48514J0D01*
G37*
G36*
G01X755247Y-1372494D02*
G03X852275Y-1372494I48514J0D01*
G03X755247Y-1372494I-48514J0D01*
G37*
G36*
G01X755247Y-3442379D02*
G03X852275Y-3442379I48514J0D01*
G03X755247Y-3442379I-48514J0D01*
G37*
G36*
G01X865725Y-192621D02*
G03X962753Y-192621I48514J0D01*
G03X865725Y-192621I-48514J0D01*
G37*
G36*
G01X880867Y-569007D02*
G03X977895Y-569007I48514J0D01*
G03X880867Y-569007I-48514J0D01*
G37*
G36*
G01X887505Y-2195711D02*
G03X984533Y-2195711I48514J0D01*
G03X887505Y-2195711I-48514J0D01*
G37*
G36*
G01X887505Y-2017911D02*
G03X984533Y-2017911I48514J0D01*
G03X887505Y-2017911I-48514J0D01*
G37*
G36*
G01X937309Y553694D02*
G03X1049577Y553694I56134J0D01*
G03X937309Y553694I-56134J0D01*
G37*
G36*
G01X937309Y288036D02*
G03X1049577Y288036I56134J0D01*
G03X937309Y288036I-56134J0D01*
G37*
G36*
G01X1030149Y-4172379D02*
G03X1127177Y-4172379I48514J0D01*
G03X1030149Y-4172379I-48514J0D01*
G37*
G36*
G01X1184594Y-541120D02*
G03X1184594Y-249812I0J145654D01*
G03X1184594Y-541120I0J-145654D01*
G37*
G36*
G01X1184594Y-1417312D02*
G03X1184594Y-1126004I0J145654D01*
G03X1184594Y-1417312I0J-145654D01*
G37*
G36*
G01X1184594Y-2611004D02*
G03X1184594Y-2319696I0J145654D01*
G03X1184594Y-2611004I0J-145654D01*
G37*
G36*
G01X1184594Y-1798312D02*
G03X1184594Y-1507004I0J145654D01*
G03X1184594Y-1798312I0J-145654D01*
G37*
G36*
G01X1184594Y-922120D02*
G03X1184594Y-630812I0J145654D01*
G03X1184594Y-922120I0J-145654D01*
G37*
G36*
G01X1184594Y-3487196D02*
G03X1184594Y-3195889I0J145654D01*
G03X1184594Y-3487196I0J-145654D01*
G37*
G36*
G01X1184594Y-3868196D02*
G03X1184594Y-3576889I0J145654D01*
G03X1184594Y-3868196I0J-145654D01*
G37*
G36*
G01X1184594Y-5061889D02*
G03X1184594Y-4770581I0J145654D01*
G03X1184594Y-5061889I0J-145654D01*
G37*
G36*
G01X1184594Y-4680889D02*
G03X1184594Y-4389581I0J145654D01*
G03X1184594Y-4680889I0J-145654D01*
G37*
G36*
G01X1184594Y-2992004D02*
G03X1184594Y-2700696I0J145654D01*
G03X1184594Y-2992004I0J-145654D01*
G37*
G36*
G01X1047153Y-5137385D02*
G03X1144181Y-5137385I48514J0D01*
G03X1047153Y-5137385I-48514J0D01*
G37*
G36*
G01X1052239Y-6098690D02*
G03X1149267Y-6098690I48514J0D01*
G03X1052239Y-6098690I-48514J0D01*
G37*
G36*
G01X1125157Y100188D02*
G03X1237425Y100188I56134J0D01*
G03X1125157Y100188I-56134J0D01*
G37*
G36*
G01X1150868Y-5815657D02*
G03X1247896Y-5815657I48514J0D01*
G03X1150868Y-5815657I-48514J0D01*
G37*
G36*
G01X1150868Y-5460057D02*
G03X1247896Y-5460057I48514J0D01*
G03X1150868Y-5460057I-48514J0D01*
G37*
G36*
G01X1150868Y-5282257D02*
G03X1247896Y-5282257I48514J0D01*
G03X1150868Y-5282257I-48514J0D01*
G37*
G36*
G01X1150868Y-5993457D02*
G03X1247896Y-5993457I48514J0D01*
G03X1150868Y-5993457I-48514J0D01*
G37*
G36*
G01X1150868Y-5637857D02*
G03X1247896Y-5637857I48514J0D01*
G03X1150868Y-5637857I-48514J0D01*
G37*
G36*
G01X1207949Y-4172379D02*
G03X1304977Y-4172379I48514J0D01*
G03X1207949Y-4172379I-48514J0D01*
G37*
G36*
G01X1253270Y-2151804D02*
G03X1350298Y-2151804I48514J0D01*
G03X1253270Y-2151804I-48514J0D01*
G37*
G36*
G01X1253270Y-1974004D02*
G03X1350298Y-1974004I48514J0D01*
G03X1253270Y-1974004I-48514J0D01*
G37*
G36*
G01X1255650Y407483D02*
G03X1906906Y407483I325628J0D01*
G03X1255650Y407483I-325628J0D01*
G37*
G36*
G01X1255650Y-5792517D02*
G03X1906906Y-5792517I325628J0D01*
G03X1255650Y-5792517I-325628J0D01*
G37*
G36*
G01X1385749Y-4172379D02*
G03X1482777Y-4172379I48514J0D01*
G03X1385749Y-4172379I-48514J0D01*
G37*
G36*
G01X1388607Y-4567603D02*
G03X1485635Y-4567603I48514J0D01*
G03X1388607Y-4567603I-48514J0D01*
G37*
G36*
G01X1388607Y-5278803D02*
G03X1485635Y-5278803I48514J0D01*
G03X1388607Y-5278803I-48514J0D01*
G37*
G36*
G01X1388607Y-4745403D02*
G03X1485635Y-4745403I48514J0D01*
G03X1388607Y-4745403I-48514J0D01*
G37*
G36*
G01X1388607Y-5101003D02*
G03X1485635Y-5101003I48514J0D01*
G03X1388607Y-5101003I-48514J0D01*
G37*
G36*
G01X1388607Y-4923203D02*
G03X1485635Y-4923203I48514J0D01*
G03X1388607Y-4923203I-48514J0D01*
G37*
G36*
G01X1389292Y-5409403D02*
G03X1486320Y-5409403I48514J0D01*
G03X1389292Y-5409403I-48514J0D01*
G37*
G36*
G01X1421666Y-319266D02*
G03X1518694Y-319266I48514J0D01*
G03X1421666Y-319266I-48514J0D01*
G37*
G36*
G01X1421666Y-674866D02*
G03X1518694Y-674866I48514J0D01*
G03X1421666Y-674866I-48514J0D01*
G37*
G36*
G01X1421666Y-497066D02*
G03X1518694Y-497066I48514J0D01*
G03X1421666Y-497066I-48514J0D01*
G37*
G36*
G01X1421666Y-852666D02*
G03X1518694Y-852666I48514J0D01*
G03X1421666Y-852666I-48514J0D01*
G37*
G36*
G01X1425643Y-3443142D02*
G03X1522671Y-3443142I48514J0D01*
G03X1425643Y-3443142I-48514J0D01*
G37*
G36*
G01X1425643Y-3265342D02*
G03X1522671Y-3265342I48514J0D01*
G03X1425643Y-3265342I-48514J0D01*
G37*
G36*
G01X1425643Y-3798742D02*
G03X1522671Y-3798742I48514J0D01*
G03X1425643Y-3798742I-48514J0D01*
G37*
G36*
G01X1425643Y-3620942D02*
G03X1522671Y-3620942I48514J0D01*
G03X1425643Y-3620942I-48514J0D01*
G37*
G36*
G01X1431070Y-2151804D02*
G03X1528098Y-2151804I48514J0D01*
G03X1431070Y-2151804I-48514J0D01*
G37*
G36*
G01X1431070Y-1974004D02*
G03X1528098Y-1974004I48514J0D01*
G03X1431070Y-1974004I-48514J0D01*
G37*
G36*
G01X1438368Y-2566950D02*
G03X1535396Y-2566950I48514J0D01*
G03X1438368Y-2566950I-48514J0D01*
G37*
G36*
G01X1438368Y-2389150D02*
G03X1535396Y-2389150I48514J0D01*
G03X1438368Y-2389150I-48514J0D01*
G37*
G36*
G01X1438368Y-2922550D02*
G03X1535396Y-2922550I48514J0D01*
G03X1438368Y-2922550I-48514J0D01*
G37*
G36*
G01X1438368Y-2744750D02*
G03X1535396Y-2744750I48514J0D01*
G03X1438368Y-2744750I-48514J0D01*
G37*
G36*
G01X1444995Y-1195458D02*
G03X1542023Y-1195458I48514J0D01*
G03X1444995Y-1195458I-48514J0D01*
G37*
G36*
G01X1444995Y-1551058D02*
G03X1542023Y-1551058I48514J0D01*
G03X1444995Y-1551058I-48514J0D01*
G37*
G36*
G01X1444995Y-1728858D02*
G03X1542023Y-1728858I48514J0D01*
G03X1444995Y-1728858I-48514J0D01*
G37*
G36*
G01X1444995Y-1373258D02*
G03X1542023Y-1373258I48514J0D01*
G03X1444995Y-1373258I-48514J0D01*
G37*
G36*
G01X1686435Y-5996D02*
G03X1607255Y-61609I-37516J-30760D01*
G03X1537201Y-128354I-32537J-35985D01*
G03X1616382Y-72741I37516J30760D01*
G03X1686435Y-5996I32537J35985D01*
G37*
G36*
G01X1686735Y-3987127D02*
G03X1605937Y-4040016I-37816J-30390D01*
G03X1536901Y-4107540I-31220J-37134D01*
G03X1617699Y-4054652I37816J30390D01*
G03X1686735Y-3987127I31220J37134D01*
G37*
G36*
G01X1563549Y-4172379D02*
G03X1660577Y-4172379I48514J0D01*
G03X1563549Y-4172379I-48514J0D01*
G37*
G36*
G01X1566407Y-4567603D02*
G03X1663435Y-4567603I48514J0D01*
G03X1566407Y-4567603I-48514J0D01*
G37*
G36*
G01X1566407Y-5278803D02*
G03X1663435Y-5278803I48514J0D01*
G03X1566407Y-5278803I-48514J0D01*
G37*
G36*
G01X1566407Y-4745403D02*
G03X1663435Y-4745403I48514J0D01*
G03X1566407Y-4745403I-48514J0D01*
G37*
G36*
G01X1566407Y-4923203D02*
G03X1663435Y-4923203I48514J0D01*
G03X1566407Y-4923203I-48514J0D01*
G37*
G36*
G01X1566407Y-5101003D02*
G03X1663435Y-5101003I48514J0D01*
G03X1566407Y-5101003I-48514J0D01*
G37*
G36*
G01X1567092Y-5409403D02*
G03X1664120Y-5409403I48514J0D01*
G03X1567092Y-5409403I-48514J0D01*
G37*
G36*
G01X1714076Y-3443142D02*
G03X1811104Y-3443142I48514J0D01*
G03X1714076Y-3443142I-48514J0D01*
G37*
G36*
G01X1714076Y-3265342D02*
G03X1811104Y-3265342I48514J0D01*
G03X1714076Y-3265342I-48514J0D01*
G37*
G36*
G01X1714076Y-3798742D02*
G03X1811104Y-3798742I48514J0D01*
G03X1714076Y-3798742I-48514J0D01*
G37*
G36*
G01X1714076Y-3620942D02*
G03X1811104Y-3620942I48514J0D01*
G03X1714076Y-3620942I-48514J0D01*
G37*
G36*
G01X1722559Y-2566950D02*
G03X1819587Y-2566950I48514J0D01*
G03X1722559Y-2566950I-48514J0D01*
G37*
G36*
G01X1722559Y-2389150D02*
G03X1819587Y-2389150I48514J0D01*
G03X1722559Y-2389150I-48514J0D01*
G37*
G36*
G01X1722559Y-2922550D02*
G03X1819587Y-2922550I48514J0D01*
G03X1722559Y-2922550I-48514J0D01*
G37*
G36*
G01X1722559Y-2744750D02*
G03X1819587Y-2744750I48514J0D01*
G03X1722559Y-2744750I-48514J0D01*
G37*
G36*
G01X1727066Y-319266D02*
G03X1824094Y-319266I48514J0D01*
G03X1727066Y-319266I-48514J0D01*
G37*
G36*
G01X1727066Y-674866D02*
G03X1824094Y-674866I48514J0D01*
G03X1727066Y-674866I-48514J0D01*
G37*
G36*
G01X1727066Y-497066D02*
G03X1824094Y-497066I48514J0D01*
G03X1727066Y-497066I-48514J0D01*
G37*
G36*
G01X1727066Y-852666D02*
G03X1824094Y-852666I48514J0D01*
G03X1727066Y-852666I-48514J0D01*
G37*
G36*
G01X1733428Y-1195458D02*
G03X1830456Y-1195458I48514J0D01*
G03X1733428Y-1195458I-48514J0D01*
G37*
G36*
G01X1733428Y-1551058D02*
G03X1830456Y-1551058I48514J0D01*
G03X1733428Y-1551058I-48514J0D01*
G37*
G36*
G01X1733428Y-1728858D02*
G03X1830456Y-1728858I48514J0D01*
G03X1733428Y-1728858I-48514J0D01*
G37*
G36*
G01X1733428Y-1373258D02*
G03X1830456Y-1373258I48514J0D01*
G03X1733428Y-1373258I-48514J0D01*
G37*
G36*
G01X1735494Y-1974004D02*
G03X1832522Y-1974004I48514J0D01*
G03X1735494Y-1974004I-48514J0D01*
G37*
G36*
G01X1735494Y-2151804D02*
G03X1832522Y-2151804I48514J0D01*
G03X1735494Y-2151804I-48514J0D01*
G37*
G36*
G01X1741349Y-4172379D02*
G03X1838377Y-4172379I48514J0D01*
G03X1741349Y-4172379I-48514J0D01*
G37*
G36*
G01X1744207Y-4567603D02*
G03X1841235Y-4567603I48514J0D01*
G03X1744207Y-4567603I-48514J0D01*
G37*
G36*
G01X1744207Y-5278803D02*
G03X1841235Y-5278803I48514J0D01*
G03X1744207Y-5278803I-48514J0D01*
G37*
G36*
G01X1744207Y-4745403D02*
G03X1841235Y-4745403I48514J0D01*
G03X1744207Y-4745403I-48514J0D01*
G37*
G36*
G01X1744207Y-4923203D02*
G03X1841235Y-4923203I48514J0D01*
G03X1744207Y-4923203I-48514J0D01*
G37*
G36*
G01X1744207Y-5101003D02*
G03X1841235Y-5101003I48514J0D01*
G03X1744207Y-5101003I-48514J0D01*
G37*
G36*
G01X1744892Y-5409403D02*
G03X1841920Y-5409403I48514J0D01*
G03X1744892Y-5409403I-48514J0D01*
G37*
%LPD*%
G36*
G01X838462Y-5732188D02*
G02X838462Y-5706788I0J12700D01*
G01X954116Y-5706788D01*
G02X954116Y-5732188I0J-12700D01*
G01X838462Y-5732188D01*
G37*
G36*
G01X838462Y-5986188D02*
G02X838462Y-5960788I0J12700D01*
G01X954116Y-5960788D01*
G02X954116Y-5986188I0J-12700D01*
G01X838462Y-5986188D01*
G37*
G36*
G01X-5119192Y-5986188D02*
G02X-5119192Y-5960788I0J12700D01*
G01X-5003538Y-5960788D01*
G02X-5003538Y-5986188I0J-12700D01*
G01X-5119192Y-5986188D01*
G37*
G36*
G01X-5119192Y-5732188D02*
G02X-5119192Y-5706788I0J12700D01*
G01X-5003538Y-5706788D01*
G02X-5003538Y-5732188I0J-12700D01*
G01X-5119192Y-5732188D01*
G37*
G36*
G01X-6745497Y-5094874D02*
G02X-6745497Y-5069474I0J12700D01*
G01X-6629843Y-5069474D01*
G02X-6629843Y-5094874I0J-12700D01*
G01X-6745497Y-5094874D01*
G37*
G36*
G01X-6629843Y-5094874D02*
G02X-6629843Y-5069474I0J12700D01*
G01X-6514189Y-5069474D01*
G02X-6514189Y-5094874I0J-12700D01*
G01X-6629843Y-5094874D01*
G37*
G36*
G01X-5003538Y-5986188D02*
G02X-5003538Y-5960788I0J12700D01*
G01X-4887884Y-5960788D01*
G02X-4887884Y-5986188I0J-12700D01*
G01X-5003538Y-5986188D01*
G37*
G36*
G01X-5003538Y-5732188D02*
G02X-5003538Y-5706788I0J12700D01*
G01X-4887884Y-5706788D01*
G02X-4887884Y-5732188I0J-12700D01*
G01X-5003538Y-5732188D01*
G37*
G36*
G01X722808Y-5732188D02*
G02X722808Y-5706788I0J12700D01*
G01X838462Y-5706788D01*
G02X838462Y-5732188I0J-12700D01*
G01X722808Y-5732188D01*
G37*
G36*
G01X722808Y-5986188D02*
G02X722808Y-5960788I0J12700D01*
G01X838462Y-5960788D01*
G02X838462Y-5986188I0J-12700D01*
G01X722808Y-5986188D01*
G37*
G36*
G01X-6001367Y314910D02*
G02X-6001367Y340310I0J12700D01*
G01X-5890713Y340310D01*
G02X-5890713Y314910I0J-12700D01*
G01X-6001367Y314910D01*
G37*
G36*
G01X-6001367Y568910D02*
G02X-6001367Y594310I0J12700D01*
G01X-5890713Y594310D01*
G02X-5890713Y568910I0J-12700D01*
G01X-6001367Y568910D01*
G37*
G36*
G01X-6112021Y314910D02*
G02X-6112021Y340310I0J12700D01*
G01X-6001367Y340310D01*
G02X-6001367Y314910I0J-12700D01*
G01X-6112021Y314910D01*
G37*
G36*
G01X-6112021Y568910D02*
G02X-6112021Y594310I0J12700D01*
G01X-6001367Y594310D01*
G02X-6001367Y568910I0J-12700D01*
G01X-6112021Y568910D01*
G37*
G36*
G01X-1654405Y65204D02*
G02X-1654405Y90604I0J12700D01*
G01X-1548752Y90604D01*
G02X-1548752Y65204I0J-12700D01*
G01X-1654405Y65204D01*
G37*
G36*
G01X-1548752Y65204D02*
G02X-1548752Y90604I0J12700D01*
G01X-1443098Y90604D01*
G02X-1443098Y65204I0J-12700D01*
G01X-1548752Y65204D01*
G37*
G36*
G01X-6642543Y-5082174D02*
G02X-6617143Y-5082174I12700J0D01*
G01X-6617143Y-5197828D01*
G02X-6642543Y-5197828I-12700J0D01*
G01X-6642543Y-5082174D01*
G37*
G36*
G01X-4990838Y-5719488D02*
G02X-5016238Y-5719488I-12700J0D01*
G01X-5016238Y-5603834D01*
G02X-4990838Y-5603834I12700J0D01*
G01X-4990838Y-5719488D01*
G37*
G36*
G01X851162Y-5719488D02*
G02X825762Y-5719488I-12700J0D01*
G01X825762Y-5603834D01*
G02X851162Y-5603834I12700J0D01*
G01X851162Y-5719488D01*
G37*
G36*
G01X-6617143Y-5082174D02*
G02X-6642543Y-5082174I-12700J0D01*
G01X-6642543Y-4966520D01*
G02X-6617143Y-4966520I12700J0D01*
G01X-6617143Y-5082174D01*
G37*
G36*
G01X-4990838Y-5973488D02*
G02X-5016238Y-5973488I-12700J0D01*
G01X-5016238Y-5857834D01*
G02X-4990838Y-5857834I12700J0D01*
G01X-4990838Y-5973488D01*
G37*
G36*
G01X-5016238Y-5973488D02*
G02X-4990838Y-5973488I12700J0D01*
G01X-4990838Y-6089141D01*
G02X-5016238Y-6089141I-12700J0D01*
G01X-5016238Y-5973488D01*
G37*
G36*
G01X-5016238Y-5719488D02*
G02X-4990838Y-5719488I12700J0D01*
G01X-4990838Y-5835141D01*
G02X-5016238Y-5835141I-12700J0D01*
G01X-5016238Y-5719488D01*
G37*
G36*
G01X825762Y-5719488D02*
G02X851162Y-5719488I12700J0D01*
G01X851162Y-5835141D01*
G02X825762Y-5835141I-12700J0D01*
G01X825762Y-5719488D01*
G37*
G36*
G01X851162Y-5973488D02*
G02X825762Y-5973488I-12700J0D01*
G01X825762Y-5857834D01*
G02X851162Y-5857834I12700J0D01*
G01X851162Y-5973488D01*
G37*
G36*
G01X825762Y-5973488D02*
G02X851162Y-5973488I12700J0D01*
G01X851162Y-6089141D01*
G02X825762Y-6089141I-12700J0D01*
G01X825762Y-5973488D01*
G37*
G36*
G01X-5988667Y327610D02*
G02X-6014067Y327610I-12700J0D01*
G01X-6014067Y438264D01*
G02X-5988667Y438264I12700J0D01*
G01X-5988667Y327610D01*
G37*
G36*
G01X-5988667Y581610D02*
G02X-6014067Y581610I-12700J0D01*
G01X-6014067Y692264D01*
G02X-5988667Y692264I12700J0D01*
G01X-5988667Y581610D01*
G37*
G36*
G01X-6014067Y581610D02*
G02X-5988667Y581610I12700J0D01*
G01X-5988667Y470956D01*
G02X-6014067Y470956I-12700J0D01*
G01X-6014067Y581610D01*
G37*
G36*
G01X-6014067Y327610D02*
G02X-5988667Y327610I12700J0D01*
G01X-5988667Y216956D01*
G02X-6014067Y216956I-12700J0D01*
G01X-6014067Y327610D01*
G37*
G36*
G01X-1536052Y77904D02*
G02X-1561452Y77904I-12700J0D01*
G01X-1561452Y183558D01*
G02X-1536052Y183558I12700J0D01*
G01X-1536052Y77904D01*
G37*
G36*
G01X-1561452Y77904D02*
G02X-1536052Y77904I12700J0D01*
G01X-1536052Y-27750D01*
G02X-1561452Y-27750I-12700J0D01*
G01X-1561452Y77904D01*
G37*
G04 PlaneZone End*

G04 Pad Start*
G54D10*
G01X1184594Y-3722542D03*
G01X1184594Y-3341542D03*
G01X1184594Y-2846350D03*
G01X1184594Y-2465350D03*
G01X1184594Y-776466D03*
G01X1184594Y-395466D03*
G01X1184594Y-1652658D03*
G01X1184594Y-1271658D03*
G01X1184594Y-4916235D03*
G01X1184594Y-4535235D03*
G54D11*
G01X-5867843Y-5082174D03*
G54D12*
G01X-6121843Y-5082174D03*
G01X-6375843Y-5082174D03*
G01X-6629843Y-5082174D03*
G01X-6883843Y-5082174D03*
G54D13*
G01X-7618722Y407483D03*
G54D14*
G01X-7618722Y642433D03*
G01X-7618722Y172533D03*
G01X-7383772Y407483D03*
G01X-7853672Y407483D03*
G01X-7453622Y572583D03*
G01X-7783822Y242383D03*
G01X-7453622Y242383D03*
G01X-7783822Y572583D03*
G54D13*
G01X-7618722Y-5792517D03*
G54D14*
G01X-7618722Y-5557567D03*
G01X-7618722Y-6027467D03*
G01X-7383772Y-5792517D03*
G01X-7853672Y-5792517D03*
G01X-7453622Y-5627417D03*
G01X-7783822Y-5957617D03*
G01X-7453622Y-5957617D03*
G01X-7783822Y-5627417D03*
G54D13*
G01X1581278Y-5792517D03*
G54D14*
G01X1581278Y-5557567D03*
G01X1581278Y-6027467D03*
G01X1816228Y-5792517D03*
G01X1346328Y-5792517D03*
G01X1746378Y-5627417D03*
G01X1416178Y-5957617D03*
G01X1746378Y-5957617D03*
G01X1416178Y-5627417D03*
G54D15*
G01X-7330735Y-1697920D03*
G01X-7330735Y-2562917D03*
G54D17*
G01X-7750749Y-1697920D03*
G01X-7750749Y-2562917D03*
G54D18*
G01X-6763367Y327610D03*
G54D19*
G01X-6763367Y581610D03*
G01X-6509367Y327610D03*
G01X-6509367Y581610D03*
G01X-6255367Y327610D03*
G01X-6255367Y581610D03*
G01X-6001367Y327610D03*
G01X-6001367Y581610D03*
G54D17*
G01X-7742632Y-330468D03*
G01X-7742632Y-1194475D03*
G54D20*
G01X-7324624Y-1194475D03*
G01X-7324624Y-330468D03*
G54D12*
G01X838462Y-5719488D03*
G01X838462Y-5973488D03*
G01X584462Y-5719488D03*
G01X584462Y-5973488D03*
G01X330462Y-5719488D03*
G01X330462Y-5973488D03*
G01X76462Y-5719488D03*
G01X76462Y-5973488D03*
G01X-177538Y-5719488D03*
G01X-177538Y-5973488D03*
G01X-431538Y-5719488D03*
G01X-431538Y-5973488D03*
G01X-685538Y-5719488D03*
G01X-685538Y-5973488D03*
G01X-939538Y-5719488D03*
G01X-939538Y-5973488D03*
G01X-1193538Y-5719488D03*
G01X-1193538Y-5973488D03*
G01X-1447538Y-5719488D03*
G01X-1447538Y-5973488D03*
G01X-1701538Y-5719488D03*
G01X-1701538Y-5973488D03*
G01X-1955538Y-5719488D03*
G01X-1955538Y-5973488D03*
G01X-2209538Y-5719488D03*
G01X-2209538Y-5973488D03*
G01X-2463538Y-5719488D03*
G01X-2463538Y-5973488D03*
G01X-2717538Y-5719488D03*
G01X-2717538Y-5973488D03*
G01X-2971538Y-5719488D03*
G01X-2971538Y-5973488D03*
G01X-3225538Y-5719488D03*
G01X-3225538Y-5973488D03*
G01X-3479538Y-5719488D03*
G01X-3479538Y-5973488D03*
G01X-3733538Y-5719488D03*
G01X-3733538Y-5973488D03*
G01X-3987538Y-5719488D03*
G01X-3987538Y-5973488D03*
G01X-4241538Y-5719488D03*
G01X-4241538Y-5973488D03*
G01X-4495538Y-5719488D03*
G01X-4495538Y-5973488D03*
G01X-4749538Y-5719488D03*
G01X-4749538Y-5973488D03*
G01X-5003538Y-5719488D03*
G01X-5003538Y-5973488D03*
G01X-5257538Y-5719488D03*
G54D11*
G01X-5257538Y-5973488D03*
G54D13*
G01X1581278Y407483D03*
G54D14*
G01X1581278Y642433D03*
G01X1581278Y172533D03*
G01X1816228Y407483D03*
G01X1346328Y407483D03*
G01X1746378Y572583D03*
G01X1416178Y242383D03*
G01X1746378Y242383D03*
G01X1416178Y572583D03*
G54D21*
G01X-798740Y77904D03*
G54D22*
G01X-1048727Y77904D03*
G01X-1298739Y77904D03*
G01X-1548752Y77904D03*
G54D12*
G01X-1738693Y-4531967D03*
G01X-688708Y-4531967D03*
G04 Pad End*

G04 Via Start*
G54D23*
G01X-7553613Y-2053544D03*
G01X-7553615Y-2234915D03*
G01X-7540275Y-670716D03*
G01X-7540275Y-857086D03*
G01X-7665596Y-1057086D03*
G01X-7665596Y-470716D03*
G01X-7688980Y-1846045D03*
G01X-7688980Y-2434914D03*
G01X-7527237Y-2944166D03*
G01X-7107071Y-1890426D03*
G01X-7107071Y-2370435D03*
G01X-7132471Y-524274D03*
G01X-7132471Y-1003273D03*
G01X-7017318Y-1891105D03*
G01X-7017318Y-2371114D03*
G01X-6826682Y-3929112D03*
G01X-6135670Y-3705251D03*
G01X-6364235Y-4040024D03*
G01X-6135670Y-4040494D03*
G01X-6365626Y-3586201D03*
G01X-6827738Y-3667054D03*
G01X-6619110Y-3464745D03*
G01X-6818410Y-3463527D03*
G01X-6841134Y-4440238D03*
G01X-5555070Y-4873115D03*
G01X-7726157Y-3558884D03*
G01X-7636700Y-4349112D03*
G01X-7822399Y-4165318D03*
G01X-7317205Y-4279682D03*
G01X-7409204Y-4026975D03*
G01X-7631275Y-4990006D03*
G01X-7302558Y-4907386D03*
G01X-7808835Y-4775020D03*
G01X-7304692Y-4769645D03*
G01X-7304195Y-3865132D03*
G01X-6404570Y-4319641D03*
G01X-6404570Y-4402784D03*
G01X-6404570Y-4485927D03*
G01X-6404570Y-4569070D03*
G01X-6344722Y-4243939D03*
G01X-6261579Y-4243939D03*
G01X-6178436Y-4243939D03*
G01X-6344722Y-4637374D03*
G01X-6261579Y-4637374D03*
G01X-6178436Y-4637374D03*
G01X-5555070Y-5216229D03*
G01X-5125442Y-5042402D03*
G01X1100753Y-6098690D03*
G01X1095667Y-5137385D03*
G01X-280589Y-4768475D03*
G01X-280095Y-5006390D03*
G01X26259Y-5001106D03*
G01X233976Y-4893233D03*
G01X-130163Y-4636348D03*
G01X-44025Y-4502752D03*
G01X244041Y-4509348D03*
G01X658486Y-4613715D03*
G01X659137Y-4783619D03*
G01X776530Y-4655933D03*
G01X776530Y-4741767D03*
G01X-614255Y-2526378D03*
G01X-176697Y-2526378D03*
G01X-133146Y-2661501D03*
G01X638692Y-2847609D03*
G01X756735Y-2889828D03*
G01X756735Y-2975661D03*
G01X639343Y-3017514D03*
G01X-274039Y-3620161D03*
G01X803761Y-3442379D03*
G01X802893Y-3752023D03*
G01X594810Y-3294894D03*
G01X593428Y-3905256D03*
G01X-410799Y-2719101D03*
G01X-409841Y-3091759D03*
G01X328160Y-3529526D03*
G01X-27213Y-3172022D03*
G01X-29817Y-3099233D03*
G01X-108304Y-3097280D03*
G01X-108304Y-3172022D03*
G01X-185400Y-3172022D03*
G01X-185400Y-3097280D03*
G01X328160Y-3690674D03*
G01X328160Y-3308870D03*
G01X803761Y-1372494D03*
G01X802893Y-1682139D03*
G01X328160Y-1620789D03*
G01X328160Y-1238985D03*
G01X328160Y-1459641D03*
G01X-614255Y-456494D03*
G01X-410799Y-649217D03*
G01X-409841Y-1021875D03*
G01X-274039Y-1550277D03*
G01X-185400Y-1027395D03*
G01X-185400Y-1102138D03*
G01X-176697Y-456494D03*
G01X-133146Y-591617D03*
G01X-108304Y-1102138D03*
G01X-108304Y-1027395D03*
G01X-29817Y-1029348D03*
G01X-27213Y-1102138D03*
G01X638692Y-777725D03*
G01X639343Y-947629D03*
G01X756735Y-905777D03*
G01X756735Y-819943D03*
G01X593428Y-1835372D03*
G01X594810Y-1225010D03*
G01X-2590492Y-771855D03*
G01X-1963733Y-556277D03*
G01X-2790902Y-302770D03*
G01X-1904795Y-155180D03*
G01X-2762618Y441058D03*
G01X-1966879Y441058D03*
G01X-2514280Y626706D03*
G01X-2282850Y508702D03*
G01X-2435775Y302933D03*
G01X-1450291Y-789967D03*
G01X-1385564Y-854693D03*
G01X-1256111Y-984146D03*
G01X-1134848Y-1105409D03*
G01X-1613064Y-788558D03*
G01X-1137982Y-1197266D03*
G01X-1227177Y-1286460D03*
G01X-1307893Y-1362502D03*
G01X-1396786Y-1456070D03*
G01X-1636639Y-1537767D03*
G01X-1478483Y-1537767D03*
G01X-1748104Y-1635804D03*
G01X-1850639Y-1544104D03*
G01X-1825969Y-1346587D03*
G01X-1905132Y-1267424D03*
G01X-1905132Y-1077979D03*
G01X-1701745Y-874592D03*
G01X-1791658Y-964505D03*
G01X-1307753Y-2061894D03*
G01X-1205092Y-2166174D03*
G01X-1021770Y-2105198D03*
G01X-931830Y-2195138D03*
G01X-771071Y-2195138D03*
G01X-686777Y-2110844D03*
G01X-686777Y-2020702D03*
G01X-598538Y-1932462D03*
G01X-598538Y-1853734D03*
G01X-688552Y-1763720D03*
G01X-786831Y-1665441D03*
G01X-854274Y-1597999D03*
G01X-949910Y-1597999D03*
G01X-1043433Y-1691522D03*
G01X-1141218Y-1691522D03*
G01X-1224815Y-1784946D03*
G01X-1220569Y-1974710D03*
G01X-7156566Y-787481D03*
G01X-7362686Y-737905D03*
G01X-6797232Y-857111D03*
G01X-6801459Y-670065D03*
G01X-6498301Y-759861D03*
G01X-6498301Y-664865D03*
G01X-6498301Y-854857D03*
G01X-6214135Y-1622266D03*
G01X-6414919Y-1646242D03*
G01X-6737571Y-2301888D03*
G01X-6737571Y-2587071D03*
G01X-6193539Y-2335553D03*
G01X-6200842Y-2741510D03*
G01X-5953303Y-2113812D03*
G01X-5950484Y-2558707D03*
G01X-6750634Y-1876266D03*
G01X-6270143Y-1978961D03*
G01X-6192592Y-1978961D03*
G01X-6115041Y-1978961D03*
G01X-6115041Y-2039538D03*
G01X-6192592Y-2039538D03*
G01X-6270143Y-2039538D03*
G01X-5659005Y96208D03*
G01X-5659005Y12020D03*
G01X-5311450Y-684421D03*
G01X-5718830Y-704667D03*
G01X-5618329Y-162275D03*
G01X-5409849Y-162275D03*
G01X-5588056Y96208D03*
G01X-5588056Y12020D03*
G01X-5632576Y-880896D03*
G01X-5718885Y-504668D03*
G01X-5432577Y-881292D03*
G01X-5925542Y-806956D03*
G01X-6267456Y174145D03*
G01X-5971222Y-538651D03*
G01X-6384492Y447317D03*
G01X-3618723Y-435406D03*
G01X-5870602Y-464007D03*
G01X-3553641Y-387115D03*
G01X-5862938Y-389726D03*
G01X-3670533Y-2522167D03*
G01X-3533079Y-2509458D03*
G01X-2805739Y-2561239D03*
G01X-2757795Y-2515559D03*
G01X-2696208Y-2512545D03*
G01X-2632078Y-2512074D03*
G01X-2568532Y-2511018D03*
G01X-2459106Y-3204053D03*
G01X-2413426Y-3158373D03*
G01X-2367746Y-3112693D03*
G01X-1564531Y-2664424D03*
G01X-1566091Y-2739737D03*
G01X-1015693Y-3467325D03*
G01X-977560Y-3419895D03*
G01X-940959Y-3371195D03*
G01X-905569Y-3321609D03*
G01X-965298Y-3275929D03*
G01X-918293Y-3230249D03*
G01X-3488659Y-3600296D03*
G01X-4907110Y-3829015D03*
G01X-4786410Y-2054448D03*
G01X-4421447Y-2059671D03*
G01X-3567195Y-3608104D03*
G01X-4859702Y-3783335D03*
G01X-4740730Y-2139650D03*
G01X-4421447Y-2137038D03*
G01X-3101043Y-3424795D03*
G01X-5100167Y-3420918D03*
G01X-5188010Y-2349941D03*
G01X-5545192Y-2377820D03*
G01X-3829430Y-3728918D03*
G01X-5020436Y-3734250D03*
G01X-3815366Y-3644161D03*
G01X-4235428Y-3636326D03*
G01X-3810904Y-3568971D03*
G01X-4279367Y-3578837D03*
G01X-4062571Y-3373796D03*
G01X-5364701Y-3373796D03*
G01X-4062571Y-3309251D03*
G01X-5364701Y-3309251D03*
G01X-4062571Y-3246781D03*
G01X-5364701Y-3246248D03*
G01X-2239826Y-3609329D03*
G01X-4753458Y-3874696D03*
G01X-2178906Y-3610768D03*
G01X-4814378Y-3874696D03*
G01X-3283411Y-2836223D03*
G01X-4410709Y-3099117D03*
G01X-3337622Y-2804281D03*
G01X-4276541Y-3051823D03*
G01X-3386343Y-2766848D03*
G01X-4228228Y-3004163D03*
G01X-3488025Y-2715963D03*
G01X-4178524Y-2956684D03*
G01X-3851676Y-2201924D03*
G01X-3855006Y-2266965D03*
G01X-3585526Y-1891146D03*
G01X-5168572Y-1911410D03*
G01X-3473583Y-1879002D03*
G01X-4412965Y-1975034D03*
G01X-3477352Y-1714681D03*
G01X-5214252Y-1866035D03*
G01X-3409167Y-1718265D03*
G01X-5260727Y-1818521D03*
G01X-3350338Y-1647891D03*
G01X-5310812Y-1775488D03*
G01X-3316216Y-1595859D03*
G01X-5352266Y-1730787D03*
G01X-2741888Y-2271022D03*
G01X-4416512Y-2296330D03*
G01X-2515603Y-2464537D03*
G01X-4404181Y-2459097D03*
G01X-2959214Y-1323993D03*
G01X-5674917Y-1457829D03*
G01X-2892581Y-1321962D03*
G01X-5639294Y-1508360D03*
G01X-2359166Y-3252323D03*
G01X-5362278Y-3145751D03*
G01X-2047279Y-2423042D03*
G01X-2002098Y-2382068D03*
G01X-1960182Y-2337830D03*
G01X-1914510Y-2297348D03*
G01X-1870640Y-2255065D03*
G01X-1825828Y-2213723D03*
G01X-4269700Y-1845466D03*
G01X-4408148Y-1816755D03*
G01X-5404650Y-1652840D03*
G01X-5571825Y-1738785D03*
G01X-1703954Y-3067216D03*
G01X-3589979Y-2661738D03*
G01X-1666201Y-3018815D03*
G01X-3602179Y-2600818D03*
G01X-4285009Y-2310230D03*
G01X-4408332Y-2375617D03*
G01X-4239329Y-2538579D03*
G01X-5078772Y-2519832D03*
G01X-5356058Y-2582590D03*
G01X-5356058Y-2660937D03*
G01X-1603499Y-2971359D03*
G01X-4231698Y-2386122D03*
G01X-763446Y-4094012D03*
G01X-762884Y-4162309D03*
G01X-4964803Y-4163448D03*
G01X-4974597Y-2587144D03*
G01X-4570243Y-2588233D03*
G01X-5291905Y-4212961D03*
G01X-2465561Y-1443303D03*
G01X-2437981Y-1501877D03*
G01X291601Y507656D03*
G01X550143Y198633D03*
G01X-4397365Y-1655641D03*
G01X-3313617Y-803616D03*
G01X-3620037Y-803616D03*
G01X-3313525Y-953603D03*
G01X-3552137Y-953603D03*
G01X-3927513Y-908211D03*
G01X-3973193Y-853930D03*
G01X-2198724Y-1073700D03*
G01X-2155054Y-1117545D03*
G01X-752708Y-646967D03*
G01X-788179Y-697650D03*
G01X-1000917Y-4794509D03*
G01X-421717Y-4790436D03*
G01X-1040949Y-4840631D03*
G01X-428681Y-4856522D03*
G01X-3266486Y-4401126D03*
G01X-3312166Y-4446806D03*
G01X-559165Y-4373368D03*
G01X-515748Y-4419049D03*
G01X-4469228Y-4272924D03*
G01X-4303489Y-4399924D03*
G01X-652548Y-4306496D03*
G01X-839667Y-2495216D03*
G01X-1072337Y-2491892D03*
G01X-3548945Y-2707418D03*
G01X-4123505Y-2899025D03*
G01X-4549672Y-1789043D03*
G01X-1688413Y-1823565D03*
G01X-2880852Y-2468884D03*
G01X-2879808Y-2963562D03*
G01X-2438851Y-3701431D03*
G01X-2431019Y-3762351D03*
G01X-2436786Y-3823271D03*
G01X-2430811Y-3884192D03*
G01X-5094266Y-3955360D03*
G01X-4527448Y-4008933D03*
G01X-5188236Y-4057636D03*
G01X-5044172Y-4103316D03*
G01X-4821260Y-4921818D03*
G01X-5420342Y-3656332D03*
G01X-5543722Y-2616329D03*
G01X-5543722Y-1576326D03*
G01X-3070265Y-204972D03*
G01X-3304392Y-204972D03*
G01X-3193201Y-1367047D03*
G01X-4838518Y-1249566D03*
G01X-2790731Y-1210043D03*
G01X-4911703Y-1156466D03*
G01X-1308716Y-3964728D03*
G01X1648919Y-4017518D03*
G01X1648919Y-36756D03*
G01X-5053833Y-505726D03*
G01X-1363764Y-4121830D03*
G01X1574717Y-4077150D03*
G01X1574717Y-97594D03*
G01X-5057170Y-655758D03*
G01X-2417660Y-1156999D03*
G01X-3115946Y-1158206D03*
G01X-1128990Y-2371996D03*
G01X-482562Y-2371996D03*
G01X-1177843Y-2313397D03*
G01X-531509Y-2313397D03*
G01X-2706346Y-4952624D03*
G01X-2292249Y-4951276D03*
G01X-2193100Y-3512343D03*
G01X-1732173Y-4127587D03*
G01X-762821Y-5027357D03*
G01X-7118757Y-5109950D03*
G01X-1048658Y-5197252D03*
G01X-7063719Y-5074557D03*
G01X-2470846Y-3930091D03*
G01X-2469639Y-4127497D03*
G01X-2488948Y-5286608D03*
G01X-3169553Y-5251245D03*
G01X-2400901Y-5244151D03*
G01X-4124470Y-2785472D03*
G01X-5853398Y-2896175D03*
G01X-4094610Y-2841766D03*
G01X-5893839Y-2941888D03*
G01X-2135298Y-1355765D03*
G01X-3234658Y-5159395D03*
G01X-5383825Y-5159395D03*
G01X-3233425Y-5228890D03*
G01X-5429911Y-5228890D03*
G01X-3433677Y-2309124D03*
G01X-3699320Y-2043061D03*
G01X-3691741Y-116644D03*
G01X-327817Y673140D03*
G01X-4013649Y-2391263D03*
G01X-4139908Y-2576459D03*
G01X-3689685Y-2585347D03*
G01X-2877677Y-4120683D03*
G01X-2648993Y-4143941D03*
G01X-2050053Y115318D03*
G01X-1962899Y115318D03*
G01X-1962899Y37228D03*
G01X-2050053Y37228D03*
G01X-2713107Y-304653D03*
G01X-2856356Y-246938D03*
G01X-2637041Y-306542D03*
G01X-2859877Y-169340D03*
G01X-5196417Y-1103616D03*
G01X-999075Y-165932D03*
G01X-999075Y-537798D03*
G01X-1102041Y-165932D03*
G01X-1102041Y-537798D03*
G01X-1205008Y-537798D03*
G01X-1307975Y-537798D03*
G01X-1410942Y-537798D03*
G01X-990232Y-872294D03*
G01X-1093198Y-872294D03*
G01X-990232Y-748338D03*
G01X-1093198Y-748338D03*
G01X-1196166Y-748338D03*
G01X-2646333Y-1495743D03*
G01X-2566785Y-1234076D03*
G01X-1225563Y-2707292D03*
G01X-1584323Y-2584567D03*
G01X-1828171Y-2107646D03*
G01X-1550314Y-1874065D03*
G01X-1567317Y-2393319D03*
G01X-2020611Y-1466087D03*
G01X-2047676Y-1858307D03*
G01X-2380904Y-1583112D03*
G01X-3108175Y-2006962D03*
G01X-3050322Y-1885778D03*
G01X-2894871Y-2077858D03*
G01X-3820344Y-1945222D03*
G01X-3616692Y-2061089D03*
G01X-3787231Y-2150467D03*
G01X-4607754Y-3533541D03*
G01X-4668482Y-3671661D03*
G01X-4267794Y-3235749D03*
G01X-5666003Y-3256333D03*
G01X-5663920Y-3016328D03*
G01X-5146690Y-3015668D03*
G01X-5653986Y-2776324D03*
G01X-4623428Y-2797401D03*
G01X-4281172Y-2776324D03*
G01X-4612002Y-1655641D03*
G01X-4119506Y-1723013D03*
G01X-7091368Y-708512D03*
G01X-7018421Y-783608D03*
G01X-7024652Y-938713D03*
G01X-3060496Y-3481930D03*
G01X-2866935Y-3509490D03*
G01X-2659632Y-3509810D03*
G01X-3382223Y-3090221D03*
G01X-3167091Y-3014172D03*
G01X-3676250Y-3313425D03*
G01X-4033689Y-2839317D03*
G01X-2827543Y-4175982D03*
G01X-1485659Y-3434251D03*
G01X-1811464Y-3252323D03*
G01X-1266513Y-3675133D03*
G01X-1844958Y-3816503D03*
G01X-1634412Y-4062620D03*
G01X-2099888Y-3530408D03*
G54D24*
G01X-7258367Y741543D03*
G01X-6992709Y741543D03*
G01X-6727051Y741543D03*
G01X-6461393Y741543D03*
G01X-6195735Y741543D03*
G01X-5930078Y741543D03*
G01X-5664420Y741543D03*
G01X-5398762Y741543D03*
G01X-5398762Y539385D03*
G01X-5664420Y539385D03*
G01X-5398762Y337227D03*
G01X-5664420Y337227D03*
G01X-3019673Y741543D03*
G01X-3019673Y539385D03*
G01X-2754015Y741543D03*
G54D23*
G01X-1639426Y464955D03*
G01X-1463052Y464955D03*
G01X-1286678Y464955D03*
G01X-1465789Y306286D03*
G01X-1642163Y306286D03*
G01X-1289415Y306286D03*
G01X-1113041Y306286D03*
G01X-933930Y464955D03*
G01X-757556Y464955D03*
G01X-757556Y288581D03*
G01X-6959376Y-2895174D03*
G01X-6781576Y-2895174D03*
G01X-6603776Y-2895174D03*
G01X-6425976Y-2895174D03*
G01X-6959376Y-3072974D03*
G01X-6781576Y-3072974D03*
G01X-6603776Y-3072974D03*
G01X-6425976Y-3072974D03*
G01X-6959376Y-3250774D03*
G01X-6781576Y-3250774D03*
G01X-6603776Y-3250774D03*
G01X-6425976Y-3250774D03*
G01X-6280711Y-3134953D03*
G01X-6102911Y-3134953D03*
G01X-5925111Y-3134953D03*
G01X-6280711Y-3312753D03*
G01X-6102911Y-3312753D03*
G01X-5925111Y-3312753D03*
G01X1614921Y-4567603D03*
G01X1792721Y-4567603D03*
G01X1614921Y-4745403D03*
G01X1792721Y-4745403D03*
G01X1614921Y-4923203D03*
G01X1792721Y-4923203D03*
G01X-7803601Y-3312206D03*
G01X-7625801Y-3312206D03*
G01X-7448001Y-3312206D03*
G01X-7803601Y-3134406D03*
G01X-7625801Y-3134406D03*
G01X-7448001Y-3134406D03*
G01X-7761947Y-3926480D03*
G01X-7584147Y-3926480D03*
G01X-7406347Y-3926480D03*
G01X-7751342Y-4533273D03*
G01X-7573542Y-4533273D03*
G01X-7395742Y-4533273D03*
G01X-7751873Y-5187019D03*
G01X-7574073Y-5187019D03*
G01X-7396273Y-5187019D03*
G01X-6544892Y-4875522D03*
G01X-6722692Y-4875522D03*
G01X-6900492Y-4875522D03*
G01X-7069448Y-4248817D03*
G01X-7069448Y-4071017D03*
G01X-5439853Y-4349649D03*
G01X-5439853Y-4171849D03*
G01X-5439853Y-3994049D03*
G01X-5617653Y-4349649D03*
G01X-5617653Y-4171849D03*
G01X-5617653Y-3994049D03*
G01X-4605048Y-5049697D03*
G01X-4427248Y-5049697D03*
G01X-4249448Y-5049697D03*
G01X-4605048Y-4871897D03*
G01X-4427248Y-4871897D03*
G01X-4249448Y-4871897D03*
G01X-2687945Y-4734525D03*
G01X-2687945Y-4582125D03*
G01X-2865745Y-4886925D03*
G01X-2865745Y-4734525D03*
G01X-2865745Y-4582125D03*
G01X-3264953Y-4936412D03*
G01X-3264953Y-4758612D03*
G01X-3264953Y-4580812D03*
G01X-1502911Y-5074089D03*
G01X-1502911Y-4896289D03*
G01X-1502911Y-4718489D03*
G01X-1680711Y-5074089D03*
G01X-1680711Y-4896289D03*
G01X-1680711Y-4718489D03*
G01X-385770Y-4301575D03*
G01X-207970Y-4301575D03*
G01X-30170Y-4301575D03*
G01X-385770Y-4123775D03*
G01X-207970Y-4123775D03*
G01X-30170Y-4123775D03*
G01X228260Y-5113066D03*
G01X406060Y-5113066D03*
G01X583860Y-5113066D03*
G01X1078663Y-4172379D03*
G01X1256463Y-4172379D03*
G01X1434263Y-4172379D03*
G01X1437121Y-4567603D03*
G01X1437121Y-4745403D03*
G01X1437121Y-4923203D03*
G01X1612063Y-4172379D03*
G01X1789863Y-4172379D03*
G01X147630Y-4301575D03*
G01X325430Y-4301575D03*
G01X147630Y-4123775D03*
G01X325430Y-4123775D03*
G01X-130781Y-2195711D03*
G01X47019Y-2195711D03*
G01X224819Y-2195711D03*
G01X-130781Y-2017911D03*
G01X47019Y-2017911D03*
G01X224819Y-2017911D03*
G01X402619Y-2195711D03*
G01X580419Y-2195711D03*
G01X402619Y-2017911D03*
G01X580419Y-2017911D03*
G01X758219Y-2195711D03*
G01X936019Y-2195711D03*
G01X758219Y-2017911D03*
G01X936019Y-2017911D03*
G01X47019Y-2373511D03*
G01X47019Y-2551311D03*
G01X224819Y-2373511D03*
G01X224819Y-2551311D03*
G01X1474157Y-3620942D03*
G01X1474157Y-3443142D03*
G01X1474157Y-3265342D03*
G01X1474157Y-3798742D03*
G01X1762590Y-3620942D03*
G01X1762590Y-3443142D03*
G01X1762590Y-3265342D03*
G01X1762590Y-3798742D03*
G01X1486882Y-2744750D03*
G01X1486882Y-2566950D03*
G01X1486882Y-2389150D03*
G01X1486882Y-2922550D03*
G01X1771073Y-2744750D03*
G01X1771073Y-2566950D03*
G01X1771073Y-2389150D03*
G01X1771073Y-2922550D03*
G01X1493509Y-1551058D03*
G01X1493509Y-1373258D03*
G01X1493509Y-1195458D03*
G01X1493509Y-1728858D03*
G01X1781942Y-1551058D03*
G01X1781942Y-1373258D03*
G01X1781942Y-1195458D03*
G01X1781942Y-1728858D03*
G01X1470180Y-674866D03*
G01X1470180Y-497066D03*
G01X1470180Y-319266D03*
G01X1470180Y-852666D03*
G01X1775580Y-674866D03*
G01X1775580Y-497066D03*
G01X1775580Y-319266D03*
G01X1775580Y-852666D03*
G54D24*
G01X-7070518Y553694D03*
G01X-7070518Y288036D03*
G01X-7258367Y100188D03*
G01X-412657Y741543D03*
G01X-146999Y741543D03*
G01X118659Y741543D03*
G01X384317Y741543D03*
G01X649975Y741543D03*
G01X915633Y741543D03*
G01X1181291Y741543D03*
G01X993443Y553694D03*
G01X993443Y288036D03*
G01X1181291Y100188D03*
G54D23*
G01X1479584Y-2151804D03*
G01X1479584Y-1974004D03*
G01X1301784Y-2151804D03*
G01X1301784Y-1974004D03*
G01X1784008Y-2151804D03*
G01X1784008Y-1974004D03*
G01X-7087948Y-6092304D03*
G01X-7265748Y-6092304D03*
G01X-6898628Y-5654575D03*
G01X-6720828Y-5654575D03*
G01X-6543028Y-5654575D03*
G01X-6898628Y-5476775D03*
G01X-6720828Y-5476775D03*
G01X-6543028Y-5476775D03*
G01X-6245412Y-5658817D03*
G01X-6067612Y-5658817D03*
G01X-5889812Y-5658817D03*
G01X-6245412Y-5481017D03*
G01X-6067612Y-5481017D03*
G01X-5889812Y-5481017D03*
G01X-6898628Y-5832375D03*
G01X-6720828Y-5832375D03*
G01X-6543028Y-5832375D03*
G01X-6245412Y-5836617D03*
G01X-6067612Y-5836617D03*
G01X-5889812Y-5836617D03*
G01X-5534212Y-5481017D03*
G01X-5712012Y-5658817D03*
G01X-5534212Y-5658817D03*
G01X-5712012Y-5481017D03*
G01X-5712012Y-5836617D03*
G01X-5534212Y-5836617D03*
G01X-289364Y-5141907D03*
G01X-467164Y-5141907D03*
G01X-644964Y-5141907D03*
G01X-6291275Y-1356251D03*
G01X-6113475Y-1356251D03*
G01X-5935675Y-1356251D03*
G01X-6291275Y-1178451D03*
G01X-6113475Y-1178451D03*
G01X-5935675Y-1178451D03*
G01X-6911618Y-1435781D03*
G01X-6733818Y-1435781D03*
G01X-6556018Y-1435781D03*
G01X-6911618Y-1257981D03*
G01X-6733818Y-1257981D03*
G01X-6556018Y-1257981D03*
G01X-5653436Y-1159363D03*
G01X-5475636Y-1159363D03*
G01X-5297836Y-1159363D03*
G01X-6790790Y-289118D03*
G01X-6612990Y-289118D03*
G01X-6435190Y-289118D03*
G01X-6939597Y-216660D03*
G01X-6939597Y-38860D03*
G01X-6939597Y138940D03*
G01X183630Y-192463D03*
G01X5830Y-192463D03*
G01X183630Y-370263D03*
G01X5830Y-370263D03*
G01X183630Y-548063D03*
G01X5830Y-548063D03*
G01X-342967Y-194784D03*
G01X-165167Y-194784D03*
G01X-749426Y-461062D03*
G01X-749426Y-283262D03*
G01X561648Y-190458D03*
G01X383848Y-190458D03*
G01X736439Y-192621D03*
G01X914239Y-192621D03*
G01X373032Y-569007D03*
G01X550832Y-569007D03*
G01X751581Y-569007D03*
G01X929381Y-569007D03*
G01X-581182Y464955D03*
G01X-581182Y288581D03*
G01X-404808Y464955D03*
G01X-404808Y288581D03*
G01X-404808Y112207D03*
G01X-244599Y54979D03*
G01X-66799Y54979D03*
G01X104198Y57300D03*
G01X402968Y270899D03*
G01X400647Y441896D03*
G01X1614921Y-5278803D03*
G01X1614921Y-5101003D03*
G01X1792721Y-5101003D03*
G01X1792721Y-5278803D03*
G01X1437121Y-5278803D03*
G01X1437121Y-5101003D03*
G01X1199382Y-5460057D03*
G01X1199382Y-5282257D03*
G01X1199382Y-5637857D03*
G01X1615606Y-5409403D03*
G01X1437806Y-5409403D03*
G01X1793406Y-5409403D03*
G01X1199382Y-5815657D03*
G01X1199382Y-5993457D03*
G01X-4739886Y-1018086D03*
G01X-4739886Y-662486D03*
G01X-4739886Y-840286D03*
G01X-4562086Y-1018086D03*
G01X-4562086Y-840286D03*
G01X-4562086Y-662486D03*
G01X-4786604Y124685D03*
G01X-4431004Y124685D03*
G01X-4608804Y124685D03*
G01X-4786604Y-53115D03*
G01X-4608804Y-53115D03*
G01X-4431004Y-53115D03*
G01X-4075404Y124685D03*
G01X-4253204Y124685D03*
G01X-4253204Y-53115D03*
G01X-4075404Y-53115D03*
G01X-3719804Y124685D03*
G01X-3897604Y124685D03*
G01X-3897604Y-53115D03*
G01X-3542004Y124685D03*
G01X-4608804Y-230915D03*
G01X-4431004Y-230915D03*
G01X-4253204Y-230915D03*
G01X-4075404Y-230915D03*
G01X-3897604Y-230915D03*
G01X-4404239Y-1015171D03*
G01X-4226439Y-1015171D03*
G01X-4404239Y-837371D03*
G01X-4226439Y-837371D03*
G01X-3814031Y-765734D03*
G01X-3814031Y-587934D03*
G01X-3810786Y-964320D03*
G01X-3676428Y-4941557D03*
G01X-3676428Y-4763757D03*
G01X-3676428Y-4585957D03*
G01X-3791074Y-4762017D03*
G01X-3791074Y-4584217D03*
G01X-3791074Y-4406417D03*
G01X-3364936Y-4932905D03*
G01X-3364936Y-4755105D03*
G01X-3364936Y-4577305D03*
G01X-3791074Y-4939817D03*
G01X-4794889Y-5103370D03*
G01X-4972689Y-5103370D03*
G01X-5530990Y-4475849D03*
G01X-5353190Y-4475849D03*
G01X-5353190Y-4653649D03*
G01X-3666466Y-4101676D03*
G01X-3762229Y-4193593D03*
G01X-5218276Y-3912750D03*
G01X-5218276Y-3734950D03*
G01X-4619004Y-2450051D03*
G01X-4698320Y-2447167D03*
G01X-3170414Y-2660152D03*
G01X-2974529Y-2660152D03*
G01X-2974529Y-2825993D03*
G01X-2806885Y-2699886D03*
G01X-2806885Y-2865727D03*
G01X-2701612Y-2756128D03*
G01X-2701612Y-2921969D03*
G01X-6374151Y-394657D03*
G01X-6196351Y-394657D03*
G01X-6374151Y-572457D03*
G01X-6196351Y-572457D03*
G01X-6410925Y-1007037D03*
G01X-6233125Y-1007037D03*
G01X-6162164Y-717176D03*
G01X-5984364Y-717176D03*
G01X-5969644Y-924838D03*
G01X-5791844Y-924838D03*
G01X-2984401Y-971018D03*
G01X-2803717Y-971018D03*
G01X-2985843Y-1084943D03*
G01X-2808043Y-1084943D03*
G01X-2687330Y-1084943D03*
G01X-2509530Y-1084943D03*
G01X-2221774Y-775975D03*
G01X-2043974Y-775975D03*
G01X-2218890Y-647148D03*
G01X-2324002Y-938691D03*
G01X-2146202Y-938691D03*
G01X-2982347Y-749136D03*
G01X-301136Y-2195615D03*
G01X-132411Y-2375156D03*
G01X-314114Y-2370829D03*
G01X-449311Y-3809858D03*
G01X-449311Y-3941809D03*
G01X-306543Y-3939646D03*
G01X-7843673Y-924021D03*
G01X-7843673Y-568421D03*
G01X-7843673Y-746221D03*
G01X-7665873Y-924021D03*
G01X-7665873Y-746221D03*
G01X-7665873Y-568421D03*
G01X-7829728Y-2324654D03*
G01X-7829728Y-1969054D03*
G01X-7829728Y-2146854D03*
G01X-7690028Y-2324654D03*
G01X-7690028Y-2146854D03*
G01X-7690028Y-1969054D03*
G01X-2007734Y-2881421D03*
G01X-1829934Y-2881421D03*
G01X-1829934Y-2703621D03*
G01X-2007734Y-2703621D03*
G01X-1732651Y-2588042D03*
G01X-1910451Y-2588042D03*
G01X-1652134Y-2881421D03*
G01X-2765640Y-3154126D03*
G01X-2943440Y-3154126D03*
G01X-3121240Y-3154126D03*
G01X-2070865Y-3415516D03*
G01X-1945141Y-3289792D03*
G01X-3120708Y-3323596D03*
G01X-992619Y-2829203D03*
G01X-992619Y-3007003D03*
G01X-943078Y-2626080D03*
G01X-2865745Y-5064725D03*
G01X-2457598Y-3357333D03*
G01X-2283585Y-3517886D03*
G01X-3017833Y-3323783D03*
G01X-2095975Y-2519015D03*
G01X-2079191Y-2188815D03*
G01X-1983051Y-2238808D03*
G01X-1032231Y-4987477D03*
G01X-1032231Y-5083616D03*
G01X-3138168Y-4744705D03*
G01X-3138168Y-4859431D03*
G01X-3138168Y-4608186D03*
G01X-6237350Y-2439890D03*
G01X-6127110Y-2439890D03*
G01X-5991874Y-2439890D03*
G01X-4149311Y-2432605D03*
G01X-151489Y-3706481D03*
G01X-151489Y-3806700D03*
G01X-149687Y-1620186D03*
G01X-149687Y-1718249D03*
G01X-2719297Y-4494623D03*
G01X-2919296Y-4493982D03*
G01X-4836339Y-4513412D03*
G01X-4836339Y-4413412D03*
G01X-4736339Y-4413412D03*
G01X-4736339Y-4513412D03*
G04 Via End*

M02*

